<svg xmlns="http://www.w3.org/2000/svg" width="800" height="440" viewBox="0 0 800 440" role="img" aria-label="GER x CUW">
  <defs>
    <linearGradient id="sky" x1="0" y1="0" x2="0" y2="1">
      <stop offset="0" stop-color="#243244"/>
      <stop offset="0.5" stop-color="#16202D"/>
      <stop offset="1" stop-color="#0C141E"/>
    </linearGradient>
    <radialGradient id="lgl" cx="0.16" cy="0.0" r="0.7">
      <stop offset="0" stop-color="#111418" stop-opacity="0.7"/>
      <stop offset="1" stop-color="#111418" stop-opacity="0"/>
    </radialGradient>
    <radialGradient id="rgl" cx="0.86" cy="0.05" r="0.7">
      <stop offset="0" stop-color="#16409C" stop-opacity="0.62"/>
      <stop offset="1" stop-color="#16409C" stop-opacity="0"/>
    </radialGradient>
    <radialGradient id="spot" cx="0.5" cy="-0.1" r="0.55">
      <stop offset="0" stop-color="#FFFFFF" stop-opacity="0.18"/>
      <stop offset="1" stop-color="#FFFFFF" stop-opacity="0"/>
    </radialGradient>
    <linearGradient id="grass" x1="0" y1="0" x2="0" y2="1">
      <stop offset="0" stop-color="#13502F"/>
      <stop offset="1" stop-color="#0B3520"/>
    </linearGradient>
    <linearGradient id="fade" x1="0" y1="0" x2="0" y2="1">
      <stop offset="0.4" stop-color="#0C141E" stop-opacity="0"/>
      <stop offset="1" stop-color="#0A111A" stop-opacity="0.9"/>
    </linearGradient>
  </defs>
  <rect width="800" height="440" fill="url(#sky)"/>
  <rect width="800" height="440" fill="url(#spot)"/>
  <rect width="800" height="440" fill="url(#lgl)"/>
  <rect width="800" height="440" fill="url(#rgl)"/>
  <circle cx="756" cy="121" r="1.7" fill="#CBE3FF" opacity="0.15"/><circle cx="608" cy="149" r="1.8" fill="#CBE3FF" opacity="0.11"/><circle cx="572" cy="73" r="1.1" fill="#CBE3FF" opacity="0.16"/><circle cx="579" cy="42" r="1.1" fill="#CBE3FF" opacity="0.21"/><circle cx="542" cy="127" r="2.6" fill="#CBE3FF" opacity="0.07"/><circle cx="134" cy="119" r="2.7" fill="#CBE3FF" opacity="0.12"/><circle cx="321" cy="53" r="2.5" fill="#CBE3FF" opacity="0.09"/><circle cx="626" cy="122" r="1.6" fill="#CBE3FF" opacity="0.06"/><circle cx="509" cy="112" r="2.2" fill="#CBE3FF" opacity="0.09"/><circle cx="708" cy="23" r="1.9" fill="#CBE3FF" opacity="0.13"/><circle cx="763" cy="27" r="2.4" fill="#CBE3FF" opacity="0.11"/><circle cx="653" cy="44" r="1.3" fill="#CBE3FF" opacity="0.05"/><circle cx="480" cy="119" r="1.3" fill="#CBE3FF" opacity="0.20"/><circle cx="69" cy="83" r="1.8" fill="#CBE3FF" opacity="0.12"/><circle cx="126" cy="36" r="2.7" fill="#CBE3FF" opacity="0.18"/><circle cx="772" cy="94" r="1.2" fill="#CBE3FF" opacity="0.14"/><circle cx="391" cy="44" r="2.2" fill="#CBE3FF" opacity="0.16"/><circle cx="726" cy="143" r="2.8" fill="#CBE3FF" opacity="0.08"/><circle cx="56" cy="50" r="1.4" fill="#CBE3FF" opacity="0.21"/><circle cx="197" cy="47" r="2.0" fill="#CBE3FF" opacity="0.19"/><circle cx="558" cy="140" r="1.1" fill="#CBE3FF" opacity="0.10"/><circle cx="144" cy="99" r="1.1" fill="#CBE3FF" opacity="0.10"/><circle cx="70" cy="96" r="2.7" fill="#CBE3FF" opacity="0.11"/><circle cx="295" cy="34" r="2.4" fill="#CBE3FF" opacity="0.05"/><circle cx="554" cy="52" r="1.0" fill="#CBE3FF" opacity="0.07"/><circle cx="598" cy="73" r="2.7" fill="#CBE3FF" opacity="0.20"/><circle cx="364" cy="64" r="2.6" fill="#CBE3FF" opacity="0.14"/><circle cx="762" cy="70" r="2.7" fill="#CBE3FF" opacity="0.16"/><circle cx="471" cy="161" r="2.4" fill="#CBE3FF" opacity="0.11"/><circle cx="46" cy="26" r="1.5" fill="#CBE3FF" opacity="0.10"/><circle cx="163" cy="154" r="1.8" fill="#CBE3FF" opacity="0.12"/><circle cx="329" cy="109" r="1.7" fill="#CBE3FF" opacity="0.14"/><circle cx="722" cy="59" r="2.3" fill="#CBE3FF" opacity="0.06"/><circle cx="464" cy="65" r="2.1" fill="#CBE3FF" opacity="0.06"/><circle cx="573" cy="35" r="1.5" fill="#CBE3FF" opacity="0.07"/><circle cx="367" cy="20" r="2.1" fill="#CBE3FF" opacity="0.09"/><circle cx="590" cy="116" r="1.7" fill="#CBE3FF" opacity="0.17"/><circle cx="685" cy="17" r="2.1" fill="#CBE3FF" opacity="0.15"/><circle cx="429" cy="21" r="2.3" fill="#CBE3FF" opacity="0.10"/><circle cx="776" cy="50" r="2.0" fill="#CBE3FF" opacity="0.14"/><circle cx="75" cy="79" r="1.8" fill="#CBE3FF" opacity="0.12"/><circle cx="697" cy="87" r="2.0" fill="#CBE3FF" opacity="0.15"/><circle cx="445" cy="129" r="2.1" fill="#CBE3FF" opacity="0.06"/><circle cx="461" cy="57" r="2.2" fill="#CBE3FF" opacity="0.19"/><circle cx="164" cy="144" r="2.6" fill="#CBE3FF" opacity="0.05"/><circle cx="445" cy="112" r="1.2" fill="#CBE3FF" opacity="0.21"/><circle cx="178" cy="134" r="1.0" fill="#CBE3FF" opacity="0.20"/><circle cx="707" cy="133" r="1.1" fill="#CBE3FF" opacity="0.05"/><circle cx="161" cy="157" r="2.5" fill="#CBE3FF" opacity="0.13"/><circle cx="527" cy="102" r="1.8" fill="#CBE3FF" opacity="0.17"/><circle cx="56" cy="87" r="1.8" fill="#CBE3FF" opacity="0.14"/><circle cx="492" cy="141" r="2.6" fill="#CBE3FF" opacity="0.08"/><circle cx="613" cy="165" r="1.8" fill="#CBE3FF" opacity="0.19"/><circle cx="790" cy="80" r="1.6" fill="#CBE3FF" opacity="0.17"/><circle cx="663" cy="155" r="1.3" fill="#CBE3FF" opacity="0.18"/><circle cx="425" cy="160" r="2.3" fill="#CBE3FF" opacity="0.05"/><circle cx="225" cy="98" r="2.5" fill="#CBE3FF" opacity="0.18"/><circle cx="660" cy="43" r="1.9" fill="#CBE3FF" opacity="0.10"/><circle cx="142" cy="134" r="2.5" fill="#CBE3FF" opacity="0.08"/><circle cx="547" cy="99" r="1.9" fill="#CBE3FF" opacity="0.09"/><circle cx="418" cy="128" r="1.7" fill="#CBE3FF" opacity="0.17"/><circle cx="784" cy="157" r="2.8" fill="#CBE3FF" opacity="0.12"/><circle cx="179" cy="43" r="1.8" fill="#CBE3FF" opacity="0.18"/><circle cx="320" cy="146" r="1.8" fill="#CBE3FF" opacity="0.17"/><circle cx="390" cy="16" r="2.3" fill="#CBE3FF" opacity="0.18"/><circle cx="565" cy="78" r="1.5" fill="#CBE3FF" opacity="0.19"/><circle cx="478" cy="33" r="2.0" fill="#CBE3FF" opacity="0.20"/><circle cx="358" cy="67" r="1.2" fill="#CBE3FF" opacity="0.19"/><circle cx="140" cy="140" r="2.8" fill="#CBE3FF" opacity="0.09"/><circle cx="15" cy="77" r="2.0" fill="#CBE3FF" opacity="0.09"/><circle cx="77" cy="165" r="1.1" fill="#CBE3FF" opacity="0.17"/><circle cx="398" cy="84" r="1.1" fill="#CBE3FF" opacity="0.20"/><circle cx="333" cy="131" r="1.0" fill="#CBE3FF" opacity="0.19"/><circle cx="321" cy="87" r="1.7" fill="#CBE3FF" opacity="0.20"/><circle cx="206" cy="160" r="2.2" fill="#CBE3FF" opacity="0.07"/><circle cx="595" cy="116" r="1.4" fill="#CBE3FF" opacity="0.11"/><circle cx="242" cy="84" r="2.6" fill="#CBE3FF" opacity="0.08"/><circle cx="194" cy="145" r="1.9" fill="#CBE3FF" opacity="0.12"/><circle cx="188" cy="50" r="1.0" fill="#CBE3FF" opacity="0.16"/><circle cx="335" cy="145" r="1.5" fill="#CBE3FF" opacity="0.20"/><circle cx="563" cy="156" r="2.2" fill="#CBE3FF" opacity="0.07"/><circle cx="90" cy="123" r="2.2" fill="#CBE3FF" opacity="0.19"/><circle cx="728" cy="84" r="1.7" fill="#CBE3FF" opacity="0.18"/><circle cx="414" cy="82" r="1.6" fill="#CBE3FF" opacity="0.06"/><circle cx="593" cy="165" r="1.1" fill="#CBE3FF" opacity="0.16"/><circle cx="279" cy="47" r="2.3" fill="#CBE3FF" opacity="0.10"/><circle cx="120" cy="110" r="1.3" fill="#CBE3FF" opacity="0.14"/><circle cx="401" cy="93" r="2.5" fill="#CBE3FF" opacity="0.14"/><circle cx="212" cy="153" r="1.0" fill="#CBE3FF" opacity="0.12"/><circle cx="258" cy="86" r="2.2" fill="#CBE3FF" opacity="0.07"/><circle cx="682" cy="100" r="1.2" fill="#CBE3FF" opacity="0.05"/><circle cx="402" cy="136" r="1.4" fill="#CBE3FF" opacity="0.12"/><circle cx="587" cy="143" r="2.0" fill="#CBE3FF" opacity="0.17"/><circle cx="99" cy="152" r="1.7" fill="#CBE3FF" opacity="0.13"/><circle cx="501" cy="74" r="1.0" fill="#CBE3FF" opacity="0.15"/><circle cx="678" cy="159" r="1.8" fill="#CBE3FF" opacity="0.14"/><circle cx="436" cy="129" r="1.8" fill="#CBE3FF" opacity="0.11"/><circle cx="649" cy="139" r="1.4" fill="#CBE3FF" opacity="0.07"/><circle cx="61" cy="96" r="1.4" fill="#CBE3FF" opacity="0.11"/><circle cx="492" cy="74" r="1.6" fill="#CBE3FF" opacity="0.18"/><circle cx="34" cy="76" r="2.1" fill="#CBE3FF" opacity="0.08"/><circle cx="242" cy="84" r="1.1" fill="#CBE3FF" opacity="0.06"/><circle cx="522" cy="37" r="2.6" fill="#CBE3FF" opacity="0.19"/><circle cx="69" cy="115" r="2.7" fill="#CBE3FF" opacity="0.20"/><circle cx="686" cy="121" r="1.4" fill="#CBE3FF" opacity="0.15"/><circle cx="97" cy="113" r="2.6" fill="#CBE3FF" opacity="0.20"/><circle cx="516" cy="64" r="2.5" fill="#CBE3FF" opacity="0.17"/><circle cx="259" cy="138" r="2.2" fill="#CBE3FF" opacity="0.11"/><circle cx="284" cy="98" r="2.3" fill="#CBE3FF" opacity="0.05"/><circle cx="264" cy="143" r="1.0" fill="#CBE3FF" opacity="0.18"/><circle cx="41" cy="73" r="1.7" fill="#CBE3FF" opacity="0.12"/><circle cx="341" cy="71" r="1.1" fill="#CBE3FF" opacity="0.15"/><circle cx="89" cy="60" r="2.7" fill="#CBE3FF" opacity="0.06"/><circle cx="606" cy="81" r="1.5" fill="#CBE3FF" opacity="0.06"/><circle cx="771" cy="122" r="1.4" fill="#CBE3FF" opacity="0.18"/><circle cx="477" cy="147" r="1.4" fill="#CBE3FF" opacity="0.09"/><circle cx="434" cy="152" r="2.4" fill="#CBE3FF" opacity="0.17"/><circle cx="521" cy="21" r="2.6" fill="#CBE3FF" opacity="0.11"/><circle cx="430" cy="101" r="1.0" fill="#CBE3FF" opacity="0.12"/><circle cx="580" cy="158" r="2.3" fill="#CBE3FF" opacity="0.10"/><circle cx="484" cy="30" r="1.7" fill="#CBE3FF" opacity="0.13"/><circle cx="249" cy="51" r="2.7" fill="#CBE3FF" opacity="0.06"/><circle cx="695" cy="141" r="2.1" fill="#CBE3FF" opacity="0.13"/><circle cx="741" cy="143" r="1.5" fill="#CBE3FF" opacity="0.07"/><circle cx="102" cy="39" r="1.2" fill="#CBE3FF" opacity="0.08"/><circle cx="480" cy="106" r="1.9" fill="#CBE3FF" opacity="0.17"/><circle cx="569" cy="87" r="1.9" fill="#CBE3FF" opacity="0.18"/><circle cx="675" cy="50" r="1.2" fill="#CBE3FF" opacity="0.08"/><circle cx="767" cy="145" r="1.8" fill="#CBE3FF" opacity="0.19"/><circle cx="57" cy="134" r="2.6" fill="#CBE3FF" opacity="0.08"/><circle cx="737" cy="149" r="2.0" fill="#CBE3FF" opacity="0.12"/><circle cx="689" cy="117" r="1.3" fill="#CBE3FF" opacity="0.12"/><circle cx="399" cy="97" r="2.0" fill="#CBE3FF" opacity="0.17"/><circle cx="246" cy="49" r="1.8" fill="#CBE3FF" opacity="0.09"/><circle cx="184" cy="153" r="2.0" fill="#CBE3FF" opacity="0.20"/><circle cx="408" cy="164" r="1.3" fill="#CBE3FF" opacity="0.08"/><circle cx="280" cy="107" r="1.8" fill="#CBE3FF" opacity="0.19"/><circle cx="201" cy="116" r="2.2" fill="#CBE3FF" opacity="0.19"/><circle cx="355" cy="116" r="1.8" fill="#CBE3FF" opacity="0.08"/><circle cx="753" cy="80" r="2.1" fill="#CBE3FF" opacity="0.16"/><circle cx="451" cy="43" r="2.1" fill="#CBE3FF" opacity="0.14"/><circle cx="328" cy="91" r="1.7" fill="#CBE3FF" opacity="0.10"/><circle cx="249" cy="156" r="2.6" fill="#CBE3FF" opacity="0.08"/><circle cx="398" cy="120" r="1.9" fill="#CBE3FF" opacity="0.11"/><circle cx="701" cy="52" r="1.3" fill="#CBE3FF" opacity="0.15"/><circle cx="271" cy="141" r="1.2" fill="#CBE3FF" opacity="0.07"/><circle cx="362" cy="131" r="2.4" fill="#CBE3FF" opacity="0.09"/><circle cx="796" cy="91" r="2.0" fill="#CBE3FF" opacity="0.06"/><circle cx="330" cy="102" r="1.5" fill="#CBE3FF" opacity="0.14"/><circle cx="517" cy="23" r="1.7" fill="#CBE3FF" opacity="0.11"/><circle cx="211" cy="44" r="2.1" fill="#CBE3FF" opacity="0.15"/><circle cx="622" cy="34" r="1.2" fill="#CBE3FF" opacity="0.08"/><circle cx="209" cy="102" r="2.7" fill="#CBE3FF" opacity="0.17"/><circle cx="87" cy="137" r="1.6" fill="#CBE3FF" opacity="0.17"/><circle cx="14" cy="121" r="2.1" fill="#CBE3FF" opacity="0.08"/><circle cx="599" cy="116" r="1.4" fill="#CBE3FF" opacity="0.11"/><circle cx="685" cy="147" r="2.6" fill="#CBE3FF" opacity="0.08"/><circle cx="689" cy="133" r="1.7" fill="#CBE3FF" opacity="0.10"/><circle cx="780" cy="151" r="2.5" fill="#CBE3FF" opacity="0.07"/><circle cx="374" cy="108" r="2.1" fill="#CBE3FF" opacity="0.17"/><circle cx="499" cy="63" r="1.0" fill="#CBE3FF" opacity="0.20"/><circle cx="578" cy="93" r="1.6" fill="#CBE3FF" opacity="0.16"/><circle cx="376" cy="42" r="1.7" fill="#CBE3FF" opacity="0.08"/><circle cx="765" cy="66" r="2.2" fill="#CBE3FF" opacity="0.13"/><circle cx="54" cy="138" r="1.9" fill="#CBE3FF" opacity="0.12"/><circle cx="752" cy="104" r="1.2" fill="#CBE3FF" opacity="0.12"/><circle cx="554" cy="130" r="2.6" fill="#CBE3FF" opacity="0.12"/><circle cx="122" cy="38" r="2.1" fill="#CBE3FF" opacity="0.08"/><circle cx="232" cy="128" r="2.4" fill="#CBE3FF" opacity="0.08"/><circle cx="376" cy="20" r="2.3" fill="#CBE3FF" opacity="0.17"/>
  <rect x="635" y="122" width="7" height="9" rx="1.5" fill="#FFFFFF" opacity="0.5" transform="rotate(-25 635 122)"/><rect x="4" y="90" width="8" height="12" rx="1.5" fill="#1BB55C" opacity="0.5" transform="rotate(21 4 90)"/><rect x="74" y="57" width="7" height="14" rx="1.5" fill="#FFD24A" opacity="0.5" transform="rotate(-7 74 57)"/><rect x="245" y="128" width="7" height="9" rx="1.5" fill="#FFD24A" opacity="0.5" transform="rotate(-28 245 128)"/><rect x="379" y="130" width="6" height="9" rx="1.5" fill="#1BB55C" opacity="0.5" transform="rotate(-16 379 130)"/><rect x="329" y="18" width="4" height="11" rx="1.5" fill="#FF6A00" opacity="0.5" transform="rotate(28 329 18)"/><rect x="279" y="85" width="8" height="9" rx="1.5" fill="#1BB55C" opacity="0.5" transform="rotate(-19 279 85)"/><rect x="497" y="32" width="5" height="8" rx="1.5" fill="#FFD24A" opacity="0.5" transform="rotate(-13 497 32)"/><rect x="350" y="114" width="7" height="9" rx="1.5" fill="#FF6A00" opacity="0.5" transform="rotate(-21 350 114)"/><rect x="206" y="119" width="9" height="11" rx="1.5" fill="#1BB55C" opacity="0.5" transform="rotate(-20 206 119)"/><rect x="13" y="89" width="7" height="11" rx="1.5" fill="#FFD24A" opacity="0.5" transform="rotate(26 13 89)"/><rect x="566" y="94" width="8" height="13" rx="1.5" fill="#1BB55C" opacity="0.5" transform="rotate(11 566 94)"/><rect x="288" y="70" width="4" height="14" rx="1.5" fill="#FFD24A" opacity="0.5" transform="rotate(23 288 70)"/><rect x="78" y="89" width="6" height="14" rx="1.5" fill="#1BB55C" opacity="0.5" transform="rotate(20 78 89)"/><rect x="48" y="73" width="9" height="12" rx="1.5" fill="#FF6A00" opacity="0.5" transform="rotate(-8 48 73)"/><rect x="755" y="64" width="4" height="15" rx="1.5" fill="#FFD24A" opacity="0.5" transform="rotate(-18 755 64)"/><rect x="678" y="129" width="7" height="12" rx="1.5" fill="#FF6A00" opacity="0.5" transform="rotate(27 678 129)"/><rect x="528" y="96" width="7" height="13" rx="1.5" fill="#FFD24A" opacity="0.5" transform="rotate(-9 528 96)"/><rect x="548" y="108" width="6" height="11" rx="1.5" fill="#FFD24A" opacity="0.5" transform="rotate(-17 548 108)"/><rect x="327" y="45" width="6" height="11" rx="1.5" fill="#FF6A00" opacity="0.5" transform="rotate(22 327 45)"/><rect x="582" y="29" width="9" height="11" rx="1.5" fill="#1BB55C" opacity="0.5" transform="rotate(-25 582 29)"/><rect x="552" y="42" width="7" height="14" rx="1.5" fill="#FFFFFF" opacity="0.5" transform="rotate(16 552 42)"/><rect x="94" y="30" width="4" height="11" rx="1.5" fill="#FFD24A" opacity="0.5" transform="rotate(-29 94 30)"/><rect x="278" y="37" width="8" height="8" rx="1.5" fill="#FFD24A" opacity="0.5" transform="rotate(24 278 37)"/><rect x="355" y="111" width="7" height="13" rx="1.5" fill="#1BB55C" opacity="0.5" transform="rotate(8 355 111)"/><rect x="398" y="104" width="6" height="14" rx="1.5" fill="#FF6A00" opacity="0.5" transform="rotate(-20 398 104)"/>
  <path d="M0 268 L800 236 L800 440 L0 440 Z" fill="url(#grass)"/>
  <path d="M0 268 L800 236" stroke="#4FBE82" stroke-opacity="0.35" stroke-width="2"/>
  <line x1="400" y1="252" x2="400" y2="440" stroke="#4FBE82" stroke-opacity="0.25" stroke-width="2"/>
  <circle cx="400" cy="400" r="80" fill="none" stroke="#4FBE82" stroke-opacity="0.22" stroke-width="2"/>
  <rect x="0" y="434" width="800" height="6" fill="#FF6A00"/>
  <text x="38" y="210" font-family="Arial, sans-serif" font-size="150" font-weight="900" fill="#FFFFFF" opacity="0.06">GER</text>
  <text x="762" y="372" text-anchor="end" font-family="Arial, sans-serif" font-size="150" font-weight="900" fill="#FFFFFF" opacity="0.06">CUW</text>
  <rect width="800" height="440" fill="url(#fade)"/>
</svg>