<svg xmlns="http://www.w3.org/2000/svg" width="800" height="440" viewBox="0 0 800 440" role="img" aria-label="GER x CIV">
  <defs>
    <linearGradient id="sky" x1="0" y1="0" x2="0" y2="1">
      <stop offset="0" stop-color="#243244"/>
      <stop offset="0.5" stop-color="#16202D"/>
      <stop offset="1" stop-color="#0C141E"/>
    </linearGradient>
    <radialGradient id="lgl" cx="0.16" cy="0.0" r="0.7">
      <stop offset="0" stop-color="#111418" stop-opacity="0.7"/>
      <stop offset="1" stop-color="#111418" stop-opacity="0"/>
    </radialGradient>
    <radialGradient id="rgl" cx="0.86" cy="0.05" r="0.7">
      <stop offset="0" stop-color="#FF7A1A" stop-opacity="0.62"/>
      <stop offset="1" stop-color="#FF7A1A" stop-opacity="0"/>
    </radialGradient>
    <radialGradient id="spot" cx="0.5" cy="-0.1" r="0.55">
      <stop offset="0" stop-color="#FFFFFF" stop-opacity="0.18"/>
      <stop offset="1" stop-color="#FFFFFF" stop-opacity="0"/>
    </radialGradient>
    <linearGradient id="grass" x1="0" y1="0" x2="0" y2="1">
      <stop offset="0" stop-color="#13502F"/>
      <stop offset="1" stop-color="#0B3520"/>
    </linearGradient>
    <linearGradient id="fade" x1="0" y1="0" x2="0" y2="1">
      <stop offset="0.4" stop-color="#0C141E" stop-opacity="0"/>
      <stop offset="1" stop-color="#0A111A" stop-opacity="0.9"/>
    </linearGradient>
  </defs>
  <rect width="800" height="440" fill="url(#sky)"/>
  <rect width="800" height="440" fill="url(#spot)"/>
  <rect width="800" height="440" fill="url(#lgl)"/>
  <rect width="800" height="440" fill="url(#rgl)"/>
  <circle cx="711" cy="76" r="2.3" fill="#CBE3FF" opacity="0.10"/><circle cx="417" cy="132" r="2.5" fill="#CBE3FF" opacity="0.17"/><circle cx="344" cy="130" r="1.2" fill="#CBE3FF" opacity="0.10"/><circle cx="358" cy="68" r="1.1" fill="#CBE3FF" opacity="0.20"/><circle cx="284" cy="87" r="2.5" fill="#CBE3FF" opacity="0.10"/><circle cx="268" cy="72" r="2.5" fill="#CBE3FF" opacity="0.19"/><circle cx="642" cy="90" r="2.2" fill="#CBE3FF" opacity="0.12"/><circle cx="452" cy="78" r="2.3" fill="#CBE3FF" opacity="0.07"/><circle cx="219" cy="58" r="1.6" fill="#CBE3FF" opacity="0.13"/><circle cx="616" cy="31" r="2.8" fill="#CBE3FF" opacity="0.05"/><circle cx="725" cy="39" r="2.0" fill="#CBE3FF" opacity="0.18"/><circle cx="505" cy="72" r="1.6" fill="#CBE3FF" opacity="0.06"/><circle cx="160" cy="72" r="1.5" fill="#CBE3FF" opacity="0.19"/><circle cx="138" cy="151" r="2.6" fill="#CBE3FF" opacity="0.20"/><circle cx="253" cy="57" r="2.6" fill="#CBE3FF" opacity="0.16"/><circle cx="744" cy="22" r="1.4" fill="#CBE3FF" opacity="0.07"/><circle cx="782" cy="72" r="1.6" fill="#CBE3FF" opacity="0.11"/><circle cx="652" cy="119" r="2.8" fill="#CBE3FF" opacity="0.10"/><circle cx="112" cy="85" r="1.7" fill="#CBE3FF" opacity="0.20"/><circle cx="394" cy="78" r="1.2" fill="#CBE3FF" opacity="0.18"/><circle cx="316" cy="114" r="1.2" fill="#CBE3FF" opacity="0.16"/><circle cx="288" cy="32" r="1.3" fill="#CBE3FF" opacity="0.16"/><circle cx="141" cy="26" r="2.6" fill="#CBE3FF" opacity="0.17"/><circle cx="591" cy="53" r="2.0" fill="#CBE3FF" opacity="0.06"/><circle cx="308" cy="87" r="1.0" fill="#CBE3FF" opacity="0.08"/><circle cx="395" cy="130" r="2.7" fill="#CBE3FF" opacity="0.19"/><circle cx="729" cy="111" r="2.5" fill="#CBE3FF" opacity="0.08"/><circle cx="724" cy="124" r="2.6" fill="#CBE3FF" opacity="0.11"/><circle cx="142" cy="156" r="2.0" fill="#CBE3FF" opacity="0.16"/><circle cx="92" cy="35" r="1.9" fill="#CBE3FF" opacity="0.15"/><circle cx="327" cy="143" r="2.6" fill="#CBE3FF" opacity="0.20"/><circle cx="657" cy="52" r="2.4" fill="#CBE3FF" opacity="0.06"/><circle cx="643" cy="102" r="1.8" fill="#CBE3FF" opacity="0.06"/><circle cx="127" cy="114" r="1.4" fill="#CBE3FF" opacity="0.07"/><circle cx="346" cy="54" r="2.1" fill="#CBE3FF" opacity="0.09"/><circle cx="734" cy="25" r="1.3" fill="#CBE3FF" opacity="0.13"/><circle cx="381" cy="65" r="2.5" fill="#CBE3FF" opacity="0.12"/><circle cx="570" cy="18" r="1.5" fill="#CBE3FF" opacity="0.10"/><circle cx="59" cy="26" r="1.9" fill="#CBE3FF" opacity="0.14"/><circle cx="752" cy="85" r="1.2" fill="#CBE3FF" opacity="0.07"/><circle cx="149" cy="143" r="2.6" fill="#CBE3FF" opacity="0.19"/><circle cx="593" cy="158" r="1.3" fill="#CBE3FF" opacity="0.09"/><circle cx="89" cy="91" r="1.4" fill="#CBE3FF" opacity="0.07"/><circle cx="123" cy="98" r="1.6" fill="#CBE3FF" opacity="0.17"/><circle cx="328" cy="122" r="2.3" fill="#CBE3FF" opacity="0.06"/><circle cx="90" cy="58" r="1.3" fill="#CBE3FF" opacity="0.20"/><circle cx="357" cy="102" r="1.1" fill="#CBE3FF" opacity="0.19"/><circle cx="614" cy="100" r="1.2" fill="#CBE3FF" opacity="0.05"/><circle cx="322" cy="148" r="2.1" fill="#CBE3FF" opacity="0.06"/><circle cx="254" cy="37" r="2.6" fill="#CBE3FF" opacity="0.14"/><circle cx="113" cy="158" r="2.5" fill="#CBE3FF" opacity="0.07"/><circle cx="184" cy="116" r="2.4" fill="#CBE3FF" opacity="0.11"/><circle cx="426" cy="164" r="2.6" fill="#CBE3FF" opacity="0.18"/><circle cx="780" cy="145" r="2.3" fill="#CBE3FF" opacity="0.13"/><circle cx="527" cy="143" r="1.7" fill="#CBE3FF" opacity="0.15"/><circle cx="51" cy="155" r="1.8" fill="#CBE3FF" opacity="0.05"/><circle cx="450" cy="29" r="2.3" fill="#CBE3FF" opacity="0.15"/><circle cx="521" cy="70" r="2.8" fill="#CBE3FF" opacity="0.15"/><circle cx="284" cy="101" r="2.3" fill="#CBE3FF" opacity="0.12"/><circle cx="295" cy="31" r="1.1" fill="#CBE3FF" opacity="0.14"/><circle cx="36" cy="91" r="2.5" fill="#CBE3FF" opacity="0.12"/><circle cx="768" cy="148" r="2.8" fill="#CBE3FF" opacity="0.18"/><circle cx="358" cy="69" r="2.6" fill="#CBE3FF" opacity="0.14"/><circle cx="641" cy="126" r="2.6" fill="#CBE3FF" opacity="0.14"/><circle cx="780" cy="16" r="1.8" fill="#CBE3FF" opacity="0.15"/><circle cx="331" cy="139" r="1.9" fill="#CBE3FF" opacity="0.18"/><circle cx="157" cy="51" r="1.1" fill="#CBE3FF" opacity="0.19"/><circle cx="716" cy="119" r="1.3" fill="#CBE3FF" opacity="0.17"/><circle cx="281" cy="113" r="2.8" fill="#CBE3FF" opacity="0.13"/><circle cx="30" cy="138" r="1.3" fill="#CBE3FF" opacity="0.14"/><circle cx="155" cy="163" r="1.1" fill="#CBE3FF" opacity="0.13"/><circle cx="796" cy="153" r="1.2" fill="#CBE3FF" opacity="0.18"/><circle cx="665" cy="96" r="1.1" fill="#CBE3FF" opacity="0.17"/><circle cx="641" cy="158" r="2.4" fill="#CBE3FF" opacity="0.20"/><circle cx="412" cy="155" r="1.7" fill="#CBE3FF" opacity="0.10"/><circle cx="391" cy="66" r="1.8" fill="#CBE3FF" opacity="0.16"/><circle cx="484" cy="152" r="2.4" fill="#CBE3FF" opacity="0.12"/><circle cx="389" cy="124" r="1.0" fill="#CBE3FF" opacity="0.19"/><circle cx="376" cy="84" r="1.0" fill="#CBE3FF" opacity="0.10"/><circle cx="669" cy="123" r="2.1" fill="#CBE3FF" opacity="0.19"/><circle cx="326" cy="146" r="1.6" fill="#CBE3FF" opacity="0.09"/><circle cx="179" cy="79" r="1.7" fill="#CBE3FF" opacity="0.16"/><circle cx="656" cy="152" r="2.4" fill="#CBE3FF" opacity="0.15"/><circle cx="28" cy="148" r="2.2" fill="#CBE3FF" opacity="0.07"/><circle cx="387" cy="164" r="1.1" fill="#CBE3FF" opacity="0.11"/><circle cx="558" cy="77" r="1.8" fill="#CBE3FF" opacity="0.14"/><circle cx="240" cy="54" r="1.5" fill="#CBE3FF" opacity="0.07"/><circle cx="1" cy="20" r="2.1" fill="#CBE3FF" opacity="0.06"/><circle cx="423" cy="139" r="1.1" fill="#CBE3FF" opacity="0.18"/><circle cx="515" cy="155" r="1.7" fill="#CBE3FF" opacity="0.09"/><circle cx="563" cy="34" r="1.5" fill="#CBE3FF" opacity="0.06"/><circle cx="4" cy="105" r="1.7" fill="#CBE3FF" opacity="0.19"/><circle cx="375" cy="119" r="1.3" fill="#CBE3FF" opacity="0.13"/><circle cx="198" cy="138" r="2.4" fill="#CBE3FF" opacity="0.20"/><circle cx="202" cy="133" r="1.0" fill="#CBE3FF" opacity="0.08"/><circle cx="556" cy="151" r="2.6" fill="#CBE3FF" opacity="0.08"/><circle cx="72" cy="92" r="2.7" fill="#CBE3FF" opacity="0.18"/><circle cx="498" cy="112" r="1.8" fill="#CBE3FF" opacity="0.09"/><circle cx="123" cy="26" r="1.8" fill="#CBE3FF" opacity="0.16"/><circle cx="184" cy="133" r="2.3" fill="#CBE3FF" opacity="0.16"/><circle cx="68" cy="136" r="1.3" fill="#CBE3FF" opacity="0.12"/><circle cx="485" cy="152" r="1.2" fill="#CBE3FF" opacity="0.07"/><circle cx="243" cy="58" r="2.4" fill="#CBE3FF" opacity="0.17"/><circle cx="138" cy="65" r="2.7" fill="#CBE3FF" opacity="0.18"/><circle cx="572" cy="77" r="1.8" fill="#CBE3FF" opacity="0.09"/><circle cx="194" cy="60" r="2.4" fill="#CBE3FF" opacity="0.20"/><circle cx="231" cy="111" r="2.2" fill="#CBE3FF" opacity="0.13"/><circle cx="518" cy="110" r="1.6" fill="#CBE3FF" opacity="0.18"/><circle cx="567" cy="29" r="1.7" fill="#CBE3FF" opacity="0.06"/><circle cx="527" cy="120" r="1.1" fill="#CBE3FF" opacity="0.14"/><circle cx="82" cy="130" r="2.3" fill="#CBE3FF" opacity="0.20"/><circle cx="681" cy="125" r="1.2" fill="#CBE3FF" opacity="0.08"/><circle cx="179" cy="105" r="2.7" fill="#CBE3FF" opacity="0.07"/><circle cx="413" cy="146" r="2.0" fill="#CBE3FF" opacity="0.08"/><circle cx="741" cy="77" r="1.8" fill="#CBE3FF" opacity="0.16"/><circle cx="155" cy="129" r="1.7" fill="#CBE3FF" opacity="0.12"/><circle cx="67" cy="138" r="1.9" fill="#CBE3FF" opacity="0.12"/><circle cx="242" cy="25" r="2.4" fill="#CBE3FF" opacity="0.17"/><circle cx="60" cy="36" r="1.0" fill="#CBE3FF" opacity="0.19"/><circle cx="361" cy="151" r="1.8" fill="#CBE3FF" opacity="0.16"/><circle cx="168" cy="43" r="2.5" fill="#CBE3FF" opacity="0.21"/><circle cx="497" cy="87" r="2.6" fill="#CBE3FF" opacity="0.08"/><circle cx="590" cy="115" r="1.4" fill="#CBE3FF" opacity="0.21"/><circle cx="681" cy="121" r="1.9" fill="#CBE3FF" opacity="0.09"/><circle cx="204" cy="63" r="1.4" fill="#CBE3FF" opacity="0.10"/><circle cx="159" cy="45" r="1.0" fill="#CBE3FF" opacity="0.14"/><circle cx="338" cy="158" r="1.1" fill="#CBE3FF" opacity="0.15"/><circle cx="551" cy="84" r="1.4" fill="#CBE3FF" opacity="0.10"/><circle cx="734" cy="124" r="2.7" fill="#CBE3FF" opacity="0.17"/><circle cx="114" cy="102" r="2.4" fill="#CBE3FF" opacity="0.11"/><circle cx="674" cy="131" r="1.1" fill="#CBE3FF" opacity="0.20"/><circle cx="578" cy="68" r="1.6" fill="#CBE3FF" opacity="0.19"/><circle cx="797" cy="27" r="1.3" fill="#CBE3FF" opacity="0.12"/><circle cx="491" cy="81" r="2.6" fill="#CBE3FF" opacity="0.13"/><circle cx="369" cy="140" r="1.2" fill="#CBE3FF" opacity="0.20"/><circle cx="15" cy="162" r="1.5" fill="#CBE3FF" opacity="0.11"/><circle cx="560" cy="49" r="2.6" fill="#CBE3FF" opacity="0.17"/><circle cx="403" cy="66" r="1.5" fill="#CBE3FF" opacity="0.17"/><circle cx="710" cy="65" r="2.6" fill="#CBE3FF" opacity="0.12"/><circle cx="705" cy="143" r="1.4" fill="#CBE3FF" opacity="0.11"/><circle cx="102" cy="71" r="1.3" fill="#CBE3FF" opacity="0.06"/><circle cx="657" cy="16" r="2.4" fill="#CBE3FF" opacity="0.14"/><circle cx="498" cy="147" r="2.4" fill="#CBE3FF" opacity="0.11"/><circle cx="795" cy="74" r="1.1" fill="#CBE3FF" opacity="0.17"/><circle cx="601" cy="87" r="1.6" fill="#CBE3FF" opacity="0.08"/><circle cx="541" cy="117" r="1.4" fill="#CBE3FF" opacity="0.09"/><circle cx="725" cy="97" r="2.0" fill="#CBE3FF" opacity="0.14"/><circle cx="793" cy="16" r="1.3" fill="#CBE3FF" opacity="0.08"/><circle cx="661" cy="38" r="2.0" fill="#CBE3FF" opacity="0.07"/><circle cx="233" cy="31" r="2.4" fill="#CBE3FF" opacity="0.17"/><circle cx="422" cy="71" r="1.4" fill="#CBE3FF" opacity="0.09"/><circle cx="444" cy="53" r="1.4" fill="#CBE3FF" opacity="0.11"/><circle cx="417" cy="38" r="2.7" fill="#CBE3FF" opacity="0.14"/><circle cx="173" cy="107" r="2.2" fill="#CBE3FF" opacity="0.14"/><circle cx="27" cy="77" r="1.3" fill="#CBE3FF" opacity="0.10"/><circle cx="398" cy="67" r="1.8" fill="#CBE3FF" opacity="0.16"/><circle cx="569" cy="127" r="2.5" fill="#CBE3FF" opacity="0.11"/><circle cx="578" cy="100" r="2.4" fill="#CBE3FF" opacity="0.15"/><circle cx="760" cy="137" r="2.2" fill="#CBE3FF" opacity="0.09"/><circle cx="749" cy="50" r="1.4" fill="#CBE3FF" opacity="0.13"/><circle cx="199" cy="110" r="1.0" fill="#CBE3FF" opacity="0.18"/><circle cx="356" cy="19" r="2.1" fill="#CBE3FF" opacity="0.10"/><circle cx="753" cy="68" r="2.5" fill="#CBE3FF" opacity="0.11"/><circle cx="730" cy="116" r="1.5" fill="#CBE3FF" opacity="0.05"/><circle cx="109" cy="111" r="1.1" fill="#CBE3FF" opacity="0.18"/><circle cx="705" cy="41" r="1.4" fill="#CBE3FF" opacity="0.18"/><circle cx="308" cy="94" r="2.4" fill="#CBE3FF" opacity="0.18"/><circle cx="244" cy="61" r="1.3" fill="#CBE3FF" opacity="0.11"/><circle cx="464" cy="90" r="2.1" fill="#CBE3FF" opacity="0.11"/><circle cx="752" cy="25" r="1.8" fill="#CBE3FF" opacity="0.13"/>
  <rect x="591" y="86" width="9" height="14" rx="1.5" fill="#FFFFFF" opacity="0.5" transform="rotate(21 591 86)"/><rect x="342" y="14" width="7" height="8" rx="1.5" fill="#FFFFFF" opacity="0.5" transform="rotate(25 342 14)"/><rect x="653" y="78" width="7" height="14" rx="1.5" fill="#1BB55C" opacity="0.5" transform="rotate(-26 653 78)"/><rect x="172" y="25" width="7" height="14" rx="1.5" fill="#FF6A00" opacity="0.5" transform="rotate(27 172 25)"/><rect x="700" y="39" width="5" height="10" rx="1.5" fill="#FFFFFF" opacity="0.5" transform="rotate(-29 700 39)"/><rect x="609" y="24" width="7" height="9" rx="1.5" fill="#FFFFFF" opacity="0.5" transform="rotate(9 609 24)"/><rect x="187" y="91" width="5" height="12" rx="1.5" fill="#1BB55C" opacity="0.5" transform="rotate(-21 187 91)"/><rect x="315" y="80" width="4" height="10" rx="1.5" fill="#FFD24A" opacity="0.5" transform="rotate(-3 315 80)"/><rect x="29" y="77" width="8" height="9" rx="1.5" fill="#1BB55C" opacity="0.5" transform="rotate(-16 29 77)"/><rect x="569" y="55" width="4" height="12" rx="1.5" fill="#FFFFFF" opacity="0.5" transform="rotate(-23 569 55)"/><rect x="785" y="31" width="8" height="15" rx="1.5" fill="#FF6A00" opacity="0.5" transform="rotate(-5 785 31)"/><rect x="295" y="57" width="8" height="12" rx="1.5" fill="#1BB55C" opacity="0.5" transform="rotate(11 295 57)"/><rect x="344" y="97" width="5" height="14" rx="1.5" fill="#FF6A00" opacity="0.5" transform="rotate(-22 344 97)"/><rect x="526" y="76" width="9" height="13" rx="1.5" fill="#FFD24A" opacity="0.5" transform="rotate(23 526 76)"/><rect x="192" y="19" width="4" height="14" rx="1.5" fill="#FFD24A" opacity="0.5" transform="rotate(-3 192 19)"/><rect x="721" y="111" width="6" height="8" rx="1.5" fill="#FFD24A" opacity="0.5" transform="rotate(28 721 111)"/><rect x="432" y="37" width="7" height="13" rx="1.5" fill="#FFFFFF" opacity="0.5" transform="rotate(11 432 37)"/><rect x="496" y="88" width="5" height="15" rx="1.5" fill="#1BB55C" opacity="0.5" transform="rotate(-15 496 88)"/><rect x="510" y="31" width="6" height="9" rx="1.5" fill="#FFD24A" opacity="0.5" transform="rotate(18 510 31)"/><rect x="151" y="88" width="6" height="12" rx="1.5" fill="#FFFFFF" opacity="0.5" transform="rotate(-23 151 88)"/><rect x="746" y="20" width="6" height="14" rx="1.5" fill="#FFFFFF" opacity="0.5" transform="rotate(-1 746 20)"/><rect x="67" y="106" width="6" height="9" rx="1.5" fill="#FFFFFF" opacity="0.5" transform="rotate(0 67 106)"/><rect x="557" y="69" width="7" height="11" rx="1.5" fill="#FF6A00" opacity="0.5" transform="rotate(14 557 69)"/><rect x="517" y="52" width="5" height="8" rx="1.5" fill="#FF6A00" opacity="0.5" transform="rotate(-1 517 52)"/><rect x="145" y="71" width="4" height="11" rx="1.5" fill="#1BB55C" opacity="0.5" transform="rotate(-1 145 71)"/><rect x="104" y="62" width="8" height="14" rx="1.5" fill="#1BB55C" opacity="0.5" transform="rotate(25 104 62)"/>
  <path d="M0 268 L800 236 L800 440 L0 440 Z" fill="url(#grass)"/>
  <path d="M0 268 L800 236" stroke="#4FBE82" stroke-opacity="0.35" stroke-width="2"/>
  <line x1="400" y1="252" x2="400" y2="440" stroke="#4FBE82" stroke-opacity="0.25" stroke-width="2"/>
  <circle cx="400" cy="400" r="80" fill="none" stroke="#4FBE82" stroke-opacity="0.22" stroke-width="2"/>
  <rect x="0" y="434" width="800" height="6" fill="#FF6A00"/>
  <text x="38" y="210" font-family="Arial, sans-serif" font-size="150" font-weight="900" fill="#FFFFFF" opacity="0.06">GER</text>
  <text x="762" y="372" text-anchor="end" font-family="Arial, sans-serif" font-size="150" font-weight="900" fill="#FFFFFF" opacity="0.06">CIV</text>
  <rect width="800" height="440" fill="url(#fade)"/>
</svg>