<svg xmlns="http://www.w3.org/2000/svg" width="800" height="440" viewBox="0 0 800 440" role="img" aria-label="ARG x AUT">
  <defs>
    <linearGradient id="sky" x1="0" y1="0" x2="0" y2="1">
      <stop offset="0" stop-color="#243244"/>
      <stop offset="0.5" stop-color="#16202D"/>
      <stop offset="1" stop-color="#0C141E"/>
    </linearGradient>
    <radialGradient id="lgl" cx="0.16" cy="0.0" r="0.7">
      <stop offset="0" stop-color="#5AA9E6" stop-opacity="0.7"/>
      <stop offset="1" stop-color="#5AA9E6" stop-opacity="0"/>
    </radialGradient>
    <radialGradient id="rgl" cx="0.86" cy="0.05" r="0.7">
      <stop offset="0" stop-color="#C8102E" stop-opacity="0.62"/>
      <stop offset="1" stop-color="#C8102E" stop-opacity="0"/>
    </radialGradient>
    <radialGradient id="spot" cx="0.5" cy="-0.1" r="0.55">
      <stop offset="0" stop-color="#FFFFFF" stop-opacity="0.18"/>
      <stop offset="1" stop-color="#FFFFFF" stop-opacity="0"/>
    </radialGradient>
    <linearGradient id="grass" x1="0" y1="0" x2="0" y2="1">
      <stop offset="0" stop-color="#13502F"/>
      <stop offset="1" stop-color="#0B3520"/>
    </linearGradient>
    <linearGradient id="fade" x1="0" y1="0" x2="0" y2="1">
      <stop offset="0.4" stop-color="#0C141E" stop-opacity="0"/>
      <stop offset="1" stop-color="#0A111A" stop-opacity="0.9"/>
    </linearGradient>
  </defs>
  <rect width="800" height="440" fill="url(#sky)"/>
  <rect width="800" height="440" fill="url(#spot)"/>
  <rect width="800" height="440" fill="url(#lgl)"/>
  <rect width="800" height="440" fill="url(#rgl)"/>
  <circle cx="538" cy="123" r="1.1" fill="#CBE3FF" opacity="0.08"/><circle cx="279" cy="157" r="2.4" fill="#CBE3FF" opacity="0.17"/><circle cx="275" cy="72" r="2.5" fill="#CBE3FF" opacity="0.20"/><circle cx="52" cy="151" r="2.4" fill="#CBE3FF" opacity="0.10"/><circle cx="447" cy="135" r="2.6" fill="#CBE3FF" opacity="0.07"/><circle cx="228" cy="88" r="1.8" fill="#CBE3FF" opacity="0.17"/><circle cx="498" cy="116" r="1.0" fill="#CBE3FF" opacity="0.12"/><circle cx="560" cy="155" r="1.0" fill="#CBE3FF" opacity="0.15"/><circle cx="132" cy="162" r="2.4" fill="#CBE3FF" opacity="0.20"/><circle cx="749" cy="138" r="2.7" fill="#CBE3FF" opacity="0.11"/><circle cx="634" cy="57" r="1.3" fill="#CBE3FF" opacity="0.08"/><circle cx="781" cy="81" r="1.4" fill="#CBE3FF" opacity="0.11"/><circle cx="544" cy="72" r="1.6" fill="#CBE3FF" opacity="0.12"/><circle cx="479" cy="81" r="1.3" fill="#CBE3FF" opacity="0.16"/><circle cx="611" cy="108" r="1.8" fill="#CBE3FF" opacity="0.10"/><circle cx="575" cy="45" r="1.8" fill="#CBE3FF" opacity="0.05"/><circle cx="260" cy="96" r="1.0" fill="#CBE3FF" opacity="0.21"/><circle cx="70" cy="82" r="2.0" fill="#CBE3FF" opacity="0.11"/><circle cx="288" cy="95" r="2.3" fill="#CBE3FF" opacity="0.10"/><circle cx="773" cy="118" r="1.5" fill="#CBE3FF" opacity="0.11"/><circle cx="403" cy="46" r="1.4" fill="#CBE3FF" opacity="0.16"/><circle cx="91" cy="132" r="2.6" fill="#CBE3FF" opacity="0.06"/><circle cx="2" cy="95" r="2.3" fill="#CBE3FF" opacity="0.10"/><circle cx="679" cy="88" r="1.7" fill="#CBE3FF" opacity="0.20"/><circle cx="554" cy="68" r="1.9" fill="#CBE3FF" opacity="0.17"/><circle cx="255" cy="43" r="2.1" fill="#CBE3FF" opacity="0.10"/><circle cx="758" cy="36" r="2.0" fill="#CBE3FF" opacity="0.07"/><circle cx="233" cy="35" r="2.0" fill="#CBE3FF" opacity="0.08"/><circle cx="764" cy="95" r="1.2" fill="#CBE3FF" opacity="0.15"/><circle cx="26" cy="128" r="2.1" fill="#CBE3FF" opacity="0.05"/><circle cx="776" cy="139" r="1.1" fill="#CBE3FF" opacity="0.19"/><circle cx="116" cy="125" r="2.3" fill="#CBE3FF" opacity="0.06"/><circle cx="780" cy="100" r="1.5" fill="#CBE3FF" opacity="0.21"/><circle cx="746" cy="159" r="1.3" fill="#CBE3FF" opacity="0.06"/><circle cx="38" cy="164" r="1.7" fill="#CBE3FF" opacity="0.14"/><circle cx="764" cy="161" r="1.3" fill="#CBE3FF" opacity="0.11"/><circle cx="398" cy="125" r="2.2" fill="#CBE3FF" opacity="0.14"/><circle cx="55" cy="94" r="2.2" fill="#CBE3FF" opacity="0.11"/><circle cx="587" cy="102" r="2.3" fill="#CBE3FF" opacity="0.20"/><circle cx="265" cy="95" r="2.4" fill="#CBE3FF" opacity="0.05"/><circle cx="91" cy="27" r="2.7" fill="#CBE3FF" opacity="0.11"/><circle cx="242" cy="59" r="2.2" fill="#CBE3FF" opacity="0.16"/><circle cx="463" cy="140" r="1.5" fill="#CBE3FF" opacity="0.07"/><circle cx="661" cy="20" r="1.1" fill="#CBE3FF" opacity="0.16"/><circle cx="537" cy="71" r="1.3" fill="#CBE3FF" opacity="0.15"/><circle cx="224" cy="42" r="2.3" fill="#CBE3FF" opacity="0.11"/><circle cx="91" cy="122" r="1.4" fill="#CBE3FF" opacity="0.13"/><circle cx="666" cy="105" r="1.4" fill="#CBE3FF" opacity="0.13"/><circle cx="130" cy="41" r="1.1" fill="#CBE3FF" opacity="0.12"/><circle cx="652" cy="138" r="1.2" fill="#CBE3FF" opacity="0.14"/><circle cx="289" cy="30" r="2.2" fill="#CBE3FF" opacity="0.18"/><circle cx="91" cy="18" r="2.5" fill="#CBE3FF" opacity="0.20"/><circle cx="770" cy="74" r="1.2" fill="#CBE3FF" opacity="0.16"/><circle cx="617" cy="104" r="1.6" fill="#CBE3FF" opacity="0.20"/><circle cx="86" cy="125" r="1.6" fill="#CBE3FF" opacity="0.06"/><circle cx="738" cy="153" r="1.3" fill="#CBE3FF" opacity="0.07"/><circle cx="358" cy="144" r="1.9" fill="#CBE3FF" opacity="0.19"/><circle cx="239" cy="123" r="2.2" fill="#CBE3FF" opacity="0.05"/><circle cx="567" cy="92" r="1.6" fill="#CBE3FF" opacity="0.14"/><circle cx="219" cy="56" r="1.4" fill="#CBE3FF" opacity="0.15"/><circle cx="561" cy="50" r="2.1" fill="#CBE3FF" opacity="0.17"/><circle cx="603" cy="115" r="2.2" fill="#CBE3FF" opacity="0.17"/><circle cx="92" cy="137" r="1.0" fill="#CBE3FF" opacity="0.08"/><circle cx="97" cy="29" r="1.0" fill="#CBE3FF" opacity="0.08"/><circle cx="418" cy="46" r="2.2" fill="#CBE3FF" opacity="0.12"/><circle cx="421" cy="53" r="2.2" fill="#CBE3FF" opacity="0.17"/><circle cx="700" cy="41" r="1.8" fill="#CBE3FF" opacity="0.10"/><circle cx="664" cy="164" r="1.5" fill="#CBE3FF" opacity="0.10"/><circle cx="483" cy="75" r="2.6" fill="#CBE3FF" opacity="0.18"/><circle cx="674" cy="81" r="1.2" fill="#CBE3FF" opacity="0.12"/><circle cx="338" cy="58" r="2.4" fill="#CBE3FF" opacity="0.10"/><circle cx="35" cy="23" r="1.1" fill="#CBE3FF" opacity="0.20"/><circle cx="605" cy="145" r="1.1" fill="#CBE3FF" opacity="0.16"/><circle cx="497" cy="45" r="2.8" fill="#CBE3FF" opacity="0.16"/><circle cx="73" cy="63" r="2.4" fill="#CBE3FF" opacity="0.12"/><circle cx="490" cy="96" r="2.7" fill="#CBE3FF" opacity="0.11"/><circle cx="236" cy="52" r="2.7" fill="#CBE3FF" opacity="0.11"/><circle cx="207" cy="87" r="2.2" fill="#CBE3FF" opacity="0.19"/><circle cx="512" cy="64" r="2.0" fill="#CBE3FF" opacity="0.16"/><circle cx="770" cy="72" r="2.4" fill="#CBE3FF" opacity="0.14"/><circle cx="415" cy="37" r="2.5" fill="#CBE3FF" opacity="0.14"/><circle cx="526" cy="126" r="1.5" fill="#CBE3FF" opacity="0.09"/><circle cx="715" cy="23" r="1.3" fill="#CBE3FF" opacity="0.08"/><circle cx="152" cy="107" r="2.0" fill="#CBE3FF" opacity="0.17"/><circle cx="245" cy="119" r="1.5" fill="#CBE3FF" opacity="0.12"/><circle cx="162" cy="146" r="2.0" fill="#CBE3FF" opacity="0.09"/><circle cx="516" cy="143" r="2.5" fill="#CBE3FF" opacity="0.19"/><circle cx="281" cy="28" r="2.5" fill="#CBE3FF" opacity="0.14"/><circle cx="7" cy="75" r="2.5" fill="#CBE3FF" opacity="0.09"/><circle cx="673" cy="116" r="1.3" fill="#CBE3FF" opacity="0.17"/><circle cx="368" cy="89" r="1.8" fill="#CBE3FF" opacity="0.14"/><circle cx="604" cy="21" r="2.0" fill="#CBE3FF" opacity="0.15"/><circle cx="391" cy="142" r="2.5" fill="#CBE3FF" opacity="0.07"/><circle cx="628" cy="59" r="2.4" fill="#CBE3FF" opacity="0.11"/><circle cx="752" cy="150" r="1.4" fill="#CBE3FF" opacity="0.13"/><circle cx="520" cy="104" r="2.4" fill="#CBE3FF" opacity="0.06"/><circle cx="282" cy="156" r="2.4" fill="#CBE3FF" opacity="0.17"/><circle cx="213" cy="73" r="2.1" fill="#CBE3FF" opacity="0.15"/><circle cx="621" cy="141" r="1.0" fill="#CBE3FF" opacity="0.21"/><circle cx="252" cy="91" r="2.6" fill="#CBE3FF" opacity="0.13"/><circle cx="719" cy="109" r="1.1" fill="#CBE3FF" opacity="0.14"/><circle cx="477" cy="67" r="1.0" fill="#CBE3FF" opacity="0.14"/><circle cx="160" cy="64" r="1.8" fill="#CBE3FF" opacity="0.07"/><circle cx="78" cy="154" r="2.0" fill="#CBE3FF" opacity="0.08"/><circle cx="778" cy="48" r="1.7" fill="#CBE3FF" opacity="0.21"/><circle cx="703" cy="104" r="2.6" fill="#CBE3FF" opacity="0.07"/><circle cx="226" cy="96" r="2.7" fill="#CBE3FF" opacity="0.09"/><circle cx="516" cy="72" r="2.7" fill="#CBE3FF" opacity="0.05"/><circle cx="333" cy="84" r="1.2" fill="#CBE3FF" opacity="0.19"/><circle cx="766" cy="83" r="1.8" fill="#CBE3FF" opacity="0.13"/><circle cx="174" cy="147" r="2.3" fill="#CBE3FF" opacity="0.16"/><circle cx="63" cy="67" r="1.6" fill="#CBE3FF" opacity="0.05"/><circle cx="526" cy="43" r="2.1" fill="#CBE3FF" opacity="0.07"/><circle cx="115" cy="136" r="2.1" fill="#CBE3FF" opacity="0.15"/><circle cx="93" cy="49" r="2.3" fill="#CBE3FF" opacity="0.05"/><circle cx="378" cy="33" r="2.5" fill="#CBE3FF" opacity="0.13"/><circle cx="198" cy="74" r="1.3" fill="#CBE3FF" opacity="0.19"/><circle cx="158" cy="26" r="1.8" fill="#CBE3FF" opacity="0.21"/><circle cx="589" cy="151" r="1.8" fill="#CBE3FF" opacity="0.17"/><circle cx="615" cy="88" r="2.7" fill="#CBE3FF" opacity="0.08"/><circle cx="553" cy="32" r="2.2" fill="#CBE3FF" opacity="0.20"/><circle cx="252" cy="52" r="2.7" fill="#CBE3FF" opacity="0.08"/><circle cx="239" cy="153" r="1.7" fill="#CBE3FF" opacity="0.10"/><circle cx="423" cy="144" r="2.6" fill="#CBE3FF" opacity="0.08"/><circle cx="395" cy="115" r="1.1" fill="#CBE3FF" opacity="0.11"/><circle cx="303" cy="102" r="2.4" fill="#CBE3FF" opacity="0.17"/><circle cx="509" cy="164" r="1.2" fill="#CBE3FF" opacity="0.14"/><circle cx="433" cy="94" r="2.7" fill="#CBE3FF" opacity="0.19"/><circle cx="84" cy="133" r="1.1" fill="#CBE3FF" opacity="0.15"/><circle cx="131" cy="152" r="2.2" fill="#CBE3FF" opacity="0.17"/><circle cx="335" cy="126" r="2.3" fill="#CBE3FF" opacity="0.06"/><circle cx="545" cy="113" r="2.5" fill="#CBE3FF" opacity="0.15"/><circle cx="197" cy="97" r="1.2" fill="#CBE3FF" opacity="0.09"/><circle cx="725" cy="106" r="1.8" fill="#CBE3FF" opacity="0.07"/><circle cx="264" cy="106" r="2.2" fill="#CBE3FF" opacity="0.12"/><circle cx="217" cy="57" r="1.4" fill="#CBE3FF" opacity="0.17"/><circle cx="164" cy="46" r="2.2" fill="#CBE3FF" opacity="0.18"/><circle cx="383" cy="37" r="1.7" fill="#CBE3FF" opacity="0.06"/><circle cx="97" cy="140" r="1.2" fill="#CBE3FF" opacity="0.14"/><circle cx="291" cy="57" r="1.1" fill="#CBE3FF" opacity="0.16"/><circle cx="557" cy="124" r="1.3" fill="#CBE3FF" opacity="0.10"/><circle cx="515" cy="39" r="1.0" fill="#CBE3FF" opacity="0.17"/><circle cx="333" cy="24" r="1.0" fill="#CBE3FF" opacity="0.14"/><circle cx="275" cy="90" r="2.4" fill="#CBE3FF" opacity="0.14"/><circle cx="731" cy="158" r="1.3" fill="#CBE3FF" opacity="0.21"/><circle cx="702" cy="94" r="2.6" fill="#CBE3FF" opacity="0.10"/><circle cx="33" cy="71" r="1.8" fill="#CBE3FF" opacity="0.17"/><circle cx="472" cy="54" r="2.5" fill="#CBE3FF" opacity="0.14"/><circle cx="680" cy="64" r="2.2" fill="#CBE3FF" opacity="0.13"/><circle cx="708" cy="138" r="2.2" fill="#CBE3FF" opacity="0.08"/><circle cx="485" cy="80" r="2.1" fill="#CBE3FF" opacity="0.09"/><circle cx="230" cy="103" r="2.1" fill="#CBE3FF" opacity="0.08"/><circle cx="320" cy="79" r="2.5" fill="#CBE3FF" opacity="0.11"/><circle cx="279" cy="113" r="1.4" fill="#CBE3FF" opacity="0.09"/><circle cx="191" cy="138" r="2.5" fill="#CBE3FF" opacity="0.11"/><circle cx="257" cy="127" r="1.6" fill="#CBE3FF" opacity="0.14"/><circle cx="534" cy="151" r="2.4" fill="#CBE3FF" opacity="0.12"/><circle cx="704" cy="30" r="1.2" fill="#CBE3FF" opacity="0.10"/><circle cx="434" cy="27" r="1.9" fill="#CBE3FF" opacity="0.13"/><circle cx="541" cy="78" r="1.3" fill="#CBE3FF" opacity="0.15"/><circle cx="429" cy="124" r="1.2" fill="#CBE3FF" opacity="0.15"/><circle cx="690" cy="27" r="1.8" fill="#CBE3FF" opacity="0.07"/><circle cx="546" cy="75" r="2.7" fill="#CBE3FF" opacity="0.18"/><circle cx="160" cy="101" r="1.3" fill="#CBE3FF" opacity="0.13"/><circle cx="765" cy="118" r="2.8" fill="#CBE3FF" opacity="0.14"/><circle cx="771" cy="23" r="1.8" fill="#CBE3FF" opacity="0.11"/><circle cx="635" cy="128" r="2.3" fill="#CBE3FF" opacity="0.08"/><circle cx="600" cy="83" r="2.4" fill="#CBE3FF" opacity="0.13"/><circle cx="534" cy="154" r="2.0" fill="#CBE3FF" opacity="0.06"/><circle cx="385" cy="41" r="1.8" fill="#CBE3FF" opacity="0.15"/>
  <rect x="417" y="124" width="5" height="13" rx="1.5" fill="#FFFFFF" opacity="0.5" transform="rotate(11 417 124)"/><rect x="284" y="15" width="7" height="12" rx="1.5" fill="#FFD24A" opacity="0.5" transform="rotate(8 284 15)"/><rect x="347" y="24" width="5" height="10" rx="1.5" fill="#FFD24A" opacity="0.5" transform="rotate(-14 347 24)"/><rect x="230" y="127" width="7" height="15" rx="1.5" fill="#FF6A00" opacity="0.5" transform="rotate(2 230 127)"/><rect x="556" y="60" width="7" height="10" rx="1.5" fill="#FFD24A" opacity="0.5" transform="rotate(-21 556 60)"/><rect x="53" y="86" width="7" height="14" rx="1.5" fill="#FFD24A" opacity="0.5" transform="rotate(-27 53 86)"/><rect x="320" y="57" width="5" height="15" rx="1.5" fill="#FFD24A" opacity="0.5" transform="rotate(-28 320 57)"/><rect x="21" y="130" width="6" height="10" rx="1.5" fill="#FF6A00" opacity="0.5" transform="rotate(-12 21 130)"/><rect x="413" y="77" width="8" height="13" rx="1.5" fill="#FF6A00" opacity="0.5" transform="rotate(9 413 77)"/><rect x="759" y="24" width="7" height="14" rx="1.5" fill="#FF6A00" opacity="0.5" transform="rotate(12 759 24)"/><rect x="617" y="50" width="9" height="14" rx="1.5" fill="#FF6A00" opacity="0.5" transform="rotate(16 617 50)"/><rect x="54" y="129" width="4" height="10" rx="1.5" fill="#1BB55C" opacity="0.5" transform="rotate(-14 54 129)"/><rect x="521" y="105" width="7" height="10" rx="1.5" fill="#FFFFFF" opacity="0.5" transform="rotate(6 521 105)"/><rect x="660" y="25" width="5" height="10" rx="1.5" fill="#FFD24A" opacity="0.5" transform="rotate(29 660 25)"/><rect x="795" y="99" width="8" height="10" rx="1.5" fill="#FF6A00" opacity="0.5" transform="rotate(-14 795 99)"/><rect x="551" y="53" width="7" height="10" rx="1.5" fill="#1BB55C" opacity="0.5" transform="rotate(18 551 53)"/><rect x="678" y="22" width="5" height="10" rx="1.5" fill="#FFD24A" opacity="0.5" transform="rotate(1 678 22)"/><rect x="246" y="25" width="5" height="11" rx="1.5" fill="#1BB55C" opacity="0.5" transform="rotate(-29 246 25)"/><rect x="19" y="80" width="5" height="14" rx="1.5" fill="#FFFFFF" opacity="0.5" transform="rotate(5 19 80)"/><rect x="579" y="77" width="6" height="9" rx="1.5" fill="#1BB55C" opacity="0.5" transform="rotate(-18 579 77)"/><rect x="395" y="17" width="7" height="14" rx="1.5" fill="#FFD24A" opacity="0.5" transform="rotate(19 395 17)"/><rect x="1" y="102" width="7" height="9" rx="1.5" fill="#FFFFFF" opacity="0.5" transform="rotate(-11 1 102)"/><rect x="376" y="105" width="7" height="10" rx="1.5" fill="#FFD24A" opacity="0.5" transform="rotate(-9 376 105)"/><rect x="348" y="92" width="5" height="15" rx="1.5" fill="#FF6A00" opacity="0.5" transform="rotate(-2 348 92)"/><rect x="162" y="119" width="8" height="12" rx="1.5" fill="#FF6A00" opacity="0.5" transform="rotate(21 162 119)"/><rect x="416" y="74" width="7" height="11" rx="1.5" fill="#FFD24A" opacity="0.5" transform="rotate(-21 416 74)"/>
  <path d="M0 268 L800 236 L800 440 L0 440 Z" fill="url(#grass)"/>
  <path d="M0 268 L800 236" stroke="#4FBE82" stroke-opacity="0.35" stroke-width="2"/>
  <line x1="400" y1="252" x2="400" y2="440" stroke="#4FBE82" stroke-opacity="0.25" stroke-width="2"/>
  <circle cx="400" cy="400" r="80" fill="none" stroke="#4FBE82" stroke-opacity="0.22" stroke-width="2"/>
  <rect x="0" y="434" width="800" height="6" fill="#FF6A00"/>
  <text x="38" y="210" font-family="Arial, sans-serif" font-size="150" font-weight="900" fill="#FFFFFF" opacity="0.06">ARG</text>
  <text x="762" y="372" text-anchor="end" font-family="Arial, sans-serif" font-size="150" font-weight="900" fill="#FFFFFF" opacity="0.06">AUT</text>
  <rect width="800" height="440" fill="url(#fade)"/>
</svg>