<svg xmlns="http://www.w3.org/2000/svg" width="800" height="440" viewBox="0 0 800 440" role="img" aria-label="ARG x ALG">
  <defs>
    <linearGradient id="sky" x1="0" y1="0" x2="0" y2="1">
      <stop offset="0" stop-color="#243244"/>
      <stop offset="0.5" stop-color="#16202D"/>
      <stop offset="1" stop-color="#0C141E"/>
    </linearGradient>
    <radialGradient id="lgl" cx="0.16" cy="0.0" r="0.7">
      <stop offset="0" stop-color="#5AA9E6" stop-opacity="0.7"/>
      <stop offset="1" stop-color="#5AA9E6" stop-opacity="0"/>
    </radialGradient>
    <radialGradient id="rgl" cx="0.86" cy="0.05" r="0.7">
      <stop offset="0" stop-color="#0E8A4A" stop-opacity="0.62"/>
      <stop offset="1" stop-color="#0E8A4A" stop-opacity="0"/>
    </radialGradient>
    <radialGradient id="spot" cx="0.5" cy="-0.1" r="0.55">
      <stop offset="0" stop-color="#FFFFFF" stop-opacity="0.18"/>
      <stop offset="1" stop-color="#FFFFFF" stop-opacity="0"/>
    </radialGradient>
    <linearGradient id="grass" x1="0" y1="0" x2="0" y2="1">
      <stop offset="0" stop-color="#13502F"/>
      <stop offset="1" stop-color="#0B3520"/>
    </linearGradient>
    <linearGradient id="fade" x1="0" y1="0" x2="0" y2="1">
      <stop offset="0.4" stop-color="#0C141E" stop-opacity="0"/>
      <stop offset="1" stop-color="#0A111A" stop-opacity="0.9"/>
    </linearGradient>
  </defs>
  <rect width="800" height="440" fill="url(#sky)"/>
  <rect width="800" height="440" fill="url(#spot)"/>
  <rect width="800" height="440" fill="url(#lgl)"/>
  <rect width="800" height="440" fill="url(#rgl)"/>
  <circle cx="258" cy="133" r="1.2" fill="#CBE3FF" opacity="0.13"/><circle cx="692" cy="82" r="2.8" fill="#CBE3FF" opacity="0.16"/><circle cx="480" cy="96" r="2.3" fill="#CBE3FF" opacity="0.07"/><circle cx="171" cy="52" r="2.2" fill="#CBE3FF" opacity="0.08"/><circle cx="759" cy="141" r="2.2" fill="#CBE3FF" opacity="0.15"/><circle cx="347" cy="40" r="2.3" fill="#CBE3FF" opacity="0.09"/><circle cx="129" cy="38" r="2.7" fill="#CBE3FF" opacity="0.13"/><circle cx="236" cy="74" r="1.2" fill="#CBE3FF" opacity="0.06"/><circle cx="393" cy="151" r="2.0" fill="#CBE3FF" opacity="0.14"/><circle cx="351" cy="116" r="1.2" fill="#CBE3FF" opacity="0.10"/><circle cx="108" cy="152" r="1.5" fill="#CBE3FF" opacity="0.20"/><circle cx="754" cy="55" r="2.2" fill="#CBE3FF" opacity="0.12"/><circle cx="192" cy="70" r="1.4" fill="#CBE3FF" opacity="0.16"/><circle cx="257" cy="140" r="1.8" fill="#CBE3FF" opacity="0.12"/><circle cx="337" cy="105" r="2.3" fill="#CBE3FF" opacity="0.11"/><circle cx="281" cy="125" r="2.3" fill="#CBE3FF" opacity="0.12"/><circle cx="228" cy="25" r="2.7" fill="#CBE3FF" opacity="0.08"/><circle cx="217" cy="43" r="2.4" fill="#CBE3FF" opacity="0.09"/><circle cx="558" cy="64" r="2.2" fill="#CBE3FF" opacity="0.08"/><circle cx="436" cy="150" r="2.4" fill="#CBE3FF" opacity="0.15"/><circle cx="141" cy="99" r="2.6" fill="#CBE3FF" opacity="0.16"/><circle cx="681" cy="132" r="2.3" fill="#CBE3FF" opacity="0.19"/><circle cx="419" cy="38" r="1.6" fill="#CBE3FF" opacity="0.17"/><circle cx="413" cy="132" r="2.6" fill="#CBE3FF" opacity="0.09"/><circle cx="615" cy="126" r="1.0" fill="#CBE3FF" opacity="0.07"/><circle cx="677" cy="156" r="2.0" fill="#CBE3FF" opacity="0.19"/><circle cx="670" cy="113" r="1.5" fill="#CBE3FF" opacity="0.08"/><circle cx="107" cy="151" r="1.9" fill="#CBE3FF" opacity="0.17"/><circle cx="500" cy="129" r="1.9" fill="#CBE3FF" opacity="0.19"/><circle cx="225" cy="149" r="1.7" fill="#CBE3FF" opacity="0.18"/><circle cx="229" cy="150" r="2.2" fill="#CBE3FF" opacity="0.06"/><circle cx="140" cy="56" r="2.7" fill="#CBE3FF" opacity="0.07"/><circle cx="370" cy="106" r="2.5" fill="#CBE3FF" opacity="0.09"/><circle cx="489" cy="25" r="1.4" fill="#CBE3FF" opacity="0.10"/><circle cx="163" cy="132" r="1.0" fill="#CBE3FF" opacity="0.14"/><circle cx="674" cy="52" r="1.4" fill="#CBE3FF" opacity="0.17"/><circle cx="346" cy="96" r="1.3" fill="#CBE3FF" opacity="0.09"/><circle cx="799" cy="18" r="1.9" fill="#CBE3FF" opacity="0.07"/><circle cx="601" cy="23" r="1.1" fill="#CBE3FF" opacity="0.18"/><circle cx="126" cy="64" r="2.4" fill="#CBE3FF" opacity="0.12"/><circle cx="264" cy="75" r="2.5" fill="#CBE3FF" opacity="0.18"/><circle cx="495" cy="56" r="1.4" fill="#CBE3FF" opacity="0.13"/><circle cx="142" cy="144" r="1.1" fill="#CBE3FF" opacity="0.06"/><circle cx="646" cy="103" r="2.7" fill="#CBE3FF" opacity="0.18"/><circle cx="709" cy="75" r="2.5" fill="#CBE3FF" opacity="0.18"/><circle cx="623" cy="90" r="1.2" fill="#CBE3FF" opacity="0.08"/><circle cx="90" cy="61" r="2.1" fill="#CBE3FF" opacity="0.17"/><circle cx="510" cy="90" r="2.6" fill="#CBE3FF" opacity="0.05"/><circle cx="705" cy="64" r="2.3" fill="#CBE3FF" opacity="0.10"/><circle cx="258" cy="136" r="1.8" fill="#CBE3FF" opacity="0.13"/><circle cx="559" cy="116" r="1.3" fill="#CBE3FF" opacity="0.18"/><circle cx="369" cy="161" r="2.2" fill="#CBE3FF" opacity="0.09"/><circle cx="538" cy="45" r="1.7" fill="#CBE3FF" opacity="0.06"/><circle cx="306" cy="76" r="1.9" fill="#CBE3FF" opacity="0.15"/><circle cx="609" cy="30" r="1.8" fill="#CBE3FF" opacity="0.17"/><circle cx="276" cy="158" r="1.0" fill="#CBE3FF" opacity="0.18"/><circle cx="635" cy="100" r="1.4" fill="#CBE3FF" opacity="0.07"/><circle cx="285" cy="114" r="2.2" fill="#CBE3FF" opacity="0.18"/><circle cx="519" cy="121" r="1.7" fill="#CBE3FF" opacity="0.06"/><circle cx="446" cy="132" r="2.3" fill="#CBE3FF" opacity="0.11"/><circle cx="585" cy="23" r="1.3" fill="#CBE3FF" opacity="0.18"/><circle cx="298" cy="63" r="2.1" fill="#CBE3FF" opacity="0.21"/><circle cx="91" cy="83" r="2.1" fill="#CBE3FF" opacity="0.10"/><circle cx="128" cy="18" r="2.1" fill="#CBE3FF" opacity="0.09"/><circle cx="706" cy="106" r="1.0" fill="#CBE3FF" opacity="0.20"/><circle cx="152" cy="162" r="1.3" fill="#CBE3FF" opacity="0.19"/><circle cx="670" cy="70" r="1.6" fill="#CBE3FF" opacity="0.19"/><circle cx="21" cy="28" r="2.7" fill="#CBE3FF" opacity="0.15"/><circle cx="676" cy="39" r="1.3" fill="#CBE3FF" opacity="0.20"/><circle cx="341" cy="101" r="1.4" fill="#CBE3FF" opacity="0.18"/><circle cx="588" cy="74" r="2.2" fill="#CBE3FF" opacity="0.18"/><circle cx="717" cy="112" r="1.5" fill="#CBE3FF" opacity="0.16"/><circle cx="786" cy="147" r="1.1" fill="#CBE3FF" opacity="0.18"/><circle cx="129" cy="86" r="1.6" fill="#CBE3FF" opacity="0.11"/><circle cx="288" cy="38" r="2.0" fill="#CBE3FF" opacity="0.05"/><circle cx="194" cy="156" r="1.9" fill="#CBE3FF" opacity="0.10"/><circle cx="179" cy="51" r="1.8" fill="#CBE3FF" opacity="0.13"/><circle cx="752" cy="46" r="2.3" fill="#CBE3FF" opacity="0.18"/><circle cx="103" cy="124" r="1.0" fill="#CBE3FF" opacity="0.13"/><circle cx="468" cy="76" r="1.4" fill="#CBE3FF" opacity="0.13"/><circle cx="148" cy="62" r="1.6" fill="#CBE3FF" opacity="0.14"/><circle cx="285" cy="135" r="2.0" fill="#CBE3FF" opacity="0.15"/><circle cx="539" cy="111" r="2.7" fill="#CBE3FF" opacity="0.14"/><circle cx="579" cy="78" r="2.6" fill="#CBE3FF" opacity="0.19"/><circle cx="671" cy="105" r="2.2" fill="#CBE3FF" opacity="0.07"/><circle cx="551" cy="89" r="1.4" fill="#CBE3FF" opacity="0.08"/><circle cx="488" cy="28" r="1.4" fill="#CBE3FF" opacity="0.15"/><circle cx="241" cy="154" r="1.2" fill="#CBE3FF" opacity="0.07"/><circle cx="456" cy="117" r="1.8" fill="#CBE3FF" opacity="0.21"/><circle cx="201" cy="83" r="2.4" fill="#CBE3FF" opacity="0.08"/><circle cx="154" cy="74" r="2.8" fill="#CBE3FF" opacity="0.06"/><circle cx="402" cy="124" r="1.2" fill="#CBE3FF" opacity="0.12"/><circle cx="342" cy="73" r="2.5" fill="#CBE3FF" opacity="0.09"/><circle cx="139" cy="147" r="2.3" fill="#CBE3FF" opacity="0.06"/><circle cx="701" cy="98" r="2.1" fill="#CBE3FF" opacity="0.15"/><circle cx="629" cy="96" r="1.4" fill="#CBE3FF" opacity="0.12"/><circle cx="450" cy="114" r="1.4" fill="#CBE3FF" opacity="0.20"/><circle cx="269" cy="38" r="1.2" fill="#CBE3FF" opacity="0.14"/><circle cx="726" cy="98" r="1.6" fill="#CBE3FF" opacity="0.06"/><circle cx="49" cy="68" r="1.5" fill="#CBE3FF" opacity="0.20"/><circle cx="368" cy="40" r="1.8" fill="#CBE3FF" opacity="0.06"/><circle cx="499" cy="21" r="1.5" fill="#CBE3FF" opacity="0.10"/><circle cx="410" cy="45" r="1.8" fill="#CBE3FF" opacity="0.06"/><circle cx="256" cy="35" r="2.4" fill="#CBE3FF" opacity="0.06"/><circle cx="160" cy="133" r="1.9" fill="#CBE3FF" opacity="0.19"/><circle cx="776" cy="122" r="2.2" fill="#CBE3FF" opacity="0.14"/><circle cx="242" cy="143" r="1.3" fill="#CBE3FF" opacity="0.06"/><circle cx="523" cy="37" r="1.2" fill="#CBE3FF" opacity="0.11"/><circle cx="237" cy="70" r="2.8" fill="#CBE3FF" opacity="0.12"/><circle cx="49" cy="43" r="1.4" fill="#CBE3FF" opacity="0.16"/><circle cx="697" cy="96" r="2.3" fill="#CBE3FF" opacity="0.12"/><circle cx="317" cy="93" r="2.3" fill="#CBE3FF" opacity="0.15"/><circle cx="285" cy="78" r="2.0" fill="#CBE3FF" opacity="0.06"/><circle cx="209" cy="17" r="1.7" fill="#CBE3FF" opacity="0.10"/><circle cx="439" cy="134" r="2.7" fill="#CBE3FF" opacity="0.20"/><circle cx="508" cy="20" r="1.9" fill="#CBE3FF" opacity="0.10"/><circle cx="607" cy="117" r="1.5" fill="#CBE3FF" opacity="0.15"/><circle cx="409" cy="22" r="1.8" fill="#CBE3FF" opacity="0.10"/><circle cx="602" cy="105" r="1.4" fill="#CBE3FF" opacity="0.09"/><circle cx="653" cy="125" r="1.7" fill="#CBE3FF" opacity="0.16"/><circle cx="197" cy="65" r="1.3" fill="#CBE3FF" opacity="0.06"/><circle cx="188" cy="155" r="2.3" fill="#CBE3FF" opacity="0.07"/><circle cx="493" cy="41" r="2.6" fill="#CBE3FF" opacity="0.10"/><circle cx="397" cy="74" r="2.4" fill="#CBE3FF" opacity="0.11"/><circle cx="623" cy="109" r="2.0" fill="#CBE3FF" opacity="0.09"/><circle cx="671" cy="82" r="1.9" fill="#CBE3FF" opacity="0.06"/><circle cx="797" cy="145" r="2.7" fill="#CBE3FF" opacity="0.16"/><circle cx="785" cy="64" r="2.3" fill="#CBE3FF" opacity="0.09"/><circle cx="434" cy="107" r="2.2" fill="#CBE3FF" opacity="0.06"/><circle cx="80" cy="151" r="1.1" fill="#CBE3FF" opacity="0.16"/><circle cx="552" cy="142" r="2.3" fill="#CBE3FF" opacity="0.15"/><circle cx="645" cy="127" r="1.8" fill="#CBE3FF" opacity="0.12"/><circle cx="398" cy="39" r="1.4" fill="#CBE3FF" opacity="0.18"/><circle cx="24" cy="32" r="2.5" fill="#CBE3FF" opacity="0.11"/><circle cx="578" cy="57" r="2.8" fill="#CBE3FF" opacity="0.20"/><circle cx="411" cy="73" r="1.7" fill="#CBE3FF" opacity="0.16"/><circle cx="552" cy="54" r="1.8" fill="#CBE3FF" opacity="0.15"/><circle cx="442" cy="126" r="1.2" fill="#CBE3FF" opacity="0.05"/><circle cx="337" cy="65" r="1.7" fill="#CBE3FF" opacity="0.06"/><circle cx="734" cy="165" r="1.8" fill="#CBE3FF" opacity="0.17"/><circle cx="791" cy="114" r="1.4" fill="#CBE3FF" opacity="0.14"/><circle cx="140" cy="121" r="1.6" fill="#CBE3FF" opacity="0.08"/><circle cx="29" cy="93" r="1.4" fill="#CBE3FF" opacity="0.06"/><circle cx="237" cy="41" r="1.9" fill="#CBE3FF" opacity="0.07"/><circle cx="341" cy="96" r="2.1" fill="#CBE3FF" opacity="0.15"/><circle cx="219" cy="161" r="2.7" fill="#CBE3FF" opacity="0.08"/><circle cx="507" cy="148" r="2.6" fill="#CBE3FF" opacity="0.08"/><circle cx="635" cy="91" r="2.5" fill="#CBE3FF" opacity="0.10"/><circle cx="622" cy="137" r="1.7" fill="#CBE3FF" opacity="0.11"/><circle cx="83" cy="116" r="2.7" fill="#CBE3FF" opacity="0.20"/><circle cx="295" cy="55" r="1.8" fill="#CBE3FF" opacity="0.09"/><circle cx="71" cy="102" r="2.0" fill="#CBE3FF" opacity="0.15"/><circle cx="612" cy="107" r="1.3" fill="#CBE3FF" opacity="0.19"/><circle cx="761" cy="95" r="1.8" fill="#CBE3FF" opacity="0.06"/><circle cx="499" cy="104" r="2.5" fill="#CBE3FF" opacity="0.09"/><circle cx="678" cy="97" r="2.3" fill="#CBE3FF" opacity="0.19"/><circle cx="638" cy="79" r="2.6" fill="#CBE3FF" opacity="0.09"/><circle cx="324" cy="90" r="1.3" fill="#CBE3FF" opacity="0.09"/><circle cx="612" cy="56" r="2.7" fill="#CBE3FF" opacity="0.17"/><circle cx="364" cy="145" r="1.4" fill="#CBE3FF" opacity="0.09"/><circle cx="539" cy="82" r="2.4" fill="#CBE3FF" opacity="0.09"/><circle cx="489" cy="153" r="1.1" fill="#CBE3FF" opacity="0.17"/><circle cx="367" cy="52" r="2.0" fill="#CBE3FF" opacity="0.12"/><circle cx="271" cy="146" r="1.9" fill="#CBE3FF" opacity="0.07"/><circle cx="396" cy="97" r="1.2" fill="#CBE3FF" opacity="0.11"/><circle cx="573" cy="79" r="2.3" fill="#CBE3FF" opacity="0.17"/><circle cx="456" cy="26" r="2.5" fill="#CBE3FF" opacity="0.08"/><circle cx="331" cy="17" r="1.0" fill="#CBE3FF" opacity="0.06"/><circle cx="325" cy="113" r="2.3" fill="#CBE3FF" opacity="0.06"/><circle cx="687" cy="142" r="1.7" fill="#CBE3FF" opacity="0.09"/>
  <rect x="137" y="12" width="6" height="8" rx="1.5" fill="#FFD24A" opacity="0.5" transform="rotate(-18 137 12)"/><rect x="460" y="12" width="8" height="14" rx="1.5" fill="#FF6A00" opacity="0.5" transform="rotate(-1 460 12)"/><rect x="465" y="65" width="5" height="9" rx="1.5" fill="#FFD24A" opacity="0.5" transform="rotate(9 465 65)"/><rect x="56" y="63" width="8" height="13" rx="1.5" fill="#1BB55C" opacity="0.5" transform="rotate(18 56 63)"/><rect x="188" y="118" width="7" height="11" rx="1.5" fill="#FFFFFF" opacity="0.5" transform="rotate(15 188 118)"/><rect x="121" y="21" width="8" height="13" rx="1.5" fill="#FFFFFF" opacity="0.5" transform="rotate(21 121 21)"/><rect x="722" y="40" width="6" height="14" rx="1.5" fill="#FFFFFF" opacity="0.5" transform="rotate(-8 722 40)"/><rect x="104" y="99" width="6" height="9" rx="1.5" fill="#FFFFFF" opacity="0.5" transform="rotate(15 104 99)"/><rect x="62" y="75" width="7" height="15" rx="1.5" fill="#FFFFFF" opacity="0.5" transform="rotate(-7 62 75)"/><rect x="191" y="117" width="5" height="14" rx="1.5" fill="#FF6A00" opacity="0.5" transform="rotate(27 191 117)"/><rect x="322" y="114" width="6" height="10" rx="1.5" fill="#1BB55C" opacity="0.5" transform="rotate(14 322 114)"/><rect x="778" y="31" width="5" height="8" rx="1.5" fill="#1BB55C" opacity="0.5" transform="rotate(-1 778 31)"/><rect x="791" y="81" width="6" height="9" rx="1.5" fill="#1BB55C" opacity="0.5" transform="rotate(-19 791 81)"/><rect x="257" y="60" width="8" height="12" rx="1.5" fill="#FFD24A" opacity="0.5" transform="rotate(9 257 60)"/><rect x="586" y="99" width="7" height="8" rx="1.5" fill="#FFD24A" opacity="0.5" transform="rotate(18 586 99)"/><rect x="262" y="107" width="5" height="12" rx="1.5" fill="#FFD24A" opacity="0.5" transform="rotate(-12 262 107)"/><rect x="739" y="68" width="7" height="13" rx="1.5" fill="#1BB55C" opacity="0.5" transform="rotate(-27 739 68)"/><rect x="195" y="93" width="4" height="15" rx="1.5" fill="#1BB55C" opacity="0.5" transform="rotate(12 195 93)"/><rect x="693" y="53" width="4" height="11" rx="1.5" fill="#1BB55C" opacity="0.5" transform="rotate(-15 693 53)"/><rect x="97" y="110" width="7" height="10" rx="1.5" fill="#1BB55C" opacity="0.5" transform="rotate(28 97 110)"/><rect x="648" y="25" width="5" height="8" rx="1.5" fill="#FFFFFF" opacity="0.5" transform="rotate(20 648 25)"/><rect x="198" y="116" width="4" height="9" rx="1.5" fill="#1BB55C" opacity="0.5" transform="rotate(22 198 116)"/><rect x="119" y="118" width="7" height="12" rx="1.5" fill="#1BB55C" opacity="0.5" transform="rotate(-0 119 118)"/><rect x="54" y="91" width="4" height="10" rx="1.5" fill="#FFFFFF" opacity="0.5" transform="rotate(2 54 91)"/><rect x="111" y="95" width="6" height="9" rx="1.5" fill="#1BB55C" opacity="0.5" transform="rotate(16 111 95)"/><rect x="281" y="39" width="7" height="14" rx="1.5" fill="#FFD24A" opacity="0.5" transform="rotate(-2 281 39)"/>
  <path d="M0 268 L800 236 L800 440 L0 440 Z" fill="url(#grass)"/>
  <path d="M0 268 L800 236" stroke="#4FBE82" stroke-opacity="0.35" stroke-width="2"/>
  <line x1="400" y1="252" x2="400" y2="440" stroke="#4FBE82" stroke-opacity="0.25" stroke-width="2"/>
  <circle cx="400" cy="400" r="80" fill="none" stroke="#4FBE82" stroke-opacity="0.22" stroke-width="2"/>
  <rect x="0" y="434" width="800" height="6" fill="#FF6A00"/>
  <text x="38" y="210" font-family="Arial, sans-serif" font-size="150" font-weight="900" fill="#FFFFFF" opacity="0.06">ARG</text>
  <text x="762" y="372" text-anchor="end" font-family="Arial, sans-serif" font-size="150" font-weight="900" fill="#FFFFFF" opacity="0.06">ALG</text>
  <rect width="800" height="440" fill="url(#fade)"/>
</svg>