<svg xmlns="http://www.w3.org/2000/svg" width="800" height="440" viewBox="0 0 800 440" role="img" aria-label="BRA x HAI">
  <defs>
    <linearGradient id="sky" x1="0" y1="0" x2="0" y2="1">
      <stop offset="0" stop-color="#243244"/>
      <stop offset="0.5" stop-color="#16202D"/>
      <stop offset="1" stop-color="#0C141E"/>
    </linearGradient>
    <radialGradient id="lgl" cx="0.16" cy="0.0" r="0.7">
      <stop offset="0" stop-color="#1E9E54" stop-opacity="0.7"/>
      <stop offset="1" stop-color="#1E9E54" stop-opacity="0"/>
    </radialGradient>
    <radialGradient id="rgl" cx="0.86" cy="0.05" r="0.7">
      <stop offset="0" stop-color="#1B3FA0" stop-opacity="0.62"/>
      <stop offset="1" stop-color="#1B3FA0" stop-opacity="0"/>
    </radialGradient>
    <radialGradient id="spot" cx="0.5" cy="-0.1" r="0.55">
      <stop offset="0" stop-color="#FFFFFF" stop-opacity="0.18"/>
      <stop offset="1" stop-color="#FFFFFF" stop-opacity="0"/>
    </radialGradient>
    <linearGradient id="grass" x1="0" y1="0" x2="0" y2="1">
      <stop offset="0" stop-color="#13502F"/>
      <stop offset="1" stop-color="#0B3520"/>
    </linearGradient>
    <linearGradient id="fade" x1="0" y1="0" x2="0" y2="1">
      <stop offset="0.4" stop-color="#0C141E" stop-opacity="0"/>
      <stop offset="1" stop-color="#0A111A" stop-opacity="0.9"/>
    </linearGradient>
  </defs>
  <rect width="800" height="440" fill="url(#sky)"/>
  <rect width="800" height="440" fill="url(#spot)"/>
  <rect width="800" height="440" fill="url(#lgl)"/>
  <rect width="800" height="440" fill="url(#rgl)"/>
  <circle cx="560" cy="145" r="2.5" fill="#CBE3FF" opacity="0.11"/><circle cx="775" cy="166" r="2.0" fill="#CBE3FF" opacity="0.06"/><circle cx="389" cy="119" r="1.6" fill="#CBE3FF" opacity="0.14"/><circle cx="563" cy="63" r="1.5" fill="#CBE3FF" opacity="0.11"/><circle cx="176" cy="155" r="1.8" fill="#CBE3FF" opacity="0.06"/><circle cx="561" cy="111" r="1.8" fill="#CBE3FF" opacity="0.05"/><circle cx="738" cy="23" r="1.2" fill="#CBE3FF" opacity="0.18"/><circle cx="647" cy="27" r="2.5" fill="#CBE3FF" opacity="0.06"/><circle cx="277" cy="39" r="1.8" fill="#CBE3FF" opacity="0.18"/><circle cx="795" cy="59" r="2.2" fill="#CBE3FF" opacity="0.07"/><circle cx="253" cy="126" r="2.4" fill="#CBE3FF" opacity="0.13"/><circle cx="55" cy="67" r="1.2" fill="#CBE3FF" opacity="0.18"/><circle cx="704" cy="21" r="1.5" fill="#CBE3FF" opacity="0.13"/><circle cx="444" cy="47" r="1.8" fill="#CBE3FF" opacity="0.12"/><circle cx="547" cy="23" r="1.9" fill="#CBE3FF" opacity="0.19"/><circle cx="589" cy="156" r="1.7" fill="#CBE3FF" opacity="0.09"/><circle cx="64" cy="157" r="1.3" fill="#CBE3FF" opacity="0.15"/><circle cx="507" cy="94" r="2.0" fill="#CBE3FF" opacity="0.10"/><circle cx="260" cy="78" r="1.3" fill="#CBE3FF" opacity="0.11"/><circle cx="675" cy="102" r="1.0" fill="#CBE3FF" opacity="0.12"/><circle cx="524" cy="59" r="2.2" fill="#CBE3FF" opacity="0.05"/><circle cx="419" cy="165" r="1.6" fill="#CBE3FF" opacity="0.11"/><circle cx="767" cy="130" r="2.3" fill="#CBE3FF" opacity="0.07"/><circle cx="532" cy="79" r="2.8" fill="#CBE3FF" opacity="0.12"/><circle cx="677" cy="50" r="1.0" fill="#CBE3FF" opacity="0.08"/><circle cx="756" cy="89" r="1.2" fill="#CBE3FF" opacity="0.19"/><circle cx="176" cy="162" r="2.1" fill="#CBE3FF" opacity="0.18"/><circle cx="252" cy="83" r="1.2" fill="#CBE3FF" opacity="0.19"/><circle cx="528" cy="97" r="1.4" fill="#CBE3FF" opacity="0.12"/><circle cx="403" cy="123" r="1.9" fill="#CBE3FF" opacity="0.11"/><circle cx="294" cy="145" r="2.5" fill="#CBE3FF" opacity="0.15"/><circle cx="751" cy="154" r="1.9" fill="#CBE3FF" opacity="0.17"/><circle cx="19" cy="153" r="2.6" fill="#CBE3FF" opacity="0.12"/><circle cx="515" cy="134" r="2.6" fill="#CBE3FF" opacity="0.13"/><circle cx="552" cy="80" r="2.3" fill="#CBE3FF" opacity="0.05"/><circle cx="181" cy="84" r="2.6" fill="#CBE3FF" opacity="0.09"/><circle cx="103" cy="75" r="2.7" fill="#CBE3FF" opacity="0.16"/><circle cx="113" cy="18" r="1.6" fill="#CBE3FF" opacity="0.14"/><circle cx="773" cy="25" r="1.6" fill="#CBE3FF" opacity="0.10"/><circle cx="277" cy="78" r="2.8" fill="#CBE3FF" opacity="0.09"/><circle cx="454" cy="70" r="1.4" fill="#CBE3FF" opacity="0.08"/><circle cx="294" cy="24" r="2.5" fill="#CBE3FF" opacity="0.11"/><circle cx="640" cy="159" r="1.9" fill="#CBE3FF" opacity="0.07"/><circle cx="31" cy="149" r="1.4" fill="#CBE3FF" opacity="0.17"/><circle cx="455" cy="157" r="2.4" fill="#CBE3FF" opacity="0.15"/><circle cx="1" cy="69" r="1.3" fill="#CBE3FF" opacity="0.11"/><circle cx="1" cy="138" r="1.4" fill="#CBE3FF" opacity="0.13"/><circle cx="313" cy="47" r="2.2" fill="#CBE3FF" opacity="0.05"/><circle cx="449" cy="120" r="2.2" fill="#CBE3FF" opacity="0.07"/><circle cx="788" cy="20" r="1.7" fill="#CBE3FF" opacity="0.08"/><circle cx="261" cy="144" r="2.7" fill="#CBE3FF" opacity="0.05"/><circle cx="245" cy="31" r="1.7" fill="#CBE3FF" opacity="0.10"/><circle cx="464" cy="74" r="1.7" fill="#CBE3FF" opacity="0.08"/><circle cx="622" cy="72" r="2.1" fill="#CBE3FF" opacity="0.14"/><circle cx="554" cy="55" r="2.3" fill="#CBE3FF" opacity="0.16"/><circle cx="126" cy="156" r="1.5" fill="#CBE3FF" opacity="0.15"/><circle cx="245" cy="103" r="2.0" fill="#CBE3FF" opacity="0.13"/><circle cx="709" cy="34" r="2.6" fill="#CBE3FF" opacity="0.11"/><circle cx="96" cy="108" r="2.7" fill="#CBE3FF" opacity="0.21"/><circle cx="345" cy="165" r="2.7" fill="#CBE3FF" opacity="0.13"/><circle cx="752" cy="68" r="2.7" fill="#CBE3FF" opacity="0.20"/><circle cx="611" cy="120" r="1.3" fill="#CBE3FF" opacity="0.14"/><circle cx="3" cy="124" r="2.4" fill="#CBE3FF" opacity="0.18"/><circle cx="737" cy="40" r="2.4" fill="#CBE3FF" opacity="0.17"/><circle cx="222" cy="46" r="1.5" fill="#CBE3FF" opacity="0.06"/><circle cx="538" cy="97" r="1.1" fill="#CBE3FF" opacity="0.18"/><circle cx="61" cy="107" r="1.3" fill="#CBE3FF" opacity="0.19"/><circle cx="485" cy="139" r="2.4" fill="#CBE3FF" opacity="0.11"/><circle cx="413" cy="89" r="1.7" fill="#CBE3FF" opacity="0.16"/><circle cx="667" cy="126" r="2.5" fill="#CBE3FF" opacity="0.10"/><circle cx="299" cy="133" r="1.5" fill="#CBE3FF" opacity="0.20"/><circle cx="236" cy="139" r="1.9" fill="#CBE3FF" opacity="0.12"/><circle cx="439" cy="163" r="1.1" fill="#CBE3FF" opacity="0.17"/><circle cx="737" cy="84" r="1.5" fill="#CBE3FF" opacity="0.17"/><circle cx="370" cy="66" r="1.8" fill="#CBE3FF" opacity="0.19"/><circle cx="592" cy="46" r="2.5" fill="#CBE3FF" opacity="0.09"/><circle cx="115" cy="18" r="2.8" fill="#CBE3FF" opacity="0.18"/><circle cx="510" cy="98" r="2.6" fill="#CBE3FF" opacity="0.08"/><circle cx="18" cy="47" r="1.0" fill="#CBE3FF" opacity="0.11"/><circle cx="602" cy="158" r="1.2" fill="#CBE3FF" opacity="0.07"/><circle cx="534" cy="118" r="1.0" fill="#CBE3FF" opacity="0.05"/><circle cx="481" cy="148" r="1.8" fill="#CBE3FF" opacity="0.10"/><circle cx="351" cy="139" r="1.9" fill="#CBE3FF" opacity="0.09"/><circle cx="745" cy="74" r="1.7" fill="#CBE3FF" opacity="0.16"/><circle cx="748" cy="44" r="1.5" fill="#CBE3FF" opacity="0.15"/><circle cx="22" cy="131" r="2.3" fill="#CBE3FF" opacity="0.07"/><circle cx="56" cy="96" r="1.5" fill="#CBE3FF" opacity="0.15"/><circle cx="81" cy="65" r="1.8" fill="#CBE3FF" opacity="0.17"/><circle cx="701" cy="82" r="2.5" fill="#CBE3FF" opacity="0.14"/><circle cx="144" cy="81" r="2.5" fill="#CBE3FF" opacity="0.08"/><circle cx="427" cy="47" r="2.5" fill="#CBE3FF" opacity="0.06"/><circle cx="403" cy="111" r="2.7" fill="#CBE3FF" opacity="0.12"/><circle cx="97" cy="154" r="1.1" fill="#CBE3FF" opacity="0.17"/><circle cx="178" cy="141" r="1.2" fill="#CBE3FF" opacity="0.15"/><circle cx="102" cy="121" r="1.4" fill="#CBE3FF" opacity="0.16"/><circle cx="581" cy="33" r="1.0" fill="#CBE3FF" opacity="0.09"/><circle cx="464" cy="99" r="1.1" fill="#CBE3FF" opacity="0.13"/><circle cx="689" cy="87" r="2.8" fill="#CBE3FF" opacity="0.06"/><circle cx="590" cy="100" r="1.7" fill="#CBE3FF" opacity="0.18"/><circle cx="406" cy="61" r="1.4" fill="#CBE3FF" opacity="0.07"/><circle cx="701" cy="154" r="1.5" fill="#CBE3FF" opacity="0.20"/><circle cx="756" cy="108" r="1.9" fill="#CBE3FF" opacity="0.13"/><circle cx="299" cy="54" r="2.8" fill="#CBE3FF" opacity="0.08"/><circle cx="444" cy="105" r="2.0" fill="#CBE3FF" opacity="0.09"/><circle cx="435" cy="146" r="2.4" fill="#CBE3FF" opacity="0.07"/><circle cx="654" cy="131" r="1.8" fill="#CBE3FF" opacity="0.07"/><circle cx="768" cy="72" r="1.9" fill="#CBE3FF" opacity="0.11"/><circle cx="787" cy="86" r="2.1" fill="#CBE3FF" opacity="0.10"/><circle cx="191" cy="43" r="1.5" fill="#CBE3FF" opacity="0.19"/><circle cx="634" cy="94" r="1.8" fill="#CBE3FF" opacity="0.15"/><circle cx="554" cy="118" r="1.1" fill="#CBE3FF" opacity="0.12"/><circle cx="293" cy="114" r="1.6" fill="#CBE3FF" opacity="0.16"/><circle cx="481" cy="96" r="1.2" fill="#CBE3FF" opacity="0.07"/><circle cx="612" cy="103" r="1.9" fill="#CBE3FF" opacity="0.14"/><circle cx="107" cy="146" r="2.1" fill="#CBE3FF" opacity="0.07"/><circle cx="539" cy="42" r="2.4" fill="#CBE3FF" opacity="0.11"/><circle cx="781" cy="81" r="2.4" fill="#CBE3FF" opacity="0.13"/><circle cx="298" cy="24" r="1.0" fill="#CBE3FF" opacity="0.10"/><circle cx="774" cy="109" r="1.8" fill="#CBE3FF" opacity="0.05"/><circle cx="725" cy="92" r="1.1" fill="#CBE3FF" opacity="0.05"/><circle cx="711" cy="101" r="2.7" fill="#CBE3FF" opacity="0.16"/><circle cx="128" cy="110" r="1.9" fill="#CBE3FF" opacity="0.07"/><circle cx="291" cy="90" r="1.2" fill="#CBE3FF" opacity="0.06"/><circle cx="53" cy="155" r="1.5" fill="#CBE3FF" opacity="0.15"/><circle cx="344" cy="28" r="2.8" fill="#CBE3FF" opacity="0.10"/><circle cx="63" cy="58" r="1.9" fill="#CBE3FF" opacity="0.11"/><circle cx="224" cy="54" r="1.6" fill="#CBE3FF" opacity="0.15"/><circle cx="95" cy="77" r="1.7" fill="#CBE3FF" opacity="0.10"/><circle cx="101" cy="68" r="2.5" fill="#CBE3FF" opacity="0.08"/><circle cx="103" cy="18" r="1.4" fill="#CBE3FF" opacity="0.08"/><circle cx="367" cy="135" r="2.7" fill="#CBE3FF" opacity="0.18"/><circle cx="600" cy="138" r="2.3" fill="#CBE3FF" opacity="0.11"/><circle cx="397" cy="131" r="2.5" fill="#CBE3FF" opacity="0.20"/><circle cx="602" cy="165" r="1.4" fill="#CBE3FF" opacity="0.13"/><circle cx="172" cy="112" r="1.7" fill="#CBE3FF" opacity="0.20"/><circle cx="414" cy="133" r="2.2" fill="#CBE3FF" opacity="0.07"/><circle cx="24" cy="151" r="1.8" fill="#CBE3FF" opacity="0.11"/><circle cx="683" cy="136" r="2.0" fill="#CBE3FF" opacity="0.07"/><circle cx="319" cy="165" r="1.7" fill="#CBE3FF" opacity="0.21"/><circle cx="715" cy="101" r="1.5" fill="#CBE3FF" opacity="0.18"/><circle cx="332" cy="35" r="2.6" fill="#CBE3FF" opacity="0.14"/><circle cx="751" cy="151" r="1.6" fill="#CBE3FF" opacity="0.07"/><circle cx="608" cy="29" r="2.1" fill="#CBE3FF" opacity="0.20"/><circle cx="76" cy="113" r="2.0" fill="#CBE3FF" opacity="0.19"/><circle cx="781" cy="140" r="1.1" fill="#CBE3FF" opacity="0.16"/><circle cx="167" cy="32" r="2.5" fill="#CBE3FF" opacity="0.09"/><circle cx="652" cy="164" r="1.0" fill="#CBE3FF" opacity="0.07"/><circle cx="473" cy="91" r="1.1" fill="#CBE3FF" opacity="0.14"/><circle cx="115" cy="21" r="1.9" fill="#CBE3FF" opacity="0.08"/><circle cx="450" cy="59" r="1.9" fill="#CBE3FF" opacity="0.13"/><circle cx="380" cy="66" r="1.6" fill="#CBE3FF" opacity="0.20"/><circle cx="319" cy="19" r="1.0" fill="#CBE3FF" opacity="0.07"/><circle cx="216" cy="111" r="1.6" fill="#CBE3FF" opacity="0.21"/><circle cx="636" cy="53" r="2.1" fill="#CBE3FF" opacity="0.11"/><circle cx="185" cy="86" r="1.1" fill="#CBE3FF" opacity="0.10"/><circle cx="758" cy="77" r="1.4" fill="#CBE3FF" opacity="0.12"/><circle cx="592" cy="161" r="2.5" fill="#CBE3FF" opacity="0.10"/><circle cx="760" cy="47" r="2.6" fill="#CBE3FF" opacity="0.07"/><circle cx="444" cy="110" r="1.1" fill="#CBE3FF" opacity="0.12"/><circle cx="354" cy="32" r="2.6" fill="#CBE3FF" opacity="0.17"/><circle cx="579" cy="101" r="2.1" fill="#CBE3FF" opacity="0.15"/><circle cx="401" cy="64" r="2.4" fill="#CBE3FF" opacity="0.18"/><circle cx="357" cy="62" r="2.3" fill="#CBE3FF" opacity="0.17"/><circle cx="577" cy="76" r="1.6" fill="#CBE3FF" opacity="0.17"/><circle cx="738" cy="56" r="2.3" fill="#CBE3FF" opacity="0.11"/><circle cx="394" cy="54" r="1.7" fill="#CBE3FF" opacity="0.07"/><circle cx="358" cy="71" r="2.4" fill="#CBE3FF" opacity="0.20"/><circle cx="539" cy="146" r="1.8" fill="#CBE3FF" opacity="0.20"/><circle cx="418" cy="98" r="2.1" fill="#CBE3FF" opacity="0.20"/><circle cx="197" cy="114" r="1.2" fill="#CBE3FF" opacity="0.17"/>
  <rect x="440" y="22" width="4" height="14" rx="1.5" fill="#FFFFFF" opacity="0.5" transform="rotate(-12 440 22)"/><rect x="115" y="53" width="7" height="15" rx="1.5" fill="#1BB55C" opacity="0.5" transform="rotate(-24 115 53)"/><rect x="57" y="73" width="8" height="10" rx="1.5" fill="#FF6A00" opacity="0.5" transform="rotate(26 57 73)"/><rect x="666" y="118" width="4" height="9" rx="1.5" fill="#FFFFFF" opacity="0.5" transform="rotate(4 666 118)"/><rect x="796" y="105" width="7" height="13" rx="1.5" fill="#FFD24A" opacity="0.5" transform="rotate(-15 796 105)"/><rect x="713" y="23" width="8" height="15" rx="1.5" fill="#1BB55C" opacity="0.5" transform="rotate(13 713 23)"/><rect x="366" y="114" width="9" height="13" rx="1.5" fill="#FFFFFF" opacity="0.5" transform="rotate(3 366 114)"/><rect x="512" y="46" width="6" height="9" rx="1.5" fill="#1BB55C" opacity="0.5" transform="rotate(-17 512 46)"/><rect x="573" y="36" width="7" height="13" rx="1.5" fill="#FFD24A" opacity="0.5" transform="rotate(7 573 36)"/><rect x="177" y="116" width="6" height="10" rx="1.5" fill="#1BB55C" opacity="0.5" transform="rotate(14 177 116)"/><rect x="631" y="19" width="9" height="8" rx="1.5" fill="#1BB55C" opacity="0.5" transform="rotate(1 631 19)"/><rect x="189" y="88" width="7" height="11" rx="1.5" fill="#1BB55C" opacity="0.5" transform="rotate(-13 189 88)"/><rect x="493" y="92" width="9" height="10" rx="1.5" fill="#FF6A00" opacity="0.5" transform="rotate(-1 493 92)"/><rect x="436" y="31" width="5" height="11" rx="1.5" fill="#FFFFFF" opacity="0.5" transform="rotate(-2 436 31)"/><rect x="323" y="126" width="5" height="12" rx="1.5" fill="#FFFFFF" opacity="0.5" transform="rotate(-16 323 126)"/><rect x="568" y="30" width="6" height="10" rx="1.5" fill="#FF6A00" opacity="0.5" transform="rotate(-5 568 30)"/><rect x="1" y="128" width="7" height="13" rx="1.5" fill="#FF6A00" opacity="0.5" transform="rotate(-21 1 128)"/><rect x="662" y="90" width="6" height="10" rx="1.5" fill="#FF6A00" opacity="0.5" transform="rotate(-26 662 90)"/><rect x="37" y="119" width="7" height="12" rx="1.5" fill="#1BB55C" opacity="0.5" transform="rotate(-13 37 119)"/><rect x="666" y="55" width="8" height="9" rx="1.5" fill="#FF6A00" opacity="0.5" transform="rotate(-26 666 55)"/><rect x="713" y="21" width="6" height="12" rx="1.5" fill="#FFD24A" opacity="0.5" transform="rotate(6 713 21)"/><rect x="644" y="69" width="7" height="11" rx="1.5" fill="#1BB55C" opacity="0.5" transform="rotate(27 644 69)"/><rect x="144" y="85" width="5" height="14" rx="1.5" fill="#FFFFFF" opacity="0.5" transform="rotate(29 144 85)"/><rect x="629" y="25" width="6" height="11" rx="1.5" fill="#FFD24A" opacity="0.5" transform="rotate(-20 629 25)"/><rect x="667" y="79" width="5" height="13" rx="1.5" fill="#1BB55C" opacity="0.5" transform="rotate(25 667 79)"/><rect x="163" y="95" width="8" height="14" rx="1.5" fill="#FFFFFF" opacity="0.5" transform="rotate(16 163 95)"/>
  <path d="M0 268 L800 236 L800 440 L0 440 Z" fill="url(#grass)"/>
  <path d="M0 268 L800 236" stroke="#4FBE82" stroke-opacity="0.35" stroke-width="2"/>
  <line x1="400" y1="252" x2="400" y2="440" stroke="#4FBE82" stroke-opacity="0.25" stroke-width="2"/>
  <circle cx="400" cy="400" r="80" fill="none" stroke="#4FBE82" stroke-opacity="0.22" stroke-width="2"/>
  <rect x="0" y="434" width="800" height="6" fill="#FF6A00"/>
  <text x="38" y="210" font-family="Arial, sans-serif" font-size="150" font-weight="900" fill="#FFFFFF" opacity="0.06">BRA</text>
  <text x="762" y="372" text-anchor="end" font-family="Arial, sans-serif" font-size="150" font-weight="900" fill="#FFFFFF" opacity="0.06">HAI</text>
  <rect width="800" height="440" fill="url(#fade)"/>
</svg>