<svg xmlns="http://www.w3.org/2000/svg" width="800" height="440" viewBox="0 0 800 440" role="img" aria-label="BRA x MAR">
  <defs>
    <linearGradient id="sky" x1="0" y1="0" x2="0" y2="1">
      <stop offset="0" stop-color="#243244"/>
      <stop offset="0.5" stop-color="#16202D"/>
      <stop offset="1" stop-color="#0C141E"/>
    </linearGradient>
    <radialGradient id="lgl" cx="0.16" cy="0.0" r="0.7">
      <stop offset="0" stop-color="#1E9E54" stop-opacity="0.7"/>
      <stop offset="1" stop-color="#1E9E54" stop-opacity="0"/>
    </radialGradient>
    <radialGradient id="rgl" cx="0.86" cy="0.05" r="0.7">
      <stop offset="0" stop-color="#C8102E" stop-opacity="0.62"/>
      <stop offset="1" stop-color="#C8102E" stop-opacity="0"/>
    </radialGradient>
    <radialGradient id="spot" cx="0.5" cy="-0.1" r="0.55">
      <stop offset="0" stop-color="#FFFFFF" stop-opacity="0.18"/>
      <stop offset="1" stop-color="#FFFFFF" stop-opacity="0"/>
    </radialGradient>
    <linearGradient id="grass" x1="0" y1="0" x2="0" y2="1">
      <stop offset="0" stop-color="#13502F"/>
      <stop offset="1" stop-color="#0B3520"/>
    </linearGradient>
    <linearGradient id="fade" x1="0" y1="0" x2="0" y2="1">
      <stop offset="0.4" stop-color="#0C141E" stop-opacity="0"/>
      <stop offset="1" stop-color="#0A111A" stop-opacity="0.9"/>
    </linearGradient>
  </defs>
  <rect width="800" height="440" fill="url(#sky)"/>
  <rect width="800" height="440" fill="url(#spot)"/>
  <rect width="800" height="440" fill="url(#lgl)"/>
  <rect width="800" height="440" fill="url(#rgl)"/>
  <circle cx="280" cy="156" r="2.7" fill="#CBE3FF" opacity="0.16"/><circle cx="387" cy="91" r="2.4" fill="#CBE3FF" opacity="0.05"/><circle cx="595" cy="142" r="1.3" fill="#CBE3FF" opacity="0.18"/><circle cx="681" cy="114" r="1.2" fill="#CBE3FF" opacity="0.08"/><circle cx="488" cy="161" r="1.4" fill="#CBE3FF" opacity="0.13"/><circle cx="680" cy="64" r="2.3" fill="#CBE3FF" opacity="0.13"/><circle cx="369" cy="94" r="1.1" fill="#CBE3FF" opacity="0.19"/><circle cx="323" cy="96" r="2.6" fill="#CBE3FF" opacity="0.14"/><circle cx="538" cy="28" r="1.4" fill="#CBE3FF" opacity="0.12"/><circle cx="397" cy="38" r="2.5" fill="#CBE3FF" opacity="0.06"/><circle cx="526" cy="71" r="2.6" fill="#CBE3FF" opacity="0.09"/><circle cx="27" cy="41" r="2.0" fill="#CBE3FF" opacity="0.20"/><circle cx="352" cy="19" r="1.2" fill="#CBE3FF" opacity="0.17"/><circle cx="222" cy="107" r="2.3" fill="#CBE3FF" opacity="0.09"/><circle cx="274" cy="19" r="2.3" fill="#CBE3FF" opacity="0.20"/><circle cx="295" cy="86" r="2.2" fill="#CBE3FF" opacity="0.15"/><circle cx="32" cy="86" r="1.2" fill="#CBE3FF" opacity="0.18"/><circle cx="654" cy="55" r="2.4" fill="#CBE3FF" opacity="0.07"/><circle cx="530" cy="47" r="1.1" fill="#CBE3FF" opacity="0.08"/><circle cx="337" cy="134" r="1.9" fill="#CBE3FF" opacity="0.16"/><circle cx="262" cy="112" r="1.6" fill="#CBE3FF" opacity="0.05"/><circle cx="209" cy="166" r="1.3" fill="#CBE3FF" opacity="0.08"/><circle cx="383" cy="73" r="1.7" fill="#CBE3FF" opacity="0.14"/><circle cx="266" cy="123" r="1.9" fill="#CBE3FF" opacity="0.17"/><circle cx="739" cy="108" r="1.9" fill="#CBE3FF" opacity="0.14"/><circle cx="378" cy="53" r="1.1" fill="#CBE3FF" opacity="0.12"/><circle cx="88" cy="89" r="1.6" fill="#CBE3FF" opacity="0.20"/><circle cx="126" cy="50" r="1.1" fill="#CBE3FF" opacity="0.12"/><circle cx="264" cy="132" r="2.1" fill="#CBE3FF" opacity="0.17"/><circle cx="602" cy="145" r="1.4" fill="#CBE3FF" opacity="0.08"/><circle cx="547" cy="156" r="1.7" fill="#CBE3FF" opacity="0.18"/><circle cx="776" cy="85" r="2.4" fill="#CBE3FF" opacity="0.19"/><circle cx="410" cy="160" r="1.8" fill="#CBE3FF" opacity="0.17"/><circle cx="257" cy="150" r="2.7" fill="#CBE3FF" opacity="0.17"/><circle cx="676" cy="48" r="1.7" fill="#CBE3FF" opacity="0.05"/><circle cx="90" cy="125" r="2.7" fill="#CBE3FF" opacity="0.15"/><circle cx="51" cy="46" r="1.8" fill="#CBE3FF" opacity="0.11"/><circle cx="56" cy="92" r="1.3" fill="#CBE3FF" opacity="0.10"/><circle cx="786" cy="95" r="2.2" fill="#CBE3FF" opacity="0.07"/><circle cx="138" cy="47" r="2.8" fill="#CBE3FF" opacity="0.15"/><circle cx="627" cy="118" r="1.2" fill="#CBE3FF" opacity="0.14"/><circle cx="547" cy="20" r="1.8" fill="#CBE3FF" opacity="0.08"/><circle cx="320" cy="162" r="1.4" fill="#CBE3FF" opacity="0.06"/><circle cx="15" cy="83" r="1.2" fill="#CBE3FF" opacity="0.19"/><circle cx="627" cy="161" r="1.7" fill="#CBE3FF" opacity="0.18"/><circle cx="401" cy="117" r="2.1" fill="#CBE3FF" opacity="0.08"/><circle cx="1" cy="77" r="2.1" fill="#CBE3FF" opacity="0.17"/><circle cx="156" cy="31" r="1.6" fill="#CBE3FF" opacity="0.13"/><circle cx="225" cy="143" r="1.6" fill="#CBE3FF" opacity="0.06"/><circle cx="394" cy="18" r="2.3" fill="#CBE3FF" opacity="0.07"/><circle cx="531" cy="80" r="1.9" fill="#CBE3FF" opacity="0.05"/><circle cx="523" cy="23" r="1.4" fill="#CBE3FF" opacity="0.16"/><circle cx="232" cy="45" r="2.2" fill="#CBE3FF" opacity="0.15"/><circle cx="311" cy="44" r="2.5" fill="#CBE3FF" opacity="0.09"/><circle cx="277" cy="111" r="2.6" fill="#CBE3FF" opacity="0.10"/><circle cx="463" cy="161" r="1.3" fill="#CBE3FF" opacity="0.10"/><circle cx="523" cy="59" r="1.5" fill="#CBE3FF" opacity="0.17"/><circle cx="754" cy="25" r="2.7" fill="#CBE3FF" opacity="0.08"/><circle cx="48" cy="137" r="2.7" fill="#CBE3FF" opacity="0.13"/><circle cx="573" cy="90" r="1.9" fill="#CBE3FF" opacity="0.09"/><circle cx="776" cy="42" r="1.8" fill="#CBE3FF" opacity="0.20"/><circle cx="306" cy="68" r="1.2" fill="#CBE3FF" opacity="0.17"/><circle cx="1" cy="70" r="1.7" fill="#CBE3FF" opacity="0.20"/><circle cx="768" cy="28" r="1.7" fill="#CBE3FF" opacity="0.19"/><circle cx="511" cy="106" r="2.2" fill="#CBE3FF" opacity="0.13"/><circle cx="269" cy="57" r="2.0" fill="#CBE3FF" opacity="0.19"/><circle cx="30" cy="137" r="1.2" fill="#CBE3FF" opacity="0.12"/><circle cx="642" cy="152" r="1.7" fill="#CBE3FF" opacity="0.16"/><circle cx="606" cy="52" r="2.3" fill="#CBE3FF" opacity="0.18"/><circle cx="333" cy="146" r="2.6" fill="#CBE3FF" opacity="0.15"/><circle cx="550" cy="150" r="1.2" fill="#CBE3FF" opacity="0.12"/><circle cx="118" cy="77" r="2.4" fill="#CBE3FF" opacity="0.09"/><circle cx="619" cy="164" r="1.0" fill="#CBE3FF" opacity="0.19"/><circle cx="369" cy="125" r="2.2" fill="#CBE3FF" opacity="0.11"/><circle cx="585" cy="41" r="1.4" fill="#CBE3FF" opacity="0.12"/><circle cx="296" cy="106" r="1.7" fill="#CBE3FF" opacity="0.07"/><circle cx="58" cy="17" r="1.9" fill="#CBE3FF" opacity="0.19"/><circle cx="255" cy="57" r="2.7" fill="#CBE3FF" opacity="0.06"/><circle cx="409" cy="107" r="1.9" fill="#CBE3FF" opacity="0.08"/><circle cx="301" cy="162" r="2.0" fill="#CBE3FF" opacity="0.06"/><circle cx="267" cy="142" r="1.9" fill="#CBE3FF" opacity="0.05"/><circle cx="241" cy="157" r="2.3" fill="#CBE3FF" opacity="0.16"/><circle cx="175" cy="77" r="1.4" fill="#CBE3FF" opacity="0.15"/><circle cx="372" cy="45" r="2.3" fill="#CBE3FF" opacity="0.19"/><circle cx="374" cy="30" r="2.1" fill="#CBE3FF" opacity="0.10"/><circle cx="411" cy="74" r="1.6" fill="#CBE3FF" opacity="0.06"/><circle cx="28" cy="131" r="2.1" fill="#CBE3FF" opacity="0.10"/><circle cx="41" cy="40" r="2.3" fill="#CBE3FF" opacity="0.11"/><circle cx="350" cy="124" r="1.8" fill="#CBE3FF" opacity="0.09"/><circle cx="472" cy="49" r="1.8" fill="#CBE3FF" opacity="0.15"/><circle cx="213" cy="32" r="1.8" fill="#CBE3FF" opacity="0.13"/><circle cx="202" cy="64" r="1.9" fill="#CBE3FF" opacity="0.08"/><circle cx="49" cy="85" r="1.0" fill="#CBE3FF" opacity="0.19"/><circle cx="489" cy="79" r="1.1" fill="#CBE3FF" opacity="0.10"/><circle cx="51" cy="68" r="2.1" fill="#CBE3FF" opacity="0.19"/><circle cx="690" cy="24" r="1.9" fill="#CBE3FF" opacity="0.15"/><circle cx="632" cy="58" r="1.9" fill="#CBE3FF" opacity="0.17"/><circle cx="744" cy="52" r="1.9" fill="#CBE3FF" opacity="0.05"/><circle cx="695" cy="58" r="2.3" fill="#CBE3FF" opacity="0.20"/><circle cx="203" cy="39" r="2.1" fill="#CBE3FF" opacity="0.14"/><circle cx="351" cy="85" r="2.1" fill="#CBE3FF" opacity="0.13"/><circle cx="778" cy="62" r="2.3" fill="#CBE3FF" opacity="0.09"/><circle cx="549" cy="35" r="2.8" fill="#CBE3FF" opacity="0.07"/><circle cx="622" cy="135" r="2.4" fill="#CBE3FF" opacity="0.07"/><circle cx="617" cy="81" r="2.6" fill="#CBE3FF" opacity="0.06"/><circle cx="727" cy="148" r="1.4" fill="#CBE3FF" opacity="0.14"/><circle cx="784" cy="119" r="2.4" fill="#CBE3FF" opacity="0.08"/><circle cx="793" cy="51" r="2.4" fill="#CBE3FF" opacity="0.16"/><circle cx="95" cy="30" r="1.2" fill="#CBE3FF" opacity="0.12"/><circle cx="717" cy="55" r="1.4" fill="#CBE3FF" opacity="0.18"/><circle cx="277" cy="67" r="1.0" fill="#CBE3FF" opacity="0.08"/><circle cx="547" cy="140" r="2.2" fill="#CBE3FF" opacity="0.11"/><circle cx="241" cy="131" r="1.1" fill="#CBE3FF" opacity="0.06"/><circle cx="706" cy="135" r="1.4" fill="#CBE3FF" opacity="0.09"/><circle cx="454" cy="81" r="2.5" fill="#CBE3FF" opacity="0.06"/><circle cx="670" cy="29" r="1.7" fill="#CBE3FF" opacity="0.08"/><circle cx="390" cy="124" r="2.6" fill="#CBE3FF" opacity="0.09"/><circle cx="549" cy="20" r="1.0" fill="#CBE3FF" opacity="0.15"/><circle cx="787" cy="62" r="1.4" fill="#CBE3FF" opacity="0.13"/><circle cx="762" cy="129" r="2.0" fill="#CBE3FF" opacity="0.13"/><circle cx="356" cy="133" r="1.9" fill="#CBE3FF" opacity="0.18"/><circle cx="64" cy="63" r="1.4" fill="#CBE3FF" opacity="0.06"/><circle cx="546" cy="128" r="2.0" fill="#CBE3FF" opacity="0.06"/><circle cx="26" cy="86" r="1.2" fill="#CBE3FF" opacity="0.18"/><circle cx="572" cy="22" r="1.9" fill="#CBE3FF" opacity="0.07"/><circle cx="432" cy="37" r="1.5" fill="#CBE3FF" opacity="0.16"/><circle cx="512" cy="35" r="1.3" fill="#CBE3FF" opacity="0.18"/><circle cx="448" cy="47" r="1.3" fill="#CBE3FF" opacity="0.15"/><circle cx="450" cy="42" r="1.8" fill="#CBE3FF" opacity="0.15"/><circle cx="51" cy="17" r="2.1" fill="#CBE3FF" opacity="0.06"/><circle cx="583" cy="150" r="2.8" fill="#CBE3FF" opacity="0.12"/><circle cx="700" cy="152" r="1.6" fill="#CBE3FF" opacity="0.08"/><circle cx="599" cy="74" r="2.7" fill="#CBE3FF" opacity="0.12"/><circle cx="701" cy="90" r="2.1" fill="#CBE3FF" opacity="0.17"/><circle cx="486" cy="64" r="2.3" fill="#CBE3FF" opacity="0.13"/><circle cx="607" cy="149" r="2.5" fill="#CBE3FF" opacity="0.06"/><circle cx="412" cy="158" r="1.4" fill="#CBE3FF" opacity="0.08"/><circle cx="741" cy="76" r="1.5" fill="#CBE3FF" opacity="0.06"/><circle cx="560" cy="91" r="2.2" fill="#CBE3FF" opacity="0.13"/><circle cx="357" cy="58" r="2.2" fill="#CBE3FF" opacity="0.20"/><circle cx="566" cy="26" r="2.7" fill="#CBE3FF" opacity="0.17"/><circle cx="375" cy="84" r="2.2" fill="#CBE3FF" opacity="0.14"/><circle cx="304" cy="97" r="2.4" fill="#CBE3FF" opacity="0.13"/><circle cx="38" cy="64" r="1.5" fill="#CBE3FF" opacity="0.12"/><circle cx="390" cy="78" r="2.0" fill="#CBE3FF" opacity="0.10"/><circle cx="483" cy="99" r="2.6" fill="#CBE3FF" opacity="0.07"/><circle cx="326" cy="90" r="1.9" fill="#CBE3FF" opacity="0.14"/><circle cx="637" cy="129" r="1.0" fill="#CBE3FF" opacity="0.09"/><circle cx="57" cy="94" r="1.5" fill="#CBE3FF" opacity="0.07"/><circle cx="625" cy="38" r="2.3" fill="#CBE3FF" opacity="0.09"/><circle cx="190" cy="41" r="1.3" fill="#CBE3FF" opacity="0.20"/><circle cx="160" cy="18" r="1.0" fill="#CBE3FF" opacity="0.14"/><circle cx="508" cy="139" r="2.2" fill="#CBE3FF" opacity="0.13"/><circle cx="318" cy="35" r="2.4" fill="#CBE3FF" opacity="0.08"/><circle cx="492" cy="51" r="1.1" fill="#CBE3FF" opacity="0.07"/><circle cx="379" cy="46" r="2.1" fill="#CBE3FF" opacity="0.16"/><circle cx="696" cy="89" r="2.7" fill="#CBE3FF" opacity="0.08"/><circle cx="380" cy="106" r="2.7" fill="#CBE3FF" opacity="0.06"/><circle cx="622" cy="138" r="2.0" fill="#CBE3FF" opacity="0.16"/><circle cx="177" cy="99" r="2.7" fill="#CBE3FF" opacity="0.11"/><circle cx="689" cy="58" r="1.5" fill="#CBE3FF" opacity="0.10"/><circle cx="200" cy="40" r="1.7" fill="#CBE3FF" opacity="0.11"/><circle cx="179" cy="39" r="1.7" fill="#CBE3FF" opacity="0.11"/><circle cx="689" cy="121" r="2.2" fill="#CBE3FF" opacity="0.11"/><circle cx="369" cy="36" r="2.6" fill="#CBE3FF" opacity="0.08"/><circle cx="197" cy="110" r="2.2" fill="#CBE3FF" opacity="0.14"/><circle cx="179" cy="119" r="2.6" fill="#CBE3FF" opacity="0.21"/><circle cx="270" cy="81" r="2.3" fill="#CBE3FF" opacity="0.12"/><circle cx="209" cy="57" r="2.5" fill="#CBE3FF" opacity="0.21"/><circle cx="498" cy="65" r="1.1" fill="#CBE3FF" opacity="0.11"/>
  <rect x="160" y="30" width="5" height="10" rx="1.5" fill="#FFD24A" opacity="0.5" transform="rotate(19 160 30)"/><rect x="291" y="50" width="9" height="9" rx="1.5" fill="#FFD24A" opacity="0.5" transform="rotate(27 291 50)"/><rect x="176" y="115" width="7" height="9" rx="1.5" fill="#FF6A00" opacity="0.5" transform="rotate(-11 176 115)"/><rect x="492" y="54" width="5" height="14" rx="1.5" fill="#FFD24A" opacity="0.5" transform="rotate(20 492 54)"/><rect x="427" y="43" width="7" height="14" rx="1.5" fill="#FFFFFF" opacity="0.5" transform="rotate(21 427 43)"/><rect x="781" y="77" width="4" height="14" rx="1.5" fill="#FF6A00" opacity="0.5" transform="rotate(0 781 77)"/><rect x="768" y="97" width="5" height="12" rx="1.5" fill="#FFD24A" opacity="0.5" transform="rotate(24 768 97)"/><rect x="595" y="16" width="6" height="8" rx="1.5" fill="#FFD24A" opacity="0.5" transform="rotate(10 595 16)"/><rect x="222" y="34" width="7" height="15" rx="1.5" fill="#FF6A00" opacity="0.5" transform="rotate(-10 222 34)"/><rect x="409" y="89" width="5" height="10" rx="1.5" fill="#1BB55C" opacity="0.5" transform="rotate(29 409 89)"/><rect x="336" y="83" width="5" height="11" rx="1.5" fill="#FF6A00" opacity="0.5" transform="rotate(-1 336 83)"/><rect x="113" y="110" width="8" height="9" rx="1.5" fill="#FFFFFF" opacity="0.5" transform="rotate(-1 113 110)"/><rect x="763" y="67" width="9" height="9" rx="1.5" fill="#FFFFFF" opacity="0.5" transform="rotate(-26 763 67)"/><rect x="33" y="66" width="9" height="13" rx="1.5" fill="#FFFFFF" opacity="0.5" transform="rotate(-23 33 66)"/><rect x="114" y="126" width="4" height="11" rx="1.5" fill="#FF6A00" opacity="0.5" transform="rotate(15 114 126)"/><rect x="278" y="83" width="9" height="12" rx="1.5" fill="#FFFFFF" opacity="0.5" transform="rotate(25 278 83)"/><rect x="62" y="54" width="5" height="9" rx="1.5" fill="#FFD24A" opacity="0.5" transform="rotate(10 62 54)"/><rect x="611" y="37" width="6" height="14" rx="1.5" fill="#FFFFFF" opacity="0.5" transform="rotate(15 611 37)"/><rect x="711" y="92" width="7" height="9" rx="1.5" fill="#1BB55C" opacity="0.5" transform="rotate(28 711 92)"/><rect x="184" y="89" width="4" height="10" rx="1.5" fill="#FFD24A" opacity="0.5" transform="rotate(20 184 89)"/><rect x="166" y="30" width="9" height="13" rx="1.5" fill="#1BB55C" opacity="0.5" transform="rotate(8 166 30)"/><rect x="40" y="83" width="5" height="11" rx="1.5" fill="#FF6A00" opacity="0.5" transform="rotate(-0 40 83)"/><rect x="687" y="98" width="6" height="8" rx="1.5" fill="#FF6A00" opacity="0.5" transform="rotate(-22 687 98)"/><rect x="335" y="24" width="6" height="13" rx="1.5" fill="#FFFFFF" opacity="0.5" transform="rotate(-16 335 24)"/><rect x="616" y="55" width="7" height="10" rx="1.5" fill="#FF6A00" opacity="0.5" transform="rotate(21 616 55)"/><rect x="27" y="60" width="8" height="10" rx="1.5" fill="#FF6A00" opacity="0.5" transform="rotate(-24 27 60)"/>
  <path d="M0 268 L800 236 L800 440 L0 440 Z" fill="url(#grass)"/>
  <path d="M0 268 L800 236" stroke="#4FBE82" stroke-opacity="0.35" stroke-width="2"/>
  <line x1="400" y1="252" x2="400" y2="440" stroke="#4FBE82" stroke-opacity="0.25" stroke-width="2"/>
  <circle cx="400" cy="400" r="80" fill="none" stroke="#4FBE82" stroke-opacity="0.22" stroke-width="2"/>
  <rect x="0" y="434" width="800" height="6" fill="#FF6A00"/>
  <text x="38" y="210" font-family="Arial, sans-serif" font-size="150" font-weight="900" fill="#FFFFFF" opacity="0.06">BRA</text>
  <text x="762" y="372" text-anchor="end" font-family="Arial, sans-serif" font-size="150" font-weight="900" fill="#FFFFFF" opacity="0.06">MAR</text>
  <rect width="800" height="440" fill="url(#fade)"/>
</svg>