<svg xmlns="http://www.w3.org/2000/svg" width="800" height="440" viewBox="0 0 800 440" role="img" aria-label="CAN x BIH">
  <defs>
    <linearGradient id="sky" x1="0" y1="0" x2="0" y2="1">
      <stop offset="0" stop-color="#243244"/>
      <stop offset="0.5" stop-color="#16202D"/>
      <stop offset="1" stop-color="#0C141E"/>
    </linearGradient>
    <radialGradient id="lgl" cx="0.16" cy="0.0" r="0.7">
      <stop offset="0" stop-color="#C8102E" stop-opacity="0.7"/>
      <stop offset="1" stop-color="#C8102E" stop-opacity="0"/>
    </radialGradient>
    <radialGradient id="rgl" cx="0.86" cy="0.05" r="0.7">
      <stop offset="0" stop-color="#1A4F9C" stop-opacity="0.62"/>
      <stop offset="1" stop-color="#1A4F9C" stop-opacity="0"/>
    </radialGradient>
    <radialGradient id="spot" cx="0.5" cy="-0.1" r="0.55">
      <stop offset="0" stop-color="#FFFFFF" stop-opacity="0.18"/>
      <stop offset="1" stop-color="#FFFFFF" stop-opacity="0"/>
    </radialGradient>
    <linearGradient id="grass" x1="0" y1="0" x2="0" y2="1">
      <stop offset="0" stop-color="#13502F"/>
      <stop offset="1" stop-color="#0B3520"/>
    </linearGradient>
    <linearGradient id="fade" x1="0" y1="0" x2="0" y2="1">
      <stop offset="0.4" stop-color="#0C141E" stop-opacity="0"/>
      <stop offset="1" stop-color="#0A111A" stop-opacity="0.9"/>
    </linearGradient>
  </defs>
  <rect width="800" height="440" fill="url(#sky)"/>
  <rect width="800" height="440" fill="url(#spot)"/>
  <rect width="800" height="440" fill="url(#lgl)"/>
  <rect width="800" height="440" fill="url(#rgl)"/>
  <circle cx="129" cy="75" r="1.1" fill="#CBE3FF" opacity="0.17"/><circle cx="746" cy="124" r="1.9" fill="#CBE3FF" opacity="0.11"/><circle cx="640" cy="131" r="1.6" fill="#CBE3FF" opacity="0.06"/><circle cx="85" cy="109" r="1.6" fill="#CBE3FF" opacity="0.14"/><circle cx="379" cy="78" r="2.5" fill="#CBE3FF" opacity="0.10"/><circle cx="174" cy="103" r="1.6" fill="#CBE3FF" opacity="0.15"/><circle cx="465" cy="27" r="1.9" fill="#CBE3FF" opacity="0.09"/><circle cx="518" cy="45" r="1.1" fill="#CBE3FF" opacity="0.14"/><circle cx="597" cy="158" r="1.5" fill="#CBE3FF" opacity="0.17"/><circle cx="576" cy="66" r="2.0" fill="#CBE3FF" opacity="0.07"/><circle cx="54" cy="159" r="1.3" fill="#CBE3FF" opacity="0.21"/><circle cx="377" cy="36" r="1.6" fill="#CBE3FF" opacity="0.16"/><circle cx="96" cy="118" r="1.2" fill="#CBE3FF" opacity="0.11"/><circle cx="528" cy="153" r="1.4" fill="#CBE3FF" opacity="0.17"/><circle cx="568" cy="135" r="1.6" fill="#CBE3FF" opacity="0.08"/><circle cx="140" cy="71" r="2.6" fill="#CBE3FF" opacity="0.16"/><circle cx="114" cy="21" r="2.7" fill="#CBE3FF" opacity="0.06"/><circle cx="508" cy="30" r="1.7" fill="#CBE3FF" opacity="0.07"/><circle cx="679" cy="40" r="2.5" fill="#CBE3FF" opacity="0.14"/><circle cx="618" cy="158" r="1.7" fill="#CBE3FF" opacity="0.10"/><circle cx="471" cy="58" r="2.7" fill="#CBE3FF" opacity="0.10"/><circle cx="341" cy="149" r="1.6" fill="#CBE3FF" opacity="0.20"/><circle cx="209" cy="27" r="1.3" fill="#CBE3FF" opacity="0.19"/><circle cx="207" cy="149" r="2.7" fill="#CBE3FF" opacity="0.07"/><circle cx="308" cy="71" r="1.9" fill="#CBE3FF" opacity="0.14"/><circle cx="738" cy="161" r="1.5" fill="#CBE3FF" opacity="0.12"/><circle cx="335" cy="139" r="1.2" fill="#CBE3FF" opacity="0.15"/><circle cx="454" cy="159" r="1.5" fill="#CBE3FF" opacity="0.19"/><circle cx="650" cy="73" r="1.4" fill="#CBE3FF" opacity="0.12"/><circle cx="112" cy="83" r="1.3" fill="#CBE3FF" opacity="0.20"/><circle cx="514" cy="158" r="1.6" fill="#CBE3FF" opacity="0.13"/><circle cx="70" cy="36" r="1.9" fill="#CBE3FF" opacity="0.14"/><circle cx="585" cy="61" r="2.6" fill="#CBE3FF" opacity="0.07"/><circle cx="645" cy="20" r="2.1" fill="#CBE3FF" opacity="0.07"/><circle cx="81" cy="74" r="1.9" fill="#CBE3FF" opacity="0.18"/><circle cx="337" cy="34" r="2.1" fill="#CBE3FF" opacity="0.11"/><circle cx="573" cy="56" r="2.1" fill="#CBE3FF" opacity="0.15"/><circle cx="399" cy="92" r="1.4" fill="#CBE3FF" opacity="0.14"/><circle cx="701" cy="94" r="1.9" fill="#CBE3FF" opacity="0.19"/><circle cx="463" cy="40" r="2.6" fill="#CBE3FF" opacity="0.16"/><circle cx="132" cy="45" r="1.7" fill="#CBE3FF" opacity="0.19"/><circle cx="248" cy="36" r="1.2" fill="#CBE3FF" opacity="0.09"/><circle cx="71" cy="80" r="1.9" fill="#CBE3FF" opacity="0.06"/><circle cx="723" cy="135" r="2.8" fill="#CBE3FF" opacity="0.19"/><circle cx="755" cy="46" r="1.7" fill="#CBE3FF" opacity="0.12"/><circle cx="312" cy="128" r="2.0" fill="#CBE3FF" opacity="0.14"/><circle cx="445" cy="114" r="2.5" fill="#CBE3FF" opacity="0.11"/><circle cx="655" cy="128" r="2.7" fill="#CBE3FF" opacity="0.13"/><circle cx="353" cy="115" r="1.7" fill="#CBE3FF" opacity="0.08"/><circle cx="129" cy="151" r="1.4" fill="#CBE3FF" opacity="0.17"/><circle cx="679" cy="66" r="2.1" fill="#CBE3FF" opacity="0.19"/><circle cx="584" cy="88" r="2.5" fill="#CBE3FF" opacity="0.15"/><circle cx="269" cy="105" r="1.4" fill="#CBE3FF" opacity="0.05"/><circle cx="153" cy="121" r="2.3" fill="#CBE3FF" opacity="0.10"/><circle cx="304" cy="23" r="1.4" fill="#CBE3FF" opacity="0.11"/><circle cx="538" cy="162" r="1.0" fill="#CBE3FF" opacity="0.20"/><circle cx="318" cy="133" r="1.2" fill="#CBE3FF" opacity="0.14"/><circle cx="142" cy="140" r="2.5" fill="#CBE3FF" opacity="0.20"/><circle cx="659" cy="143" r="1.4" fill="#CBE3FF" opacity="0.06"/><circle cx="623" cy="74" r="1.7" fill="#CBE3FF" opacity="0.08"/><circle cx="693" cy="20" r="2.1" fill="#CBE3FF" opacity="0.12"/><circle cx="149" cy="40" r="1.5" fill="#CBE3FF" opacity="0.13"/><circle cx="445" cy="125" r="1.6" fill="#CBE3FF" opacity="0.07"/><circle cx="64" cy="92" r="1.6" fill="#CBE3FF" opacity="0.07"/><circle cx="753" cy="136" r="1.9" fill="#CBE3FF" opacity="0.20"/><circle cx="476" cy="164" r="1.1" fill="#CBE3FF" opacity="0.20"/><circle cx="735" cy="43" r="1.3" fill="#CBE3FF" opacity="0.12"/><circle cx="411" cy="22" r="2.7" fill="#CBE3FF" opacity="0.10"/><circle cx="738" cy="28" r="1.2" fill="#CBE3FF" opacity="0.21"/><circle cx="170" cy="134" r="2.1" fill="#CBE3FF" opacity="0.11"/><circle cx="694" cy="120" r="1.6" fill="#CBE3FF" opacity="0.20"/><circle cx="359" cy="64" r="1.3" fill="#CBE3FF" opacity="0.18"/><circle cx="393" cy="81" r="1.0" fill="#CBE3FF" opacity="0.19"/><circle cx="464" cy="51" r="1.3" fill="#CBE3FF" opacity="0.08"/><circle cx="544" cy="102" r="1.5" fill="#CBE3FF" opacity="0.05"/><circle cx="497" cy="86" r="2.4" fill="#CBE3FF" opacity="0.15"/><circle cx="489" cy="34" r="2.3" fill="#CBE3FF" opacity="0.09"/><circle cx="376" cy="31" r="2.5" fill="#CBE3FF" opacity="0.11"/><circle cx="52" cy="70" r="1.9" fill="#CBE3FF" opacity="0.09"/><circle cx="234" cy="46" r="1.2" fill="#CBE3FF" opacity="0.09"/><circle cx="474" cy="114" r="1.3" fill="#CBE3FF" opacity="0.18"/><circle cx="543" cy="76" r="2.4" fill="#CBE3FF" opacity="0.10"/><circle cx="670" cy="64" r="2.7" fill="#CBE3FF" opacity="0.09"/><circle cx="290" cy="122" r="1.8" fill="#CBE3FF" opacity="0.12"/><circle cx="735" cy="60" r="2.5" fill="#CBE3FF" opacity="0.14"/><circle cx="675" cy="127" r="2.1" fill="#CBE3FF" opacity="0.15"/><circle cx="644" cy="22" r="2.1" fill="#CBE3FF" opacity="0.18"/><circle cx="120" cy="85" r="2.0" fill="#CBE3FF" opacity="0.06"/><circle cx="628" cy="67" r="1.4" fill="#CBE3FF" opacity="0.21"/><circle cx="100" cy="125" r="2.6" fill="#CBE3FF" opacity="0.14"/><circle cx="77" cy="45" r="2.8" fill="#CBE3FF" opacity="0.13"/><circle cx="601" cy="70" r="1.1" fill="#CBE3FF" opacity="0.16"/><circle cx="571" cy="120" r="2.6" fill="#CBE3FF" opacity="0.07"/><circle cx="469" cy="81" r="1.7" fill="#CBE3FF" opacity="0.05"/><circle cx="751" cy="57" r="2.5" fill="#CBE3FF" opacity="0.10"/><circle cx="715" cy="56" r="2.1" fill="#CBE3FF" opacity="0.16"/><circle cx="225" cy="65" r="2.1" fill="#CBE3FF" opacity="0.13"/><circle cx="134" cy="27" r="1.1" fill="#CBE3FF" opacity="0.18"/><circle cx="363" cy="132" r="2.2" fill="#CBE3FF" opacity="0.06"/><circle cx="425" cy="117" r="1.3" fill="#CBE3FF" opacity="0.21"/><circle cx="184" cy="103" r="2.3" fill="#CBE3FF" opacity="0.06"/><circle cx="250" cy="19" r="1.2" fill="#CBE3FF" opacity="0.15"/><circle cx="605" cy="31" r="1.4" fill="#CBE3FF" opacity="0.13"/><circle cx="128" cy="26" r="1.7" fill="#CBE3FF" opacity="0.14"/><circle cx="480" cy="150" r="1.5" fill="#CBE3FF" opacity="0.20"/><circle cx="388" cy="69" r="2.5" fill="#CBE3FF" opacity="0.17"/><circle cx="521" cy="79" r="2.1" fill="#CBE3FF" opacity="0.05"/><circle cx="261" cy="26" r="1.1" fill="#CBE3FF" opacity="0.08"/><circle cx="519" cy="43" r="2.8" fill="#CBE3FF" opacity="0.08"/><circle cx="25" cy="30" r="2.1" fill="#CBE3FF" opacity="0.19"/><circle cx="749" cy="56" r="1.6" fill="#CBE3FF" opacity="0.17"/><circle cx="158" cy="129" r="2.5" fill="#CBE3FF" opacity="0.18"/><circle cx="543" cy="122" r="1.5" fill="#CBE3FF" opacity="0.06"/><circle cx="105" cy="92" r="1.3" fill="#CBE3FF" opacity="0.16"/><circle cx="619" cy="150" r="2.7" fill="#CBE3FF" opacity="0.13"/><circle cx="254" cy="93" r="2.3" fill="#CBE3FF" opacity="0.08"/><circle cx="304" cy="66" r="1.2" fill="#CBE3FF" opacity="0.10"/><circle cx="605" cy="19" r="1.4" fill="#CBE3FF" opacity="0.08"/><circle cx="701" cy="135" r="2.1" fill="#CBE3FF" opacity="0.15"/><circle cx="326" cy="71" r="1.4" fill="#CBE3FF" opacity="0.18"/><circle cx="99" cy="41" r="2.1" fill="#CBE3FF" opacity="0.14"/><circle cx="494" cy="86" r="2.5" fill="#CBE3FF" opacity="0.06"/><circle cx="247" cy="103" r="1.8" fill="#CBE3FF" opacity="0.07"/><circle cx="198" cy="120" r="2.6" fill="#CBE3FF" opacity="0.08"/><circle cx="711" cy="137" r="1.5" fill="#CBE3FF" opacity="0.07"/><circle cx="336" cy="49" r="2.4" fill="#CBE3FF" opacity="0.14"/><circle cx="398" cy="81" r="1.8" fill="#CBE3FF" opacity="0.19"/><circle cx="793" cy="40" r="1.7" fill="#CBE3FF" opacity="0.15"/><circle cx="617" cy="136" r="1.6" fill="#CBE3FF" opacity="0.05"/><circle cx="40" cy="84" r="1.0" fill="#CBE3FF" opacity="0.18"/><circle cx="276" cy="154" r="2.6" fill="#CBE3FF" opacity="0.10"/><circle cx="722" cy="72" r="2.3" fill="#CBE3FF" opacity="0.16"/><circle cx="199" cy="27" r="2.1" fill="#CBE3FF" opacity="0.20"/><circle cx="12" cy="24" r="2.6" fill="#CBE3FF" opacity="0.16"/><circle cx="289" cy="37" r="2.8" fill="#CBE3FF" opacity="0.13"/><circle cx="205" cy="120" r="1.4" fill="#CBE3FF" opacity="0.18"/><circle cx="676" cy="110" r="2.3" fill="#CBE3FF" opacity="0.18"/><circle cx="221" cy="146" r="2.0" fill="#CBE3FF" opacity="0.13"/><circle cx="169" cy="41" r="1.4" fill="#CBE3FF" opacity="0.06"/><circle cx="367" cy="166" r="2.3" fill="#CBE3FF" opacity="0.11"/><circle cx="796" cy="140" r="2.1" fill="#CBE3FF" opacity="0.09"/><circle cx="470" cy="69" r="1.3" fill="#CBE3FF" opacity="0.07"/><circle cx="414" cy="129" r="2.1" fill="#CBE3FF" opacity="0.06"/><circle cx="118" cy="104" r="2.4" fill="#CBE3FF" opacity="0.14"/><circle cx="570" cy="131" r="1.6" fill="#CBE3FF" opacity="0.18"/><circle cx="109" cy="164" r="1.9" fill="#CBE3FF" opacity="0.07"/><circle cx="254" cy="157" r="2.7" fill="#CBE3FF" opacity="0.07"/><circle cx="317" cy="54" r="2.6" fill="#CBE3FF" opacity="0.16"/><circle cx="311" cy="76" r="1.4" fill="#CBE3FF" opacity="0.08"/><circle cx="42" cy="66" r="1.8" fill="#CBE3FF" opacity="0.21"/><circle cx="148" cy="35" r="1.4" fill="#CBE3FF" opacity="0.15"/><circle cx="35" cy="134" r="2.4" fill="#CBE3FF" opacity="0.10"/><circle cx="306" cy="61" r="1.1" fill="#CBE3FF" opacity="0.20"/><circle cx="781" cy="130" r="2.3" fill="#CBE3FF" opacity="0.06"/><circle cx="650" cy="60" r="2.6" fill="#CBE3FF" opacity="0.07"/><circle cx="739" cy="56" r="1.6" fill="#CBE3FF" opacity="0.12"/><circle cx="719" cy="122" r="2.7" fill="#CBE3FF" opacity="0.07"/><circle cx="562" cy="53" r="1.1" fill="#CBE3FF" opacity="0.15"/><circle cx="306" cy="111" r="2.8" fill="#CBE3FF" opacity="0.19"/><circle cx="582" cy="80" r="2.1" fill="#CBE3FF" opacity="0.15"/><circle cx="270" cy="49" r="2.6" fill="#CBE3FF" opacity="0.07"/><circle cx="245" cy="85" r="1.9" fill="#CBE3FF" opacity="0.19"/><circle cx="583" cy="34" r="1.5" fill="#CBE3FF" opacity="0.17"/><circle cx="536" cy="81" r="2.3" fill="#CBE3FF" opacity="0.06"/><circle cx="198" cy="132" r="2.0" fill="#CBE3FF" opacity="0.16"/><circle cx="687" cy="122" r="2.6" fill="#CBE3FF" opacity="0.19"/><circle cx="228" cy="96" r="2.7" fill="#CBE3FF" opacity="0.06"/><circle cx="565" cy="17" r="1.0" fill="#CBE3FF" opacity="0.05"/><circle cx="162" cy="65" r="2.5" fill="#CBE3FF" opacity="0.14"/><circle cx="743" cy="154" r="2.3" fill="#CBE3FF" opacity="0.15"/>
  <rect x="9" y="85" width="5" height="10" rx="1.5" fill="#FF6A00" opacity="0.5" transform="rotate(-14 9 85)"/><rect x="63" y="89" width="9" height="8" rx="1.5" fill="#FF6A00" opacity="0.5" transform="rotate(-22 63 89)"/><rect x="380" y="111" width="8" height="12" rx="1.5" fill="#1BB55C" opacity="0.5" transform="rotate(-19 380 111)"/><rect x="187" y="27" width="7" height="9" rx="1.5" fill="#FFD24A" opacity="0.5" transform="rotate(-3 187 27)"/><rect x="523" y="109" width="4" height="9" rx="1.5" fill="#FF6A00" opacity="0.5" transform="rotate(-24 523 109)"/><rect x="85" y="76" width="5" height="14" rx="1.5" fill="#1BB55C" opacity="0.5" transform="rotate(4 85 76)"/><rect x="147" y="120" width="8" height="13" rx="1.5" fill="#1BB55C" opacity="0.5" transform="rotate(-12 147 120)"/><rect x="792" y="102" width="8" height="15" rx="1.5" fill="#1BB55C" opacity="0.5" transform="rotate(-4 792 102)"/><rect x="766" y="114" width="7" height="12" rx="1.5" fill="#1BB55C" opacity="0.5" transform="rotate(13 766 114)"/><rect x="17" y="30" width="6" height="8" rx="1.5" fill="#FFD24A" opacity="0.5" transform="rotate(5 17 30)"/><rect x="182" y="70" width="6" height="12" rx="1.5" fill="#1BB55C" opacity="0.5" transform="rotate(5 182 70)"/><rect x="7" y="21" width="7" height="15" rx="1.5" fill="#FFFFFF" opacity="0.5" transform="rotate(-25 7 21)"/><rect x="111" y="61" width="7" height="12" rx="1.5" fill="#1BB55C" opacity="0.5" transform="rotate(-5 111 61)"/><rect x="744" y="21" width="5" height="10" rx="1.5" fill="#1BB55C" opacity="0.5" transform="rotate(13 744 21)"/><rect x="245" y="113" width="5" height="9" rx="1.5" fill="#FFD24A" opacity="0.5" transform="rotate(2 245 113)"/><rect x="125" y="122" width="9" height="13" rx="1.5" fill="#FFD24A" opacity="0.5" transform="rotate(-8 125 122)"/><rect x="432" y="24" width="5" height="9" rx="1.5" fill="#1BB55C" opacity="0.5" transform="rotate(-23 432 24)"/><rect x="778" y="39" width="7" height="9" rx="1.5" fill="#FFD24A" opacity="0.5" transform="rotate(4 778 39)"/><rect x="239" y="59" width="8" height="12" rx="1.5" fill="#FFFFFF" opacity="0.5" transform="rotate(-3 239 59)"/><rect x="699" y="56" width="6" height="14" rx="1.5" fill="#1BB55C" opacity="0.5" transform="rotate(17 699 56)"/><rect x="133" y="32" width="8" height="11" rx="1.5" fill="#FF6A00" opacity="0.5" transform="rotate(15 133 32)"/><rect x="617" y="46" width="6" height="14" rx="1.5" fill="#FFFFFF" opacity="0.5" transform="rotate(27 617 46)"/><rect x="274" y="114" width="4" height="11" rx="1.5" fill="#FF6A00" opacity="0.5" transform="rotate(-6 274 114)"/><rect x="447" y="117" width="7" height="9" rx="1.5" fill="#FF6A00" opacity="0.5" transform="rotate(25 447 117)"/><rect x="338" y="63" width="8" height="12" rx="1.5" fill="#FF6A00" opacity="0.5" transform="rotate(-14 338 63)"/><rect x="86" y="93" width="7" height="10" rx="1.5" fill="#FFD24A" opacity="0.5" transform="rotate(27 86 93)"/>
  <path d="M0 268 L800 236 L800 440 L0 440 Z" fill="url(#grass)"/>
  <path d="M0 268 L800 236" stroke="#4FBE82" stroke-opacity="0.35" stroke-width="2"/>
  <line x1="400" y1="252" x2="400" y2="440" stroke="#4FBE82" stroke-opacity="0.25" stroke-width="2"/>
  <circle cx="400" cy="400" r="80" fill="none" stroke="#4FBE82" stroke-opacity="0.22" stroke-width="2"/>
  <rect x="0" y="434" width="800" height="6" fill="#FF6A00"/>
  <text x="38" y="210" font-family="Arial, sans-serif" font-size="150" font-weight="900" fill="#FFFFFF" opacity="0.06">CAN</text>
  <text x="762" y="372" text-anchor="end" font-family="Arial, sans-serif" font-size="150" font-weight="900" fill="#FFFFFF" opacity="0.06">BIH</text>
  <rect width="800" height="440" fill="url(#fade)"/>
</svg>