<svg xmlns="http://www.w3.org/2000/svg" width="800" height="440" viewBox="0 0 800 440" role="img" aria-label="KOR x CZE">
  <defs>
    <linearGradient id="sky" x1="0" y1="0" x2="0" y2="1">
      <stop offset="0" stop-color="#243244"/>
      <stop offset="0.5" stop-color="#16202D"/>
      <stop offset="1" stop-color="#0C141E"/>
    </linearGradient>
    <radialGradient id="lgl" cx="0.16" cy="0.0" r="0.7">
      <stop offset="0" stop-color="#1F4FA0" stop-opacity="0.7"/>
      <stop offset="1" stop-color="#1F4FA0" stop-opacity="0"/>
    </radialGradient>
    <radialGradient id="rgl" cx="0.86" cy="0.05" r="0.7">
      <stop offset="0" stop-color="#C8102E" stop-opacity="0.62"/>
      <stop offset="1" stop-color="#C8102E" stop-opacity="0"/>
    </radialGradient>
    <radialGradient id="spot" cx="0.5" cy="-0.1" r="0.55">
      <stop offset="0" stop-color="#FFFFFF" stop-opacity="0.18"/>
      <stop offset="1" stop-color="#FFFFFF" stop-opacity="0"/>
    </radialGradient>
    <linearGradient id="grass" x1="0" y1="0" x2="0" y2="1">
      <stop offset="0" stop-color="#13502F"/>
      <stop offset="1" stop-color="#0B3520"/>
    </linearGradient>
    <linearGradient id="fade" x1="0" y1="0" x2="0" y2="1">
      <stop offset="0.4" stop-color="#0C141E" stop-opacity="0"/>
      <stop offset="1" stop-color="#0A111A" stop-opacity="0.9"/>
    </linearGradient>
  </defs>
  <rect width="800" height="440" fill="url(#sky)"/>
  <rect width="800" height="440" fill="url(#spot)"/>
  <rect width="800" height="440" fill="url(#lgl)"/>
  <rect width="800" height="440" fill="url(#rgl)"/>
  <circle cx="453" cy="109" r="2.1" fill="#CBE3FF" opacity="0.18"/><circle cx="525" cy="66" r="2.5" fill="#CBE3FF" opacity="0.05"/><circle cx="663" cy="50" r="1.8" fill="#CBE3FF" opacity="0.08"/><circle cx="188" cy="32" r="1.8" fill="#CBE3FF" opacity="0.18"/><circle cx="325" cy="112" r="1.3" fill="#CBE3FF" opacity="0.16"/><circle cx="720" cy="48" r="1.3" fill="#CBE3FF" opacity="0.16"/><circle cx="513" cy="68" r="2.3" fill="#CBE3FF" opacity="0.20"/><circle cx="216" cy="20" r="2.1" fill="#CBE3FF" opacity="0.05"/><circle cx="626" cy="74" r="2.5" fill="#CBE3FF" opacity="0.20"/><circle cx="265" cy="80" r="2.6" fill="#CBE3FF" opacity="0.16"/><circle cx="618" cy="53" r="1.5" fill="#CBE3FF" opacity="0.18"/><circle cx="552" cy="33" r="2.3" fill="#CBE3FF" opacity="0.15"/><circle cx="768" cy="18" r="1.2" fill="#CBE3FF" opacity="0.08"/><circle cx="681" cy="26" r="1.9" fill="#CBE3FF" opacity="0.13"/><circle cx="716" cy="118" r="1.3" fill="#CBE3FF" opacity="0.10"/><circle cx="463" cy="63" r="1.8" fill="#CBE3FF" opacity="0.17"/><circle cx="555" cy="63" r="1.7" fill="#CBE3FF" opacity="0.08"/><circle cx="436" cy="92" r="1.3" fill="#CBE3FF" opacity="0.07"/><circle cx="353" cy="37" r="2.3" fill="#CBE3FF" opacity="0.18"/><circle cx="758" cy="95" r="1.6" fill="#CBE3FF" opacity="0.07"/><circle cx="175" cy="30" r="1.4" fill="#CBE3FF" opacity="0.05"/><circle cx="406" cy="66" r="1.8" fill="#CBE3FF" opacity="0.18"/><circle cx="522" cy="154" r="2.0" fill="#CBE3FF" opacity="0.06"/><circle cx="177" cy="87" r="2.2" fill="#CBE3FF" opacity="0.18"/><circle cx="492" cy="127" r="1.0" fill="#CBE3FF" opacity="0.06"/><circle cx="519" cy="140" r="1.7" fill="#CBE3FF" opacity="0.20"/><circle cx="59" cy="165" r="2.0" fill="#CBE3FF" opacity="0.20"/><circle cx="617" cy="138" r="1.7" fill="#CBE3FF" opacity="0.15"/><circle cx="443" cy="43" r="1.1" fill="#CBE3FF" opacity="0.18"/><circle cx="668" cy="52" r="1.3" fill="#CBE3FF" opacity="0.18"/><circle cx="98" cy="159" r="1.5" fill="#CBE3FF" opacity="0.19"/><circle cx="517" cy="162" r="2.5" fill="#CBE3FF" opacity="0.20"/><circle cx="273" cy="162" r="2.1" fill="#CBE3FF" opacity="0.18"/><circle cx="438" cy="105" r="2.7" fill="#CBE3FF" opacity="0.18"/><circle cx="184" cy="87" r="2.0" fill="#CBE3FF" opacity="0.16"/><circle cx="60" cy="139" r="2.7" fill="#CBE3FF" opacity="0.17"/><circle cx="34" cy="136" r="2.2" fill="#CBE3FF" opacity="0.09"/><circle cx="571" cy="17" r="2.4" fill="#CBE3FF" opacity="0.08"/><circle cx="258" cy="19" r="1.8" fill="#CBE3FF" opacity="0.17"/><circle cx="626" cy="37" r="1.6" fill="#CBE3FF" opacity="0.17"/><circle cx="685" cy="84" r="1.1" fill="#CBE3FF" opacity="0.06"/><circle cx="98" cy="119" r="2.7" fill="#CBE3FF" opacity="0.18"/><circle cx="747" cy="114" r="1.3" fill="#CBE3FF" opacity="0.06"/><circle cx="277" cy="160" r="1.7" fill="#CBE3FF" opacity="0.20"/><circle cx="418" cy="63" r="2.7" fill="#CBE3FF" opacity="0.08"/><circle cx="267" cy="134" r="1.1" fill="#CBE3FF" opacity="0.18"/><circle cx="267" cy="57" r="1.7" fill="#CBE3FF" opacity="0.08"/><circle cx="104" cy="26" r="1.4" fill="#CBE3FF" opacity="0.05"/><circle cx="416" cy="101" r="2.6" fill="#CBE3FF" opacity="0.16"/><circle cx="796" cy="67" r="1.8" fill="#CBE3FF" opacity="0.06"/><circle cx="354" cy="59" r="2.2" fill="#CBE3FF" opacity="0.10"/><circle cx="615" cy="121" r="1.2" fill="#CBE3FF" opacity="0.07"/><circle cx="688" cy="135" r="1.8" fill="#CBE3FF" opacity="0.17"/><circle cx="474" cy="85" r="1.4" fill="#CBE3FF" opacity="0.19"/><circle cx="718" cy="129" r="2.6" fill="#CBE3FF" opacity="0.19"/><circle cx="575" cy="163" r="1.8" fill="#CBE3FF" opacity="0.08"/><circle cx="615" cy="95" r="1.9" fill="#CBE3FF" opacity="0.13"/><circle cx="236" cy="122" r="1.5" fill="#CBE3FF" opacity="0.18"/><circle cx="565" cy="147" r="1.6" fill="#CBE3FF" opacity="0.10"/><circle cx="648" cy="66" r="1.6" fill="#CBE3FF" opacity="0.08"/><circle cx="251" cy="83" r="2.2" fill="#CBE3FF" opacity="0.15"/><circle cx="470" cy="101" r="1.7" fill="#CBE3FF" opacity="0.19"/><circle cx="268" cy="152" r="1.5" fill="#CBE3FF" opacity="0.09"/><circle cx="512" cy="124" r="1.5" fill="#CBE3FF" opacity="0.09"/><circle cx="74" cy="76" r="1.8" fill="#CBE3FF" opacity="0.16"/><circle cx="179" cy="143" r="1.6" fill="#CBE3FF" opacity="0.20"/><circle cx="287" cy="146" r="2.3" fill="#CBE3FF" opacity="0.20"/><circle cx="695" cy="107" r="1.5" fill="#CBE3FF" opacity="0.07"/><circle cx="404" cy="90" r="2.4" fill="#CBE3FF" opacity="0.14"/><circle cx="489" cy="53" r="2.7" fill="#CBE3FF" opacity="0.17"/><circle cx="366" cy="105" r="1.8" fill="#CBE3FF" opacity="0.15"/><circle cx="79" cy="57" r="2.5" fill="#CBE3FF" opacity="0.07"/><circle cx="680" cy="115" r="1.0" fill="#CBE3FF" opacity="0.20"/><circle cx="512" cy="89" r="1.8" fill="#CBE3FF" opacity="0.14"/><circle cx="123" cy="133" r="2.5" fill="#CBE3FF" opacity="0.10"/><circle cx="197" cy="76" r="2.7" fill="#CBE3FF" opacity="0.12"/><circle cx="305" cy="117" r="1.6" fill="#CBE3FF" opacity="0.20"/><circle cx="437" cy="93" r="1.5" fill="#CBE3FF" opacity="0.06"/><circle cx="273" cy="126" r="1.0" fill="#CBE3FF" opacity="0.18"/><circle cx="201" cy="63" r="1.7" fill="#CBE3FF" opacity="0.11"/><circle cx="178" cy="100" r="1.0" fill="#CBE3FF" opacity="0.16"/><circle cx="694" cy="110" r="2.5" fill="#CBE3FF" opacity="0.07"/><circle cx="117" cy="57" r="2.5" fill="#CBE3FF" opacity="0.06"/><circle cx="248" cy="85" r="2.4" fill="#CBE3FF" opacity="0.09"/><circle cx="516" cy="75" r="1.8" fill="#CBE3FF" opacity="0.08"/><circle cx="7" cy="154" r="1.4" fill="#CBE3FF" opacity="0.11"/><circle cx="552" cy="43" r="1.2" fill="#CBE3FF" opacity="0.14"/><circle cx="560" cy="32" r="1.9" fill="#CBE3FF" opacity="0.20"/><circle cx="767" cy="38" r="2.1" fill="#CBE3FF" opacity="0.19"/><circle cx="315" cy="88" r="2.1" fill="#CBE3FF" opacity="0.06"/><circle cx="409" cy="126" r="1.5" fill="#CBE3FF" opacity="0.05"/><circle cx="401" cy="148" r="1.6" fill="#CBE3FF" opacity="0.13"/><circle cx="32" cy="62" r="1.6" fill="#CBE3FF" opacity="0.09"/><circle cx="59" cy="158" r="1.1" fill="#CBE3FF" opacity="0.19"/><circle cx="301" cy="51" r="1.7" fill="#CBE3FF" opacity="0.14"/><circle cx="727" cy="72" r="2.2" fill="#CBE3FF" opacity="0.17"/><circle cx="421" cy="144" r="2.2" fill="#CBE3FF" opacity="0.18"/><circle cx="230" cy="90" r="1.6" fill="#CBE3FF" opacity="0.16"/><circle cx="197" cy="94" r="1.2" fill="#CBE3FF" opacity="0.15"/><circle cx="135" cy="81" r="1.7" fill="#CBE3FF" opacity="0.16"/><circle cx="500" cy="112" r="2.4" fill="#CBE3FF" opacity="0.10"/><circle cx="785" cy="147" r="2.5" fill="#CBE3FF" opacity="0.18"/><circle cx="633" cy="29" r="1.6" fill="#CBE3FF" opacity="0.17"/><circle cx="681" cy="46" r="1.3" fill="#CBE3FF" opacity="0.17"/><circle cx="412" cy="109" r="2.7" fill="#CBE3FF" opacity="0.11"/><circle cx="218" cy="104" r="1.3" fill="#CBE3FF" opacity="0.11"/><circle cx="789" cy="135" r="1.9" fill="#CBE3FF" opacity="0.12"/><circle cx="796" cy="89" r="1.4" fill="#CBE3FF" opacity="0.12"/><circle cx="330" cy="125" r="1.8" fill="#CBE3FF" opacity="0.15"/><circle cx="478" cy="92" r="2.5" fill="#CBE3FF" opacity="0.19"/><circle cx="185" cy="50" r="1.0" fill="#CBE3FF" opacity="0.13"/><circle cx="364" cy="49" r="1.8" fill="#CBE3FF" opacity="0.14"/><circle cx="694" cy="43" r="1.7" fill="#CBE3FF" opacity="0.06"/><circle cx="204" cy="145" r="1.3" fill="#CBE3FF" opacity="0.19"/><circle cx="302" cy="109" r="2.0" fill="#CBE3FF" opacity="0.16"/><circle cx="446" cy="125" r="2.7" fill="#CBE3FF" opacity="0.07"/><circle cx="260" cy="38" r="1.5" fill="#CBE3FF" opacity="0.18"/><circle cx="633" cy="19" r="1.6" fill="#CBE3FF" opacity="0.12"/><circle cx="258" cy="97" r="2.5" fill="#CBE3FF" opacity="0.16"/><circle cx="508" cy="41" r="1.0" fill="#CBE3FF" opacity="0.05"/><circle cx="770" cy="144" r="2.2" fill="#CBE3FF" opacity="0.19"/><circle cx="309" cy="97" r="1.3" fill="#CBE3FF" opacity="0.06"/><circle cx="97" cy="91" r="1.7" fill="#CBE3FF" opacity="0.16"/><circle cx="284" cy="62" r="2.4" fill="#CBE3FF" opacity="0.19"/><circle cx="381" cy="120" r="2.2" fill="#CBE3FF" opacity="0.07"/><circle cx="288" cy="130" r="1.9" fill="#CBE3FF" opacity="0.12"/><circle cx="341" cy="29" r="1.2" fill="#CBE3FF" opacity="0.19"/><circle cx="565" cy="36" r="1.8" fill="#CBE3FF" opacity="0.07"/><circle cx="300" cy="33" r="1.5" fill="#CBE3FF" opacity="0.17"/><circle cx="34" cy="117" r="2.3" fill="#CBE3FF" opacity="0.17"/><circle cx="122" cy="156" r="1.6" fill="#CBE3FF" opacity="0.09"/><circle cx="733" cy="107" r="2.6" fill="#CBE3FF" opacity="0.12"/><circle cx="399" cy="154" r="2.7" fill="#CBE3FF" opacity="0.15"/><circle cx="467" cy="66" r="1.1" fill="#CBE3FF" opacity="0.08"/><circle cx="591" cy="98" r="1.2" fill="#CBE3FF" opacity="0.21"/><circle cx="405" cy="105" r="2.6" fill="#CBE3FF" opacity="0.16"/><circle cx="8" cy="161" r="1.9" fill="#CBE3FF" opacity="0.07"/><circle cx="761" cy="106" r="1.3" fill="#CBE3FF" opacity="0.16"/><circle cx="373" cy="166" r="1.8" fill="#CBE3FF" opacity="0.10"/><circle cx="772" cy="144" r="2.4" fill="#CBE3FF" opacity="0.15"/><circle cx="111" cy="122" r="2.7" fill="#CBE3FF" opacity="0.13"/><circle cx="517" cy="61" r="1.8" fill="#CBE3FF" opacity="0.11"/><circle cx="469" cy="70" r="2.0" fill="#CBE3FF" opacity="0.10"/><circle cx="559" cy="48" r="1.9" fill="#CBE3FF" opacity="0.15"/><circle cx="260" cy="157" r="2.2" fill="#CBE3FF" opacity="0.14"/><circle cx="322" cy="121" r="1.5" fill="#CBE3FF" opacity="0.06"/><circle cx="217" cy="115" r="2.2" fill="#CBE3FF" opacity="0.11"/><circle cx="158" cy="91" r="1.6" fill="#CBE3FF" opacity="0.19"/><circle cx="38" cy="68" r="1.3" fill="#CBE3FF" opacity="0.17"/><circle cx="150" cy="80" r="2.5" fill="#CBE3FF" opacity="0.18"/><circle cx="127" cy="33" r="2.4" fill="#CBE3FF" opacity="0.21"/><circle cx="373" cy="117" r="2.2" fill="#CBE3FF" opacity="0.16"/><circle cx="605" cy="98" r="2.4" fill="#CBE3FF" opacity="0.16"/><circle cx="212" cy="28" r="1.4" fill="#CBE3FF" opacity="0.12"/><circle cx="328" cy="139" r="1.6" fill="#CBE3FF" opacity="0.07"/><circle cx="519" cy="136" r="2.3" fill="#CBE3FF" opacity="0.18"/><circle cx="731" cy="64" r="2.7" fill="#CBE3FF" opacity="0.07"/><circle cx="253" cy="26" r="2.1" fill="#CBE3FF" opacity="0.11"/><circle cx="148" cy="97" r="2.2" fill="#CBE3FF" opacity="0.13"/><circle cx="385" cy="71" r="2.7" fill="#CBE3FF" opacity="0.09"/><circle cx="460" cy="44" r="1.4" fill="#CBE3FF" opacity="0.14"/><circle cx="667" cy="32" r="2.1" fill="#CBE3FF" opacity="0.15"/><circle cx="386" cy="31" r="1.4" fill="#CBE3FF" opacity="0.20"/><circle cx="459" cy="136" r="2.4" fill="#CBE3FF" opacity="0.20"/><circle cx="513" cy="29" r="2.6" fill="#CBE3FF" opacity="0.12"/><circle cx="131" cy="129" r="1.8" fill="#CBE3FF" opacity="0.06"/><circle cx="653" cy="84" r="2.7" fill="#CBE3FF" opacity="0.15"/><circle cx="713" cy="59" r="1.3" fill="#CBE3FF" opacity="0.10"/><circle cx="139" cy="143" r="2.6" fill="#CBE3FF" opacity="0.10"/><circle cx="66" cy="49" r="1.1" fill="#CBE3FF" opacity="0.09"/>
  <rect x="333" y="113" width="8" height="10" rx="1.5" fill="#FFD24A" opacity="0.5" transform="rotate(29 333 113)"/><rect x="349" y="49" width="4" height="11" rx="1.5" fill="#FF6A00" opacity="0.5" transform="rotate(-17 349 49)"/><rect x="482" y="48" width="8" height="13" rx="1.5" fill="#1BB55C" opacity="0.5" transform="rotate(-23 482 48)"/><rect x="434" y="73" width="5" height="13" rx="1.5" fill="#FFD24A" opacity="0.5" transform="rotate(-15 434 73)"/><rect x="571" y="22" width="5" height="14" rx="1.5" fill="#FFD24A" opacity="0.5" transform="rotate(13 571 22)"/><rect x="537" y="16" width="5" height="10" rx="1.5" fill="#1BB55C" opacity="0.5" transform="rotate(-24 537 16)"/><rect x="636" y="11" width="5" height="10" rx="1.5" fill="#FFD24A" opacity="0.5" transform="rotate(-29 636 11)"/><rect x="90" y="86" width="4" height="15" rx="1.5" fill="#FFFFFF" opacity="0.5" transform="rotate(19 90 86)"/><rect x="638" y="34" width="7" height="11" rx="1.5" fill="#1BB55C" opacity="0.5" transform="rotate(24 638 34)"/><rect x="220" y="120" width="7" height="14" rx="1.5" fill="#FFD24A" opacity="0.5" transform="rotate(-6 220 120)"/><rect x="504" y="64" width="4" height="12" rx="1.5" fill="#FFD24A" opacity="0.5" transform="rotate(-22 504 64)"/><rect x="355" y="37" width="7" height="11" rx="1.5" fill="#FFFFFF" opacity="0.5" transform="rotate(23 355 37)"/><rect x="586" y="59" width="7" height="13" rx="1.5" fill="#FF6A00" opacity="0.5" transform="rotate(5 586 59)"/><rect x="699" y="118" width="8" height="9" rx="1.5" fill="#FFFFFF" opacity="0.5" transform="rotate(-29 699 118)"/><rect x="311" y="46" width="6" height="15" rx="1.5" fill="#1BB55C" opacity="0.5" transform="rotate(25 311 46)"/><rect x="448" y="21" width="8" height="10" rx="1.5" fill="#1BB55C" opacity="0.5" transform="rotate(-25 448 21)"/><rect x="616" y="69" width="7" height="12" rx="1.5" fill="#1BB55C" opacity="0.5" transform="rotate(21 616 69)"/><rect x="61" y="100" width="5" height="10" rx="1.5" fill="#FFFFFF" opacity="0.5" transform="rotate(29 61 100)"/><rect x="403" y="43" width="9" height="10" rx="1.5" fill="#FF6A00" opacity="0.5" transform="rotate(-19 403 43)"/><rect x="557" y="100" width="5" height="13" rx="1.5" fill="#FFFFFF" opacity="0.5" transform="rotate(15 557 100)"/><rect x="517" y="33" width="8" height="14" rx="1.5" fill="#FF6A00" opacity="0.5" transform="rotate(-11 517 33)"/><rect x="106" y="88" width="9" height="11" rx="1.5" fill="#FF6A00" opacity="0.5" transform="rotate(11 106 88)"/><rect x="68" y="62" width="6" height="9" rx="1.5" fill="#FFFFFF" opacity="0.5" transform="rotate(1 68 62)"/><rect x="503" y="103" width="6" height="14" rx="1.5" fill="#FFFFFF" opacity="0.5" transform="rotate(-15 503 103)"/><rect x="599" y="128" width="8" height="9" rx="1.5" fill="#1BB55C" opacity="0.5" transform="rotate(-1 599 128)"/><rect x="516" y="49" width="5" height="14" rx="1.5" fill="#1BB55C" opacity="0.5" transform="rotate(22 516 49)"/>
  <path d="M0 268 L800 236 L800 440 L0 440 Z" fill="url(#grass)"/>
  <path d="M0 268 L800 236" stroke="#4FBE82" stroke-opacity="0.35" stroke-width="2"/>
  <line x1="400" y1="252" x2="400" y2="440" stroke="#4FBE82" stroke-opacity="0.25" stroke-width="2"/>
  <circle cx="400" cy="400" r="80" fill="none" stroke="#4FBE82" stroke-opacity="0.22" stroke-width="2"/>
  <rect x="0" y="434" width="800" height="6" fill="#FF6A00"/>
  <text x="38" y="210" font-family="Arial, sans-serif" font-size="150" font-weight="900" fill="#FFFFFF" opacity="0.06">KOR</text>
  <text x="762" y="372" text-anchor="end" font-family="Arial, sans-serif" font-size="150" font-weight="900" fill="#FFFFFF" opacity="0.06">CZE</text>
  <rect width="800" height="440" fill="url(#fade)"/>
</svg>