<svg xmlns="http://www.w3.org/2000/svg" width="800" height="440" viewBox="0 0 800 440" role="img" aria-label="ESP x CPV">
  <defs>
    <linearGradient id="sky" x1="0" y1="0" x2="0" y2="1">
      <stop offset="0" stop-color="#243244"/>
      <stop offset="0.5" stop-color="#16202D"/>
      <stop offset="1" stop-color="#0C141E"/>
    </linearGradient>
    <radialGradient id="lgl" cx="0.16" cy="0.0" r="0.7">
      <stop offset="0" stop-color="#C8102E" stop-opacity="0.7"/>
      <stop offset="1" stop-color="#C8102E" stop-opacity="0"/>
    </radialGradient>
    <radialGradient id="rgl" cx="0.86" cy="0.05" r="0.7">
      <stop offset="0" stop-color="#1B4FA0" stop-opacity="0.62"/>
      <stop offset="1" stop-color="#1B4FA0" stop-opacity="0"/>
    </radialGradient>
    <radialGradient id="spot" cx="0.5" cy="-0.1" r="0.55">
      <stop offset="0" stop-color="#FFFFFF" stop-opacity="0.18"/>
      <stop offset="1" stop-color="#FFFFFF" stop-opacity="0"/>
    </radialGradient>
    <linearGradient id="grass" x1="0" y1="0" x2="0" y2="1">
      <stop offset="0" stop-color="#13502F"/>
      <stop offset="1" stop-color="#0B3520"/>
    </linearGradient>
    <linearGradient id="fade" x1="0" y1="0" x2="0" y2="1">
      <stop offset="0.4" stop-color="#0C141E" stop-opacity="0"/>
      <stop offset="1" stop-color="#0A111A" stop-opacity="0.9"/>
    </linearGradient>
  </defs>
  <rect width="800" height="440" fill="url(#sky)"/>
  <rect width="800" height="440" fill="url(#spot)"/>
  <rect width="800" height="440" fill="url(#lgl)"/>
  <rect width="800" height="440" fill="url(#rgl)"/>
  <circle cx="107" cy="52" r="1.4" fill="#CBE3FF" opacity="0.14"/><circle cx="250" cy="116" r="2.3" fill="#CBE3FF" opacity="0.06"/><circle cx="526" cy="84" r="2.6" fill="#CBE3FF" opacity="0.11"/><circle cx="375" cy="47" r="2.5" fill="#CBE3FF" opacity="0.14"/><circle cx="650" cy="59" r="1.5" fill="#CBE3FF" opacity="0.11"/><circle cx="641" cy="80" r="1.6" fill="#CBE3FF" opacity="0.10"/><circle cx="225" cy="121" r="1.7" fill="#CBE3FF" opacity="0.19"/><circle cx="431" cy="23" r="1.4" fill="#CBE3FF" opacity="0.06"/><circle cx="451" cy="131" r="2.1" fill="#CBE3FF" opacity="0.19"/><circle cx="530" cy="145" r="2.4" fill="#CBE3FF" opacity="0.11"/><circle cx="435" cy="90" r="1.9" fill="#CBE3FF" opacity="0.16"/><circle cx="303" cy="50" r="1.7" fill="#CBE3FF" opacity="0.09"/><circle cx="736" cy="19" r="1.3" fill="#CBE3FF" opacity="0.10"/><circle cx="563" cy="37" r="2.7" fill="#CBE3FF" opacity="0.20"/><circle cx="632" cy="70" r="1.6" fill="#CBE3FF" opacity="0.15"/><circle cx="126" cy="109" r="2.7" fill="#CBE3FF" opacity="0.13"/><circle cx="309" cy="110" r="2.4" fill="#CBE3FF" opacity="0.12"/><circle cx="71" cy="18" r="1.7" fill="#CBE3FF" opacity="0.08"/><circle cx="707" cy="57" r="1.8" fill="#CBE3FF" opacity="0.14"/><circle cx="716" cy="23" r="2.2" fill="#CBE3FF" opacity="0.09"/><circle cx="349" cy="45" r="1.8" fill="#CBE3FF" opacity="0.05"/><circle cx="13" cy="115" r="2.6" fill="#CBE3FF" opacity="0.15"/><circle cx="245" cy="142" r="1.3" fill="#CBE3FF" opacity="0.06"/><circle cx="354" cy="158" r="1.6" fill="#CBE3FF" opacity="0.15"/><circle cx="185" cy="89" r="1.0" fill="#CBE3FF" opacity="0.07"/><circle cx="237" cy="115" r="2.4" fill="#CBE3FF" opacity="0.20"/><circle cx="117" cy="163" r="1.2" fill="#CBE3FF" opacity="0.19"/><circle cx="435" cy="111" r="2.3" fill="#CBE3FF" opacity="0.09"/><circle cx="85" cy="70" r="1.2" fill="#CBE3FF" opacity="0.15"/><circle cx="535" cy="88" r="1.6" fill="#CBE3FF" opacity="0.14"/><circle cx="196" cy="152" r="2.0" fill="#CBE3FF" opacity="0.17"/><circle cx="234" cy="158" r="2.2" fill="#CBE3FF" opacity="0.19"/><circle cx="546" cy="157" r="1.5" fill="#CBE3FF" opacity="0.15"/><circle cx="76" cy="45" r="2.7" fill="#CBE3FF" opacity="0.16"/><circle cx="368" cy="159" r="1.3" fill="#CBE3FF" opacity="0.11"/><circle cx="121" cy="111" r="2.6" fill="#CBE3FF" opacity="0.13"/><circle cx="68" cy="106" r="1.5" fill="#CBE3FF" opacity="0.13"/><circle cx="342" cy="17" r="2.0" fill="#CBE3FF" opacity="0.11"/><circle cx="515" cy="22" r="2.6" fill="#CBE3FF" opacity="0.14"/><circle cx="451" cy="57" r="2.2" fill="#CBE3FF" opacity="0.13"/><circle cx="569" cy="152" r="1.3" fill="#CBE3FF" opacity="0.07"/><circle cx="196" cy="71" r="2.6" fill="#CBE3FF" opacity="0.14"/><circle cx="694" cy="61" r="1.6" fill="#CBE3FF" opacity="0.06"/><circle cx="554" cy="155" r="2.5" fill="#CBE3FF" opacity="0.18"/><circle cx="37" cy="110" r="2.5" fill="#CBE3FF" opacity="0.12"/><circle cx="534" cy="101" r="1.2" fill="#CBE3FF" opacity="0.14"/><circle cx="534" cy="98" r="2.5" fill="#CBE3FF" opacity="0.10"/><circle cx="208" cy="36" r="1.8" fill="#CBE3FF" opacity="0.05"/><circle cx="33" cy="35" r="2.4" fill="#CBE3FF" opacity="0.12"/><circle cx="792" cy="119" r="2.7" fill="#CBE3FF" opacity="0.07"/><circle cx="708" cy="101" r="1.5" fill="#CBE3FF" opacity="0.16"/><circle cx="430" cy="76" r="1.5" fill="#CBE3FF" opacity="0.08"/><circle cx="576" cy="105" r="2.7" fill="#CBE3FF" opacity="0.13"/><circle cx="148" cy="153" r="1.8" fill="#CBE3FF" opacity="0.16"/><circle cx="636" cy="92" r="2.5" fill="#CBE3FF" opacity="0.17"/><circle cx="350" cy="159" r="2.6" fill="#CBE3FF" opacity="0.12"/><circle cx="430" cy="24" r="1.1" fill="#CBE3FF" opacity="0.21"/><circle cx="473" cy="78" r="2.1" fill="#CBE3FF" opacity="0.14"/><circle cx="330" cy="127" r="2.1" fill="#CBE3FF" opacity="0.15"/><circle cx="497" cy="115" r="2.1" fill="#CBE3FF" opacity="0.10"/><circle cx="502" cy="151" r="1.5" fill="#CBE3FF" opacity="0.09"/><circle cx="141" cy="35" r="2.4" fill="#CBE3FF" opacity="0.16"/><circle cx="535" cy="138" r="2.0" fill="#CBE3FF" opacity="0.14"/><circle cx="224" cy="82" r="2.0" fill="#CBE3FF" opacity="0.13"/><circle cx="148" cy="136" r="2.5" fill="#CBE3FF" opacity="0.11"/><circle cx="359" cy="120" r="2.3" fill="#CBE3FF" opacity="0.19"/><circle cx="574" cy="127" r="1.8" fill="#CBE3FF" opacity="0.20"/><circle cx="590" cy="48" r="1.9" fill="#CBE3FF" opacity="0.09"/><circle cx="8" cy="164" r="2.1" fill="#CBE3FF" opacity="0.07"/><circle cx="178" cy="89" r="2.6" fill="#CBE3FF" opacity="0.14"/><circle cx="733" cy="44" r="2.5" fill="#CBE3FF" opacity="0.10"/><circle cx="157" cy="98" r="2.2" fill="#CBE3FF" opacity="0.10"/><circle cx="559" cy="64" r="1.0" fill="#CBE3FF" opacity="0.18"/><circle cx="225" cy="161" r="2.6" fill="#CBE3FF" opacity="0.07"/><circle cx="247" cy="99" r="2.1" fill="#CBE3FF" opacity="0.14"/><circle cx="395" cy="136" r="2.6" fill="#CBE3FF" opacity="0.18"/><circle cx="610" cy="68" r="2.2" fill="#CBE3FF" opacity="0.19"/><circle cx="73" cy="21" r="2.1" fill="#CBE3FF" opacity="0.07"/><circle cx="545" cy="87" r="1.0" fill="#CBE3FF" opacity="0.14"/><circle cx="401" cy="110" r="2.4" fill="#CBE3FF" opacity="0.17"/><circle cx="356" cy="34" r="1.0" fill="#CBE3FF" opacity="0.11"/><circle cx="587" cy="54" r="2.1" fill="#CBE3FF" opacity="0.09"/><circle cx="234" cy="98" r="2.2" fill="#CBE3FF" opacity="0.08"/><circle cx="497" cy="155" r="2.1" fill="#CBE3FF" opacity="0.13"/><circle cx="232" cy="135" r="2.5" fill="#CBE3FF" opacity="0.12"/><circle cx="15" cy="143" r="1.8" fill="#CBE3FF" opacity="0.17"/><circle cx="304" cy="69" r="1.3" fill="#CBE3FF" opacity="0.06"/><circle cx="321" cy="48" r="2.7" fill="#CBE3FF" opacity="0.18"/><circle cx="734" cy="60" r="1.4" fill="#CBE3FF" opacity="0.16"/><circle cx="629" cy="160" r="1.4" fill="#CBE3FF" opacity="0.07"/><circle cx="18" cy="87" r="2.0" fill="#CBE3FF" opacity="0.06"/><circle cx="2" cy="130" r="2.2" fill="#CBE3FF" opacity="0.20"/><circle cx="65" cy="108" r="2.3" fill="#CBE3FF" opacity="0.13"/><circle cx="119" cy="149" r="1.1" fill="#CBE3FF" opacity="0.17"/><circle cx="601" cy="86" r="2.5" fill="#CBE3FF" opacity="0.07"/><circle cx="654" cy="127" r="1.6" fill="#CBE3FF" opacity="0.13"/><circle cx="43" cy="121" r="1.6" fill="#CBE3FF" opacity="0.16"/><circle cx="459" cy="163" r="2.2" fill="#CBE3FF" opacity="0.11"/><circle cx="394" cy="22" r="1.5" fill="#CBE3FF" opacity="0.08"/><circle cx="271" cy="146" r="2.5" fill="#CBE3FF" opacity="0.11"/><circle cx="201" cy="58" r="1.9" fill="#CBE3FF" opacity="0.15"/><circle cx="771" cy="128" r="2.2" fill="#CBE3FF" opacity="0.16"/><circle cx="466" cy="41" r="2.2" fill="#CBE3FF" opacity="0.12"/><circle cx="563" cy="75" r="1.7" fill="#CBE3FF" opacity="0.13"/><circle cx="23" cy="52" r="2.6" fill="#CBE3FF" opacity="0.17"/><circle cx="436" cy="43" r="1.5" fill="#CBE3FF" opacity="0.17"/><circle cx="779" cy="103" r="1.0" fill="#CBE3FF" opacity="0.19"/><circle cx="791" cy="163" r="1.7" fill="#CBE3FF" opacity="0.19"/><circle cx="660" cy="84" r="2.5" fill="#CBE3FF" opacity="0.09"/><circle cx="156" cy="18" r="2.1" fill="#CBE3FF" opacity="0.17"/><circle cx="369" cy="84" r="1.1" fill="#CBE3FF" opacity="0.20"/><circle cx="729" cy="82" r="2.6" fill="#CBE3FF" opacity="0.07"/><circle cx="587" cy="69" r="2.4" fill="#CBE3FF" opacity="0.06"/><circle cx="408" cy="124" r="1.6" fill="#CBE3FF" opacity="0.16"/><circle cx="605" cy="53" r="1.1" fill="#CBE3FF" opacity="0.11"/><circle cx="93" cy="84" r="2.5" fill="#CBE3FF" opacity="0.09"/><circle cx="520" cy="59" r="1.9" fill="#CBE3FF" opacity="0.16"/><circle cx="465" cy="21" r="2.2" fill="#CBE3FF" opacity="0.19"/><circle cx="516" cy="28" r="2.1" fill="#CBE3FF" opacity="0.10"/><circle cx="216" cy="67" r="1.1" fill="#CBE3FF" opacity="0.05"/><circle cx="741" cy="122" r="1.5" fill="#CBE3FF" opacity="0.18"/><circle cx="618" cy="28" r="1.6" fill="#CBE3FF" opacity="0.07"/><circle cx="194" cy="166" r="2.3" fill="#CBE3FF" opacity="0.11"/><circle cx="569" cy="109" r="1.9" fill="#CBE3FF" opacity="0.17"/><circle cx="762" cy="74" r="1.6" fill="#CBE3FF" opacity="0.08"/><circle cx="575" cy="94" r="1.0" fill="#CBE3FF" opacity="0.20"/><circle cx="683" cy="41" r="1.4" fill="#CBE3FF" opacity="0.17"/><circle cx="330" cy="57" r="2.7" fill="#CBE3FF" opacity="0.08"/><circle cx="601" cy="51" r="2.0" fill="#CBE3FF" opacity="0.12"/><circle cx="68" cy="68" r="1.9" fill="#CBE3FF" opacity="0.12"/><circle cx="244" cy="145" r="2.2" fill="#CBE3FF" opacity="0.14"/><circle cx="667" cy="47" r="2.5" fill="#CBE3FF" opacity="0.20"/><circle cx="798" cy="143" r="2.6" fill="#CBE3FF" opacity="0.09"/><circle cx="135" cy="115" r="1.2" fill="#CBE3FF" opacity="0.10"/><circle cx="381" cy="30" r="1.5" fill="#CBE3FF" opacity="0.20"/><circle cx="9" cy="44" r="2.4" fill="#CBE3FF" opacity="0.12"/><circle cx="16" cy="156" r="2.7" fill="#CBE3FF" opacity="0.09"/><circle cx="722" cy="46" r="1.7" fill="#CBE3FF" opacity="0.12"/><circle cx="746" cy="166" r="2.7" fill="#CBE3FF" opacity="0.15"/><circle cx="743" cy="122" r="1.9" fill="#CBE3FF" opacity="0.08"/><circle cx="221" cy="79" r="2.6" fill="#CBE3FF" opacity="0.06"/><circle cx="234" cy="106" r="2.6" fill="#CBE3FF" opacity="0.17"/><circle cx="139" cy="124" r="1.1" fill="#CBE3FF" opacity="0.15"/><circle cx="317" cy="81" r="1.0" fill="#CBE3FF" opacity="0.09"/><circle cx="521" cy="149" r="1.7" fill="#CBE3FF" opacity="0.07"/><circle cx="645" cy="76" r="2.0" fill="#CBE3FF" opacity="0.08"/><circle cx="435" cy="64" r="1.6" fill="#CBE3FF" opacity="0.17"/><circle cx="316" cy="16" r="2.3" fill="#CBE3FF" opacity="0.16"/><circle cx="76" cy="119" r="1.6" fill="#CBE3FF" opacity="0.13"/><circle cx="300" cy="145" r="2.2" fill="#CBE3FF" opacity="0.16"/><circle cx="253" cy="49" r="2.0" fill="#CBE3FF" opacity="0.20"/><circle cx="746" cy="68" r="1.6" fill="#CBE3FF" opacity="0.12"/><circle cx="410" cy="29" r="2.0" fill="#CBE3FF" opacity="0.10"/><circle cx="424" cy="41" r="1.7" fill="#CBE3FF" opacity="0.20"/><circle cx="656" cy="112" r="2.3" fill="#CBE3FF" opacity="0.08"/><circle cx="239" cy="106" r="1.8" fill="#CBE3FF" opacity="0.15"/><circle cx="661" cy="113" r="2.6" fill="#CBE3FF" opacity="0.09"/><circle cx="507" cy="36" r="1.5" fill="#CBE3FF" opacity="0.17"/><circle cx="296" cy="28" r="1.7" fill="#CBE3FF" opacity="0.20"/><circle cx="769" cy="126" r="2.7" fill="#CBE3FF" opacity="0.13"/><circle cx="119" cy="73" r="1.7" fill="#CBE3FF" opacity="0.06"/><circle cx="534" cy="48" r="1.3" fill="#CBE3FF" opacity="0.08"/><circle cx="772" cy="47" r="1.9" fill="#CBE3FF" opacity="0.18"/><circle cx="118" cy="106" r="2.0" fill="#CBE3FF" opacity="0.18"/><circle cx="225" cy="43" r="2.5" fill="#CBE3FF" opacity="0.19"/><circle cx="263" cy="91" r="2.7" fill="#CBE3FF" opacity="0.07"/><circle cx="505" cy="153" r="2.6" fill="#CBE3FF" opacity="0.10"/><circle cx="626" cy="103" r="1.6" fill="#CBE3FF" opacity="0.15"/><circle cx="278" cy="121" r="2.4" fill="#CBE3FF" opacity="0.15"/><circle cx="131" cy="81" r="1.1" fill="#CBE3FF" opacity="0.13"/>
  <rect x="786" y="67" width="6" height="9" rx="1.5" fill="#FF6A00" opacity="0.5" transform="rotate(8 786 67)"/><rect x="232" y="51" width="8" height="13" rx="1.5" fill="#FFFFFF" opacity="0.5" transform="rotate(10 232 51)"/><rect x="670" y="61" width="6" height="12" rx="1.5" fill="#FFFFFF" opacity="0.5" transform="rotate(1 670 61)"/><rect x="550" y="35" width="5" height="14" rx="1.5" fill="#1BB55C" opacity="0.5" transform="rotate(-5 550 35)"/><rect x="283" y="64" width="9" height="13" rx="1.5" fill="#FFD24A" opacity="0.5" transform="rotate(29 283 64)"/><rect x="225" y="19" width="9" height="12" rx="1.5" fill="#1BB55C" opacity="0.5" transform="rotate(25 225 19)"/><rect x="101" y="62" width="4" height="15" rx="1.5" fill="#FF6A00" opacity="0.5" transform="rotate(17 101 62)"/><rect x="301" y="66" width="8" height="9" rx="1.5" fill="#FF6A00" opacity="0.5" transform="rotate(1 301 66)"/><rect x="606" y="35" width="7" height="12" rx="1.5" fill="#FFD24A" opacity="0.5" transform="rotate(16 606 35)"/><rect x="598" y="58" width="7" height="12" rx="1.5" fill="#FFFFFF" opacity="0.5" transform="rotate(4 598 58)"/><rect x="167" y="101" width="6" height="10" rx="1.5" fill="#FFFFFF" opacity="0.5" transform="rotate(20 167 101)"/><rect x="672" y="63" width="4" height="14" rx="1.5" fill="#1BB55C" opacity="0.5" transform="rotate(-25 672 63)"/><rect x="139" y="75" width="5" height="12" rx="1.5" fill="#1BB55C" opacity="0.5" transform="rotate(2 139 75)"/><rect x="168" y="14" width="4" height="10" rx="1.5" fill="#FFFFFF" opacity="0.5" transform="rotate(-16 168 14)"/><rect x="717" y="86" width="8" height="13" rx="1.5" fill="#1BB55C" opacity="0.5" transform="rotate(5 717 86)"/><rect x="108" y="25" width="4" height="13" rx="1.5" fill="#FFFFFF" opacity="0.5" transform="rotate(15 108 25)"/><rect x="309" y="38" width="7" height="12" rx="1.5" fill="#FFFFFF" opacity="0.5" transform="rotate(-0 309 38)"/><rect x="362" y="95" width="6" height="10" rx="1.5" fill="#FFFFFF" opacity="0.5" transform="rotate(2 362 95)"/><rect x="220" y="21" width="5" height="14" rx="1.5" fill="#FFFFFF" opacity="0.5" transform="rotate(14 220 21)"/><rect x="612" y="78" width="9" height="14" rx="1.5" fill="#FFFFFF" opacity="0.5" transform="rotate(25 612 78)"/><rect x="615" y="27" width="4" height="13" rx="1.5" fill="#FFD24A" opacity="0.5" transform="rotate(28 615 27)"/><rect x="775" y="79" width="6" height="11" rx="1.5" fill="#FFD24A" opacity="0.5" transform="rotate(-11 775 79)"/><rect x="506" y="14" width="6" height="15" rx="1.5" fill="#FFD24A" opacity="0.5" transform="rotate(15 506 14)"/><rect x="166" y="64" width="6" height="12" rx="1.5" fill="#FF6A00" opacity="0.5" transform="rotate(-17 166 64)"/><rect x="633" y="103" width="6" height="11" rx="1.5" fill="#1BB55C" opacity="0.5" transform="rotate(-18 633 103)"/><rect x="339" y="72" width="6" height="14" rx="1.5" fill="#1BB55C" opacity="0.5" transform="rotate(-11 339 72)"/>
  <path d="M0 268 L800 236 L800 440 L0 440 Z" fill="url(#grass)"/>
  <path d="M0 268 L800 236" stroke="#4FBE82" stroke-opacity="0.35" stroke-width="2"/>
  <line x1="400" y1="252" x2="400" y2="440" stroke="#4FBE82" stroke-opacity="0.25" stroke-width="2"/>
  <circle cx="400" cy="400" r="80" fill="none" stroke="#4FBE82" stroke-opacity="0.22" stroke-width="2"/>
  <rect x="0" y="434" width="800" height="6" fill="#FF6A00"/>
  <text x="38" y="210" font-family="Arial, sans-serif" font-size="150" font-weight="900" fill="#FFFFFF" opacity="0.06">ESP</text>
  <text x="762" y="372" text-anchor="end" font-family="Arial, sans-serif" font-size="150" font-weight="900" fill="#FFFFFF" opacity="0.06">CPV</text>
  <rect width="800" height="440" fill="url(#fade)"/>
</svg>