<svg xmlns="http://www.w3.org/2000/svg" width="800" height="440" viewBox="0 0 800 440" role="img" aria-label="ESP x KSA">
  <defs>
    <linearGradient id="sky" x1="0" y1="0" x2="0" y2="1">
      <stop offset="0" stop-color="#243244"/>
      <stop offset="0.5" stop-color="#16202D"/>
      <stop offset="1" stop-color="#0C141E"/>
    </linearGradient>
    <radialGradient id="lgl" cx="0.16" cy="0.0" r="0.7">
      <stop offset="0" stop-color="#C8102E" stop-opacity="0.7"/>
      <stop offset="1" stop-color="#C8102E" stop-opacity="0"/>
    </radialGradient>
    <radialGradient id="rgl" cx="0.86" cy="0.05" r="0.7">
      <stop offset="0" stop-color="#0E8A4A" stop-opacity="0.62"/>
      <stop offset="1" stop-color="#0E8A4A" stop-opacity="0"/>
    </radialGradient>
    <radialGradient id="spot" cx="0.5" cy="-0.1" r="0.55">
      <stop offset="0" stop-color="#FFFFFF" stop-opacity="0.18"/>
      <stop offset="1" stop-color="#FFFFFF" stop-opacity="0"/>
    </radialGradient>
    <linearGradient id="grass" x1="0" y1="0" x2="0" y2="1">
      <stop offset="0" stop-color="#13502F"/>
      <stop offset="1" stop-color="#0B3520"/>
    </linearGradient>
    <linearGradient id="fade" x1="0" y1="0" x2="0" y2="1">
      <stop offset="0.4" stop-color="#0C141E" stop-opacity="0"/>
      <stop offset="1" stop-color="#0A111A" stop-opacity="0.9"/>
    </linearGradient>
  </defs>
  <rect width="800" height="440" fill="url(#sky)"/>
  <rect width="800" height="440" fill="url(#spot)"/>
  <rect width="800" height="440" fill="url(#lgl)"/>
  <rect width="800" height="440" fill="url(#rgl)"/>
  <circle cx="387" cy="42" r="1.3" fill="#CBE3FF" opacity="0.09"/><circle cx="637" cy="41" r="1.9" fill="#CBE3FF" opacity="0.06"/><circle cx="321" cy="61" r="1.1" fill="#CBE3FF" opacity="0.08"/><circle cx="256" cy="146" r="2.8" fill="#CBE3FF" opacity="0.17"/><circle cx="338" cy="53" r="1.9" fill="#CBE3FF" opacity="0.19"/><circle cx="521" cy="127" r="1.1" fill="#CBE3FF" opacity="0.19"/><circle cx="594" cy="49" r="1.8" fill="#CBE3FF" opacity="0.17"/><circle cx="755" cy="103" r="1.2" fill="#CBE3FF" opacity="0.15"/><circle cx="190" cy="143" r="2.5" fill="#CBE3FF" opacity="0.10"/><circle cx="127" cy="16" r="2.2" fill="#CBE3FF" opacity="0.12"/><circle cx="162" cy="145" r="1.8" fill="#CBE3FF" opacity="0.20"/><circle cx="331" cy="75" r="2.7" fill="#CBE3FF" opacity="0.07"/><circle cx="288" cy="22" r="1.5" fill="#CBE3FF" opacity="0.06"/><circle cx="785" cy="127" r="2.2" fill="#CBE3FF" opacity="0.08"/><circle cx="105" cy="74" r="1.1" fill="#CBE3FF" opacity="0.14"/><circle cx="421" cy="30" r="2.1" fill="#CBE3FF" opacity="0.07"/><circle cx="342" cy="30" r="2.6" fill="#CBE3FF" opacity="0.09"/><circle cx="725" cy="57" r="1.3" fill="#CBE3FF" opacity="0.10"/><circle cx="437" cy="88" r="1.9" fill="#CBE3FF" opacity="0.17"/><circle cx="254" cy="141" r="1.3" fill="#CBE3FF" opacity="0.21"/><circle cx="612" cy="141" r="2.4" fill="#CBE3FF" opacity="0.05"/><circle cx="222" cy="115" r="1.1" fill="#CBE3FF" opacity="0.18"/><circle cx="628" cy="49" r="1.9" fill="#CBE3FF" opacity="0.15"/><circle cx="620" cy="115" r="2.5" fill="#CBE3FF" opacity="0.11"/><circle cx="123" cy="31" r="1.9" fill="#CBE3FF" opacity="0.16"/><circle cx="615" cy="151" r="2.5" fill="#CBE3FF" opacity="0.11"/><circle cx="205" cy="86" r="1.7" fill="#CBE3FF" opacity="0.18"/><circle cx="561" cy="144" r="2.4" fill="#CBE3FF" opacity="0.16"/><circle cx="349" cy="36" r="2.3" fill="#CBE3FF" opacity="0.11"/><circle cx="337" cy="66" r="2.0" fill="#CBE3FF" opacity="0.17"/><circle cx="743" cy="142" r="2.7" fill="#CBE3FF" opacity="0.14"/><circle cx="210" cy="76" r="1.8" fill="#CBE3FF" opacity="0.17"/><circle cx="156" cy="151" r="2.3" fill="#CBE3FF" opacity="0.11"/><circle cx="334" cy="29" r="2.6" fill="#CBE3FF" opacity="0.12"/><circle cx="244" cy="40" r="1.9" fill="#CBE3FF" opacity="0.11"/><circle cx="211" cy="70" r="2.5" fill="#CBE3FF" opacity="0.07"/><circle cx="120" cy="135" r="2.4" fill="#CBE3FF" opacity="0.18"/><circle cx="398" cy="93" r="2.3" fill="#CBE3FF" opacity="0.16"/><circle cx="502" cy="101" r="2.0" fill="#CBE3FF" opacity="0.16"/><circle cx="589" cy="88" r="2.2" fill="#CBE3FF" opacity="0.07"/><circle cx="397" cy="104" r="1.4" fill="#CBE3FF" opacity="0.16"/><circle cx="743" cy="75" r="1.6" fill="#CBE3FF" opacity="0.17"/><circle cx="214" cy="58" r="2.0" fill="#CBE3FF" opacity="0.07"/><circle cx="569" cy="72" r="2.7" fill="#CBE3FF" opacity="0.16"/><circle cx="664" cy="105" r="1.4" fill="#CBE3FF" opacity="0.09"/><circle cx="135" cy="52" r="2.3" fill="#CBE3FF" opacity="0.17"/><circle cx="535" cy="159" r="1.8" fill="#CBE3FF" opacity="0.06"/><circle cx="365" cy="52" r="2.5" fill="#CBE3FF" opacity="0.13"/><circle cx="258" cy="163" r="1.2" fill="#CBE3FF" opacity="0.13"/><circle cx="386" cy="121" r="2.1" fill="#CBE3FF" opacity="0.09"/><circle cx="438" cy="165" r="2.4" fill="#CBE3FF" opacity="0.16"/><circle cx="153" cy="83" r="1.9" fill="#CBE3FF" opacity="0.19"/><circle cx="7" cy="134" r="2.1" fill="#CBE3FF" opacity="0.06"/><circle cx="459" cy="31" r="1.4" fill="#CBE3FF" opacity="0.21"/><circle cx="113" cy="37" r="2.3" fill="#CBE3FF" opacity="0.07"/><circle cx="13" cy="154" r="1.0" fill="#CBE3FF" opacity="0.17"/><circle cx="153" cy="67" r="1.5" fill="#CBE3FF" opacity="0.17"/><circle cx="427" cy="88" r="2.0" fill="#CBE3FF" opacity="0.17"/><circle cx="378" cy="98" r="2.1" fill="#CBE3FF" opacity="0.07"/><circle cx="269" cy="39" r="1.2" fill="#CBE3FF" opacity="0.14"/><circle cx="478" cy="27" r="2.4" fill="#CBE3FF" opacity="0.09"/><circle cx="446" cy="87" r="2.6" fill="#CBE3FF" opacity="0.13"/><circle cx="536" cy="42" r="2.7" fill="#CBE3FF" opacity="0.12"/><circle cx="193" cy="94" r="2.7" fill="#CBE3FF" opacity="0.12"/><circle cx="659" cy="76" r="1.9" fill="#CBE3FF" opacity="0.19"/><circle cx="628" cy="161" r="1.4" fill="#CBE3FF" opacity="0.17"/><circle cx="604" cy="97" r="2.0" fill="#CBE3FF" opacity="0.11"/><circle cx="432" cy="34" r="2.6" fill="#CBE3FF" opacity="0.20"/><circle cx="615" cy="51" r="1.5" fill="#CBE3FF" opacity="0.20"/><circle cx="511" cy="69" r="2.4" fill="#CBE3FF" opacity="0.08"/><circle cx="482" cy="28" r="2.8" fill="#CBE3FF" opacity="0.17"/><circle cx="276" cy="159" r="1.8" fill="#CBE3FF" opacity="0.13"/><circle cx="378" cy="62" r="1.1" fill="#CBE3FF" opacity="0.16"/><circle cx="593" cy="120" r="1.9" fill="#CBE3FF" opacity="0.13"/><circle cx="32" cy="124" r="2.5" fill="#CBE3FF" opacity="0.05"/><circle cx="690" cy="76" r="1.5" fill="#CBE3FF" opacity="0.20"/><circle cx="668" cy="69" r="1.3" fill="#CBE3FF" opacity="0.17"/><circle cx="328" cy="62" r="2.0" fill="#CBE3FF" opacity="0.08"/><circle cx="155" cy="28" r="1.9" fill="#CBE3FF" opacity="0.18"/><circle cx="703" cy="106" r="1.6" fill="#CBE3FF" opacity="0.18"/><circle cx="623" cy="160" r="1.9" fill="#CBE3FF" opacity="0.11"/><circle cx="28" cy="45" r="1.6" fill="#CBE3FF" opacity="0.19"/><circle cx="409" cy="159" r="2.6" fill="#CBE3FF" opacity="0.18"/><circle cx="69" cy="34" r="1.6" fill="#CBE3FF" opacity="0.10"/><circle cx="606" cy="149" r="1.9" fill="#CBE3FF" opacity="0.16"/><circle cx="426" cy="50" r="2.5" fill="#CBE3FF" opacity="0.18"/><circle cx="332" cy="34" r="2.4" fill="#CBE3FF" opacity="0.11"/><circle cx="361" cy="73" r="2.3" fill="#CBE3FF" opacity="0.09"/><circle cx="284" cy="18" r="2.2" fill="#CBE3FF" opacity="0.21"/><circle cx="301" cy="42" r="2.2" fill="#CBE3FF" opacity="0.17"/><circle cx="231" cy="102" r="2.8" fill="#CBE3FF" opacity="0.14"/><circle cx="204" cy="27" r="1.2" fill="#CBE3FF" opacity="0.07"/><circle cx="114" cy="27" r="2.3" fill="#CBE3FF" opacity="0.11"/><circle cx="608" cy="62" r="1.2" fill="#CBE3FF" opacity="0.06"/><circle cx="652" cy="138" r="1.8" fill="#CBE3FF" opacity="0.21"/><circle cx="544" cy="136" r="2.5" fill="#CBE3FF" opacity="0.07"/><circle cx="675" cy="163" r="2.6" fill="#CBE3FF" opacity="0.12"/><circle cx="403" cy="49" r="1.3" fill="#CBE3FF" opacity="0.11"/><circle cx="289" cy="65" r="2.7" fill="#CBE3FF" opacity="0.07"/><circle cx="474" cy="19" r="1.8" fill="#CBE3FF" opacity="0.20"/><circle cx="552" cy="127" r="1.2" fill="#CBE3FF" opacity="0.07"/><circle cx="749" cy="24" r="1.7" fill="#CBE3FF" opacity="0.20"/><circle cx="215" cy="60" r="2.2" fill="#CBE3FF" opacity="0.14"/><circle cx="385" cy="45" r="1.2" fill="#CBE3FF" opacity="0.15"/><circle cx="641" cy="117" r="2.4" fill="#CBE3FF" opacity="0.18"/><circle cx="363" cy="25" r="1.9" fill="#CBE3FF" opacity="0.10"/><circle cx="763" cy="56" r="2.4" fill="#CBE3FF" opacity="0.06"/><circle cx="784" cy="47" r="1.3" fill="#CBE3FF" opacity="0.14"/><circle cx="756" cy="98" r="2.8" fill="#CBE3FF" opacity="0.15"/><circle cx="74" cy="57" r="2.5" fill="#CBE3FF" opacity="0.14"/><circle cx="646" cy="135" r="1.1" fill="#CBE3FF" opacity="0.08"/><circle cx="475" cy="56" r="2.0" fill="#CBE3FF" opacity="0.13"/><circle cx="28" cy="34" r="2.5" fill="#CBE3FF" opacity="0.07"/><circle cx="314" cy="93" r="2.0" fill="#CBE3FF" opacity="0.21"/><circle cx="258" cy="118" r="2.6" fill="#CBE3FF" opacity="0.12"/><circle cx="762" cy="97" r="1.4" fill="#CBE3FF" opacity="0.13"/><circle cx="111" cy="17" r="1.7" fill="#CBE3FF" opacity="0.20"/><circle cx="214" cy="26" r="2.2" fill="#CBE3FF" opacity="0.13"/><circle cx="503" cy="74" r="2.5" fill="#CBE3FF" opacity="0.18"/><circle cx="179" cy="30" r="2.1" fill="#CBE3FF" opacity="0.13"/><circle cx="296" cy="90" r="2.4" fill="#CBE3FF" opacity="0.15"/><circle cx="682" cy="75" r="2.0" fill="#CBE3FF" opacity="0.08"/><circle cx="740" cy="128" r="1.5" fill="#CBE3FF" opacity="0.12"/><circle cx="595" cy="28" r="2.2" fill="#CBE3FF" opacity="0.14"/><circle cx="534" cy="80" r="2.5" fill="#CBE3FF" opacity="0.11"/><circle cx="207" cy="114" r="1.5" fill="#CBE3FF" opacity="0.15"/><circle cx="395" cy="60" r="1.7" fill="#CBE3FF" opacity="0.14"/><circle cx="778" cy="88" r="1.2" fill="#CBE3FF" opacity="0.19"/><circle cx="251" cy="77" r="2.8" fill="#CBE3FF" opacity="0.06"/><circle cx="120" cy="69" r="1.1" fill="#CBE3FF" opacity="0.13"/><circle cx="28" cy="129" r="2.1" fill="#CBE3FF" opacity="0.21"/><circle cx="567" cy="33" r="1.3" fill="#CBE3FF" opacity="0.07"/><circle cx="597" cy="50" r="2.5" fill="#CBE3FF" opacity="0.17"/><circle cx="36" cy="39" r="2.3" fill="#CBE3FF" opacity="0.06"/><circle cx="67" cy="78" r="2.7" fill="#CBE3FF" opacity="0.12"/><circle cx="616" cy="27" r="2.1" fill="#CBE3FF" opacity="0.13"/><circle cx="428" cy="148" r="1.3" fill="#CBE3FF" opacity="0.12"/><circle cx="663" cy="106" r="2.2" fill="#CBE3FF" opacity="0.13"/><circle cx="506" cy="90" r="2.1" fill="#CBE3FF" opacity="0.07"/><circle cx="301" cy="165" r="1.3" fill="#CBE3FF" opacity="0.07"/><circle cx="787" cy="88" r="2.5" fill="#CBE3FF" opacity="0.18"/><circle cx="609" cy="24" r="1.9" fill="#CBE3FF" opacity="0.10"/><circle cx="443" cy="56" r="2.5" fill="#CBE3FF" opacity="0.07"/><circle cx="355" cy="129" r="1.5" fill="#CBE3FF" opacity="0.16"/><circle cx="111" cy="61" r="2.7" fill="#CBE3FF" opacity="0.12"/><circle cx="328" cy="159" r="1.8" fill="#CBE3FF" opacity="0.10"/><circle cx="761" cy="138" r="2.5" fill="#CBE3FF" opacity="0.10"/><circle cx="152" cy="129" r="2.3" fill="#CBE3FF" opacity="0.21"/><circle cx="134" cy="47" r="2.1" fill="#CBE3FF" opacity="0.14"/><circle cx="125" cy="16" r="1.7" fill="#CBE3FF" opacity="0.20"/><circle cx="443" cy="74" r="2.3" fill="#CBE3FF" opacity="0.19"/><circle cx="106" cy="70" r="1.6" fill="#CBE3FF" opacity="0.21"/><circle cx="118" cy="152" r="1.4" fill="#CBE3FF" opacity="0.18"/><circle cx="742" cy="59" r="1.3" fill="#CBE3FF" opacity="0.07"/><circle cx="349" cy="147" r="2.3" fill="#CBE3FF" opacity="0.10"/><circle cx="618" cy="137" r="1.1" fill="#CBE3FF" opacity="0.10"/><circle cx="557" cy="35" r="2.5" fill="#CBE3FF" opacity="0.11"/><circle cx="86" cy="127" r="1.4" fill="#CBE3FF" opacity="0.18"/><circle cx="118" cy="150" r="2.7" fill="#CBE3FF" opacity="0.16"/><circle cx="146" cy="59" r="2.5" fill="#CBE3FF" opacity="0.19"/><circle cx="9" cy="115" r="2.3" fill="#CBE3FF" opacity="0.12"/><circle cx="734" cy="72" r="2.0" fill="#CBE3FF" opacity="0.15"/><circle cx="150" cy="70" r="2.5" fill="#CBE3FF" opacity="0.08"/><circle cx="7" cy="61" r="1.4" fill="#CBE3FF" opacity="0.08"/><circle cx="594" cy="63" r="2.2" fill="#CBE3FF" opacity="0.06"/><circle cx="460" cy="35" r="2.1" fill="#CBE3FF" opacity="0.16"/><circle cx="684" cy="105" r="2.4" fill="#CBE3FF" opacity="0.09"/><circle cx="96" cy="18" r="1.1" fill="#CBE3FF" opacity="0.06"/><circle cx="487" cy="162" r="2.0" fill="#CBE3FF" opacity="0.15"/><circle cx="630" cy="130" r="1.2" fill="#CBE3FF" opacity="0.19"/>
  <rect x="266" y="59" width="6" height="14" rx="1.5" fill="#1BB55C" opacity="0.5" transform="rotate(-23 266 59)"/><rect x="56" y="54" width="7" height="12" rx="1.5" fill="#FF6A00" opacity="0.5" transform="rotate(20 56 54)"/><rect x="551" y="20" width="6" height="13" rx="1.5" fill="#FFFFFF" opacity="0.5" transform="rotate(-22 551 20)"/><rect x="724" y="99" width="4" height="10" rx="1.5" fill="#FF6A00" opacity="0.5" transform="rotate(-21 724 99)"/><rect x="652" y="126" width="9" height="13" rx="1.5" fill="#FFFFFF" opacity="0.5" transform="rotate(-7 652 126)"/><rect x="157" y="85" width="7" height="13" rx="1.5" fill="#FF6A00" opacity="0.5" transform="rotate(-23 157 85)"/><rect x="498" y="80" width="9" height="8" rx="1.5" fill="#FFFFFF" opacity="0.5" transform="rotate(-4 498 80)"/><rect x="217" y="96" width="8" height="10" rx="1.5" fill="#FF6A00" opacity="0.5" transform="rotate(-26 217 96)"/><rect x="157" y="37" width="8" height="10" rx="1.5" fill="#FFFFFF" opacity="0.5" transform="rotate(-28 157 37)"/><rect x="366" y="85" width="8" height="12" rx="1.5" fill="#FF6A00" opacity="0.5" transform="rotate(-11 366 85)"/><rect x="462" y="37" width="5" height="15" rx="1.5" fill="#FFD24A" opacity="0.5" transform="rotate(22 462 37)"/><rect x="748" y="41" width="8" height="9" rx="1.5" fill="#1BB55C" opacity="0.5" transform="rotate(23 748 41)"/><rect x="670" y="100" width="6" height="13" rx="1.5" fill="#FFFFFF" opacity="0.5" transform="rotate(27 670 100)"/><rect x="570" y="99" width="6" height="14" rx="1.5" fill="#FFFFFF" opacity="0.5" transform="rotate(5 570 99)"/><rect x="126" y="85" width="9" height="15" rx="1.5" fill="#FFD24A" opacity="0.5" transform="rotate(-27 126 85)"/><rect x="398" y="92" width="6" height="11" rx="1.5" fill="#FF6A00" opacity="0.5" transform="rotate(-15 398 92)"/><rect x="247" y="112" width="5" height="10" rx="1.5" fill="#1BB55C" opacity="0.5" transform="rotate(28 247 112)"/><rect x="413" y="27" width="6" height="14" rx="1.5" fill="#FF6A00" opacity="0.5" transform="rotate(20 413 27)"/><rect x="346" y="48" width="6" height="10" rx="1.5" fill="#FF6A00" opacity="0.5" transform="rotate(-26 346 48)"/><rect x="294" y="44" width="7" height="13" rx="1.5" fill="#FFFFFF" opacity="0.5" transform="rotate(-21 294 44)"/><rect x="362" y="19" width="6" height="12" rx="1.5" fill="#FFFFFF" opacity="0.5" transform="rotate(26 362 19)"/><rect x="578" y="65" width="8" height="11" rx="1.5" fill="#1BB55C" opacity="0.5" transform="rotate(16 578 65)"/><rect x="764" y="121" width="5" height="13" rx="1.5" fill="#FF6A00" opacity="0.5" transform="rotate(6 764 121)"/><rect x="461" y="65" width="7" height="10" rx="1.5" fill="#FFD24A" opacity="0.5" transform="rotate(-21 461 65)"/><rect x="684" y="127" width="9" height="13" rx="1.5" fill="#FF6A00" opacity="0.5" transform="rotate(-14 684 127)"/><rect x="475" y="106" width="6" height="11" rx="1.5" fill="#1BB55C" opacity="0.5" transform="rotate(30 475 106)"/>
  <path d="M0 268 L800 236 L800 440 L0 440 Z" fill="url(#grass)"/>
  <path d="M0 268 L800 236" stroke="#4FBE82" stroke-opacity="0.35" stroke-width="2"/>
  <line x1="400" y1="252" x2="400" y2="440" stroke="#4FBE82" stroke-opacity="0.25" stroke-width="2"/>
  <circle cx="400" cy="400" r="80" fill="none" stroke="#4FBE82" stroke-opacity="0.22" stroke-width="2"/>
  <rect x="0" y="434" width="800" height="6" fill="#FF6A00"/>
  <text x="38" y="210" font-family="Arial, sans-serif" font-size="150" font-weight="900" fill="#FFFFFF" opacity="0.06">ESP</text>
  <text x="762" y="372" text-anchor="end" font-family="Arial, sans-serif" font-size="150" font-weight="900" fill="#FFFFFF" opacity="0.06">KSA</text>
  <rect width="800" height="440" fill="url(#fade)"/>
</svg>