<svg xmlns="http://www.w3.org/2000/svg" width="800" height="440" viewBox="0 0 800 440" role="img" aria-label="USA x PAR">
  <defs>
    <linearGradient id="sky" x1="0" y1="0" x2="0" y2="1">
      <stop offset="0" stop-color="#243244"/>
      <stop offset="0.5" stop-color="#16202D"/>
      <stop offset="1" stop-color="#0C141E"/>
    </linearGradient>
    <radialGradient id="lgl" cx="0.16" cy="0.0" r="0.7">
      <stop offset="0" stop-color="#1B3A8C" stop-opacity="0.7"/>
      <stop offset="1" stop-color="#1B3A8C" stop-opacity="0"/>
    </radialGradient>
    <radialGradient id="rgl" cx="0.86" cy="0.05" r="0.7">
      <stop offset="0" stop-color="#C8102E" stop-opacity="0.62"/>
      <stop offset="1" stop-color="#C8102E" stop-opacity="0"/>
    </radialGradient>
    <radialGradient id="spot" cx="0.5" cy="-0.1" r="0.55">
      <stop offset="0" stop-color="#FFFFFF" stop-opacity="0.18"/>
      <stop offset="1" stop-color="#FFFFFF" stop-opacity="0"/>
    </radialGradient>
    <linearGradient id="grass" x1="0" y1="0" x2="0" y2="1">
      <stop offset="0" stop-color="#13502F"/>
      <stop offset="1" stop-color="#0B3520"/>
    </linearGradient>
    <linearGradient id="fade" x1="0" y1="0" x2="0" y2="1">
      <stop offset="0.4" stop-color="#0C141E" stop-opacity="0"/>
      <stop offset="1" stop-color="#0A111A" stop-opacity="0.9"/>
    </linearGradient>
  </defs>
  <rect width="800" height="440" fill="url(#sky)"/>
  <rect width="800" height="440" fill="url(#spot)"/>
  <rect width="800" height="440" fill="url(#lgl)"/>
  <rect width="800" height="440" fill="url(#rgl)"/>
  <circle cx="604" cy="40" r="1.9" fill="#CBE3FF" opacity="0.17"/><circle cx="167" cy="32" r="1.2" fill="#CBE3FF" opacity="0.16"/><circle cx="617" cy="62" r="1.5" fill="#CBE3FF" opacity="0.20"/><circle cx="783" cy="37" r="1.4" fill="#CBE3FF" opacity="0.11"/><circle cx="434" cy="44" r="1.9" fill="#CBE3FF" opacity="0.20"/><circle cx="427" cy="158" r="2.0" fill="#CBE3FF" opacity="0.14"/><circle cx="417" cy="136" r="1.5" fill="#CBE3FF" opacity="0.14"/><circle cx="21" cy="71" r="1.9" fill="#CBE3FF" opacity="0.06"/><circle cx="568" cy="93" r="2.3" fill="#CBE3FF" opacity="0.14"/><circle cx="87" cy="52" r="1.4" fill="#CBE3FF" opacity="0.15"/><circle cx="290" cy="115" r="1.0" fill="#CBE3FF" opacity="0.07"/><circle cx="202" cy="39" r="2.7" fill="#CBE3FF" opacity="0.18"/><circle cx="224" cy="68" r="1.2" fill="#CBE3FF" opacity="0.14"/><circle cx="375" cy="130" r="2.7" fill="#CBE3FF" opacity="0.21"/><circle cx="421" cy="152" r="2.0" fill="#CBE3FF" opacity="0.06"/><circle cx="617" cy="78" r="1.5" fill="#CBE3FF" opacity="0.16"/><circle cx="473" cy="129" r="2.0" fill="#CBE3FF" opacity="0.20"/><circle cx="581" cy="117" r="2.1" fill="#CBE3FF" opacity="0.07"/><circle cx="205" cy="43" r="2.7" fill="#CBE3FF" opacity="0.11"/><circle cx="478" cy="71" r="1.8" fill="#CBE3FF" opacity="0.13"/><circle cx="766" cy="85" r="2.1" fill="#CBE3FF" opacity="0.16"/><circle cx="275" cy="82" r="1.5" fill="#CBE3FF" opacity="0.06"/><circle cx="696" cy="50" r="2.4" fill="#CBE3FF" opacity="0.16"/><circle cx="236" cy="61" r="1.4" fill="#CBE3FF" opacity="0.12"/><circle cx="123" cy="165" r="1.0" fill="#CBE3FF" opacity="0.06"/><circle cx="158" cy="32" r="1.3" fill="#CBE3FF" opacity="0.20"/><circle cx="612" cy="114" r="2.3" fill="#CBE3FF" opacity="0.09"/><circle cx="290" cy="29" r="1.3" fill="#CBE3FF" opacity="0.08"/><circle cx="57" cy="102" r="1.8" fill="#CBE3FF" opacity="0.06"/><circle cx="357" cy="114" r="1.4" fill="#CBE3FF" opacity="0.06"/><circle cx="131" cy="157" r="1.7" fill="#CBE3FF" opacity="0.08"/><circle cx="423" cy="60" r="1.2" fill="#CBE3FF" opacity="0.09"/><circle cx="97" cy="110" r="1.3" fill="#CBE3FF" opacity="0.12"/><circle cx="51" cy="85" r="1.5" fill="#CBE3FF" opacity="0.12"/><circle cx="779" cy="61" r="1.8" fill="#CBE3FF" opacity="0.19"/><circle cx="614" cy="79" r="1.5" fill="#CBE3FF" opacity="0.05"/><circle cx="312" cy="126" r="2.0" fill="#CBE3FF" opacity="0.21"/><circle cx="228" cy="17" r="2.3" fill="#CBE3FF" opacity="0.20"/><circle cx="343" cy="20" r="2.1" fill="#CBE3FF" opacity="0.05"/><circle cx="301" cy="44" r="1.8" fill="#CBE3FF" opacity="0.16"/><circle cx="380" cy="157" r="2.4" fill="#CBE3FF" opacity="0.17"/><circle cx="397" cy="103" r="1.5" fill="#CBE3FF" opacity="0.16"/><circle cx="196" cy="46" r="2.6" fill="#CBE3FF" opacity="0.06"/><circle cx="369" cy="109" r="2.0" fill="#CBE3FF" opacity="0.19"/><circle cx="291" cy="29" r="2.6" fill="#CBE3FF" opacity="0.15"/><circle cx="356" cy="123" r="1.1" fill="#CBE3FF" opacity="0.11"/><circle cx="623" cy="20" r="1.4" fill="#CBE3FF" opacity="0.14"/><circle cx="406" cy="80" r="2.2" fill="#CBE3FF" opacity="0.05"/><circle cx="289" cy="129" r="2.5" fill="#CBE3FF" opacity="0.15"/><circle cx="261" cy="85" r="2.7" fill="#CBE3FF" opacity="0.12"/><circle cx="205" cy="73" r="2.0" fill="#CBE3FF" opacity="0.12"/><circle cx="554" cy="56" r="1.9" fill="#CBE3FF" opacity="0.07"/><circle cx="650" cy="75" r="2.7" fill="#CBE3FF" opacity="0.10"/><circle cx="632" cy="157" r="1.5" fill="#CBE3FF" opacity="0.18"/><circle cx="691" cy="67" r="2.0" fill="#CBE3FF" opacity="0.19"/><circle cx="500" cy="161" r="2.0" fill="#CBE3FF" opacity="0.15"/><circle cx="20" cy="21" r="2.2" fill="#CBE3FF" opacity="0.16"/><circle cx="48" cy="158" r="1.7" fill="#CBE3FF" opacity="0.06"/><circle cx="754" cy="140" r="1.1" fill="#CBE3FF" opacity="0.17"/><circle cx="598" cy="82" r="1.8" fill="#CBE3FF" opacity="0.09"/><circle cx="334" cy="106" r="1.9" fill="#CBE3FF" opacity="0.08"/><circle cx="627" cy="129" r="1.3" fill="#CBE3FF" opacity="0.07"/><circle cx="623" cy="97" r="1.6" fill="#CBE3FF" opacity="0.05"/><circle cx="416" cy="60" r="1.6" fill="#CBE3FF" opacity="0.05"/><circle cx="632" cy="46" r="2.0" fill="#CBE3FF" opacity="0.09"/><circle cx="772" cy="35" r="2.4" fill="#CBE3FF" opacity="0.20"/><circle cx="383" cy="90" r="2.1" fill="#CBE3FF" opacity="0.20"/><circle cx="126" cy="87" r="2.2" fill="#CBE3FF" opacity="0.13"/><circle cx="272" cy="115" r="1.7" fill="#CBE3FF" opacity="0.12"/><circle cx="652" cy="65" r="1.5" fill="#CBE3FF" opacity="0.05"/><circle cx="222" cy="135" r="1.4" fill="#CBE3FF" opacity="0.08"/><circle cx="638" cy="71" r="1.8" fill="#CBE3FF" opacity="0.14"/><circle cx="106" cy="48" r="1.0" fill="#CBE3FF" opacity="0.19"/><circle cx="416" cy="163" r="2.6" fill="#CBE3FF" opacity="0.17"/><circle cx="165" cy="72" r="2.3" fill="#CBE3FF" opacity="0.16"/><circle cx="796" cy="96" r="2.0" fill="#CBE3FF" opacity="0.19"/><circle cx="673" cy="100" r="1.2" fill="#CBE3FF" opacity="0.14"/><circle cx="315" cy="119" r="1.7" fill="#CBE3FF" opacity="0.17"/><circle cx="630" cy="163" r="1.0" fill="#CBE3FF" opacity="0.17"/><circle cx="268" cy="29" r="2.5" fill="#CBE3FF" opacity="0.07"/><circle cx="770" cy="128" r="1.6" fill="#CBE3FF" opacity="0.19"/><circle cx="392" cy="41" r="2.3" fill="#CBE3FF" opacity="0.13"/><circle cx="423" cy="71" r="1.2" fill="#CBE3FF" opacity="0.12"/><circle cx="331" cy="159" r="1.1" fill="#CBE3FF" opacity="0.15"/><circle cx="155" cy="45" r="1.4" fill="#CBE3FF" opacity="0.20"/><circle cx="543" cy="100" r="2.8" fill="#CBE3FF" opacity="0.18"/><circle cx="736" cy="151" r="1.2" fill="#CBE3FF" opacity="0.06"/><circle cx="480" cy="138" r="2.2" fill="#CBE3FF" opacity="0.09"/><circle cx="489" cy="95" r="2.5" fill="#CBE3FF" opacity="0.07"/><circle cx="686" cy="162" r="1.3" fill="#CBE3FF" opacity="0.06"/><circle cx="545" cy="113" r="2.3" fill="#CBE3FF" opacity="0.05"/><circle cx="1" cy="142" r="2.4" fill="#CBE3FF" opacity="0.20"/><circle cx="310" cy="27" r="1.8" fill="#CBE3FF" opacity="0.05"/><circle cx="79" cy="155" r="2.3" fill="#CBE3FF" opacity="0.08"/><circle cx="401" cy="63" r="1.4" fill="#CBE3FF" opacity="0.06"/><circle cx="702" cy="40" r="2.0" fill="#CBE3FF" opacity="0.16"/><circle cx="29" cy="136" r="2.0" fill="#CBE3FF" opacity="0.07"/><circle cx="39" cy="114" r="2.4" fill="#CBE3FF" opacity="0.19"/><circle cx="529" cy="20" r="1.3" fill="#CBE3FF" opacity="0.13"/><circle cx="714" cy="153" r="2.6" fill="#CBE3FF" opacity="0.09"/><circle cx="667" cy="94" r="2.2" fill="#CBE3FF" opacity="0.17"/><circle cx="514" cy="40" r="1.8" fill="#CBE3FF" opacity="0.12"/><circle cx="577" cy="33" r="1.2" fill="#CBE3FF" opacity="0.10"/><circle cx="375" cy="155" r="2.0" fill="#CBE3FF" opacity="0.10"/><circle cx="549" cy="40" r="2.0" fill="#CBE3FF" opacity="0.13"/><circle cx="557" cy="34" r="1.9" fill="#CBE3FF" opacity="0.08"/><circle cx="253" cy="24" r="2.2" fill="#CBE3FF" opacity="0.15"/><circle cx="527" cy="114" r="2.7" fill="#CBE3FF" opacity="0.20"/><circle cx="707" cy="111" r="2.0" fill="#CBE3FF" opacity="0.18"/><circle cx="371" cy="117" r="1.7" fill="#CBE3FF" opacity="0.18"/><circle cx="513" cy="62" r="2.2" fill="#CBE3FF" opacity="0.21"/><circle cx="753" cy="60" r="1.5" fill="#CBE3FF" opacity="0.06"/><circle cx="392" cy="52" r="1.3" fill="#CBE3FF" opacity="0.06"/><circle cx="5" cy="38" r="1.4" fill="#CBE3FF" opacity="0.13"/><circle cx="137" cy="41" r="1.7" fill="#CBE3FF" opacity="0.09"/><circle cx="62" cy="61" r="2.0" fill="#CBE3FF" opacity="0.08"/><circle cx="347" cy="95" r="1.0" fill="#CBE3FF" opacity="0.18"/><circle cx="577" cy="20" r="1.2" fill="#CBE3FF" opacity="0.20"/><circle cx="344" cy="24" r="1.7" fill="#CBE3FF" opacity="0.14"/><circle cx="144" cy="100" r="1.7" fill="#CBE3FF" opacity="0.16"/><circle cx="227" cy="87" r="2.0" fill="#CBE3FF" opacity="0.08"/><circle cx="679" cy="74" r="2.0" fill="#CBE3FF" opacity="0.06"/><circle cx="396" cy="116" r="1.9" fill="#CBE3FF" opacity="0.14"/><circle cx="112" cy="28" r="1.0" fill="#CBE3FF" opacity="0.13"/><circle cx="242" cy="155" r="2.6" fill="#CBE3FF" opacity="0.07"/><circle cx="384" cy="118" r="1.0" fill="#CBE3FF" opacity="0.15"/><circle cx="455" cy="133" r="2.5" fill="#CBE3FF" opacity="0.18"/><circle cx="220" cy="43" r="1.5" fill="#CBE3FF" opacity="0.07"/><circle cx="134" cy="89" r="1.7" fill="#CBE3FF" opacity="0.10"/><circle cx="46" cy="50" r="1.6" fill="#CBE3FF" opacity="0.20"/><circle cx="430" cy="152" r="1.8" fill="#CBE3FF" opacity="0.11"/><circle cx="711" cy="37" r="2.0" fill="#CBE3FF" opacity="0.20"/><circle cx="799" cy="51" r="1.5" fill="#CBE3FF" opacity="0.08"/><circle cx="356" cy="132" r="2.4" fill="#CBE3FF" opacity="0.08"/><circle cx="788" cy="125" r="2.5" fill="#CBE3FF" opacity="0.21"/><circle cx="6" cy="135" r="1.9" fill="#CBE3FF" opacity="0.20"/><circle cx="544" cy="59" r="2.7" fill="#CBE3FF" opacity="0.13"/><circle cx="481" cy="36" r="2.7" fill="#CBE3FF" opacity="0.10"/><circle cx="764" cy="66" r="2.7" fill="#CBE3FF" opacity="0.17"/><circle cx="762" cy="37" r="2.2" fill="#CBE3FF" opacity="0.07"/><circle cx="681" cy="158" r="1.5" fill="#CBE3FF" opacity="0.05"/><circle cx="423" cy="76" r="2.6" fill="#CBE3FF" opacity="0.18"/><circle cx="359" cy="38" r="2.3" fill="#CBE3FF" opacity="0.17"/><circle cx="478" cy="159" r="1.0" fill="#CBE3FF" opacity="0.13"/><circle cx="80" cy="104" r="2.7" fill="#CBE3FF" opacity="0.06"/><circle cx="696" cy="56" r="2.2" fill="#CBE3FF" opacity="0.07"/><circle cx="290" cy="48" r="1.4" fill="#CBE3FF" opacity="0.18"/><circle cx="477" cy="16" r="1.8" fill="#CBE3FF" opacity="0.12"/><circle cx="584" cy="85" r="1.4" fill="#CBE3FF" opacity="0.15"/><circle cx="733" cy="52" r="1.2" fill="#CBE3FF" opacity="0.07"/><circle cx="169" cy="38" r="2.3" fill="#CBE3FF" opacity="0.10"/><circle cx="498" cy="151" r="2.6" fill="#CBE3FF" opacity="0.20"/><circle cx="7" cy="25" r="1.7" fill="#CBE3FF" opacity="0.08"/><circle cx="549" cy="82" r="1.5" fill="#CBE3FF" opacity="0.15"/><circle cx="171" cy="130" r="1.8" fill="#CBE3FF" opacity="0.07"/><circle cx="159" cy="126" r="2.8" fill="#CBE3FF" opacity="0.06"/><circle cx="708" cy="31" r="2.7" fill="#CBE3FF" opacity="0.07"/><circle cx="71" cy="80" r="1.9" fill="#CBE3FF" opacity="0.18"/><circle cx="464" cy="124" r="1.5" fill="#CBE3FF" opacity="0.10"/><circle cx="780" cy="90" r="1.5" fill="#CBE3FF" opacity="0.21"/><circle cx="80" cy="54" r="2.1" fill="#CBE3FF" opacity="0.17"/><circle cx="622" cy="137" r="1.8" fill="#CBE3FF" opacity="0.07"/><circle cx="781" cy="37" r="1.6" fill="#CBE3FF" opacity="0.14"/><circle cx="612" cy="26" r="2.3" fill="#CBE3FF" opacity="0.08"/><circle cx="684" cy="84" r="1.4" fill="#CBE3FF" opacity="0.20"/><circle cx="442" cy="116" r="1.5" fill="#CBE3FF" opacity="0.17"/><circle cx="603" cy="107" r="2.6" fill="#CBE3FF" opacity="0.14"/><circle cx="418" cy="124" r="2.6" fill="#CBE3FF" opacity="0.17"/><circle cx="186" cy="136" r="2.5" fill="#CBE3FF" opacity="0.17"/><circle cx="621" cy="109" r="1.7" fill="#CBE3FF" opacity="0.21"/>
  <rect x="484" y="58" width="7" height="10" rx="1.5" fill="#1BB55C" opacity="0.5" transform="rotate(2 484 58)"/><rect x="577" y="129" width="9" height="12" rx="1.5" fill="#FFD24A" opacity="0.5" transform="rotate(-28 577 129)"/><rect x="278" y="53" width="7" height="10" rx="1.5" fill="#FFFFFF" opacity="0.5" transform="rotate(-15 278 53)"/><rect x="739" y="100" width="8" height="11" rx="1.5" fill="#FFD24A" opacity="0.5" transform="rotate(8 739 100)"/><rect x="475" y="76" width="8" height="11" rx="1.5" fill="#FFFFFF" opacity="0.5" transform="rotate(-2 475 76)"/><rect x="433" y="17" width="5" height="10" rx="1.5" fill="#FFFFFF" opacity="0.5" transform="rotate(-28 433 17)"/><rect x="458" y="108" width="6" height="9" rx="1.5" fill="#FF6A00" opacity="0.5" transform="rotate(6 458 108)"/><rect x="694" y="119" width="7" height="8" rx="1.5" fill="#1BB55C" opacity="0.5" transform="rotate(-27 694 119)"/><rect x="94" y="74" width="7" height="13" rx="1.5" fill="#FFFFFF" opacity="0.5" transform="rotate(1 94 74)"/><rect x="613" y="60" width="5" height="9" rx="1.5" fill="#FFD24A" opacity="0.5" transform="rotate(17 613 60)"/><rect x="659" y="76" width="8" height="11" rx="1.5" fill="#FFFFFF" opacity="0.5" transform="rotate(-28 659 76)"/><rect x="460" y="126" width="8" height="12" rx="1.5" fill="#FFFFFF" opacity="0.5" transform="rotate(-13 460 126)"/><rect x="437" y="64" width="8" height="10" rx="1.5" fill="#FF6A00" opacity="0.5" transform="rotate(-16 437 64)"/><rect x="788" y="44" width="7" height="12" rx="1.5" fill="#FFD24A" opacity="0.5" transform="rotate(-5 788 44)"/><rect x="179" y="59" width="5" height="10" rx="1.5" fill="#FFD24A" opacity="0.5" transform="rotate(-21 179 59)"/><rect x="602" y="103" width="9" height="9" rx="1.5" fill="#FF6A00" opacity="0.5" transform="rotate(9 602 103)"/><rect x="247" y="99" width="7" height="12" rx="1.5" fill="#FFD24A" opacity="0.5" transform="rotate(-6 247 99)"/><rect x="695" y="98" width="9" height="15" rx="1.5" fill="#1BB55C" opacity="0.5" transform="rotate(-20 695 98)"/><rect x="75" y="76" width="8" height="14" rx="1.5" fill="#1BB55C" opacity="0.5" transform="rotate(12 75 76)"/><rect x="42" y="12" width="8" height="9" rx="1.5" fill="#FFD24A" opacity="0.5" transform="rotate(19 42 12)"/><rect x="549" y="31" width="8" height="9" rx="1.5" fill="#FFFFFF" opacity="0.5" transform="rotate(-18 549 31)"/><rect x="329" y="125" width="8" height="9" rx="1.5" fill="#1BB55C" opacity="0.5" transform="rotate(-17 329 125)"/><rect x="481" y="46" width="7" height="13" rx="1.5" fill="#FF6A00" opacity="0.5" transform="rotate(-14 481 46)"/><rect x="391" y="10" width="4" height="11" rx="1.5" fill="#1BB55C" opacity="0.5" transform="rotate(5 391 10)"/><rect x="77" y="119" width="8" height="14" rx="1.5" fill="#1BB55C" opacity="0.5" transform="rotate(-26 77 119)"/><rect x="457" y="17" width="5" height="14" rx="1.5" fill="#FFD24A" opacity="0.5" transform="rotate(-29 457 17)"/>
  <path d="M0 268 L800 236 L800 440 L0 440 Z" fill="url(#grass)"/>
  <path d="M0 268 L800 236" stroke="#4FBE82" stroke-opacity="0.35" stroke-width="2"/>
  <line x1="400" y1="252" x2="400" y2="440" stroke="#4FBE82" stroke-opacity="0.25" stroke-width="2"/>
  <circle cx="400" cy="400" r="80" fill="none" stroke="#4FBE82" stroke-opacity="0.22" stroke-width="2"/>
  <rect x="0" y="434" width="800" height="6" fill="#FF6A00"/>
  <text x="38" y="210" font-family="Arial, sans-serif" font-size="150" font-weight="900" fill="#FFFFFF" opacity="0.06">USA</text>
  <text x="762" y="372" text-anchor="end" font-family="Arial, sans-serif" font-size="150" font-weight="900" fill="#FFFFFF" opacity="0.06">PAR</text>
  <rect width="800" height="440" fill="url(#fade)"/>
</svg>