<svg xmlns="http://www.w3.org/2000/svg" width="800" height="440" viewBox="0 0 800 440" role="img" aria-label="USA x AUS">
  <defs>
    <linearGradient id="sky" x1="0" y1="0" x2="0" y2="1">
      <stop offset="0" stop-color="#243244"/>
      <stop offset="0.5" stop-color="#16202D"/>
      <stop offset="1" stop-color="#0C141E"/>
    </linearGradient>
    <radialGradient id="lgl" cx="0.16" cy="0.0" r="0.7">
      <stop offset="0" stop-color="#1B3A8C" stop-opacity="0.7"/>
      <stop offset="1" stop-color="#1B3A8C" stop-opacity="0"/>
    </radialGradient>
    <radialGradient id="rgl" cx="0.86" cy="0.05" r="0.7">
      <stop offset="0" stop-color="#0E7C3A" stop-opacity="0.62"/>
      <stop offset="1" stop-color="#0E7C3A" stop-opacity="0"/>
    </radialGradient>
    <radialGradient id="spot" cx="0.5" cy="-0.1" r="0.55">
      <stop offset="0" stop-color="#FFFFFF" stop-opacity="0.18"/>
      <stop offset="1" stop-color="#FFFFFF" stop-opacity="0"/>
    </radialGradient>
    <linearGradient id="grass" x1="0" y1="0" x2="0" y2="1">
      <stop offset="0" stop-color="#13502F"/>
      <stop offset="1" stop-color="#0B3520"/>
    </linearGradient>
    <linearGradient id="fade" x1="0" y1="0" x2="0" y2="1">
      <stop offset="0.4" stop-color="#0C141E" stop-opacity="0"/>
      <stop offset="1" stop-color="#0A111A" stop-opacity="0.9"/>
    </linearGradient>
  </defs>
  <rect width="800" height="440" fill="url(#sky)"/>
  <rect width="800" height="440" fill="url(#spot)"/>
  <rect width="800" height="440" fill="url(#lgl)"/>
  <rect width="800" height="440" fill="url(#rgl)"/>
  <circle cx="236" cy="111" r="1.5" fill="#CBE3FF" opacity="0.10"/><circle cx="196" cy="74" r="1.4" fill="#CBE3FF" opacity="0.11"/><circle cx="366" cy="49" r="1.4" fill="#CBE3FF" opacity="0.12"/><circle cx="461" cy="140" r="1.3" fill="#CBE3FF" opacity="0.07"/><circle cx="230" cy="121" r="1.2" fill="#CBE3FF" opacity="0.16"/><circle cx="14" cy="17" r="2.2" fill="#CBE3FF" opacity="0.20"/><circle cx="690" cy="132" r="2.6" fill="#CBE3FF" opacity="0.07"/><circle cx="149" cy="52" r="1.5" fill="#CBE3FF" opacity="0.15"/><circle cx="248" cy="124" r="2.6" fill="#CBE3FF" opacity="0.15"/><circle cx="306" cy="45" r="1.6" fill="#CBE3FF" opacity="0.14"/><circle cx="489" cy="83" r="2.2" fill="#CBE3FF" opacity="0.15"/><circle cx="680" cy="70" r="2.3" fill="#CBE3FF" opacity="0.20"/><circle cx="32" cy="121" r="1.5" fill="#CBE3FF" opacity="0.16"/><circle cx="291" cy="24" r="1.3" fill="#CBE3FF" opacity="0.16"/><circle cx="400" cy="40" r="2.2" fill="#CBE3FF" opacity="0.18"/><circle cx="267" cy="164" r="2.4" fill="#CBE3FF" opacity="0.08"/><circle cx="423" cy="115" r="2.4" fill="#CBE3FF" opacity="0.13"/><circle cx="580" cy="32" r="2.4" fill="#CBE3FF" opacity="0.10"/><circle cx="586" cy="81" r="1.5" fill="#CBE3FF" opacity="0.07"/><circle cx="534" cy="165" r="1.1" fill="#CBE3FF" opacity="0.15"/><circle cx="20" cy="86" r="1.7" fill="#CBE3FF" opacity="0.10"/><circle cx="353" cy="98" r="1.4" fill="#CBE3FF" opacity="0.13"/><circle cx="454" cy="153" r="1.6" fill="#CBE3FF" opacity="0.20"/><circle cx="561" cy="141" r="1.5" fill="#CBE3FF" opacity="0.17"/><circle cx="492" cy="144" r="1.9" fill="#CBE3FF" opacity="0.16"/><circle cx="176" cy="110" r="1.0" fill="#CBE3FF" opacity="0.11"/><circle cx="453" cy="137" r="1.4" fill="#CBE3FF" opacity="0.13"/><circle cx="88" cy="103" r="2.8" fill="#CBE3FF" opacity="0.07"/><circle cx="735" cy="127" r="1.7" fill="#CBE3FF" opacity="0.06"/><circle cx="648" cy="154" r="1.9" fill="#CBE3FF" opacity="0.13"/><circle cx="711" cy="144" r="2.6" fill="#CBE3FF" opacity="0.09"/><circle cx="304" cy="28" r="1.3" fill="#CBE3FF" opacity="0.12"/><circle cx="331" cy="52" r="1.3" fill="#CBE3FF" opacity="0.17"/><circle cx="721" cy="49" r="2.0" fill="#CBE3FF" opacity="0.18"/><circle cx="449" cy="67" r="2.2" fill="#CBE3FF" opacity="0.07"/><circle cx="457" cy="129" r="2.0" fill="#CBE3FF" opacity="0.19"/><circle cx="642" cy="145" r="2.6" fill="#CBE3FF" opacity="0.06"/><circle cx="741" cy="93" r="2.4" fill="#CBE3FF" opacity="0.20"/><circle cx="416" cy="100" r="1.8" fill="#CBE3FF" opacity="0.12"/><circle cx="114" cy="82" r="2.0" fill="#CBE3FF" opacity="0.08"/><circle cx="702" cy="32" r="2.0" fill="#CBE3FF" opacity="0.05"/><circle cx="444" cy="91" r="1.0" fill="#CBE3FF" opacity="0.18"/><circle cx="765" cy="125" r="2.5" fill="#CBE3FF" opacity="0.07"/><circle cx="477" cy="123" r="2.4" fill="#CBE3FF" opacity="0.17"/><circle cx="791" cy="139" r="1.4" fill="#CBE3FF" opacity="0.19"/><circle cx="46" cy="63" r="2.2" fill="#CBE3FF" opacity="0.08"/><circle cx="179" cy="45" r="2.1" fill="#CBE3FF" opacity="0.16"/><circle cx="63" cy="148" r="1.7" fill="#CBE3FF" opacity="0.13"/><circle cx="385" cy="134" r="1.2" fill="#CBE3FF" opacity="0.15"/><circle cx="121" cy="104" r="1.3" fill="#CBE3FF" opacity="0.19"/><circle cx="587" cy="151" r="2.6" fill="#CBE3FF" opacity="0.14"/><circle cx="215" cy="148" r="1.2" fill="#CBE3FF" opacity="0.18"/><circle cx="45" cy="44" r="1.2" fill="#CBE3FF" opacity="0.13"/><circle cx="301" cy="108" r="1.3" fill="#CBE3FF" opacity="0.05"/><circle cx="140" cy="99" r="1.1" fill="#CBE3FF" opacity="0.07"/><circle cx="88" cy="155" r="2.6" fill="#CBE3FF" opacity="0.10"/><circle cx="748" cy="141" r="1.2" fill="#CBE3FF" opacity="0.14"/><circle cx="615" cy="52" r="1.8" fill="#CBE3FF" opacity="0.13"/><circle cx="190" cy="105" r="2.5" fill="#CBE3FF" opacity="0.16"/><circle cx="320" cy="23" r="1.0" fill="#CBE3FF" opacity="0.13"/><circle cx="394" cy="155" r="2.6" fill="#CBE3FF" opacity="0.16"/><circle cx="290" cy="59" r="1.1" fill="#CBE3FF" opacity="0.08"/><circle cx="180" cy="97" r="2.5" fill="#CBE3FF" opacity="0.16"/><circle cx="289" cy="158" r="2.5" fill="#CBE3FF" opacity="0.16"/><circle cx="101" cy="106" r="1.7" fill="#CBE3FF" opacity="0.10"/><circle cx="34" cy="118" r="2.4" fill="#CBE3FF" opacity="0.18"/><circle cx="509" cy="154" r="2.1" fill="#CBE3FF" opacity="0.11"/><circle cx="200" cy="54" r="1.8" fill="#CBE3FF" opacity="0.14"/><circle cx="747" cy="26" r="2.2" fill="#CBE3FF" opacity="0.06"/><circle cx="348" cy="57" r="1.9" fill="#CBE3FF" opacity="0.20"/><circle cx="627" cy="148" r="1.3" fill="#CBE3FF" opacity="0.08"/><circle cx="516" cy="146" r="2.5" fill="#CBE3FF" opacity="0.07"/><circle cx="152" cy="129" r="1.1" fill="#CBE3FF" opacity="0.17"/><circle cx="689" cy="46" r="1.1" fill="#CBE3FF" opacity="0.10"/><circle cx="791" cy="35" r="2.6" fill="#CBE3FF" opacity="0.14"/><circle cx="91" cy="56" r="2.1" fill="#CBE3FF" opacity="0.12"/><circle cx="299" cy="85" r="1.7" fill="#CBE3FF" opacity="0.07"/><circle cx="449" cy="36" r="1.8" fill="#CBE3FF" opacity="0.13"/><circle cx="597" cy="141" r="1.9" fill="#CBE3FF" opacity="0.19"/><circle cx="636" cy="140" r="2.5" fill="#CBE3FF" opacity="0.21"/><circle cx="30" cy="132" r="1.3" fill="#CBE3FF" opacity="0.07"/><circle cx="330" cy="114" r="1.7" fill="#CBE3FF" opacity="0.13"/><circle cx="104" cy="146" r="2.1" fill="#CBE3FF" opacity="0.12"/><circle cx="786" cy="111" r="1.1" fill="#CBE3FF" opacity="0.20"/><circle cx="167" cy="29" r="2.2" fill="#CBE3FF" opacity="0.21"/><circle cx="690" cy="104" r="1.1" fill="#CBE3FF" opacity="0.11"/><circle cx="148" cy="75" r="2.4" fill="#CBE3FF" opacity="0.19"/><circle cx="441" cy="117" r="2.0" fill="#CBE3FF" opacity="0.20"/><circle cx="562" cy="110" r="1.8" fill="#CBE3FF" opacity="0.16"/><circle cx="730" cy="118" r="1.2" fill="#CBE3FF" opacity="0.16"/><circle cx="95" cy="116" r="2.0" fill="#CBE3FF" opacity="0.14"/><circle cx="603" cy="33" r="2.2" fill="#CBE3FF" opacity="0.15"/><circle cx="636" cy="62" r="2.1" fill="#CBE3FF" opacity="0.15"/><circle cx="588" cy="65" r="1.8" fill="#CBE3FF" opacity="0.18"/><circle cx="552" cy="127" r="2.1" fill="#CBE3FF" opacity="0.12"/><circle cx="568" cy="17" r="2.7" fill="#CBE3FF" opacity="0.08"/><circle cx="268" cy="21" r="2.8" fill="#CBE3FF" opacity="0.08"/><circle cx="594" cy="24" r="2.3" fill="#CBE3FF" opacity="0.07"/><circle cx="757" cy="138" r="2.7" fill="#CBE3FF" opacity="0.09"/><circle cx="695" cy="97" r="2.7" fill="#CBE3FF" opacity="0.11"/><circle cx="385" cy="145" r="1.4" fill="#CBE3FF" opacity="0.16"/><circle cx="220" cy="130" r="2.4" fill="#CBE3FF" opacity="0.10"/><circle cx="271" cy="56" r="2.6" fill="#CBE3FF" opacity="0.21"/><circle cx="691" cy="85" r="2.3" fill="#CBE3FF" opacity="0.06"/><circle cx="503" cy="36" r="1.2" fill="#CBE3FF" opacity="0.16"/><circle cx="24" cy="96" r="1.2" fill="#CBE3FF" opacity="0.13"/><circle cx="500" cy="17" r="2.1" fill="#CBE3FF" opacity="0.20"/><circle cx="252" cy="23" r="1.8" fill="#CBE3FF" opacity="0.06"/><circle cx="379" cy="111" r="2.5" fill="#CBE3FF" opacity="0.12"/><circle cx="181" cy="32" r="1.4" fill="#CBE3FF" opacity="0.15"/><circle cx="318" cy="124" r="1.7" fill="#CBE3FF" opacity="0.16"/><circle cx="87" cy="45" r="2.3" fill="#CBE3FF" opacity="0.20"/><circle cx="330" cy="26" r="1.0" fill="#CBE3FF" opacity="0.07"/><circle cx="512" cy="50" r="1.9" fill="#CBE3FF" opacity="0.11"/><circle cx="424" cy="37" r="1.1" fill="#CBE3FF" opacity="0.19"/><circle cx="347" cy="160" r="2.0" fill="#CBE3FF" opacity="0.12"/><circle cx="24" cy="110" r="2.1" fill="#CBE3FF" opacity="0.21"/><circle cx="270" cy="25" r="2.6" fill="#CBE3FF" opacity="0.05"/><circle cx="417" cy="147" r="1.4" fill="#CBE3FF" opacity="0.20"/><circle cx="543" cy="121" r="1.5" fill="#CBE3FF" opacity="0.18"/><circle cx="39" cy="147" r="2.6" fill="#CBE3FF" opacity="0.10"/><circle cx="313" cy="98" r="1.3" fill="#CBE3FF" opacity="0.08"/><circle cx="441" cy="103" r="1.3" fill="#CBE3FF" opacity="0.13"/><circle cx="767" cy="63" r="1.7" fill="#CBE3FF" opacity="0.20"/><circle cx="674" cy="45" r="2.1" fill="#CBE3FF" opacity="0.10"/><circle cx="111" cy="126" r="2.4" fill="#CBE3FF" opacity="0.12"/><circle cx="281" cy="106" r="2.2" fill="#CBE3FF" opacity="0.15"/><circle cx="323" cy="81" r="1.5" fill="#CBE3FF" opacity="0.18"/><circle cx="417" cy="21" r="2.6" fill="#CBE3FF" opacity="0.13"/><circle cx="108" cy="135" r="1.9" fill="#CBE3FF" opacity="0.09"/><circle cx="520" cy="133" r="1.9" fill="#CBE3FF" opacity="0.19"/><circle cx="589" cy="103" r="2.0" fill="#CBE3FF" opacity="0.15"/><circle cx="197" cy="154" r="1.9" fill="#CBE3FF" opacity="0.08"/><circle cx="147" cy="123" r="1.1" fill="#CBE3FF" opacity="0.05"/><circle cx="670" cy="51" r="1.5" fill="#CBE3FF" opacity="0.12"/><circle cx="214" cy="148" r="2.8" fill="#CBE3FF" opacity="0.09"/><circle cx="692" cy="100" r="2.2" fill="#CBE3FF" opacity="0.06"/><circle cx="143" cy="26" r="2.7" fill="#CBE3FF" opacity="0.20"/><circle cx="115" cy="40" r="1.2" fill="#CBE3FF" opacity="0.16"/><circle cx="310" cy="122" r="1.4" fill="#CBE3FF" opacity="0.14"/><circle cx="217" cy="53" r="2.0" fill="#CBE3FF" opacity="0.10"/><circle cx="704" cy="159" r="1.1" fill="#CBE3FF" opacity="0.19"/><circle cx="553" cy="88" r="2.2" fill="#CBE3FF" opacity="0.16"/><circle cx="436" cy="18" r="2.4" fill="#CBE3FF" opacity="0.18"/><circle cx="291" cy="114" r="2.2" fill="#CBE3FF" opacity="0.20"/><circle cx="754" cy="74" r="1.0" fill="#CBE3FF" opacity="0.09"/><circle cx="688" cy="55" r="1.5" fill="#CBE3FF" opacity="0.18"/><circle cx="633" cy="54" r="2.1" fill="#CBE3FF" opacity="0.11"/><circle cx="388" cy="30" r="2.0" fill="#CBE3FF" opacity="0.16"/><circle cx="342" cy="45" r="1.2" fill="#CBE3FF" opacity="0.15"/><circle cx="401" cy="69" r="2.4" fill="#CBE3FF" opacity="0.14"/><circle cx="782" cy="36" r="1.2" fill="#CBE3FF" opacity="0.17"/><circle cx="717" cy="75" r="2.1" fill="#CBE3FF" opacity="0.09"/><circle cx="404" cy="155" r="1.2" fill="#CBE3FF" opacity="0.20"/><circle cx="506" cy="156" r="2.1" fill="#CBE3FF" opacity="0.10"/><circle cx="178" cy="147" r="2.5" fill="#CBE3FF" opacity="0.06"/><circle cx="581" cy="69" r="2.5" fill="#CBE3FF" opacity="0.11"/><circle cx="269" cy="73" r="1.6" fill="#CBE3FF" opacity="0.11"/><circle cx="602" cy="123" r="1.7" fill="#CBE3FF" opacity="0.18"/><circle cx="551" cy="41" r="2.0" fill="#CBE3FF" opacity="0.07"/><circle cx="389" cy="105" r="1.5" fill="#CBE3FF" opacity="0.09"/><circle cx="778" cy="117" r="2.3" fill="#CBE3FF" opacity="0.06"/><circle cx="555" cy="65" r="2.4" fill="#CBE3FF" opacity="0.14"/><circle cx="654" cy="21" r="1.6" fill="#CBE3FF" opacity="0.19"/><circle cx="424" cy="159" r="1.7" fill="#CBE3FF" opacity="0.14"/><circle cx="150" cy="48" r="2.4" fill="#CBE3FF" opacity="0.21"/><circle cx="733" cy="83" r="2.4" fill="#CBE3FF" opacity="0.11"/><circle cx="392" cy="104" r="1.6" fill="#CBE3FF" opacity="0.15"/><circle cx="441" cy="19" r="2.1" fill="#CBE3FF" opacity="0.08"/><circle cx="75" cy="69" r="2.4" fill="#CBE3FF" opacity="0.07"/>
  <rect x="115" y="114" width="6" height="14" rx="1.5" fill="#FFD24A" opacity="0.5" transform="rotate(4 115 114)"/><rect x="629" y="94" width="7" height="11" rx="1.5" fill="#FFFFFF" opacity="0.5" transform="rotate(-29 629 94)"/><rect x="755" y="16" width="7" height="9" rx="1.5" fill="#FFD24A" opacity="0.5" transform="rotate(30 755 16)"/><rect x="419" y="72" width="6" height="12" rx="1.5" fill="#FFFFFF" opacity="0.5" transform="rotate(16 419 72)"/><rect x="748" y="72" width="6" height="8" rx="1.5" fill="#FF6A00" opacity="0.5" transform="rotate(8 748 72)"/><rect x="261" y="84" width="8" height="12" rx="1.5" fill="#FFFFFF" opacity="0.5" transform="rotate(-19 261 84)"/><rect x="677" y="103" width="7" height="9" rx="1.5" fill="#FFD24A" opacity="0.5" transform="rotate(21 677 103)"/><rect x="414" y="63" width="5" height="10" rx="1.5" fill="#FFD24A" opacity="0.5" transform="rotate(20 414 63)"/><rect x="701" y="116" width="7" height="14" rx="1.5" fill="#1BB55C" opacity="0.5" transform="rotate(-5 701 116)"/><rect x="773" y="25" width="5" height="11" rx="1.5" fill="#FFFFFF" opacity="0.5" transform="rotate(25 773 25)"/><rect x="308" y="25" width="6" height="8" rx="1.5" fill="#FFFFFF" opacity="0.5" transform="rotate(28 308 25)"/><rect x="642" y="72" width="8" height="15" rx="1.5" fill="#1BB55C" opacity="0.5" transform="rotate(-1 642 72)"/><rect x="18" y="94" width="4" height="9" rx="1.5" fill="#1BB55C" opacity="0.5" transform="rotate(-12 18 94)"/><rect x="481" y="54" width="7" height="12" rx="1.5" fill="#1BB55C" opacity="0.5" transform="rotate(-20 481 54)"/><rect x="258" y="72" width="5" height="13" rx="1.5" fill="#1BB55C" opacity="0.5" transform="rotate(20 258 72)"/><rect x="245" y="10" width="6" height="12" rx="1.5" fill="#FFFFFF" opacity="0.5" transform="rotate(11 245 10)"/><rect x="616" y="82" width="5" height="9" rx="1.5" fill="#FFFFFF" opacity="0.5" transform="rotate(-5 616 82)"/><rect x="579" y="29" width="8" height="9" rx="1.5" fill="#FFD24A" opacity="0.5" transform="rotate(10 579 29)"/><rect x="674" y="15" width="7" height="14" rx="1.5" fill="#1BB55C" opacity="0.5" transform="rotate(3 674 15)"/><rect x="9" y="12" width="4" height="10" rx="1.5" fill="#FF6A00" opacity="0.5" transform="rotate(-24 9 12)"/><rect x="329" y="21" width="6" height="10" rx="1.5" fill="#FF6A00" opacity="0.5" transform="rotate(-27 329 21)"/><rect x="355" y="28" width="4" height="13" rx="1.5" fill="#FF6A00" opacity="0.5" transform="rotate(-16 355 28)"/><rect x="351" y="17" width="9" height="9" rx="1.5" fill="#FF6A00" opacity="0.5" transform="rotate(21 351 17)"/><rect x="573" y="38" width="8" height="13" rx="1.5" fill="#1BB55C" opacity="0.5" transform="rotate(20 573 38)"/><rect x="406" y="15" width="4" height="8" rx="1.5" fill="#FF6A00" opacity="0.5" transform="rotate(12 406 15)"/><rect x="534" y="18" width="6" height="11" rx="1.5" fill="#FFFFFF" opacity="0.5" transform="rotate(21 534 18)"/>
  <path d="M0 268 L800 236 L800 440 L0 440 Z" fill="url(#grass)"/>
  <path d="M0 268 L800 236" stroke="#4FBE82" stroke-opacity="0.35" stroke-width="2"/>
  <line x1="400" y1="252" x2="400" y2="440" stroke="#4FBE82" stroke-opacity="0.25" stroke-width="2"/>
  <circle cx="400" cy="400" r="80" fill="none" stroke="#4FBE82" stroke-opacity="0.22" stroke-width="2"/>
  <rect x="0" y="434" width="800" height="6" fill="#FF6A00"/>
  <text x="38" y="210" font-family="Arial, sans-serif" font-size="150" font-weight="900" fill="#FFFFFF" opacity="0.06">USA</text>
  <text x="762" y="372" text-anchor="end" font-family="Arial, sans-serif" font-size="150" font-weight="900" fill="#FFFFFF" opacity="0.06">AUS</text>
  <rect width="800" height="440" fill="url(#fade)"/>
</svg>