<svg xmlns="http://www.w3.org/2000/svg" width="800" height="440" viewBox="0 0 800 440" role="img" aria-label="FRA x SEN">
  <defs>
    <linearGradient id="sky" x1="0" y1="0" x2="0" y2="1">
      <stop offset="0" stop-color="#243244"/>
      <stop offset="0.5" stop-color="#16202D"/>
      <stop offset="1" stop-color="#0C141E"/>
    </linearGradient>
    <radialGradient id="lgl" cx="0.16" cy="0.0" r="0.7">
      <stop offset="0" stop-color="#1E4FC2" stop-opacity="0.7"/>
      <stop offset="1" stop-color="#1E4FC2" stop-opacity="0"/>
    </radialGradient>
    <radialGradient id="rgl" cx="0.86" cy="0.05" r="0.7">
      <stop offset="0" stop-color="#138A3E" stop-opacity="0.62"/>
      <stop offset="1" stop-color="#138A3E" stop-opacity="0"/>
    </radialGradient>
    <radialGradient id="spot" cx="0.5" cy="-0.1" r="0.55">
      <stop offset="0" stop-color="#FFFFFF" stop-opacity="0.18"/>
      <stop offset="1" stop-color="#FFFFFF" stop-opacity="0"/>
    </radialGradient>
    <linearGradient id="grass" x1="0" y1="0" x2="0" y2="1">
      <stop offset="0" stop-color="#13502F"/>
      <stop offset="1" stop-color="#0B3520"/>
    </linearGradient>
    <linearGradient id="fade" x1="0" y1="0" x2="0" y2="1">
      <stop offset="0.4" stop-color="#0C141E" stop-opacity="0"/>
      <stop offset="1" stop-color="#0A111A" stop-opacity="0.9"/>
    </linearGradient>
  </defs>
  <rect width="800" height="440" fill="url(#sky)"/>
  <rect width="800" height="440" fill="url(#spot)"/>
  <rect width="800" height="440" fill="url(#lgl)"/>
  <rect width="800" height="440" fill="url(#rgl)"/>
  <circle cx="582" cy="18" r="2.2" fill="#CBE3FF" opacity="0.14"/><circle cx="471" cy="24" r="1.6" fill="#CBE3FF" opacity="0.11"/><circle cx="503" cy="165" r="2.4" fill="#CBE3FF" opacity="0.09"/><circle cx="273" cy="125" r="2.3" fill="#CBE3FF" opacity="0.11"/><circle cx="705" cy="25" r="2.8" fill="#CBE3FF" opacity="0.21"/><circle cx="94" cy="135" r="1.9" fill="#CBE3FF" opacity="0.10"/><circle cx="177" cy="79" r="1.3" fill="#CBE3FF" opacity="0.08"/><circle cx="734" cy="49" r="2.2" fill="#CBE3FF" opacity="0.14"/><circle cx="422" cy="66" r="1.1" fill="#CBE3FF" opacity="0.16"/><circle cx="41" cy="130" r="1.8" fill="#CBE3FF" opacity="0.19"/><circle cx="671" cy="46" r="1.7" fill="#CBE3FF" opacity="0.18"/><circle cx="128" cy="53" r="1.0" fill="#CBE3FF" opacity="0.10"/><circle cx="64" cy="120" r="1.3" fill="#CBE3FF" opacity="0.13"/><circle cx="410" cy="163" r="2.2" fill="#CBE3FF" opacity="0.08"/><circle cx="484" cy="88" r="1.9" fill="#CBE3FF" opacity="0.13"/><circle cx="603" cy="117" r="1.6" fill="#CBE3FF" opacity="0.12"/><circle cx="669" cy="68" r="1.6" fill="#CBE3FF" opacity="0.10"/><circle cx="144" cy="106" r="2.1" fill="#CBE3FF" opacity="0.08"/><circle cx="233" cy="61" r="2.0" fill="#CBE3FF" opacity="0.11"/><circle cx="576" cy="87" r="2.3" fill="#CBE3FF" opacity="0.12"/><circle cx="645" cy="72" r="1.3" fill="#CBE3FF" opacity="0.10"/><circle cx="747" cy="49" r="2.4" fill="#CBE3FF" opacity="0.17"/><circle cx="732" cy="165" r="2.3" fill="#CBE3FF" opacity="0.20"/><circle cx="384" cy="70" r="2.1" fill="#CBE3FF" opacity="0.20"/><circle cx="0" cy="32" r="1.9" fill="#CBE3FF" opacity="0.15"/><circle cx="457" cy="135" r="2.2" fill="#CBE3FF" opacity="0.12"/><circle cx="394" cy="138" r="2.2" fill="#CBE3FF" opacity="0.14"/><circle cx="271" cy="131" r="2.1" fill="#CBE3FF" opacity="0.13"/><circle cx="292" cy="100" r="1.6" fill="#CBE3FF" opacity="0.09"/><circle cx="780" cy="118" r="1.6" fill="#CBE3FF" opacity="0.16"/><circle cx="613" cy="151" r="2.1" fill="#CBE3FF" opacity="0.11"/><circle cx="587" cy="32" r="1.6" fill="#CBE3FF" opacity="0.13"/><circle cx="58" cy="57" r="2.0" fill="#CBE3FF" opacity="0.20"/><circle cx="283" cy="110" r="2.1" fill="#CBE3FF" opacity="0.21"/><circle cx="265" cy="145" r="1.2" fill="#CBE3FF" opacity="0.12"/><circle cx="397" cy="157" r="2.0" fill="#CBE3FF" opacity="0.07"/><circle cx="607" cy="26" r="1.4" fill="#CBE3FF" opacity="0.19"/><circle cx="170" cy="93" r="1.0" fill="#CBE3FF" opacity="0.17"/><circle cx="158" cy="97" r="2.8" fill="#CBE3FF" opacity="0.16"/><circle cx="289" cy="61" r="1.4" fill="#CBE3FF" opacity="0.12"/><circle cx="17" cy="114" r="1.9" fill="#CBE3FF" opacity="0.20"/><circle cx="346" cy="138" r="1.1" fill="#CBE3FF" opacity="0.05"/><circle cx="18" cy="27" r="2.2" fill="#CBE3FF" opacity="0.06"/><circle cx="200" cy="129" r="1.7" fill="#CBE3FF" opacity="0.18"/><circle cx="373" cy="93" r="1.6" fill="#CBE3FF" opacity="0.15"/><circle cx="579" cy="96" r="2.1" fill="#CBE3FF" opacity="0.11"/><circle cx="712" cy="154" r="1.4" fill="#CBE3FF" opacity="0.13"/><circle cx="759" cy="138" r="1.3" fill="#CBE3FF" opacity="0.13"/><circle cx="769" cy="50" r="1.4" fill="#CBE3FF" opacity="0.19"/><circle cx="125" cy="52" r="2.2" fill="#CBE3FF" opacity="0.18"/><circle cx="233" cy="108" r="1.4" fill="#CBE3FF" opacity="0.09"/><circle cx="400" cy="43" r="2.7" fill="#CBE3FF" opacity="0.17"/><circle cx="157" cy="75" r="2.2" fill="#CBE3FF" opacity="0.17"/><circle cx="627" cy="40" r="2.7" fill="#CBE3FF" opacity="0.08"/><circle cx="222" cy="136" r="1.3" fill="#CBE3FF" opacity="0.09"/><circle cx="313" cy="159" r="1.8" fill="#CBE3FF" opacity="0.07"/><circle cx="133" cy="62" r="2.1" fill="#CBE3FF" opacity="0.06"/><circle cx="379" cy="96" r="1.3" fill="#CBE3FF" opacity="0.16"/><circle cx="425" cy="124" r="1.9" fill="#CBE3FF" opacity="0.11"/><circle cx="471" cy="123" r="2.2" fill="#CBE3FF" opacity="0.11"/><circle cx="143" cy="87" r="1.4" fill="#CBE3FF" opacity="0.06"/><circle cx="619" cy="124" r="2.2" fill="#CBE3FF" opacity="0.11"/><circle cx="713" cy="111" r="2.0" fill="#CBE3FF" opacity="0.12"/><circle cx="576" cy="50" r="2.0" fill="#CBE3FF" opacity="0.11"/><circle cx="27" cy="46" r="2.7" fill="#CBE3FF" opacity="0.15"/><circle cx="655" cy="141" r="1.8" fill="#CBE3FF" opacity="0.19"/><circle cx="222" cy="24" r="2.6" fill="#CBE3FF" opacity="0.11"/><circle cx="305" cy="113" r="1.4" fill="#CBE3FF" opacity="0.12"/><circle cx="342" cy="102" r="2.6" fill="#CBE3FF" opacity="0.14"/><circle cx="659" cy="20" r="2.0" fill="#CBE3FF" opacity="0.08"/><circle cx="260" cy="59" r="2.4" fill="#CBE3FF" opacity="0.14"/><circle cx="437" cy="105" r="2.8" fill="#CBE3FF" opacity="0.21"/><circle cx="272" cy="30" r="1.1" fill="#CBE3FF" opacity="0.18"/><circle cx="177" cy="123" r="2.1" fill="#CBE3FF" opacity="0.17"/><circle cx="668" cy="69" r="1.2" fill="#CBE3FF" opacity="0.10"/><circle cx="694" cy="146" r="2.3" fill="#CBE3FF" opacity="0.06"/><circle cx="794" cy="134" r="1.1" fill="#CBE3FF" opacity="0.08"/><circle cx="13" cy="109" r="1.3" fill="#CBE3FF" opacity="0.12"/><circle cx="324" cy="30" r="1.9" fill="#CBE3FF" opacity="0.06"/><circle cx="435" cy="93" r="1.9" fill="#CBE3FF" opacity="0.15"/><circle cx="652" cy="48" r="1.3" fill="#CBE3FF" opacity="0.12"/><circle cx="436" cy="20" r="2.1" fill="#CBE3FF" opacity="0.12"/><circle cx="787" cy="105" r="2.4" fill="#CBE3FF" opacity="0.11"/><circle cx="538" cy="42" r="1.4" fill="#CBE3FF" opacity="0.16"/><circle cx="451" cy="120" r="1.5" fill="#CBE3FF" opacity="0.17"/><circle cx="683" cy="116" r="2.5" fill="#CBE3FF" opacity="0.21"/><circle cx="396" cy="49" r="2.2" fill="#CBE3FF" opacity="0.10"/><circle cx="681" cy="101" r="1.1" fill="#CBE3FF" opacity="0.21"/><circle cx="595" cy="89" r="2.5" fill="#CBE3FF" opacity="0.18"/><circle cx="415" cy="46" r="1.9" fill="#CBE3FF" opacity="0.15"/><circle cx="486" cy="155" r="1.5" fill="#CBE3FF" opacity="0.14"/><circle cx="202" cy="52" r="1.7" fill="#CBE3FF" opacity="0.08"/><circle cx="604" cy="166" r="1.5" fill="#CBE3FF" opacity="0.11"/><circle cx="529" cy="73" r="1.7" fill="#CBE3FF" opacity="0.20"/><circle cx="251" cy="92" r="1.4" fill="#CBE3FF" opacity="0.19"/><circle cx="642" cy="112" r="1.5" fill="#CBE3FF" opacity="0.12"/><circle cx="647" cy="43" r="1.5" fill="#CBE3FF" opacity="0.10"/><circle cx="364" cy="101" r="1.7" fill="#CBE3FF" opacity="0.13"/><circle cx="560" cy="60" r="2.4" fill="#CBE3FF" opacity="0.15"/><circle cx="560" cy="32" r="2.0" fill="#CBE3FF" opacity="0.16"/><circle cx="684" cy="49" r="1.8" fill="#CBE3FF" opacity="0.11"/><circle cx="235" cy="149" r="2.7" fill="#CBE3FF" opacity="0.13"/><circle cx="438" cy="43" r="2.0" fill="#CBE3FF" opacity="0.09"/><circle cx="10" cy="55" r="2.0" fill="#CBE3FF" opacity="0.10"/><circle cx="92" cy="93" r="1.3" fill="#CBE3FF" opacity="0.10"/><circle cx="606" cy="157" r="2.8" fill="#CBE3FF" opacity="0.07"/><circle cx="510" cy="48" r="1.2" fill="#CBE3FF" opacity="0.13"/><circle cx="257" cy="100" r="1.5" fill="#CBE3FF" opacity="0.15"/><circle cx="49" cy="152" r="1.7" fill="#CBE3FF" opacity="0.18"/><circle cx="503" cy="106" r="1.8" fill="#CBE3FF" opacity="0.17"/><circle cx="133" cy="90" r="1.7" fill="#CBE3FF" opacity="0.08"/><circle cx="523" cy="162" r="1.5" fill="#CBE3FF" opacity="0.11"/><circle cx="436" cy="149" r="2.2" fill="#CBE3FF" opacity="0.06"/><circle cx="308" cy="71" r="1.6" fill="#CBE3FF" opacity="0.13"/><circle cx="122" cy="93" r="1.9" fill="#CBE3FF" opacity="0.08"/><circle cx="701" cy="52" r="2.2" fill="#CBE3FF" opacity="0.10"/><circle cx="564" cy="88" r="1.7" fill="#CBE3FF" opacity="0.07"/><circle cx="437" cy="22" r="2.0" fill="#CBE3FF" opacity="0.15"/><circle cx="159" cy="66" r="1.7" fill="#CBE3FF" opacity="0.10"/><circle cx="34" cy="96" r="1.4" fill="#CBE3FF" opacity="0.18"/><circle cx="69" cy="19" r="1.4" fill="#CBE3FF" opacity="0.12"/><circle cx="3" cy="17" r="1.0" fill="#CBE3FF" opacity="0.07"/><circle cx="344" cy="28" r="2.4" fill="#CBE3FF" opacity="0.18"/><circle cx="483" cy="17" r="2.2" fill="#CBE3FF" opacity="0.06"/><circle cx="293" cy="91" r="2.7" fill="#CBE3FF" opacity="0.08"/><circle cx="623" cy="163" r="1.5" fill="#CBE3FF" opacity="0.05"/><circle cx="740" cy="93" r="2.0" fill="#CBE3FF" opacity="0.17"/><circle cx="558" cy="60" r="2.5" fill="#CBE3FF" opacity="0.16"/><circle cx="117" cy="154" r="2.1" fill="#CBE3FF" opacity="0.17"/><circle cx="74" cy="34" r="2.4" fill="#CBE3FF" opacity="0.14"/><circle cx="398" cy="143" r="1.3" fill="#CBE3FF" opacity="0.15"/><circle cx="656" cy="162" r="2.1" fill="#CBE3FF" opacity="0.08"/><circle cx="598" cy="166" r="2.0" fill="#CBE3FF" opacity="0.14"/><circle cx="479" cy="73" r="2.8" fill="#CBE3FF" opacity="0.19"/><circle cx="80" cy="119" r="1.2" fill="#CBE3FF" opacity="0.12"/><circle cx="610" cy="59" r="1.2" fill="#CBE3FF" opacity="0.14"/><circle cx="684" cy="105" r="1.3" fill="#CBE3FF" opacity="0.20"/><circle cx="182" cy="86" r="2.3" fill="#CBE3FF" opacity="0.09"/><circle cx="542" cy="40" r="2.2" fill="#CBE3FF" opacity="0.11"/><circle cx="339" cy="144" r="1.9" fill="#CBE3FF" opacity="0.21"/><circle cx="106" cy="96" r="2.0" fill="#CBE3FF" opacity="0.18"/><circle cx="187" cy="114" r="2.1" fill="#CBE3FF" opacity="0.13"/><circle cx="84" cy="34" r="1.3" fill="#CBE3FF" opacity="0.11"/><circle cx="677" cy="136" r="1.5" fill="#CBE3FF" opacity="0.08"/><circle cx="31" cy="122" r="1.0" fill="#CBE3FF" opacity="0.11"/><circle cx="432" cy="119" r="2.3" fill="#CBE3FF" opacity="0.08"/><circle cx="471" cy="106" r="2.1" fill="#CBE3FF" opacity="0.12"/><circle cx="475" cy="129" r="1.5" fill="#CBE3FF" opacity="0.13"/><circle cx="349" cy="128" r="1.7" fill="#CBE3FF" opacity="0.20"/><circle cx="192" cy="130" r="1.5" fill="#CBE3FF" opacity="0.18"/><circle cx="274" cy="52" r="1.0" fill="#CBE3FF" opacity="0.15"/><circle cx="409" cy="85" r="1.8" fill="#CBE3FF" opacity="0.06"/><circle cx="111" cy="143" r="2.5" fill="#CBE3FF" opacity="0.15"/><circle cx="192" cy="143" r="2.7" fill="#CBE3FF" opacity="0.13"/><circle cx="178" cy="33" r="1.5" fill="#CBE3FF" opacity="0.08"/><circle cx="458" cy="27" r="1.2" fill="#CBE3FF" opacity="0.09"/><circle cx="650" cy="21" r="2.6" fill="#CBE3FF" opacity="0.09"/><circle cx="15" cy="63" r="2.3" fill="#CBE3FF" opacity="0.21"/><circle cx="454" cy="42" r="2.2" fill="#CBE3FF" opacity="0.11"/><circle cx="167" cy="136" r="2.0" fill="#CBE3FF" opacity="0.19"/><circle cx="729" cy="77" r="1.2" fill="#CBE3FF" opacity="0.16"/><circle cx="112" cy="101" r="1.2" fill="#CBE3FF" opacity="0.13"/><circle cx="169" cy="50" r="1.9" fill="#CBE3FF" opacity="0.15"/><circle cx="195" cy="51" r="2.0" fill="#CBE3FF" opacity="0.20"/><circle cx="711" cy="145" r="1.9" fill="#CBE3FF" opacity="0.07"/><circle cx="18" cy="85" r="1.6" fill="#CBE3FF" opacity="0.20"/><circle cx="80" cy="164" r="2.5" fill="#CBE3FF" opacity="0.17"/><circle cx="478" cy="60" r="1.3" fill="#CBE3FF" opacity="0.10"/><circle cx="302" cy="42" r="2.3" fill="#CBE3FF" opacity="0.19"/><circle cx="9" cy="37" r="2.3" fill="#CBE3FF" opacity="0.19"/>
  <rect x="462" y="40" width="8" height="9" rx="1.5" fill="#1BB55C" opacity="0.5" transform="rotate(25 462 40)"/><rect x="746" y="91" width="8" height="10" rx="1.5" fill="#FF6A00" opacity="0.5" transform="rotate(4 746 91)"/><rect x="568" y="123" width="5" height="10" rx="1.5" fill="#FF6A00" opacity="0.5" transform="rotate(5 568 123)"/><rect x="303" y="109" width="6" height="10" rx="1.5" fill="#1BB55C" opacity="0.5" transform="rotate(6 303 109)"/><rect x="235" y="31" width="8" height="9" rx="1.5" fill="#FF6A00" opacity="0.5" transform="rotate(-8 235 31)"/><rect x="573" y="80" width="9" height="9" rx="1.5" fill="#1BB55C" opacity="0.5" transform="rotate(-7 573 80)"/><rect x="412" y="51" width="8" height="11" rx="1.5" fill="#1BB55C" opacity="0.5" transform="rotate(-25 412 51)"/><rect x="203" y="83" width="7" height="9" rx="1.5" fill="#FF6A00" opacity="0.5" transform="rotate(-22 203 83)"/><rect x="734" y="115" width="7" height="13" rx="1.5" fill="#1BB55C" opacity="0.5" transform="rotate(4 734 115)"/><rect x="395" y="88" width="6" height="13" rx="1.5" fill="#FF6A00" opacity="0.5" transform="rotate(15 395 88)"/><rect x="645" y="108" width="9" height="10" rx="1.5" fill="#FF6A00" opacity="0.5" transform="rotate(-13 645 108)"/><rect x="325" y="47" width="5" height="11" rx="1.5" fill="#1BB55C" opacity="0.5" transform="rotate(-13 325 47)"/><rect x="465" y="78" width="6" height="10" rx="1.5" fill="#FF6A00" opacity="0.5" transform="rotate(-9 465 78)"/><rect x="212" y="37" width="6" height="11" rx="1.5" fill="#1BB55C" opacity="0.5" transform="rotate(27 212 37)"/><rect x="651" y="32" width="7" height="14" rx="1.5" fill="#1BB55C" opacity="0.5" transform="rotate(-19 651 32)"/><rect x="585" y="126" width="5" height="9" rx="1.5" fill="#1BB55C" opacity="0.5" transform="rotate(-28 585 126)"/><rect x="124" y="113" width="5" height="9" rx="1.5" fill="#FFFFFF" opacity="0.5" transform="rotate(16 124 113)"/><rect x="279" y="34" width="8" height="9" rx="1.5" fill="#FFD24A" opacity="0.5" transform="rotate(-23 279 34)"/><rect x="56" y="37" width="5" height="9" rx="1.5" fill="#1BB55C" opacity="0.5" transform="rotate(30 56 37)"/><rect x="754" y="34" width="5" height="9" rx="1.5" fill="#FFFFFF" opacity="0.5" transform="rotate(26 754 34)"/><rect x="231" y="26" width="5" height="11" rx="1.5" fill="#FF6A00" opacity="0.5" transform="rotate(-6 231 26)"/><rect x="486" y="37" width="8" height="14" rx="1.5" fill="#FF6A00" opacity="0.5" transform="rotate(5 486 37)"/><rect x="713" y="66" width="9" height="10" rx="1.5" fill="#1BB55C" opacity="0.5" transform="rotate(8 713 66)"/><rect x="110" y="78" width="8" height="14" rx="1.5" fill="#FFD24A" opacity="0.5" transform="rotate(22 110 78)"/><rect x="372" y="39" width="6" height="14" rx="1.5" fill="#FF6A00" opacity="0.5" transform="rotate(29 372 39)"/><rect x="710" y="116" width="4" height="10" rx="1.5" fill="#1BB55C" opacity="0.5" transform="rotate(-6 710 116)"/>
  <path d="M0 268 L800 236 L800 440 L0 440 Z" fill="url(#grass)"/>
  <path d="M0 268 L800 236" stroke="#4FBE82" stroke-opacity="0.35" stroke-width="2"/>
  <line x1="400" y1="252" x2="400" y2="440" stroke="#4FBE82" stroke-opacity="0.25" stroke-width="2"/>
  <circle cx="400" cy="400" r="80" fill="none" stroke="#4FBE82" stroke-opacity="0.22" stroke-width="2"/>
  <rect x="0" y="434" width="800" height="6" fill="#FF6A00"/>
  <text x="38" y="210" font-family="Arial, sans-serif" font-size="150" font-weight="900" fill="#FFFFFF" opacity="0.06">FRA</text>
  <text x="762" y="372" text-anchor="end" font-family="Arial, sans-serif" font-size="150" font-weight="900" fill="#FFFFFF" opacity="0.06">SEN</text>
  <rect width="800" height="440" fill="url(#fade)"/>
</svg>