<svg xmlns="http://www.w3.org/2000/svg" width="800" height="440" viewBox="0 0 800 440" role="img" aria-label="FRA x IRQ">
  <defs>
    <linearGradient id="sky" x1="0" y1="0" x2="0" y2="1">
      <stop offset="0" stop-color="#243244"/>
      <stop offset="0.5" stop-color="#16202D"/>
      <stop offset="1" stop-color="#0C141E"/>
    </linearGradient>
    <radialGradient id="lgl" cx="0.16" cy="0.0" r="0.7">
      <stop offset="0" stop-color="#1E4FC2" stop-opacity="0.7"/>
      <stop offset="1" stop-color="#1E4FC2" stop-opacity="0"/>
    </radialGradient>
    <radialGradient id="rgl" cx="0.86" cy="0.05" r="0.7">
      <stop offset="0" stop-color="#1B7A3D" stop-opacity="0.62"/>
      <stop offset="1" stop-color="#1B7A3D" stop-opacity="0"/>
    </radialGradient>
    <radialGradient id="spot" cx="0.5" cy="-0.1" r="0.55">
      <stop offset="0" stop-color="#FFFFFF" stop-opacity="0.18"/>
      <stop offset="1" stop-color="#FFFFFF" stop-opacity="0"/>
    </radialGradient>
    <linearGradient id="grass" x1="0" y1="0" x2="0" y2="1">
      <stop offset="0" stop-color="#13502F"/>
      <stop offset="1" stop-color="#0B3520"/>
    </linearGradient>
    <linearGradient id="fade" x1="0" y1="0" x2="0" y2="1">
      <stop offset="0.4" stop-color="#0C141E" stop-opacity="0"/>
      <stop offset="1" stop-color="#0A111A" stop-opacity="0.9"/>
    </linearGradient>
  </defs>
  <rect width="800" height="440" fill="url(#sky)"/>
  <rect width="800" height="440" fill="url(#spot)"/>
  <rect width="800" height="440" fill="url(#lgl)"/>
  <rect width="800" height="440" fill="url(#rgl)"/>
  <circle cx="62" cy="157" r="2.1" fill="#CBE3FF" opacity="0.09"/><circle cx="58" cy="99" r="1.2" fill="#CBE3FF" opacity="0.11"/><circle cx="298" cy="141" r="2.7" fill="#CBE3FF" opacity="0.06"/><circle cx="154" cy="73" r="2.6" fill="#CBE3FF" opacity="0.14"/><circle cx="393" cy="19" r="1.4" fill="#CBE3FF" opacity="0.13"/><circle cx="775" cy="33" r="1.4" fill="#CBE3FF" opacity="0.18"/><circle cx="546" cy="158" r="1.4" fill="#CBE3FF" opacity="0.06"/><circle cx="257" cy="129" r="2.0" fill="#CBE3FF" opacity="0.07"/><circle cx="161" cy="77" r="1.5" fill="#CBE3FF" opacity="0.07"/><circle cx="438" cy="152" r="1.5" fill="#CBE3FF" opacity="0.20"/><circle cx="398" cy="101" r="1.5" fill="#CBE3FF" opacity="0.06"/><circle cx="156" cy="78" r="2.0" fill="#CBE3FF" opacity="0.09"/><circle cx="416" cy="122" r="1.6" fill="#CBE3FF" opacity="0.09"/><circle cx="632" cy="104" r="1.7" fill="#CBE3FF" opacity="0.12"/><circle cx="758" cy="91" r="1.5" fill="#CBE3FF" opacity="0.12"/><circle cx="98" cy="37" r="1.0" fill="#CBE3FF" opacity="0.06"/><circle cx="701" cy="138" r="1.8" fill="#CBE3FF" opacity="0.07"/><circle cx="798" cy="145" r="1.7" fill="#CBE3FF" opacity="0.11"/><circle cx="763" cy="92" r="2.1" fill="#CBE3FF" opacity="0.14"/><circle cx="113" cy="55" r="1.4" fill="#CBE3FF" opacity="0.08"/><circle cx="107" cy="19" r="1.9" fill="#CBE3FF" opacity="0.10"/><circle cx="157" cy="48" r="2.7" fill="#CBE3FF" opacity="0.20"/><circle cx="315" cy="72" r="1.2" fill="#CBE3FF" opacity="0.12"/><circle cx="650" cy="26" r="1.2" fill="#CBE3FF" opacity="0.16"/><circle cx="739" cy="124" r="1.0" fill="#CBE3FF" opacity="0.09"/><circle cx="35" cy="22" r="2.3" fill="#CBE3FF" opacity="0.18"/><circle cx="482" cy="61" r="2.8" fill="#CBE3FF" opacity="0.13"/><circle cx="397" cy="165" r="2.2" fill="#CBE3FF" opacity="0.20"/><circle cx="556" cy="65" r="2.7" fill="#CBE3FF" opacity="0.21"/><circle cx="582" cy="97" r="2.0" fill="#CBE3FF" opacity="0.19"/><circle cx="360" cy="140" r="1.0" fill="#CBE3FF" opacity="0.08"/><circle cx="563" cy="101" r="1.1" fill="#CBE3FF" opacity="0.11"/><circle cx="468" cy="50" r="1.0" fill="#CBE3FF" opacity="0.16"/><circle cx="540" cy="94" r="2.0" fill="#CBE3FF" opacity="0.17"/><circle cx="141" cy="27" r="1.8" fill="#CBE3FF" opacity="0.12"/><circle cx="488" cy="116" r="1.9" fill="#CBE3FF" opacity="0.17"/><circle cx="659" cy="55" r="2.3" fill="#CBE3FF" opacity="0.08"/><circle cx="226" cy="19" r="1.3" fill="#CBE3FF" opacity="0.05"/><circle cx="145" cy="27" r="2.2" fill="#CBE3FF" opacity="0.18"/><circle cx="427" cy="92" r="1.4" fill="#CBE3FF" opacity="0.06"/><circle cx="644" cy="66" r="2.1" fill="#CBE3FF" opacity="0.14"/><circle cx="93" cy="142" r="1.9" fill="#CBE3FF" opacity="0.08"/><circle cx="338" cy="24" r="2.7" fill="#CBE3FF" opacity="0.07"/><circle cx="215" cy="46" r="1.9" fill="#CBE3FF" opacity="0.16"/><circle cx="200" cy="88" r="2.3" fill="#CBE3FF" opacity="0.12"/><circle cx="179" cy="47" r="1.4" fill="#CBE3FF" opacity="0.14"/><circle cx="713" cy="66" r="2.5" fill="#CBE3FF" opacity="0.09"/><circle cx="116" cy="153" r="1.9" fill="#CBE3FF" opacity="0.05"/><circle cx="194" cy="27" r="2.0" fill="#CBE3FF" opacity="0.20"/><circle cx="519" cy="55" r="1.7" fill="#CBE3FF" opacity="0.20"/><circle cx="764" cy="22" r="2.3" fill="#CBE3FF" opacity="0.09"/><circle cx="122" cy="51" r="1.3" fill="#CBE3FF" opacity="0.11"/><circle cx="389" cy="104" r="1.7" fill="#CBE3FF" opacity="0.11"/><circle cx="138" cy="68" r="2.4" fill="#CBE3FF" opacity="0.12"/><circle cx="499" cy="81" r="1.0" fill="#CBE3FF" opacity="0.14"/><circle cx="776" cy="154" r="2.1" fill="#CBE3FF" opacity="0.12"/><circle cx="655" cy="105" r="2.6" fill="#CBE3FF" opacity="0.18"/><circle cx="333" cy="105" r="1.2" fill="#CBE3FF" opacity="0.19"/><circle cx="472" cy="95" r="1.8" fill="#CBE3FF" opacity="0.19"/><circle cx="244" cy="48" r="1.3" fill="#CBE3FF" opacity="0.15"/><circle cx="120" cy="113" r="2.3" fill="#CBE3FF" opacity="0.05"/><circle cx="125" cy="26" r="2.4" fill="#CBE3FF" opacity="0.07"/><circle cx="714" cy="165" r="2.8" fill="#CBE3FF" opacity="0.10"/><circle cx="545" cy="62" r="2.8" fill="#CBE3FF" opacity="0.10"/><circle cx="538" cy="136" r="2.0" fill="#CBE3FF" opacity="0.08"/><circle cx="124" cy="32" r="2.7" fill="#CBE3FF" opacity="0.17"/><circle cx="252" cy="144" r="2.8" fill="#CBE3FF" opacity="0.18"/><circle cx="148" cy="99" r="2.1" fill="#CBE3FF" opacity="0.07"/><circle cx="149" cy="138" r="2.1" fill="#CBE3FF" opacity="0.11"/><circle cx="193" cy="150" r="1.8" fill="#CBE3FF" opacity="0.18"/><circle cx="10" cy="43" r="2.6" fill="#CBE3FF" opacity="0.05"/><circle cx="555" cy="16" r="2.3" fill="#CBE3FF" opacity="0.08"/><circle cx="92" cy="29" r="1.1" fill="#CBE3FF" opacity="0.16"/><circle cx="545" cy="82" r="1.5" fill="#CBE3FF" opacity="0.07"/><circle cx="453" cy="94" r="1.6" fill="#CBE3FF" opacity="0.17"/><circle cx="190" cy="86" r="1.2" fill="#CBE3FF" opacity="0.08"/><circle cx="52" cy="136" r="2.0" fill="#CBE3FF" opacity="0.06"/><circle cx="268" cy="150" r="1.2" fill="#CBE3FF" opacity="0.14"/><circle cx="733" cy="121" r="1.0" fill="#CBE3FF" opacity="0.09"/><circle cx="736" cy="89" r="1.1" fill="#CBE3FF" opacity="0.16"/><circle cx="119" cy="24" r="2.2" fill="#CBE3FF" opacity="0.13"/><circle cx="677" cy="161" r="1.5" fill="#CBE3FF" opacity="0.06"/><circle cx="162" cy="16" r="1.0" fill="#CBE3FF" opacity="0.05"/><circle cx="110" cy="71" r="2.7" fill="#CBE3FF" opacity="0.13"/><circle cx="25" cy="134" r="2.6" fill="#CBE3FF" opacity="0.06"/><circle cx="294" cy="23" r="1.3" fill="#CBE3FF" opacity="0.06"/><circle cx="424" cy="163" r="1.6" fill="#CBE3FF" opacity="0.15"/><circle cx="721" cy="125" r="2.4" fill="#CBE3FF" opacity="0.11"/><circle cx="146" cy="46" r="1.4" fill="#CBE3FF" opacity="0.07"/><circle cx="87" cy="79" r="2.7" fill="#CBE3FF" opacity="0.09"/><circle cx="700" cy="21" r="2.3" fill="#CBE3FF" opacity="0.06"/><circle cx="404" cy="99" r="2.5" fill="#CBE3FF" opacity="0.11"/><circle cx="652" cy="85" r="1.5" fill="#CBE3FF" opacity="0.09"/><circle cx="218" cy="136" r="1.8" fill="#CBE3FF" opacity="0.09"/><circle cx="302" cy="144" r="2.5" fill="#CBE3FF" opacity="0.17"/><circle cx="532" cy="120" r="2.5" fill="#CBE3FF" opacity="0.07"/><circle cx="479" cy="84" r="2.5" fill="#CBE3FF" opacity="0.06"/><circle cx="308" cy="136" r="2.6" fill="#CBE3FF" opacity="0.13"/><circle cx="455" cy="103" r="1.9" fill="#CBE3FF" opacity="0.14"/><circle cx="763" cy="55" r="1.3" fill="#CBE3FF" opacity="0.09"/><circle cx="235" cy="118" r="1.2" fill="#CBE3FF" opacity="0.19"/><circle cx="213" cy="46" r="2.3" fill="#CBE3FF" opacity="0.17"/><circle cx="187" cy="62" r="2.0" fill="#CBE3FF" opacity="0.11"/><circle cx="632" cy="24" r="1.6" fill="#CBE3FF" opacity="0.12"/><circle cx="709" cy="158" r="1.2" fill="#CBE3FF" opacity="0.12"/><circle cx="533" cy="140" r="1.3" fill="#CBE3FF" opacity="0.16"/><circle cx="495" cy="151" r="2.5" fill="#CBE3FF" opacity="0.15"/><circle cx="250" cy="135" r="1.1" fill="#CBE3FF" opacity="0.09"/><circle cx="144" cy="166" r="2.0" fill="#CBE3FF" opacity="0.09"/><circle cx="420" cy="145" r="2.1" fill="#CBE3FF" opacity="0.14"/><circle cx="410" cy="141" r="1.7" fill="#CBE3FF" opacity="0.12"/><circle cx="269" cy="136" r="2.7" fill="#CBE3FF" opacity="0.17"/><circle cx="677" cy="114" r="2.3" fill="#CBE3FF" opacity="0.07"/><circle cx="214" cy="39" r="2.1" fill="#CBE3FF" opacity="0.18"/><circle cx="576" cy="158" r="1.6" fill="#CBE3FF" opacity="0.09"/><circle cx="570" cy="65" r="1.1" fill="#CBE3FF" opacity="0.13"/><circle cx="154" cy="45" r="1.5" fill="#CBE3FF" opacity="0.11"/><circle cx="186" cy="26" r="2.0" fill="#CBE3FF" opacity="0.09"/><circle cx="146" cy="113" r="2.1" fill="#CBE3FF" opacity="0.18"/><circle cx="797" cy="59" r="2.4" fill="#CBE3FF" opacity="0.10"/><circle cx="425" cy="136" r="2.3" fill="#CBE3FF" opacity="0.10"/><circle cx="67" cy="64" r="1.5" fill="#CBE3FF" opacity="0.08"/><circle cx="89" cy="140" r="1.6" fill="#CBE3FF" opacity="0.19"/><circle cx="509" cy="86" r="2.4" fill="#CBE3FF" opacity="0.19"/><circle cx="64" cy="97" r="1.8" fill="#CBE3FF" opacity="0.11"/><circle cx="255" cy="33" r="1.9" fill="#CBE3FF" opacity="0.16"/><circle cx="452" cy="112" r="2.3" fill="#CBE3FF" opacity="0.14"/><circle cx="206" cy="91" r="1.0" fill="#CBE3FF" opacity="0.11"/><circle cx="568" cy="30" r="1.1" fill="#CBE3FF" opacity="0.11"/><circle cx="125" cy="35" r="1.7" fill="#CBE3FF" opacity="0.15"/><circle cx="181" cy="128" r="1.3" fill="#CBE3FF" opacity="0.05"/><circle cx="556" cy="148" r="2.8" fill="#CBE3FF" opacity="0.11"/><circle cx="397" cy="73" r="1.9" fill="#CBE3FF" opacity="0.05"/><circle cx="380" cy="148" r="2.0" fill="#CBE3FF" opacity="0.14"/><circle cx="566" cy="17" r="2.5" fill="#CBE3FF" opacity="0.20"/><circle cx="417" cy="42" r="2.7" fill="#CBE3FF" opacity="0.15"/><circle cx="296" cy="97" r="1.7" fill="#CBE3FF" opacity="0.07"/><circle cx="123" cy="146" r="1.1" fill="#CBE3FF" opacity="0.10"/><circle cx="301" cy="115" r="1.7" fill="#CBE3FF" opacity="0.19"/><circle cx="696" cy="36" r="1.2" fill="#CBE3FF" opacity="0.19"/><circle cx="672" cy="106" r="1.9" fill="#CBE3FF" opacity="0.14"/><circle cx="562" cy="31" r="1.5" fill="#CBE3FF" opacity="0.06"/><circle cx="388" cy="115" r="2.7" fill="#CBE3FF" opacity="0.19"/><circle cx="715" cy="34" r="2.0" fill="#CBE3FF" opacity="0.15"/><circle cx="421" cy="34" r="2.0" fill="#CBE3FF" opacity="0.16"/><circle cx="115" cy="52" r="2.2" fill="#CBE3FF" opacity="0.10"/><circle cx="797" cy="30" r="1.3" fill="#CBE3FF" opacity="0.05"/><circle cx="312" cy="91" r="1.5" fill="#CBE3FF" opacity="0.18"/><circle cx="407" cy="56" r="2.1" fill="#CBE3FF" opacity="0.06"/><circle cx="17" cy="152" r="1.1" fill="#CBE3FF" opacity="0.06"/><circle cx="464" cy="77" r="1.3" fill="#CBE3FF" opacity="0.14"/><circle cx="568" cy="87" r="1.9" fill="#CBE3FF" opacity="0.14"/><circle cx="619" cy="116" r="1.9" fill="#CBE3FF" opacity="0.07"/><circle cx="510" cy="161" r="2.3" fill="#CBE3FF" opacity="0.16"/><circle cx="670" cy="68" r="1.5" fill="#CBE3FF" opacity="0.11"/><circle cx="37" cy="57" r="2.3" fill="#CBE3FF" opacity="0.20"/><circle cx="546" cy="93" r="2.4" fill="#CBE3FF" opacity="0.12"/><circle cx="395" cy="153" r="2.2" fill="#CBE3FF" opacity="0.06"/><circle cx="276" cy="164" r="1.4" fill="#CBE3FF" opacity="0.06"/><circle cx="344" cy="69" r="1.9" fill="#CBE3FF" opacity="0.09"/><circle cx="619" cy="120" r="1.7" fill="#CBE3FF" opacity="0.05"/><circle cx="312" cy="125" r="1.9" fill="#CBE3FF" opacity="0.19"/><circle cx="348" cy="73" r="2.6" fill="#CBE3FF" opacity="0.21"/><circle cx="83" cy="156" r="1.4" fill="#CBE3FF" opacity="0.10"/><circle cx="280" cy="165" r="1.6" fill="#CBE3FF" opacity="0.10"/><circle cx="215" cy="29" r="1.0" fill="#CBE3FF" opacity="0.13"/><circle cx="259" cy="117" r="2.4" fill="#CBE3FF" opacity="0.16"/><circle cx="748" cy="125" r="2.6" fill="#CBE3FF" opacity="0.18"/><circle cx="510" cy="83" r="2.0" fill="#CBE3FF" opacity="0.18"/><circle cx="507" cy="86" r="2.4" fill="#CBE3FF" opacity="0.09"/>
  <rect x="742" y="31" width="8" height="13" rx="1.5" fill="#FF6A00" opacity="0.5" transform="rotate(-6 742 31)"/><rect x="570" y="95" width="7" height="9" rx="1.5" fill="#FF6A00" opacity="0.5" transform="rotate(14 570 95)"/><rect x="449" y="82" width="6" height="11" rx="1.5" fill="#FF6A00" opacity="0.5" transform="rotate(-18 449 82)"/><rect x="477" y="53" width="6" height="12" rx="1.5" fill="#FF6A00" opacity="0.5" transform="rotate(-10 477 53)"/><rect x="604" y="93" width="8" height="15" rx="1.5" fill="#1BB55C" opacity="0.5" transform="rotate(16 604 93)"/><rect x="505" y="26" width="7" height="10" rx="1.5" fill="#FFD24A" opacity="0.5" transform="rotate(5 505 26)"/><rect x="9" y="68" width="7" height="11" rx="1.5" fill="#FF6A00" opacity="0.5" transform="rotate(14 9 68)"/><rect x="119" y="113" width="7" height="10" rx="1.5" fill="#FF6A00" opacity="0.5" transform="rotate(11 119 113)"/><rect x="285" y="117" width="8" height="11" rx="1.5" fill="#FF6A00" opacity="0.5" transform="rotate(21 285 117)"/><rect x="162" y="114" width="8" height="13" rx="1.5" fill="#FF6A00" opacity="0.5" transform="rotate(0 162 114)"/><rect x="139" y="44" width="7" height="14" rx="1.5" fill="#FFFFFF" opacity="0.5" transform="rotate(-11 139 44)"/><rect x="401" y="25" width="9" height="13" rx="1.5" fill="#1BB55C" opacity="0.5" transform="rotate(-26 401 25)"/><rect x="195" y="103" width="6" height="11" rx="1.5" fill="#FFD24A" opacity="0.5" transform="rotate(17 195 103)"/><rect x="615" y="122" width="8" height="9" rx="1.5" fill="#1BB55C" opacity="0.5" transform="rotate(-13 615 122)"/><rect x="61" y="32" width="8" height="9" rx="1.5" fill="#FF6A00" opacity="0.5" transform="rotate(10 61 32)"/><rect x="75" y="72" width="6" height="14" rx="1.5" fill="#FFFFFF" opacity="0.5" transform="rotate(1 75 72)"/><rect x="62" y="67" width="7" height="13" rx="1.5" fill="#1BB55C" opacity="0.5" transform="rotate(-16 62 67)"/><rect x="329" y="86" width="8" height="13" rx="1.5" fill="#FFD24A" opacity="0.5" transform="rotate(-4 329 86)"/><rect x="182" y="64" width="5" height="12" rx="1.5" fill="#FFFFFF" opacity="0.5" transform="rotate(-10 182 64)"/><rect x="436" y="120" width="9" height="15" rx="1.5" fill="#1BB55C" opacity="0.5" transform="rotate(-19 436 120)"/><rect x="778" y="18" width="7" height="9" rx="1.5" fill="#1BB55C" opacity="0.5" transform="rotate(-8 778 18)"/><rect x="290" y="23" width="5" height="13" rx="1.5" fill="#FFD24A" opacity="0.5" transform="rotate(-27 290 23)"/><rect x="170" y="53" width="9" height="8" rx="1.5" fill="#FFD24A" opacity="0.5" transform="rotate(-2 170 53)"/><rect x="404" y="79" width="8" height="13" rx="1.5" fill="#FFFFFF" opacity="0.5" transform="rotate(19 404 79)"/><rect x="423" y="63" width="8" height="9" rx="1.5" fill="#1BB55C" opacity="0.5" transform="rotate(-27 423 63)"/><rect x="46" y="30" width="9" height="14" rx="1.5" fill="#FFD24A" opacity="0.5" transform="rotate(-26 46 30)"/>
  <path d="M0 268 L800 236 L800 440 L0 440 Z" fill="url(#grass)"/>
  <path d="M0 268 L800 236" stroke="#4FBE82" stroke-opacity="0.35" stroke-width="2"/>
  <line x1="400" y1="252" x2="400" y2="440" stroke="#4FBE82" stroke-opacity="0.25" stroke-width="2"/>
  <circle cx="400" cy="400" r="80" fill="none" stroke="#4FBE82" stroke-opacity="0.22" stroke-width="2"/>
  <rect x="0" y="434" width="800" height="6" fill="#FF6A00"/>
  <text x="38" y="210" font-family="Arial, sans-serif" font-size="150" font-weight="900" fill="#FFFFFF" opacity="0.06">FRA</text>
  <text x="762" y="372" text-anchor="end" font-family="Arial, sans-serif" font-size="150" font-weight="900" fill="#FFFFFF" opacity="0.06">IRQ</text>
  <rect width="800" height="440" fill="url(#fade)"/>
</svg>