<svg xmlns="http://www.w3.org/2000/svg" width="800" height="440" viewBox="0 0 800 440" role="img" aria-label="ENG x CRO">
  <defs>
    <linearGradient id="sky" x1="0" y1="0" x2="0" y2="1">
      <stop offset="0" stop-color="#243244"/>
      <stop offset="0.5" stop-color="#16202D"/>
      <stop offset="1" stop-color="#0C141E"/>
    </linearGradient>
    <radialGradient id="lgl" cx="0.16" cy="0.0" r="0.7">
      <stop offset="0" stop-color="#1B3A8C" stop-opacity="0.7"/>
      <stop offset="1" stop-color="#1B3A8C" stop-opacity="0"/>
    </radialGradient>
    <radialGradient id="rgl" cx="0.86" cy="0.05" r="0.7">
      <stop offset="0" stop-color="#C8102E" stop-opacity="0.62"/>
      <stop offset="1" stop-color="#C8102E" stop-opacity="0"/>
    </radialGradient>
    <radialGradient id="spot" cx="0.5" cy="-0.1" r="0.55">
      <stop offset="0" stop-color="#FFFFFF" stop-opacity="0.18"/>
      <stop offset="1" stop-color="#FFFFFF" stop-opacity="0"/>
    </radialGradient>
    <linearGradient id="grass" x1="0" y1="0" x2="0" y2="1">
      <stop offset="0" stop-color="#13502F"/>
      <stop offset="1" stop-color="#0B3520"/>
    </linearGradient>
    <linearGradient id="fade" x1="0" y1="0" x2="0" y2="1">
      <stop offset="0.4" stop-color="#0C141E" stop-opacity="0"/>
      <stop offset="1" stop-color="#0A111A" stop-opacity="0.9"/>
    </linearGradient>
  </defs>
  <rect width="800" height="440" fill="url(#sky)"/>
  <rect width="800" height="440" fill="url(#spot)"/>
  <rect width="800" height="440" fill="url(#lgl)"/>
  <rect width="800" height="440" fill="url(#rgl)"/>
  <circle cx="409" cy="64" r="2.8" fill="#CBE3FF" opacity="0.12"/><circle cx="333" cy="49" r="1.5" fill="#CBE3FF" opacity="0.11"/><circle cx="435" cy="107" r="1.9" fill="#CBE3FF" opacity="0.19"/><circle cx="767" cy="58" r="1.8" fill="#CBE3FF" opacity="0.17"/><circle cx="67" cy="73" r="1.1" fill="#CBE3FF" opacity="0.18"/><circle cx="54" cy="151" r="1.2" fill="#CBE3FF" opacity="0.07"/><circle cx="34" cy="105" r="2.0" fill="#CBE3FF" opacity="0.07"/><circle cx="42" cy="125" r="2.7" fill="#CBE3FF" opacity="0.06"/><circle cx="335" cy="20" r="1.9" fill="#CBE3FF" opacity="0.08"/><circle cx="173" cy="88" r="1.7" fill="#CBE3FF" opacity="0.08"/><circle cx="580" cy="64" r="1.1" fill="#CBE3FF" opacity="0.09"/><circle cx="404" cy="61" r="2.6" fill="#CBE3FF" opacity="0.15"/><circle cx="448" cy="120" r="1.4" fill="#CBE3FF" opacity="0.07"/><circle cx="751" cy="94" r="2.7" fill="#CBE3FF" opacity="0.20"/><circle cx="42" cy="139" r="1.2" fill="#CBE3FF" opacity="0.07"/><circle cx="435" cy="141" r="2.0" fill="#CBE3FF" opacity="0.10"/><circle cx="146" cy="91" r="1.1" fill="#CBE3FF" opacity="0.19"/><circle cx="362" cy="69" r="1.3" fill="#CBE3FF" opacity="0.09"/><circle cx="409" cy="71" r="2.6" fill="#CBE3FF" opacity="0.17"/><circle cx="155" cy="126" r="2.6" fill="#CBE3FF" opacity="0.06"/><circle cx="733" cy="154" r="1.5" fill="#CBE3FF" opacity="0.10"/><circle cx="550" cy="149" r="1.9" fill="#CBE3FF" opacity="0.07"/><circle cx="593" cy="84" r="2.0" fill="#CBE3FF" opacity="0.12"/><circle cx="472" cy="105" r="1.8" fill="#CBE3FF" opacity="0.19"/><circle cx="246" cy="163" r="1.0" fill="#CBE3FF" opacity="0.08"/><circle cx="316" cy="48" r="1.6" fill="#CBE3FF" opacity="0.19"/><circle cx="423" cy="62" r="1.8" fill="#CBE3FF" opacity="0.13"/><circle cx="579" cy="42" r="1.6" fill="#CBE3FF" opacity="0.10"/><circle cx="114" cy="38" r="2.5" fill="#CBE3FF" opacity="0.08"/><circle cx="714" cy="61" r="1.8" fill="#CBE3FF" opacity="0.07"/><circle cx="262" cy="147" r="2.3" fill="#CBE3FF" opacity="0.10"/><circle cx="46" cy="105" r="1.4" fill="#CBE3FF" opacity="0.12"/><circle cx="195" cy="55" r="1.7" fill="#CBE3FF" opacity="0.19"/><circle cx="102" cy="155" r="2.0" fill="#CBE3FF" opacity="0.19"/><circle cx="757" cy="106" r="2.6" fill="#CBE3FF" opacity="0.18"/><circle cx="427" cy="143" r="2.0" fill="#CBE3FF" opacity="0.05"/><circle cx="625" cy="86" r="1.1" fill="#CBE3FF" opacity="0.21"/><circle cx="456" cy="18" r="1.7" fill="#CBE3FF" opacity="0.18"/><circle cx="687" cy="24" r="1.4" fill="#CBE3FF" opacity="0.06"/><circle cx="601" cy="71" r="2.6" fill="#CBE3FF" opacity="0.10"/><circle cx="759" cy="148" r="1.9" fill="#CBE3FF" opacity="0.13"/><circle cx="795" cy="40" r="2.0" fill="#CBE3FF" opacity="0.12"/><circle cx="391" cy="76" r="2.4" fill="#CBE3FF" opacity="0.07"/><circle cx="738" cy="51" r="1.1" fill="#CBE3FF" opacity="0.18"/><circle cx="582" cy="41" r="2.4" fill="#CBE3FF" opacity="0.09"/><circle cx="712" cy="79" r="1.3" fill="#CBE3FF" opacity="0.17"/><circle cx="446" cy="25" r="1.8" fill="#CBE3FF" opacity="0.07"/><circle cx="11" cy="143" r="1.5" fill="#CBE3FF" opacity="0.05"/><circle cx="577" cy="92" r="2.2" fill="#CBE3FF" opacity="0.09"/><circle cx="523" cy="153" r="2.6" fill="#CBE3FF" opacity="0.18"/><circle cx="410" cy="130" r="1.1" fill="#CBE3FF" opacity="0.19"/><circle cx="307" cy="96" r="1.1" fill="#CBE3FF" opacity="0.10"/><circle cx="501" cy="134" r="2.6" fill="#CBE3FF" opacity="0.15"/><circle cx="464" cy="149" r="2.0" fill="#CBE3FF" opacity="0.15"/><circle cx="581" cy="118" r="1.2" fill="#CBE3FF" opacity="0.16"/><circle cx="201" cy="157" r="1.3" fill="#CBE3FF" opacity="0.09"/><circle cx="40" cy="27" r="1.7" fill="#CBE3FF" opacity="0.10"/><circle cx="97" cy="149" r="2.4" fill="#CBE3FF" opacity="0.06"/><circle cx="707" cy="114" r="1.3" fill="#CBE3FF" opacity="0.14"/><circle cx="396" cy="148" r="2.5" fill="#CBE3FF" opacity="0.12"/><circle cx="669" cy="46" r="1.1" fill="#CBE3FF" opacity="0.11"/><circle cx="454" cy="91" r="1.7" fill="#CBE3FF" opacity="0.09"/><circle cx="447" cy="29" r="2.3" fill="#CBE3FF" opacity="0.06"/><circle cx="33" cy="104" r="2.3" fill="#CBE3FF" opacity="0.05"/><circle cx="464" cy="76" r="1.3" fill="#CBE3FF" opacity="0.13"/><circle cx="745" cy="55" r="2.1" fill="#CBE3FF" opacity="0.18"/><circle cx="765" cy="164" r="1.5" fill="#CBE3FF" opacity="0.19"/><circle cx="253" cy="158" r="1.6" fill="#CBE3FF" opacity="0.21"/><circle cx="545" cy="64" r="2.4" fill="#CBE3FF" opacity="0.18"/><circle cx="504" cy="114" r="1.9" fill="#CBE3FF" opacity="0.06"/><circle cx="444" cy="104" r="1.8" fill="#CBE3FF" opacity="0.11"/><circle cx="477" cy="125" r="2.6" fill="#CBE3FF" opacity="0.06"/><circle cx="212" cy="80" r="1.1" fill="#CBE3FF" opacity="0.17"/><circle cx="33" cy="160" r="2.5" fill="#CBE3FF" opacity="0.14"/><circle cx="329" cy="127" r="1.9" fill="#CBE3FF" opacity="0.12"/><circle cx="793" cy="26" r="1.3" fill="#CBE3FF" opacity="0.17"/><circle cx="547" cy="35" r="1.4" fill="#CBE3FF" opacity="0.07"/><circle cx="631" cy="72" r="2.5" fill="#CBE3FF" opacity="0.13"/><circle cx="461" cy="161" r="1.0" fill="#CBE3FF" opacity="0.12"/><circle cx="535" cy="42" r="2.2" fill="#CBE3FF" opacity="0.10"/><circle cx="741" cy="90" r="2.2" fill="#CBE3FF" opacity="0.18"/><circle cx="783" cy="67" r="1.9" fill="#CBE3FF" opacity="0.21"/><circle cx="45" cy="125" r="1.4" fill="#CBE3FF" opacity="0.20"/><circle cx="662" cy="151" r="1.3" fill="#CBE3FF" opacity="0.10"/><circle cx="309" cy="75" r="1.8" fill="#CBE3FF" opacity="0.19"/><circle cx="286" cy="35" r="2.7" fill="#CBE3FF" opacity="0.16"/><circle cx="672" cy="137" r="1.4" fill="#CBE3FF" opacity="0.07"/><circle cx="161" cy="109" r="1.5" fill="#CBE3FF" opacity="0.12"/><circle cx="179" cy="24" r="2.1" fill="#CBE3FF" opacity="0.09"/><circle cx="572" cy="157" r="1.6" fill="#CBE3FF" opacity="0.08"/><circle cx="291" cy="60" r="1.8" fill="#CBE3FF" opacity="0.06"/><circle cx="3" cy="117" r="1.9" fill="#CBE3FF" opacity="0.20"/><circle cx="620" cy="39" r="2.7" fill="#CBE3FF" opacity="0.05"/><circle cx="158" cy="144" r="1.7" fill="#CBE3FF" opacity="0.11"/><circle cx="2" cy="109" r="1.8" fill="#CBE3FF" opacity="0.08"/><circle cx="605" cy="64" r="1.2" fill="#CBE3FF" opacity="0.10"/><circle cx="57" cy="107" r="1.2" fill="#CBE3FF" opacity="0.09"/><circle cx="79" cy="63" r="2.0" fill="#CBE3FF" opacity="0.18"/><circle cx="258" cy="24" r="1.6" fill="#CBE3FF" opacity="0.20"/><circle cx="628" cy="140" r="2.4" fill="#CBE3FF" opacity="0.14"/><circle cx="535" cy="22" r="1.6" fill="#CBE3FF" opacity="0.13"/><circle cx="228" cy="65" r="2.6" fill="#CBE3FF" opacity="0.20"/><circle cx="354" cy="50" r="1.4" fill="#CBE3FF" opacity="0.15"/><circle cx="750" cy="145" r="1.3" fill="#CBE3FF" opacity="0.16"/><circle cx="298" cy="64" r="1.3" fill="#CBE3FF" opacity="0.05"/><circle cx="315" cy="51" r="1.1" fill="#CBE3FF" opacity="0.10"/><circle cx="505" cy="32" r="1.6" fill="#CBE3FF" opacity="0.08"/><circle cx="255" cy="61" r="2.6" fill="#CBE3FF" opacity="0.18"/><circle cx="614" cy="57" r="1.2" fill="#CBE3FF" opacity="0.15"/><circle cx="742" cy="69" r="2.5" fill="#CBE3FF" opacity="0.16"/><circle cx="226" cy="107" r="1.7" fill="#CBE3FF" opacity="0.20"/><circle cx="705" cy="104" r="1.9" fill="#CBE3FF" opacity="0.08"/><circle cx="783" cy="87" r="1.6" fill="#CBE3FF" opacity="0.07"/><circle cx="10" cy="60" r="1.8" fill="#CBE3FF" opacity="0.20"/><circle cx="273" cy="65" r="2.4" fill="#CBE3FF" opacity="0.14"/><circle cx="124" cy="106" r="1.2" fill="#CBE3FF" opacity="0.11"/><circle cx="694" cy="24" r="1.0" fill="#CBE3FF" opacity="0.14"/><circle cx="354" cy="23" r="1.4" fill="#CBE3FF" opacity="0.18"/><circle cx="688" cy="32" r="2.5" fill="#CBE3FF" opacity="0.07"/><circle cx="289" cy="34" r="2.3" fill="#CBE3FF" opacity="0.10"/><circle cx="454" cy="158" r="1.1" fill="#CBE3FF" opacity="0.11"/><circle cx="558" cy="132" r="1.2" fill="#CBE3FF" opacity="0.07"/><circle cx="792" cy="65" r="2.8" fill="#CBE3FF" opacity="0.08"/><circle cx="225" cy="40" r="1.0" fill="#CBE3FF" opacity="0.05"/><circle cx="483" cy="143" r="2.4" fill="#CBE3FF" opacity="0.09"/><circle cx="767" cy="70" r="1.0" fill="#CBE3FF" opacity="0.09"/><circle cx="110" cy="100" r="2.1" fill="#CBE3FF" opacity="0.16"/><circle cx="440" cy="71" r="2.0" fill="#CBE3FF" opacity="0.09"/><circle cx="267" cy="163" r="2.3" fill="#CBE3FF" opacity="0.15"/><circle cx="91" cy="85" r="2.1" fill="#CBE3FF" opacity="0.20"/><circle cx="59" cy="138" r="2.5" fill="#CBE3FF" opacity="0.17"/><circle cx="622" cy="58" r="1.2" fill="#CBE3FF" opacity="0.19"/><circle cx="798" cy="85" r="2.0" fill="#CBE3FF" opacity="0.11"/><circle cx="713" cy="98" r="1.9" fill="#CBE3FF" opacity="0.12"/><circle cx="775" cy="85" r="2.2" fill="#CBE3FF" opacity="0.20"/><circle cx="12" cy="103" r="1.1" fill="#CBE3FF" opacity="0.19"/><circle cx="288" cy="102" r="2.7" fill="#CBE3FF" opacity="0.05"/><circle cx="162" cy="56" r="2.5" fill="#CBE3FF" opacity="0.14"/><circle cx="728" cy="115" r="2.6" fill="#CBE3FF" opacity="0.13"/><circle cx="724" cy="58" r="1.6" fill="#CBE3FF" opacity="0.10"/><circle cx="562" cy="150" r="2.0" fill="#CBE3FF" opacity="0.06"/><circle cx="45" cy="136" r="2.5" fill="#CBE3FF" opacity="0.16"/><circle cx="718" cy="61" r="1.7" fill="#CBE3FF" opacity="0.13"/><circle cx="156" cy="152" r="1.0" fill="#CBE3FF" opacity="0.21"/><circle cx="161" cy="43" r="2.5" fill="#CBE3FF" opacity="0.08"/><circle cx="593" cy="96" r="1.7" fill="#CBE3FF" opacity="0.09"/><circle cx="580" cy="81" r="1.8" fill="#CBE3FF" opacity="0.15"/><circle cx="154" cy="16" r="2.7" fill="#CBE3FF" opacity="0.20"/><circle cx="369" cy="154" r="1.8" fill="#CBE3FF" opacity="0.10"/><circle cx="667" cy="88" r="1.4" fill="#CBE3FF" opacity="0.09"/><circle cx="337" cy="60" r="1.7" fill="#CBE3FF" opacity="0.14"/><circle cx="195" cy="135" r="2.4" fill="#CBE3FF" opacity="0.19"/><circle cx="14" cy="34" r="2.3" fill="#CBE3FF" opacity="0.12"/><circle cx="298" cy="149" r="1.9" fill="#CBE3FF" opacity="0.09"/><circle cx="342" cy="95" r="2.7" fill="#CBE3FF" opacity="0.09"/><circle cx="318" cy="87" r="2.7" fill="#CBE3FF" opacity="0.07"/><circle cx="615" cy="45" r="2.5" fill="#CBE3FF" opacity="0.10"/><circle cx="142" cy="143" r="1.0" fill="#CBE3FF" opacity="0.16"/><circle cx="128" cy="83" r="1.9" fill="#CBE3FF" opacity="0.15"/><circle cx="759" cy="163" r="2.0" fill="#CBE3FF" opacity="0.21"/><circle cx="159" cy="91" r="1.4" fill="#CBE3FF" opacity="0.12"/><circle cx="445" cy="109" r="2.6" fill="#CBE3FF" opacity="0.09"/><circle cx="762" cy="57" r="2.2" fill="#CBE3FF" opacity="0.06"/><circle cx="424" cy="36" r="1.8" fill="#CBE3FF" opacity="0.12"/><circle cx="567" cy="152" r="1.8" fill="#CBE3FF" opacity="0.19"/><circle cx="84" cy="66" r="2.0" fill="#CBE3FF" opacity="0.12"/><circle cx="407" cy="48" r="2.5" fill="#CBE3FF" opacity="0.06"/><circle cx="35" cy="82" r="2.3" fill="#CBE3FF" opacity="0.13"/><circle cx="371" cy="106" r="2.2" fill="#CBE3FF" opacity="0.13"/><circle cx="442" cy="53" r="2.3" fill="#CBE3FF" opacity="0.21"/>
  <rect x="289" y="77" width="5" height="15" rx="1.5" fill="#1BB55C" opacity="0.5" transform="rotate(15 289 77)"/><rect x="687" y="92" width="8" height="14" rx="1.5" fill="#FFD24A" opacity="0.5" transform="rotate(-13 687 92)"/><rect x="261" y="69" width="9" height="13" rx="1.5" fill="#FFFFFF" opacity="0.5" transform="rotate(18 261 69)"/><rect x="361" y="90" width="6" height="11" rx="1.5" fill="#FFFFFF" opacity="0.5" transform="rotate(-19 361 90)"/><rect x="92" y="51" width="4" height="8" rx="1.5" fill="#1BB55C" opacity="0.5" transform="rotate(-0 92 51)"/><rect x="17" y="22" width="8" height="14" rx="1.5" fill="#FFD24A" opacity="0.5" transform="rotate(17 17 22)"/><rect x="544" y="17" width="7" height="13" rx="1.5" fill="#FFD24A" opacity="0.5" transform="rotate(28 544 17)"/><rect x="708" y="13" width="8" height="9" rx="1.5" fill="#FFFFFF" opacity="0.5" transform="rotate(29 708 13)"/><rect x="318" y="116" width="7" height="10" rx="1.5" fill="#FF6A00" opacity="0.5" transform="rotate(30 318 116)"/><rect x="584" y="57" width="8" height="8" rx="1.5" fill="#FFD24A" opacity="0.5" transform="rotate(-10 584 57)"/><rect x="476" y="126" width="5" height="9" rx="1.5" fill="#FF6A00" opacity="0.5" transform="rotate(7 476 126)"/><rect x="84" y="120" width="6" height="9" rx="1.5" fill="#1BB55C" opacity="0.5" transform="rotate(23 84 120)"/><rect x="642" y="86" width="8" height="13" rx="1.5" fill="#FFFFFF" opacity="0.5" transform="rotate(20 642 86)"/><rect x="347" y="105" width="7" height="15" rx="1.5" fill="#1BB55C" opacity="0.5" transform="rotate(-27 347 105)"/><rect x="455" y="112" width="6" height="10" rx="1.5" fill="#FF6A00" opacity="0.5" transform="rotate(-29 455 112)"/><rect x="415" y="68" width="5" height="11" rx="1.5" fill="#1BB55C" opacity="0.5" transform="rotate(22 415 68)"/><rect x="370" y="98" width="7" height="13" rx="1.5" fill="#FFD24A" opacity="0.5" transform="rotate(6 370 98)"/><rect x="29" y="91" width="8" height="13" rx="1.5" fill="#FFD24A" opacity="0.5" transform="rotate(23 29 91)"/><rect x="365" y="86" width="8" height="8" rx="1.5" fill="#FF6A00" opacity="0.5" transform="rotate(16 365 86)"/><rect x="381" y="23" width="5" height="13" rx="1.5" fill="#FFD24A" opacity="0.5" transform="rotate(-29 381 23)"/><rect x="680" y="23" width="5" height="10" rx="1.5" fill="#1BB55C" opacity="0.5" transform="rotate(13 680 23)"/><rect x="421" y="32" width="8" height="13" rx="1.5" fill="#FF6A00" opacity="0.5" transform="rotate(-5 421 32)"/><rect x="532" y="101" width="9" height="9" rx="1.5" fill="#FFFFFF" opacity="0.5" transform="rotate(-16 532 101)"/><rect x="741" y="118" width="8" height="14" rx="1.5" fill="#1BB55C" opacity="0.5" transform="rotate(21 741 118)"/><rect x="389" y="87" width="5" height="14" rx="1.5" fill="#1BB55C" opacity="0.5" transform="rotate(-9 389 87)"/><rect x="222" y="127" width="7" height="14" rx="1.5" fill="#FF6A00" opacity="0.5" transform="rotate(7 222 127)"/>
  <path d="M0 268 L800 236 L800 440 L0 440 Z" fill="url(#grass)"/>
  <path d="M0 268 L800 236" stroke="#4FBE82" stroke-opacity="0.35" stroke-width="2"/>
  <line x1="400" y1="252" x2="400" y2="440" stroke="#4FBE82" stroke-opacity="0.25" stroke-width="2"/>
  <circle cx="400" cy="400" r="80" fill="none" stroke="#4FBE82" stroke-opacity="0.22" stroke-width="2"/>
  <rect x="0" y="434" width="800" height="6" fill="#FF6A00"/>
  <text x="38" y="210" font-family="Arial, sans-serif" font-size="150" font-weight="900" fill="#FFFFFF" opacity="0.06">ENG</text>
  <text x="762" y="372" text-anchor="end" font-family="Arial, sans-serif" font-size="150" font-weight="900" fill="#FFFFFF" opacity="0.06">CRO</text>
  <rect width="800" height="440" fill="url(#fade)"/>
</svg>