<svg xmlns="http://www.w3.org/2000/svg" width="800" height="440" viewBox="0 0 800 440" role="img" aria-label="ENG x GHA">
  <defs>
    <linearGradient id="sky" x1="0" y1="0" x2="0" y2="1">
      <stop offset="0" stop-color="#243244"/>
      <stop offset="0.5" stop-color="#16202D"/>
      <stop offset="1" stop-color="#0C141E"/>
    </linearGradient>
    <radialGradient id="lgl" cx="0.16" cy="0.0" r="0.7">
      <stop offset="0" stop-color="#1B3A8C" stop-opacity="0.7"/>
      <stop offset="1" stop-color="#1B3A8C" stop-opacity="0"/>
    </radialGradient>
    <radialGradient id="rgl" cx="0.86" cy="0.05" r="0.7">
      <stop offset="0" stop-color="#C8102E" stop-opacity="0.62"/>
      <stop offset="1" stop-color="#C8102E" stop-opacity="0"/>
    </radialGradient>
    <radialGradient id="spot" cx="0.5" cy="-0.1" r="0.55">
      <stop offset="0" stop-color="#FFFFFF" stop-opacity="0.18"/>
      <stop offset="1" stop-color="#FFFFFF" stop-opacity="0"/>
    </radialGradient>
    <linearGradient id="grass" x1="0" y1="0" x2="0" y2="1">
      <stop offset="0" stop-color="#13502F"/>
      <stop offset="1" stop-color="#0B3520"/>
    </linearGradient>
    <linearGradient id="fade" x1="0" y1="0" x2="0" y2="1">
      <stop offset="0.4" stop-color="#0C141E" stop-opacity="0"/>
      <stop offset="1" stop-color="#0A111A" stop-opacity="0.9"/>
    </linearGradient>
  </defs>
  <rect width="800" height="440" fill="url(#sky)"/>
  <rect width="800" height="440" fill="url(#spot)"/>
  <rect width="800" height="440" fill="url(#lgl)"/>
  <rect width="800" height="440" fill="url(#rgl)"/>
  <circle cx="689" cy="54" r="2.6" fill="#CBE3FF" opacity="0.07"/><circle cx="721" cy="124" r="1.1" fill="#CBE3FF" opacity="0.12"/><circle cx="229" cy="83" r="2.2" fill="#CBE3FF" opacity="0.15"/><circle cx="648" cy="156" r="2.1" fill="#CBE3FF" opacity="0.20"/><circle cx="555" cy="67" r="1.5" fill="#CBE3FF" opacity="0.11"/><circle cx="735" cy="49" r="2.5" fill="#CBE3FF" opacity="0.15"/><circle cx="403" cy="34" r="2.0" fill="#CBE3FF" opacity="0.06"/><circle cx="365" cy="56" r="2.6" fill="#CBE3FF" opacity="0.15"/><circle cx="74" cy="31" r="2.2" fill="#CBE3FF" opacity="0.15"/><circle cx="570" cy="109" r="1.4" fill="#CBE3FF" opacity="0.09"/><circle cx="307" cy="119" r="2.7" fill="#CBE3FF" opacity="0.13"/><circle cx="432" cy="86" r="1.8" fill="#CBE3FF" opacity="0.14"/><circle cx="799" cy="123" r="1.6" fill="#CBE3FF" opacity="0.19"/><circle cx="173" cy="34" r="2.1" fill="#CBE3FF" opacity="0.08"/><circle cx="316" cy="142" r="2.5" fill="#CBE3FF" opacity="0.06"/><circle cx="730" cy="61" r="1.4" fill="#CBE3FF" opacity="0.20"/><circle cx="178" cy="161" r="1.3" fill="#CBE3FF" opacity="0.17"/><circle cx="215" cy="108" r="2.8" fill="#CBE3FF" opacity="0.11"/><circle cx="139" cy="102" r="2.8" fill="#CBE3FF" opacity="0.20"/><circle cx="492" cy="94" r="1.7" fill="#CBE3FF" opacity="0.17"/><circle cx="195" cy="101" r="2.1" fill="#CBE3FF" opacity="0.10"/><circle cx="760" cy="148" r="2.3" fill="#CBE3FF" opacity="0.10"/><circle cx="176" cy="141" r="2.6" fill="#CBE3FF" opacity="0.21"/><circle cx="738" cy="62" r="2.7" fill="#CBE3FF" opacity="0.14"/><circle cx="185" cy="105" r="2.0" fill="#CBE3FF" opacity="0.17"/><circle cx="694" cy="84" r="1.7" fill="#CBE3FF" opacity="0.10"/><circle cx="511" cy="135" r="2.4" fill="#CBE3FF" opacity="0.12"/><circle cx="705" cy="76" r="1.7" fill="#CBE3FF" opacity="0.17"/><circle cx="378" cy="154" r="1.8" fill="#CBE3FF" opacity="0.19"/><circle cx="516" cy="40" r="2.2" fill="#CBE3FF" opacity="0.09"/><circle cx="9" cy="137" r="1.3" fill="#CBE3FF" opacity="0.07"/><circle cx="22" cy="24" r="2.8" fill="#CBE3FF" opacity="0.11"/><circle cx="604" cy="48" r="2.5" fill="#CBE3FF" opacity="0.14"/><circle cx="359" cy="139" r="1.9" fill="#CBE3FF" opacity="0.15"/><circle cx="633" cy="138" r="1.4" fill="#CBE3FF" opacity="0.18"/><circle cx="518" cy="102" r="1.9" fill="#CBE3FF" opacity="0.15"/><circle cx="676" cy="115" r="2.0" fill="#CBE3FF" opacity="0.10"/><circle cx="512" cy="94" r="2.0" fill="#CBE3FF" opacity="0.07"/><circle cx="673" cy="103" r="2.6" fill="#CBE3FF" opacity="0.08"/><circle cx="740" cy="102" r="2.6" fill="#CBE3FF" opacity="0.20"/><circle cx="586" cy="100" r="2.1" fill="#CBE3FF" opacity="0.06"/><circle cx="542" cy="44" r="2.7" fill="#CBE3FF" opacity="0.15"/><circle cx="712" cy="73" r="2.8" fill="#CBE3FF" opacity="0.08"/><circle cx="753" cy="118" r="1.3" fill="#CBE3FF" opacity="0.16"/><circle cx="409" cy="36" r="1.3" fill="#CBE3FF" opacity="0.06"/><circle cx="313" cy="31" r="2.3" fill="#CBE3FF" opacity="0.20"/><circle cx="446" cy="86" r="1.1" fill="#CBE3FF" opacity="0.19"/><circle cx="168" cy="158" r="2.1" fill="#CBE3FF" opacity="0.13"/><circle cx="2" cy="69" r="1.0" fill="#CBE3FF" opacity="0.10"/><circle cx="117" cy="155" r="2.1" fill="#CBE3FF" opacity="0.20"/><circle cx="141" cy="44" r="2.0" fill="#CBE3FF" opacity="0.20"/><circle cx="30" cy="103" r="1.4" fill="#CBE3FF" opacity="0.20"/><circle cx="733" cy="163" r="2.1" fill="#CBE3FF" opacity="0.09"/><circle cx="775" cy="27" r="1.7" fill="#CBE3FF" opacity="0.19"/><circle cx="58" cy="62" r="2.8" fill="#CBE3FF" opacity="0.06"/><circle cx="663" cy="152" r="1.5" fill="#CBE3FF" opacity="0.14"/><circle cx="563" cy="70" r="2.2" fill="#CBE3FF" opacity="0.06"/><circle cx="51" cy="158" r="2.3" fill="#CBE3FF" opacity="0.09"/><circle cx="755" cy="85" r="1.2" fill="#CBE3FF" opacity="0.05"/><circle cx="168" cy="72" r="1.6" fill="#CBE3FF" opacity="0.16"/><circle cx="645" cy="72" r="1.9" fill="#CBE3FF" opacity="0.10"/><circle cx="760" cy="143" r="1.9" fill="#CBE3FF" opacity="0.06"/><circle cx="448" cy="83" r="1.2" fill="#CBE3FF" opacity="0.20"/><circle cx="1" cy="115" r="1.2" fill="#CBE3FF" opacity="0.20"/><circle cx="176" cy="16" r="2.4" fill="#CBE3FF" opacity="0.05"/><circle cx="214" cy="95" r="1.3" fill="#CBE3FF" opacity="0.17"/><circle cx="796" cy="134" r="1.6" fill="#CBE3FF" opacity="0.10"/><circle cx="95" cy="144" r="2.3" fill="#CBE3FF" opacity="0.16"/><circle cx="351" cy="100" r="1.9" fill="#CBE3FF" opacity="0.15"/><circle cx="37" cy="93" r="1.8" fill="#CBE3FF" opacity="0.16"/><circle cx="193" cy="87" r="2.1" fill="#CBE3FF" opacity="0.19"/><circle cx="595" cy="37" r="2.2" fill="#CBE3FF" opacity="0.10"/><circle cx="31" cy="78" r="1.1" fill="#CBE3FF" opacity="0.15"/><circle cx="401" cy="119" r="1.9" fill="#CBE3FF" opacity="0.20"/><circle cx="114" cy="152" r="2.3" fill="#CBE3FF" opacity="0.19"/><circle cx="289" cy="117" r="2.0" fill="#CBE3FF" opacity="0.19"/><circle cx="605" cy="36" r="2.3" fill="#CBE3FF" opacity="0.06"/><circle cx="86" cy="113" r="2.4" fill="#CBE3FF" opacity="0.14"/><circle cx="70" cy="101" r="2.0" fill="#CBE3FF" opacity="0.15"/><circle cx="36" cy="38" r="1.4" fill="#CBE3FF" opacity="0.11"/><circle cx="208" cy="65" r="1.3" fill="#CBE3FF" opacity="0.18"/><circle cx="224" cy="58" r="1.4" fill="#CBE3FF" opacity="0.15"/><circle cx="220" cy="36" r="1.8" fill="#CBE3FF" opacity="0.14"/><circle cx="234" cy="30" r="2.5" fill="#CBE3FF" opacity="0.07"/><circle cx="683" cy="89" r="1.2" fill="#CBE3FF" opacity="0.08"/><circle cx="698" cy="92" r="1.6" fill="#CBE3FF" opacity="0.17"/><circle cx="700" cy="102" r="2.5" fill="#CBE3FF" opacity="0.12"/><circle cx="201" cy="134" r="1.0" fill="#CBE3FF" opacity="0.18"/><circle cx="529" cy="132" r="1.1" fill="#CBE3FF" opacity="0.14"/><circle cx="244" cy="40" r="2.3" fill="#CBE3FF" opacity="0.18"/><circle cx="504" cy="76" r="2.5" fill="#CBE3FF" opacity="0.14"/><circle cx="204" cy="165" r="1.0" fill="#CBE3FF" opacity="0.07"/><circle cx="669" cy="108" r="2.7" fill="#CBE3FF" opacity="0.20"/><circle cx="648" cy="56" r="1.8" fill="#CBE3FF" opacity="0.16"/><circle cx="53" cy="162" r="1.0" fill="#CBE3FF" opacity="0.05"/><circle cx="495" cy="73" r="2.2" fill="#CBE3FF" opacity="0.21"/><circle cx="690" cy="148" r="2.2" fill="#CBE3FF" opacity="0.05"/><circle cx="23" cy="98" r="1.1" fill="#CBE3FF" opacity="0.18"/><circle cx="153" cy="67" r="1.1" fill="#CBE3FF" opacity="0.19"/><circle cx="31" cy="162" r="1.7" fill="#CBE3FF" opacity="0.06"/><circle cx="85" cy="91" r="2.7" fill="#CBE3FF" opacity="0.05"/><circle cx="206" cy="111" r="2.1" fill="#CBE3FF" opacity="0.08"/><circle cx="104" cy="68" r="1.4" fill="#CBE3FF" opacity="0.17"/><circle cx="572" cy="114" r="2.7" fill="#CBE3FF" opacity="0.18"/><circle cx="115" cy="129" r="1.1" fill="#CBE3FF" opacity="0.07"/><circle cx="242" cy="34" r="1.5" fill="#CBE3FF" opacity="0.19"/><circle cx="489" cy="135" r="1.2" fill="#CBE3FF" opacity="0.11"/><circle cx="248" cy="96" r="2.2" fill="#CBE3FF" opacity="0.13"/><circle cx="709" cy="70" r="1.5" fill="#CBE3FF" opacity="0.06"/><circle cx="659" cy="108" r="1.1" fill="#CBE3FF" opacity="0.13"/><circle cx="503" cy="158" r="1.7" fill="#CBE3FF" opacity="0.08"/><circle cx="452" cy="78" r="1.3" fill="#CBE3FF" opacity="0.13"/><circle cx="224" cy="52" r="1.7" fill="#CBE3FF" opacity="0.07"/><circle cx="716" cy="29" r="2.2" fill="#CBE3FF" opacity="0.08"/><circle cx="727" cy="130" r="2.1" fill="#CBE3FF" opacity="0.14"/><circle cx="793" cy="119" r="1.9" fill="#CBE3FF" opacity="0.14"/><circle cx="284" cy="131" r="2.6" fill="#CBE3FF" opacity="0.18"/><circle cx="103" cy="27" r="1.4" fill="#CBE3FF" opacity="0.12"/><circle cx="675" cy="78" r="1.0" fill="#CBE3FF" opacity="0.15"/><circle cx="251" cy="147" r="1.5" fill="#CBE3FF" opacity="0.18"/><circle cx="10" cy="125" r="2.0" fill="#CBE3FF" opacity="0.09"/><circle cx="622" cy="29" r="1.6" fill="#CBE3FF" opacity="0.08"/><circle cx="538" cy="28" r="2.0" fill="#CBE3FF" opacity="0.09"/><circle cx="251" cy="109" r="1.3" fill="#CBE3FF" opacity="0.18"/><circle cx="255" cy="149" r="1.5" fill="#CBE3FF" opacity="0.12"/><circle cx="399" cy="90" r="1.5" fill="#CBE3FF" opacity="0.20"/><circle cx="622" cy="119" r="2.4" fill="#CBE3FF" opacity="0.13"/><circle cx="88" cy="101" r="2.4" fill="#CBE3FF" opacity="0.20"/><circle cx="718" cy="39" r="1.3" fill="#CBE3FF" opacity="0.09"/><circle cx="143" cy="86" r="1.4" fill="#CBE3FF" opacity="0.21"/><circle cx="642" cy="122" r="2.5" fill="#CBE3FF" opacity="0.08"/><circle cx="522" cy="44" r="1.8" fill="#CBE3FF" opacity="0.07"/><circle cx="596" cy="143" r="1.8" fill="#CBE3FF" opacity="0.18"/><circle cx="614" cy="22" r="1.2" fill="#CBE3FF" opacity="0.08"/><circle cx="461" cy="133" r="1.7" fill="#CBE3FF" opacity="0.12"/><circle cx="619" cy="86" r="2.6" fill="#CBE3FF" opacity="0.21"/><circle cx="700" cy="94" r="1.2" fill="#CBE3FF" opacity="0.08"/><circle cx="104" cy="117" r="1.2" fill="#CBE3FF" opacity="0.15"/><circle cx="488" cy="40" r="2.1" fill="#CBE3FF" opacity="0.05"/><circle cx="282" cy="100" r="1.0" fill="#CBE3FF" opacity="0.08"/><circle cx="328" cy="159" r="1.9" fill="#CBE3FF" opacity="0.18"/><circle cx="421" cy="54" r="1.9" fill="#CBE3FF" opacity="0.09"/><circle cx="222" cy="142" r="1.4" fill="#CBE3FF" opacity="0.05"/><circle cx="194" cy="51" r="1.5" fill="#CBE3FF" opacity="0.12"/><circle cx="551" cy="105" r="1.7" fill="#CBE3FF" opacity="0.13"/><circle cx="276" cy="29" r="1.5" fill="#CBE3FF" opacity="0.11"/><circle cx="106" cy="154" r="2.8" fill="#CBE3FF" opacity="0.08"/><circle cx="791" cy="129" r="2.7" fill="#CBE3FF" opacity="0.08"/><circle cx="426" cy="82" r="2.3" fill="#CBE3FF" opacity="0.12"/><circle cx="491" cy="109" r="2.7" fill="#CBE3FF" opacity="0.13"/><circle cx="527" cy="85" r="2.0" fill="#CBE3FF" opacity="0.14"/><circle cx="355" cy="137" r="2.5" fill="#CBE3FF" opacity="0.12"/><circle cx="522" cy="156" r="1.7" fill="#CBE3FF" opacity="0.20"/><circle cx="616" cy="18" r="1.6" fill="#CBE3FF" opacity="0.12"/><circle cx="34" cy="129" r="2.7" fill="#CBE3FF" opacity="0.12"/><circle cx="697" cy="117" r="2.0" fill="#CBE3FF" opacity="0.19"/><circle cx="511" cy="118" r="2.4" fill="#CBE3FF" opacity="0.12"/><circle cx="522" cy="83" r="2.8" fill="#CBE3FF" opacity="0.17"/><circle cx="750" cy="55" r="1.1" fill="#CBE3FF" opacity="0.10"/><circle cx="136" cy="96" r="1.9" fill="#CBE3FF" opacity="0.11"/><circle cx="48" cy="134" r="1.9" fill="#CBE3FF" opacity="0.17"/><circle cx="645" cy="133" r="1.5" fill="#CBE3FF" opacity="0.16"/><circle cx="141" cy="80" r="1.0" fill="#CBE3FF" opacity="0.12"/><circle cx="313" cy="141" r="1.2" fill="#CBE3FF" opacity="0.17"/><circle cx="136" cy="22" r="1.5" fill="#CBE3FF" opacity="0.06"/><circle cx="281" cy="160" r="1.4" fill="#CBE3FF" opacity="0.05"/><circle cx="585" cy="151" r="2.3" fill="#CBE3FF" opacity="0.06"/><circle cx="305" cy="147" r="1.9" fill="#CBE3FF" opacity="0.20"/><circle cx="580" cy="147" r="1.9" fill="#CBE3FF" opacity="0.13"/><circle cx="140" cy="102" r="2.4" fill="#CBE3FF" opacity="0.11"/>
  <rect x="569" y="69" width="5" height="13" rx="1.5" fill="#FF6A00" opacity="0.5" transform="rotate(-16 569 69)"/><rect x="511" y="96" width="6" height="13" rx="1.5" fill="#1BB55C" opacity="0.5" transform="rotate(-3 511 96)"/><rect x="143" y="28" width="4" height="14" rx="1.5" fill="#FFFFFF" opacity="0.5" transform="rotate(-6 143 28)"/><rect x="535" y="34" width="5" height="13" rx="1.5" fill="#FFD24A" opacity="0.5" transform="rotate(25 535 34)"/><rect x="461" y="114" width="5" height="15" rx="1.5" fill="#FF6A00" opacity="0.5" transform="rotate(24 461 114)"/><rect x="749" y="87" width="6" height="15" rx="1.5" fill="#FFFFFF" opacity="0.5" transform="rotate(29 749 87)"/><rect x="141" y="34" width="7" height="14" rx="1.5" fill="#FF6A00" opacity="0.5" transform="rotate(7 141 34)"/><rect x="624" y="43" width="9" height="10" rx="1.5" fill="#FFFFFF" opacity="0.5" transform="rotate(2 624 43)"/><rect x="669" y="118" width="8" height="8" rx="1.5" fill="#FFD24A" opacity="0.5" transform="rotate(-14 669 118)"/><rect x="351" y="83" width="5" height="9" rx="1.5" fill="#FFD24A" opacity="0.5" transform="rotate(-25 351 83)"/><rect x="771" y="62" width="8" height="13" rx="1.5" fill="#1BB55C" opacity="0.5" transform="rotate(10 771 62)"/><rect x="160" y="98" width="5" height="11" rx="1.5" fill="#1BB55C" opacity="0.5" transform="rotate(10 160 98)"/><rect x="372" y="111" width="8" height="14" rx="1.5" fill="#FF6A00" opacity="0.5" transform="rotate(-15 372 111)"/><rect x="749" y="70" width="8" height="12" rx="1.5" fill="#1BB55C" opacity="0.5" transform="rotate(-6 749 70)"/><rect x="664" y="112" width="7" height="12" rx="1.5" fill="#1BB55C" opacity="0.5" transform="rotate(-1 664 112)"/><rect x="705" y="14" width="7" height="9" rx="1.5" fill="#FFFFFF" opacity="0.5" transform="rotate(-9 705 14)"/><rect x="309" y="52" width="5" height="10" rx="1.5" fill="#FF6A00" opacity="0.5" transform="rotate(-26 309 52)"/><rect x="80" y="24" width="8" height="9" rx="1.5" fill="#FFD24A" opacity="0.5" transform="rotate(-18 80 24)"/><rect x="491" y="113" width="9" height="11" rx="1.5" fill="#FFD24A" opacity="0.5" transform="rotate(-24 491 113)"/><rect x="63" y="109" width="9" height="12" rx="1.5" fill="#FFD24A" opacity="0.5" transform="rotate(-15 63 109)"/><rect x="427" y="15" width="7" height="9" rx="1.5" fill="#FF6A00" opacity="0.5" transform="rotate(12 427 15)"/><rect x="224" y="19" width="6" height="13" rx="1.5" fill="#FFD24A" opacity="0.5" transform="rotate(22 224 19)"/><rect x="789" y="89" width="9" height="15" rx="1.5" fill="#1BB55C" opacity="0.5" transform="rotate(-25 789 89)"/><rect x="236" y="119" width="8" height="12" rx="1.5" fill="#FFFFFF" opacity="0.5" transform="rotate(17 236 119)"/><rect x="440" y="111" width="8" height="10" rx="1.5" fill="#FF6A00" opacity="0.5" transform="rotate(-5 440 111)"/><rect x="357" y="41" width="7" height="11" rx="1.5" fill="#FF6A00" opacity="0.5" transform="rotate(-12 357 41)"/>
  <path d="M0 268 L800 236 L800 440 L0 440 Z" fill="url(#grass)"/>
  <path d="M0 268 L800 236" stroke="#4FBE82" stroke-opacity="0.35" stroke-width="2"/>
  <line x1="400" y1="252" x2="400" y2="440" stroke="#4FBE82" stroke-opacity="0.25" stroke-width="2"/>
  <circle cx="400" cy="400" r="80" fill="none" stroke="#4FBE82" stroke-opacity="0.22" stroke-width="2"/>
  <rect x="0" y="434" width="800" height="6" fill="#FF6A00"/>
  <text x="38" y="210" font-family="Arial, sans-serif" font-size="150" font-weight="900" fill="#FFFFFF" opacity="0.06">ENG</text>
  <text x="762" y="372" text-anchor="end" font-family="Arial, sans-serif" font-size="150" font-weight="900" fill="#FFFFFF" opacity="0.06">GHA</text>
  <rect width="800" height="440" fill="url(#fade)"/>
</svg>