<svg xmlns="http://www.w3.org/2000/svg" width="800" height="440" viewBox="0 0 800 440" role="img" aria-label="MEX x KOR">
  <defs>
    <linearGradient id="sky" x1="0" y1="0" x2="0" y2="1">
      <stop offset="0" stop-color="#243244"/>
      <stop offset="0.5" stop-color="#16202D"/>
      <stop offset="1" stop-color="#0C141E"/>
    </linearGradient>
    <radialGradient id="lgl" cx="0.16" cy="0.0" r="0.7">
      <stop offset="0" stop-color="#0E7C3A" stop-opacity="0.7"/>
      <stop offset="1" stop-color="#0E7C3A" stop-opacity="0"/>
    </radialGradient>
    <radialGradient id="rgl" cx="0.86" cy="0.05" r="0.7">
      <stop offset="0" stop-color="#1F4FA0" stop-opacity="0.62"/>
      <stop offset="1" stop-color="#1F4FA0" stop-opacity="0"/>
    </radialGradient>
    <radialGradient id="spot" cx="0.5" cy="-0.1" r="0.55">
      <stop offset="0" stop-color="#FFFFFF" stop-opacity="0.18"/>
      <stop offset="1" stop-color="#FFFFFF" stop-opacity="0"/>
    </radialGradient>
    <linearGradient id="grass" x1="0" y1="0" x2="0" y2="1">
      <stop offset="0" stop-color="#13502F"/>
      <stop offset="1" stop-color="#0B3520"/>
    </linearGradient>
    <linearGradient id="fade" x1="0" y1="0" x2="0" y2="1">
      <stop offset="0.4" stop-color="#0C141E" stop-opacity="0"/>
      <stop offset="1" stop-color="#0A111A" stop-opacity="0.9"/>
    </linearGradient>
  </defs>
  <rect width="800" height="440" fill="url(#sky)"/>
  <rect width="800" height="440" fill="url(#spot)"/>
  <rect width="800" height="440" fill="url(#lgl)"/>
  <rect width="800" height="440" fill="url(#rgl)"/>
  <circle cx="84" cy="30" r="1.8" fill="#CBE3FF" opacity="0.11"/><circle cx="554" cy="107" r="2.7" fill="#CBE3FF" opacity="0.17"/><circle cx="412" cy="38" r="1.8" fill="#CBE3FF" opacity="0.17"/><circle cx="665" cy="135" r="1.7" fill="#CBE3FF" opacity="0.14"/><circle cx="121" cy="39" r="2.3" fill="#CBE3FF" opacity="0.12"/><circle cx="308" cy="56" r="1.5" fill="#CBE3FF" opacity="0.06"/><circle cx="786" cy="64" r="1.6" fill="#CBE3FF" opacity="0.13"/><circle cx="344" cy="151" r="1.7" fill="#CBE3FF" opacity="0.14"/><circle cx="306" cy="104" r="2.7" fill="#CBE3FF" opacity="0.05"/><circle cx="484" cy="73" r="1.1" fill="#CBE3FF" opacity="0.15"/><circle cx="17" cy="20" r="2.6" fill="#CBE3FF" opacity="0.11"/><circle cx="229" cy="64" r="1.9" fill="#CBE3FF" opacity="0.17"/><circle cx="576" cy="71" r="1.4" fill="#CBE3FF" opacity="0.10"/><circle cx="598" cy="70" r="2.2" fill="#CBE3FF" opacity="0.08"/><circle cx="695" cy="156" r="1.5" fill="#CBE3FF" opacity="0.05"/><circle cx="112" cy="148" r="2.7" fill="#CBE3FF" opacity="0.10"/><circle cx="505" cy="49" r="2.1" fill="#CBE3FF" opacity="0.17"/><circle cx="434" cy="156" r="1.7" fill="#CBE3FF" opacity="0.09"/><circle cx="735" cy="74" r="1.1" fill="#CBE3FF" opacity="0.14"/><circle cx="15" cy="39" r="2.7" fill="#CBE3FF" opacity="0.09"/><circle cx="228" cy="32" r="2.8" fill="#CBE3FF" opacity="0.16"/><circle cx="485" cy="82" r="1.8" fill="#CBE3FF" opacity="0.09"/><circle cx="280" cy="107" r="1.2" fill="#CBE3FF" opacity="0.09"/><circle cx="502" cy="17" r="2.3" fill="#CBE3FF" opacity="0.07"/><circle cx="62" cy="107" r="1.9" fill="#CBE3FF" opacity="0.16"/><circle cx="536" cy="68" r="1.4" fill="#CBE3FF" opacity="0.11"/><circle cx="700" cy="37" r="1.1" fill="#CBE3FF" opacity="0.08"/><circle cx="416" cy="63" r="1.4" fill="#CBE3FF" opacity="0.14"/><circle cx="321" cy="68" r="1.0" fill="#CBE3FF" opacity="0.18"/><circle cx="159" cy="92" r="1.8" fill="#CBE3FF" opacity="0.09"/><circle cx="678" cy="146" r="2.4" fill="#CBE3FF" opacity="0.21"/><circle cx="399" cy="129" r="2.6" fill="#CBE3FF" opacity="0.07"/><circle cx="507" cy="104" r="2.2" fill="#CBE3FF" opacity="0.08"/><circle cx="308" cy="69" r="1.4" fill="#CBE3FF" opacity="0.08"/><circle cx="655" cy="93" r="2.5" fill="#CBE3FF" opacity="0.20"/><circle cx="704" cy="38" r="1.4" fill="#CBE3FF" opacity="0.15"/><circle cx="364" cy="155" r="1.0" fill="#CBE3FF" opacity="0.10"/><circle cx="284" cy="93" r="2.6" fill="#CBE3FF" opacity="0.08"/><circle cx="330" cy="99" r="1.5" fill="#CBE3FF" opacity="0.08"/><circle cx="439" cy="75" r="1.8" fill="#CBE3FF" opacity="0.10"/><circle cx="207" cy="109" r="2.6" fill="#CBE3FF" opacity="0.10"/><circle cx="144" cy="107" r="2.2" fill="#CBE3FF" opacity="0.19"/><circle cx="516" cy="43" r="1.2" fill="#CBE3FF" opacity="0.07"/><circle cx="384" cy="25" r="2.2" fill="#CBE3FF" opacity="0.17"/><circle cx="118" cy="24" r="1.5" fill="#CBE3FF" opacity="0.12"/><circle cx="757" cy="74" r="2.2" fill="#CBE3FF" opacity="0.14"/><circle cx="623" cy="82" r="2.5" fill="#CBE3FF" opacity="0.10"/><circle cx="562" cy="95" r="2.8" fill="#CBE3FF" opacity="0.13"/><circle cx="513" cy="106" r="1.3" fill="#CBE3FF" opacity="0.16"/><circle cx="656" cy="87" r="2.2" fill="#CBE3FF" opacity="0.13"/><circle cx="736" cy="137" r="1.0" fill="#CBE3FF" opacity="0.12"/><circle cx="276" cy="63" r="2.3" fill="#CBE3FF" opacity="0.18"/><circle cx="82" cy="104" r="2.2" fill="#CBE3FF" opacity="0.20"/><circle cx="143" cy="35" r="1.2" fill="#CBE3FF" opacity="0.06"/><circle cx="168" cy="162" r="1.8" fill="#CBE3FF" opacity="0.08"/><circle cx="163" cy="156" r="2.3" fill="#CBE3FF" opacity="0.20"/><circle cx="543" cy="65" r="2.7" fill="#CBE3FF" opacity="0.11"/><circle cx="3" cy="17" r="1.6" fill="#CBE3FF" opacity="0.09"/><circle cx="1" cy="111" r="1.1" fill="#CBE3FF" opacity="0.09"/><circle cx="370" cy="156" r="2.6" fill="#CBE3FF" opacity="0.12"/><circle cx="311" cy="132" r="2.8" fill="#CBE3FF" opacity="0.07"/><circle cx="133" cy="30" r="1.5" fill="#CBE3FF" opacity="0.20"/><circle cx="625" cy="151" r="2.4" fill="#CBE3FF" opacity="0.20"/><circle cx="385" cy="72" r="2.4" fill="#CBE3FF" opacity="0.19"/><circle cx="343" cy="136" r="1.4" fill="#CBE3FF" opacity="0.17"/><circle cx="241" cy="76" r="1.6" fill="#CBE3FF" opacity="0.18"/><circle cx="413" cy="60" r="2.3" fill="#CBE3FF" opacity="0.11"/><circle cx="769" cy="73" r="1.1" fill="#CBE3FF" opacity="0.08"/><circle cx="79" cy="151" r="1.2" fill="#CBE3FF" opacity="0.09"/><circle cx="185" cy="45" r="1.3" fill="#CBE3FF" opacity="0.16"/><circle cx="771" cy="119" r="1.7" fill="#CBE3FF" opacity="0.16"/><circle cx="756" cy="132" r="1.4" fill="#CBE3FF" opacity="0.17"/><circle cx="725" cy="46" r="1.1" fill="#CBE3FF" opacity="0.17"/><circle cx="785" cy="122" r="2.0" fill="#CBE3FF" opacity="0.07"/><circle cx="750" cy="97" r="2.7" fill="#CBE3FF" opacity="0.07"/><circle cx="292" cy="36" r="2.8" fill="#CBE3FF" opacity="0.21"/><circle cx="731" cy="102" r="2.1" fill="#CBE3FF" opacity="0.13"/><circle cx="570" cy="160" r="1.7" fill="#CBE3FF" opacity="0.18"/><circle cx="239" cy="104" r="1.9" fill="#CBE3FF" opacity="0.20"/><circle cx="569" cy="25" r="1.7" fill="#CBE3FF" opacity="0.08"/><circle cx="237" cy="104" r="2.5" fill="#CBE3FF" opacity="0.20"/><circle cx="632" cy="32" r="1.8" fill="#CBE3FF" opacity="0.08"/><circle cx="598" cy="132" r="1.6" fill="#CBE3FF" opacity="0.07"/><circle cx="703" cy="38" r="2.4" fill="#CBE3FF" opacity="0.13"/><circle cx="529" cy="59" r="2.6" fill="#CBE3FF" opacity="0.09"/><circle cx="154" cy="158" r="1.6" fill="#CBE3FF" opacity="0.19"/><circle cx="764" cy="116" r="2.3" fill="#CBE3FF" opacity="0.11"/><circle cx="521" cy="162" r="1.7" fill="#CBE3FF" opacity="0.15"/><circle cx="40" cy="53" r="1.4" fill="#CBE3FF" opacity="0.11"/><circle cx="358" cy="44" r="2.0" fill="#CBE3FF" opacity="0.16"/><circle cx="759" cy="129" r="1.2" fill="#CBE3FF" opacity="0.14"/><circle cx="203" cy="39" r="1.4" fill="#CBE3FF" opacity="0.08"/><circle cx="359" cy="96" r="1.9" fill="#CBE3FF" opacity="0.19"/><circle cx="568" cy="67" r="2.4" fill="#CBE3FF" opacity="0.13"/><circle cx="452" cy="115" r="2.5" fill="#CBE3FF" opacity="0.20"/><circle cx="593" cy="49" r="1.1" fill="#CBE3FF" opacity="0.10"/><circle cx="661" cy="28" r="1.2" fill="#CBE3FF" opacity="0.19"/><circle cx="784" cy="150" r="1.5" fill="#CBE3FF" opacity="0.20"/><circle cx="424" cy="62" r="2.6" fill="#CBE3FF" opacity="0.11"/><circle cx="117" cy="25" r="1.9" fill="#CBE3FF" opacity="0.18"/><circle cx="218" cy="163" r="1.5" fill="#CBE3FF" opacity="0.09"/><circle cx="492" cy="87" r="1.3" fill="#CBE3FF" opacity="0.17"/><circle cx="327" cy="52" r="1.2" fill="#CBE3FF" opacity="0.12"/><circle cx="197" cy="125" r="1.6" fill="#CBE3FF" opacity="0.12"/><circle cx="366" cy="105" r="1.9" fill="#CBE3FF" opacity="0.14"/><circle cx="485" cy="16" r="2.3" fill="#CBE3FF" opacity="0.17"/><circle cx="237" cy="127" r="1.8" fill="#CBE3FF" opacity="0.17"/><circle cx="521" cy="149" r="2.3" fill="#CBE3FF" opacity="0.14"/><circle cx="2" cy="125" r="2.2" fill="#CBE3FF" opacity="0.09"/><circle cx="288" cy="156" r="2.1" fill="#CBE3FF" opacity="0.15"/><circle cx="790" cy="113" r="2.3" fill="#CBE3FF" opacity="0.08"/><circle cx="499" cy="34" r="2.7" fill="#CBE3FF" opacity="0.12"/><circle cx="632" cy="17" r="1.4" fill="#CBE3FF" opacity="0.07"/><circle cx="711" cy="157" r="1.8" fill="#CBE3FF" opacity="0.17"/><circle cx="590" cy="106" r="1.4" fill="#CBE3FF" opacity="0.10"/><circle cx="732" cy="74" r="2.7" fill="#CBE3FF" opacity="0.11"/><circle cx="737" cy="52" r="2.6" fill="#CBE3FF" opacity="0.06"/><circle cx="326" cy="24" r="1.2" fill="#CBE3FF" opacity="0.14"/><circle cx="331" cy="70" r="2.1" fill="#CBE3FF" opacity="0.06"/><circle cx="107" cy="63" r="2.6" fill="#CBE3FF" opacity="0.08"/><circle cx="583" cy="54" r="1.0" fill="#CBE3FF" opacity="0.06"/><circle cx="743" cy="121" r="2.4" fill="#CBE3FF" opacity="0.07"/><circle cx="142" cy="78" r="1.1" fill="#CBE3FF" opacity="0.15"/><circle cx="139" cy="98" r="1.3" fill="#CBE3FF" opacity="0.10"/><circle cx="13" cy="161" r="1.7" fill="#CBE3FF" opacity="0.10"/><circle cx="15" cy="139" r="1.5" fill="#CBE3FF" opacity="0.10"/><circle cx="167" cy="152" r="2.8" fill="#CBE3FF" opacity="0.15"/><circle cx="668" cy="74" r="1.9" fill="#CBE3FF" opacity="0.18"/><circle cx="584" cy="116" r="2.4" fill="#CBE3FF" opacity="0.20"/><circle cx="97" cy="51" r="2.7" fill="#CBE3FF" opacity="0.06"/><circle cx="213" cy="136" r="1.7" fill="#CBE3FF" opacity="0.18"/><circle cx="611" cy="23" r="2.6" fill="#CBE3FF" opacity="0.07"/><circle cx="597" cy="108" r="1.3" fill="#CBE3FF" opacity="0.15"/><circle cx="257" cy="56" r="1.6" fill="#CBE3FF" opacity="0.20"/><circle cx="473" cy="23" r="2.0" fill="#CBE3FF" opacity="0.12"/><circle cx="613" cy="118" r="1.6" fill="#CBE3FF" opacity="0.05"/><circle cx="156" cy="51" r="1.3" fill="#CBE3FF" opacity="0.16"/><circle cx="422" cy="96" r="1.4" fill="#CBE3FF" opacity="0.11"/><circle cx="524" cy="140" r="2.2" fill="#CBE3FF" opacity="0.09"/><circle cx="320" cy="79" r="1.6" fill="#CBE3FF" opacity="0.06"/><circle cx="447" cy="17" r="1.4" fill="#CBE3FF" opacity="0.18"/><circle cx="798" cy="144" r="2.0" fill="#CBE3FF" opacity="0.11"/><circle cx="663" cy="120" r="1.9" fill="#CBE3FF" opacity="0.09"/><circle cx="516" cy="57" r="1.5" fill="#CBE3FF" opacity="0.20"/><circle cx="471" cy="17" r="1.8" fill="#CBE3FF" opacity="0.12"/><circle cx="380" cy="139" r="2.1" fill="#CBE3FF" opacity="0.09"/><circle cx="616" cy="122" r="2.3" fill="#CBE3FF" opacity="0.11"/><circle cx="314" cy="129" r="1.9" fill="#CBE3FF" opacity="0.17"/><circle cx="642" cy="163" r="1.9" fill="#CBE3FF" opacity="0.17"/><circle cx="558" cy="73" r="2.5" fill="#CBE3FF" opacity="0.11"/><circle cx="358" cy="63" r="2.5" fill="#CBE3FF" opacity="0.09"/><circle cx="657" cy="152" r="2.6" fill="#CBE3FF" opacity="0.13"/><circle cx="515" cy="147" r="1.1" fill="#CBE3FF" opacity="0.16"/><circle cx="67" cy="101" r="1.1" fill="#CBE3FF" opacity="0.18"/><circle cx="663" cy="165" r="1.9" fill="#CBE3FF" opacity="0.09"/><circle cx="538" cy="157" r="2.0" fill="#CBE3FF" opacity="0.18"/><circle cx="604" cy="103" r="2.5" fill="#CBE3FF" opacity="0.10"/><circle cx="451" cy="20" r="1.8" fill="#CBE3FF" opacity="0.20"/><circle cx="286" cy="96" r="2.4" fill="#CBE3FF" opacity="0.05"/><circle cx="157" cy="23" r="1.4" fill="#CBE3FF" opacity="0.11"/><circle cx="769" cy="96" r="2.6" fill="#CBE3FF" opacity="0.06"/><circle cx="23" cy="161" r="2.5" fill="#CBE3FF" opacity="0.14"/><circle cx="160" cy="60" r="2.2" fill="#CBE3FF" opacity="0.20"/><circle cx="501" cy="131" r="1.7" fill="#CBE3FF" opacity="0.14"/><circle cx="253" cy="104" r="1.1" fill="#CBE3FF" opacity="0.07"/><circle cx="639" cy="60" r="2.7" fill="#CBE3FF" opacity="0.10"/><circle cx="782" cy="60" r="2.5" fill="#CBE3FF" opacity="0.13"/><circle cx="687" cy="39" r="2.1" fill="#CBE3FF" opacity="0.08"/><circle cx="394" cy="27" r="2.2" fill="#CBE3FF" opacity="0.17"/><circle cx="319" cy="158" r="1.7" fill="#CBE3FF" opacity="0.11"/>
  <rect x="764" y="49" width="7" height="15" rx="1.5" fill="#FF6A00" opacity="0.5" transform="rotate(-29 764 49)"/><rect x="401" y="13" width="7" height="11" rx="1.5" fill="#1BB55C" opacity="0.5" transform="rotate(-18 401 13)"/><rect x="159" y="11" width="8" height="12" rx="1.5" fill="#FF6A00" opacity="0.5" transform="rotate(22 159 11)"/><rect x="114" y="44" width="8" height="13" rx="1.5" fill="#FFFFFF" opacity="0.5" transform="rotate(-7 114 44)"/><rect x="44" y="18" width="8" height="11" rx="1.5" fill="#FFD24A" opacity="0.5" transform="rotate(23 44 18)"/><rect x="365" y="82" width="8" height="11" rx="1.5" fill="#FFD24A" opacity="0.5" transform="rotate(-15 365 82)"/><rect x="55" y="125" width="6" height="10" rx="1.5" fill="#1BB55C" opacity="0.5" transform="rotate(-14 55 125)"/><rect x="610" y="30" width="7" height="9" rx="1.5" fill="#1BB55C" opacity="0.5" transform="rotate(6 610 30)"/><rect x="446" y="76" width="7" height="12" rx="1.5" fill="#FF6A00" opacity="0.5" transform="rotate(18 446 76)"/><rect x="380" y="86" width="7" height="9" rx="1.5" fill="#1BB55C" opacity="0.5" transform="rotate(2 380 86)"/><rect x="153" y="13" width="7" height="9" rx="1.5" fill="#FFD24A" opacity="0.5" transform="rotate(-26 153 13)"/><rect x="536" y="104" width="7" height="14" rx="1.5" fill="#1BB55C" opacity="0.5" transform="rotate(-25 536 104)"/><rect x="167" y="89" width="8" height="12" rx="1.5" fill="#FFD24A" opacity="0.5" transform="rotate(9 167 89)"/><rect x="391" y="128" width="8" height="9" rx="1.5" fill="#FFD24A" opacity="0.5" transform="rotate(16 391 128)"/><rect x="389" y="59" width="6" height="11" rx="1.5" fill="#FFFFFF" opacity="0.5" transform="rotate(7 389 59)"/><rect x="92" y="49" width="5" height="14" rx="1.5" fill="#FFD24A" opacity="0.5" transform="rotate(-22 92 49)"/><rect x="186" y="53" width="5" height="9" rx="1.5" fill="#FF6A00" opacity="0.5" transform="rotate(22 186 53)"/><rect x="746" y="30" width="4" height="11" rx="1.5" fill="#1BB55C" opacity="0.5" transform="rotate(-1 746 30)"/><rect x="201" y="102" width="8" height="10" rx="1.5" fill="#FFFFFF" opacity="0.5" transform="rotate(-28 201 102)"/><rect x="524" y="99" width="6" height="15" rx="1.5" fill="#FFD24A" opacity="0.5" transform="rotate(-27 524 99)"/><rect x="297" y="22" width="5" height="15" rx="1.5" fill="#FFD24A" opacity="0.5" transform="rotate(-20 297 22)"/><rect x="132" y="111" width="5" height="9" rx="1.5" fill="#FFFFFF" opacity="0.5" transform="rotate(11 132 111)"/><rect x="738" y="33" width="7" height="12" rx="1.5" fill="#FFFFFF" opacity="0.5" transform="rotate(-23 738 33)"/><rect x="685" y="11" width="5" height="9" rx="1.5" fill="#FFFFFF" opacity="0.5" transform="rotate(1 685 11)"/><rect x="128" y="23" width="5" height="10" rx="1.5" fill="#FF6A00" opacity="0.5" transform="rotate(-22 128 23)"/><rect x="592" y="51" width="5" height="11" rx="1.5" fill="#FF6A00" opacity="0.5" transform="rotate(12 592 51)"/>
  <path d="M0 268 L800 236 L800 440 L0 440 Z" fill="url(#grass)"/>
  <path d="M0 268 L800 236" stroke="#4FBE82" stroke-opacity="0.35" stroke-width="2"/>
  <line x1="400" y1="252" x2="400" y2="440" stroke="#4FBE82" stroke-opacity="0.25" stroke-width="2"/>
  <circle cx="400" cy="400" r="80" fill="none" stroke="#4FBE82" stroke-opacity="0.22" stroke-width="2"/>
  <rect x="0" y="434" width="800" height="6" fill="#FF6A00"/>
  <text x="38" y="210" font-family="Arial, sans-serif" font-size="150" font-weight="900" fill="#FFFFFF" opacity="0.06">MEX</text>
  <text x="762" y="372" text-anchor="end" font-family="Arial, sans-serif" font-size="150" font-weight="900" fill="#FFFFFF" opacity="0.06">KOR</text>
  <rect width="800" height="440" fill="url(#fade)"/>
</svg>