<svg xmlns="http://www.w3.org/2000/svg" width="800" height="440" viewBox="0 0 800 440" role="img" aria-label="MEX x RSA">
  <defs>
    <linearGradient id="sky" x1="0" y1="0" x2="0" y2="1">
      <stop offset="0" stop-color="#243244"/>
      <stop offset="0.5" stop-color="#16202D"/>
      <stop offset="1" stop-color="#0C141E"/>
    </linearGradient>
    <radialGradient id="lgl" cx="0.16" cy="0.0" r="0.7">
      <stop offset="0" stop-color="#0E7C3A" stop-opacity="0.7"/>
      <stop offset="1" stop-color="#0E7C3A" stop-opacity="0"/>
    </radialGradient>
    <radialGradient id="rgl" cx="0.86" cy="0.05" r="0.7">
      <stop offset="0" stop-color="#11875A" stop-opacity="0.62"/>
      <stop offset="1" stop-color="#11875A" stop-opacity="0"/>
    </radialGradient>
    <radialGradient id="spot" cx="0.5" cy="-0.1" r="0.55">
      <stop offset="0" stop-color="#FFFFFF" stop-opacity="0.18"/>
      <stop offset="1" stop-color="#FFFFFF" stop-opacity="0"/>
    </radialGradient>
    <linearGradient id="grass" x1="0" y1="0" x2="0" y2="1">
      <stop offset="0" stop-color="#13502F"/>
      <stop offset="1" stop-color="#0B3520"/>
    </linearGradient>
    <linearGradient id="fade" x1="0" y1="0" x2="0" y2="1">
      <stop offset="0.4" stop-color="#0C141E" stop-opacity="0"/>
      <stop offset="1" stop-color="#0A111A" stop-opacity="0.9"/>
    </linearGradient>
  </defs>
  <rect width="800" height="440" fill="url(#sky)"/>
  <rect width="800" height="440" fill="url(#spot)"/>
  <rect width="800" height="440" fill="url(#lgl)"/>
  <rect width="800" height="440" fill="url(#rgl)"/>
  <circle cx="778" cy="144" r="1.3" fill="#CBE3FF" opacity="0.18"/><circle cx="304" cy="158" r="1.4" fill="#CBE3FF" opacity="0.16"/><circle cx="686" cy="119" r="2.0" fill="#CBE3FF" opacity="0.10"/><circle cx="290" cy="104" r="1.9" fill="#CBE3FF" opacity="0.21"/><circle cx="271" cy="146" r="1.8" fill="#CBE3FF" opacity="0.06"/><circle cx="467" cy="143" r="2.7" fill="#CBE3FF" opacity="0.17"/><circle cx="561" cy="110" r="2.6" fill="#CBE3FF" opacity="0.15"/><circle cx="713" cy="144" r="1.3" fill="#CBE3FF" opacity="0.13"/><circle cx="655" cy="139" r="1.6" fill="#CBE3FF" opacity="0.07"/><circle cx="754" cy="95" r="1.4" fill="#CBE3FF" opacity="0.09"/><circle cx="381" cy="97" r="1.7" fill="#CBE3FF" opacity="0.16"/><circle cx="726" cy="30" r="1.2" fill="#CBE3FF" opacity="0.13"/><circle cx="640" cy="67" r="1.1" fill="#CBE3FF" opacity="0.21"/><circle cx="35" cy="50" r="2.3" fill="#CBE3FF" opacity="0.09"/><circle cx="63" cy="101" r="2.7" fill="#CBE3FF" opacity="0.12"/><circle cx="786" cy="55" r="1.1" fill="#CBE3FF" opacity="0.18"/><circle cx="196" cy="105" r="2.5" fill="#CBE3FF" opacity="0.11"/><circle cx="363" cy="154" r="2.8" fill="#CBE3FF" opacity="0.06"/><circle cx="28" cy="33" r="2.1" fill="#CBE3FF" opacity="0.21"/><circle cx="98" cy="32" r="1.5" fill="#CBE3FF" opacity="0.20"/><circle cx="679" cy="153" r="1.9" fill="#CBE3FF" opacity="0.16"/><circle cx="472" cy="132" r="2.0" fill="#CBE3FF" opacity="0.16"/><circle cx="35" cy="131" r="2.8" fill="#CBE3FF" opacity="0.08"/><circle cx="148" cy="25" r="1.7" fill="#CBE3FF" opacity="0.13"/><circle cx="677" cy="34" r="1.9" fill="#CBE3FF" opacity="0.14"/><circle cx="299" cy="120" r="1.9" fill="#CBE3FF" opacity="0.12"/><circle cx="582" cy="40" r="2.7" fill="#CBE3FF" opacity="0.10"/><circle cx="781" cy="118" r="1.9" fill="#CBE3FF" opacity="0.11"/><circle cx="236" cy="164" r="2.6" fill="#CBE3FF" opacity="0.08"/><circle cx="423" cy="21" r="1.2" fill="#CBE3FF" opacity="0.15"/><circle cx="482" cy="160" r="1.4" fill="#CBE3FF" opacity="0.09"/><circle cx="164" cy="138" r="1.4" fill="#CBE3FF" opacity="0.09"/><circle cx="761" cy="112" r="1.7" fill="#CBE3FF" opacity="0.13"/><circle cx="232" cy="41" r="1.5" fill="#CBE3FF" opacity="0.13"/><circle cx="287" cy="100" r="2.2" fill="#CBE3FF" opacity="0.14"/><circle cx="584" cy="93" r="1.5" fill="#CBE3FF" opacity="0.07"/><circle cx="295" cy="66" r="2.3" fill="#CBE3FF" opacity="0.19"/><circle cx="742" cy="92" r="1.6" fill="#CBE3FF" opacity="0.18"/><circle cx="615" cy="93" r="1.7" fill="#CBE3FF" opacity="0.15"/><circle cx="788" cy="33" r="2.4" fill="#CBE3FF" opacity="0.18"/><circle cx="437" cy="123" r="2.3" fill="#CBE3FF" opacity="0.08"/><circle cx="748" cy="52" r="2.4" fill="#CBE3FF" opacity="0.10"/><circle cx="622" cy="147" r="2.4" fill="#CBE3FF" opacity="0.06"/><circle cx="631" cy="36" r="2.5" fill="#CBE3FF" opacity="0.20"/><circle cx="82" cy="80" r="1.8" fill="#CBE3FF" opacity="0.05"/><circle cx="223" cy="139" r="2.0" fill="#CBE3FF" opacity="0.21"/><circle cx="89" cy="150" r="1.0" fill="#CBE3FF" opacity="0.21"/><circle cx="354" cy="74" r="1.9" fill="#CBE3FF" opacity="0.13"/><circle cx="480" cy="87" r="1.7" fill="#CBE3FF" opacity="0.09"/><circle cx="663" cy="134" r="2.3" fill="#CBE3FF" opacity="0.11"/><circle cx="28" cy="52" r="2.3" fill="#CBE3FF" opacity="0.18"/><circle cx="646" cy="153" r="1.8" fill="#CBE3FF" opacity="0.14"/><circle cx="307" cy="165" r="2.3" fill="#CBE3FF" opacity="0.12"/><circle cx="795" cy="48" r="2.2" fill="#CBE3FF" opacity="0.11"/><circle cx="332" cy="85" r="2.1" fill="#CBE3FF" opacity="0.12"/><circle cx="613" cy="163" r="2.5" fill="#CBE3FF" opacity="0.13"/><circle cx="113" cy="57" r="2.7" fill="#CBE3FF" opacity="0.12"/><circle cx="330" cy="104" r="2.3" fill="#CBE3FF" opacity="0.15"/><circle cx="471" cy="150" r="1.8" fill="#CBE3FF" opacity="0.15"/><circle cx="674" cy="57" r="1.5" fill="#CBE3FF" opacity="0.07"/><circle cx="609" cy="147" r="2.3" fill="#CBE3FF" opacity="0.19"/><circle cx="792" cy="161" r="1.9" fill="#CBE3FF" opacity="0.08"/><circle cx="90" cy="29" r="1.4" fill="#CBE3FF" opacity="0.11"/><circle cx="160" cy="156" r="1.4" fill="#CBE3FF" opacity="0.11"/><circle cx="195" cy="16" r="1.6" fill="#CBE3FF" opacity="0.11"/><circle cx="683" cy="122" r="2.1" fill="#CBE3FF" opacity="0.20"/><circle cx="639" cy="100" r="1.5" fill="#CBE3FF" opacity="0.12"/><circle cx="179" cy="42" r="2.0" fill="#CBE3FF" opacity="0.20"/><circle cx="70" cy="153" r="1.9" fill="#CBE3FF" opacity="0.07"/><circle cx="7" cy="121" r="1.5" fill="#CBE3FF" opacity="0.07"/><circle cx="39" cy="90" r="1.9" fill="#CBE3FF" opacity="0.11"/><circle cx="599" cy="50" r="2.0" fill="#CBE3FF" opacity="0.12"/><circle cx="166" cy="148" r="1.0" fill="#CBE3FF" opacity="0.20"/><circle cx="560" cy="127" r="2.3" fill="#CBE3FF" opacity="0.21"/><circle cx="503" cy="163" r="1.6" fill="#CBE3FF" opacity="0.14"/><circle cx="698" cy="66" r="1.2" fill="#CBE3FF" opacity="0.08"/><circle cx="121" cy="50" r="2.7" fill="#CBE3FF" opacity="0.15"/><circle cx="497" cy="155" r="2.4" fill="#CBE3FF" opacity="0.16"/><circle cx="494" cy="33" r="1.9" fill="#CBE3FF" opacity="0.10"/><circle cx="167" cy="80" r="2.2" fill="#CBE3FF" opacity="0.13"/><circle cx="682" cy="86" r="2.5" fill="#CBE3FF" opacity="0.14"/><circle cx="45" cy="144" r="2.5" fill="#CBE3FF" opacity="0.20"/><circle cx="364" cy="50" r="2.2" fill="#CBE3FF" opacity="0.20"/><circle cx="207" cy="49" r="1.3" fill="#CBE3FF" opacity="0.05"/><circle cx="297" cy="91" r="1.0" fill="#CBE3FF" opacity="0.18"/><circle cx="140" cy="31" r="2.6" fill="#CBE3FF" opacity="0.07"/><circle cx="460" cy="63" r="2.0" fill="#CBE3FF" opacity="0.10"/><circle cx="200" cy="130" r="1.7" fill="#CBE3FF" opacity="0.17"/><circle cx="106" cy="159" r="1.0" fill="#CBE3FF" opacity="0.16"/><circle cx="529" cy="51" r="1.6" fill="#CBE3FF" opacity="0.14"/><circle cx="741" cy="58" r="2.0" fill="#CBE3FF" opacity="0.13"/><circle cx="201" cy="76" r="2.1" fill="#CBE3FF" opacity="0.09"/><circle cx="294" cy="154" r="2.4" fill="#CBE3FF" opacity="0.11"/><circle cx="450" cy="84" r="2.2" fill="#CBE3FF" opacity="0.17"/><circle cx="651" cy="45" r="1.0" fill="#CBE3FF" opacity="0.18"/><circle cx="739" cy="87" r="2.3" fill="#CBE3FF" opacity="0.18"/><circle cx="618" cy="72" r="2.3" fill="#CBE3FF" opacity="0.08"/><circle cx="325" cy="152" r="2.1" fill="#CBE3FF" opacity="0.14"/><circle cx="31" cy="56" r="2.1" fill="#CBE3FF" opacity="0.08"/><circle cx="646" cy="45" r="2.2" fill="#CBE3FF" opacity="0.12"/><circle cx="17" cy="121" r="2.4" fill="#CBE3FF" opacity="0.15"/><circle cx="521" cy="125" r="1.9" fill="#CBE3FF" opacity="0.06"/><circle cx="661" cy="26" r="1.8" fill="#CBE3FF" opacity="0.20"/><circle cx="434" cy="66" r="2.8" fill="#CBE3FF" opacity="0.20"/><circle cx="343" cy="69" r="2.1" fill="#CBE3FF" opacity="0.18"/><circle cx="48" cy="140" r="1.8" fill="#CBE3FF" opacity="0.21"/><circle cx="258" cy="40" r="1.8" fill="#CBE3FF" opacity="0.19"/><circle cx="530" cy="152" r="1.6" fill="#CBE3FF" opacity="0.16"/><circle cx="142" cy="57" r="2.5" fill="#CBE3FF" opacity="0.05"/><circle cx="132" cy="154" r="1.0" fill="#CBE3FF" opacity="0.19"/><circle cx="421" cy="44" r="2.2" fill="#CBE3FF" opacity="0.09"/><circle cx="570" cy="118" r="1.1" fill="#CBE3FF" opacity="0.10"/><circle cx="45" cy="113" r="1.9" fill="#CBE3FF" opacity="0.05"/><circle cx="303" cy="49" r="1.2" fill="#CBE3FF" opacity="0.06"/><circle cx="785" cy="69" r="1.2" fill="#CBE3FF" opacity="0.20"/><circle cx="639" cy="157" r="1.2" fill="#CBE3FF" opacity="0.07"/><circle cx="217" cy="159" r="1.7" fill="#CBE3FF" opacity="0.11"/><circle cx="661" cy="18" r="1.8" fill="#CBE3FF" opacity="0.16"/><circle cx="615" cy="58" r="1.0" fill="#CBE3FF" opacity="0.17"/><circle cx="690" cy="162" r="2.5" fill="#CBE3FF" opacity="0.08"/><circle cx="642" cy="98" r="2.3" fill="#CBE3FF" opacity="0.09"/><circle cx="124" cy="109" r="1.8" fill="#CBE3FF" opacity="0.06"/><circle cx="748" cy="78" r="1.6" fill="#CBE3FF" opacity="0.09"/><circle cx="370" cy="155" r="2.1" fill="#CBE3FF" opacity="0.14"/><circle cx="51" cy="103" r="1.1" fill="#CBE3FF" opacity="0.06"/><circle cx="240" cy="61" r="1.5" fill="#CBE3FF" opacity="0.11"/><circle cx="284" cy="127" r="2.4" fill="#CBE3FF" opacity="0.19"/><circle cx="338" cy="33" r="2.0" fill="#CBE3FF" opacity="0.14"/><circle cx="784" cy="81" r="1.4" fill="#CBE3FF" opacity="0.12"/><circle cx="29" cy="150" r="1.8" fill="#CBE3FF" opacity="0.15"/><circle cx="768" cy="157" r="2.4" fill="#CBE3FF" opacity="0.09"/><circle cx="744" cy="142" r="1.2" fill="#CBE3FF" opacity="0.09"/><circle cx="599" cy="131" r="1.5" fill="#CBE3FF" opacity="0.11"/><circle cx="123" cy="107" r="1.4" fill="#CBE3FF" opacity="0.15"/><circle cx="92" cy="159" r="1.5" fill="#CBE3FF" opacity="0.13"/><circle cx="604" cy="90" r="2.0" fill="#CBE3FF" opacity="0.15"/><circle cx="140" cy="62" r="1.4" fill="#CBE3FF" opacity="0.12"/><circle cx="501" cy="66" r="2.5" fill="#CBE3FF" opacity="0.20"/><circle cx="578" cy="141" r="2.3" fill="#CBE3FF" opacity="0.15"/><circle cx="376" cy="123" r="2.4" fill="#CBE3FF" opacity="0.18"/><circle cx="226" cy="105" r="1.5" fill="#CBE3FF" opacity="0.17"/><circle cx="564" cy="54" r="2.3" fill="#CBE3FF" opacity="0.15"/><circle cx="524" cy="161" r="1.8" fill="#CBE3FF" opacity="0.15"/><circle cx="199" cy="143" r="1.5" fill="#CBE3FF" opacity="0.16"/><circle cx="750" cy="34" r="1.1" fill="#CBE3FF" opacity="0.10"/><circle cx="535" cy="79" r="1.1" fill="#CBE3FF" opacity="0.06"/><circle cx="181" cy="74" r="1.7" fill="#CBE3FF" opacity="0.15"/><circle cx="798" cy="129" r="2.4" fill="#CBE3FF" opacity="0.06"/><circle cx="565" cy="59" r="1.3" fill="#CBE3FF" opacity="0.10"/><circle cx="258" cy="95" r="1.3" fill="#CBE3FF" opacity="0.16"/><circle cx="105" cy="30" r="1.6" fill="#CBE3FF" opacity="0.10"/><circle cx="711" cy="100" r="2.0" fill="#CBE3FF" opacity="0.06"/><circle cx="104" cy="134" r="1.9" fill="#CBE3FF" opacity="0.11"/><circle cx="443" cy="76" r="2.2" fill="#CBE3FF" opacity="0.19"/><circle cx="7" cy="69" r="2.4" fill="#CBE3FF" opacity="0.06"/><circle cx="299" cy="66" r="1.2" fill="#CBE3FF" opacity="0.08"/><circle cx="742" cy="156" r="2.7" fill="#CBE3FF" opacity="0.06"/><circle cx="744" cy="149" r="1.4" fill="#CBE3FF" opacity="0.07"/><circle cx="790" cy="84" r="1.7" fill="#CBE3FF" opacity="0.06"/><circle cx="187" cy="62" r="1.5" fill="#CBE3FF" opacity="0.19"/><circle cx="650" cy="40" r="1.9" fill="#CBE3FF" opacity="0.20"/><circle cx="289" cy="129" r="2.2" fill="#CBE3FF" opacity="0.10"/><circle cx="188" cy="29" r="1.4" fill="#CBE3FF" opacity="0.06"/><circle cx="383" cy="41" r="2.5" fill="#CBE3FF" opacity="0.17"/><circle cx="27" cy="77" r="1.5" fill="#CBE3FF" opacity="0.08"/><circle cx="376" cy="135" r="1.1" fill="#CBE3FF" opacity="0.08"/><circle cx="277" cy="73" r="2.7" fill="#CBE3FF" opacity="0.08"/><circle cx="61" cy="102" r="1.5" fill="#CBE3FF" opacity="0.14"/><circle cx="116" cy="72" r="2.6" fill="#CBE3FF" opacity="0.07"/><circle cx="188" cy="93" r="1.6" fill="#CBE3FF" opacity="0.19"/>
  <rect x="657" y="20" width="6" height="10" rx="1.5" fill="#FFFFFF" opacity="0.5" transform="rotate(12 657 20)"/><rect x="635" y="128" width="4" height="15" rx="1.5" fill="#FFFFFF" opacity="0.5" transform="rotate(-11 635 128)"/><rect x="584" y="106" width="9" height="15" rx="1.5" fill="#FFD24A" opacity="0.5" transform="rotate(-27 584 106)"/><rect x="681" y="119" width="9" height="10" rx="1.5" fill="#FF6A00" opacity="0.5" transform="rotate(-26 681 119)"/><rect x="619" y="55" width="6" height="11" rx="1.5" fill="#1BB55C" opacity="0.5" transform="rotate(-10 619 55)"/><rect x="189" y="75" width="5" height="13" rx="1.5" fill="#FFD24A" opacity="0.5" transform="rotate(8 189 75)"/><rect x="325" y="22" width="7" height="14" rx="1.5" fill="#FF6A00" opacity="0.5" transform="rotate(13 325 22)"/><rect x="188" y="69" width="5" height="15" rx="1.5" fill="#FFFFFF" opacity="0.5" transform="rotate(-18 188 69)"/><rect x="510" y="73" width="6" height="9" rx="1.5" fill="#FFD24A" opacity="0.5" transform="rotate(-24 510 73)"/><rect x="424" y="91" width="8" height="14" rx="1.5" fill="#FF6A00" opacity="0.5" transform="rotate(-18 424 91)"/><rect x="27" y="58" width="7" height="12" rx="1.5" fill="#FFFFFF" opacity="0.5" transform="rotate(11 27 58)"/><rect x="702" y="53" width="6" height="13" rx="1.5" fill="#FFFFFF" opacity="0.5" transform="rotate(12 702 53)"/><rect x="260" y="56" width="6" height="15" rx="1.5" fill="#FFD24A" opacity="0.5" transform="rotate(16 260 56)"/><rect x="654" y="95" width="6" height="15" rx="1.5" fill="#FFD24A" opacity="0.5" transform="rotate(-12 654 95)"/><rect x="376" y="99" width="6" height="14" rx="1.5" fill="#FFFFFF" opacity="0.5" transform="rotate(-11 376 99)"/><rect x="772" y="41" width="8" height="14" rx="1.5" fill="#FF6A00" opacity="0.5" transform="rotate(19 772 41)"/><rect x="1" y="115" width="5" height="8" rx="1.5" fill="#FFFFFF" opacity="0.5" transform="rotate(4 1 115)"/><rect x="144" y="41" width="9" height="12" rx="1.5" fill="#1BB55C" opacity="0.5" transform="rotate(-6 144 41)"/><rect x="567" y="27" width="4" height="8" rx="1.5" fill="#FFD24A" opacity="0.5" transform="rotate(25 567 27)"/><rect x="414" y="24" width="8" height="11" rx="1.5" fill="#FFFFFF" opacity="0.5" transform="rotate(14 414 24)"/><rect x="100" y="34" width="8" height="9" rx="1.5" fill="#FFD24A" opacity="0.5" transform="rotate(22 100 34)"/><rect x="394" y="129" width="7" height="9" rx="1.5" fill="#FFD24A" opacity="0.5" transform="rotate(-6 394 129)"/><rect x="662" y="10" width="7" height="14" rx="1.5" fill="#FFFFFF" opacity="0.5" transform="rotate(9 662 10)"/><rect x="559" y="90" width="9" height="12" rx="1.5" fill="#FFD24A" opacity="0.5" transform="rotate(6 559 90)"/><rect x="60" y="72" width="8" height="14" rx="1.5" fill="#FF6A00" opacity="0.5" transform="rotate(12 60 72)"/><rect x="145" y="125" width="7" height="10" rx="1.5" fill="#1BB55C" opacity="0.5" transform="rotate(18 145 125)"/>
  <path d="M0 268 L800 236 L800 440 L0 440 Z" fill="url(#grass)"/>
  <path d="M0 268 L800 236" stroke="#4FBE82" stroke-opacity="0.35" stroke-width="2"/>
  <line x1="400" y1="252" x2="400" y2="440" stroke="#4FBE82" stroke-opacity="0.25" stroke-width="2"/>
  <circle cx="400" cy="400" r="80" fill="none" stroke="#4FBE82" stroke-opacity="0.22" stroke-width="2"/>
  <rect x="0" y="434" width="800" height="6" fill="#FF6A00"/>
  <text x="38" y="210" font-family="Arial, sans-serif" font-size="150" font-weight="900" fill="#FFFFFF" opacity="0.06">MEX</text>
  <text x="762" y="372" text-anchor="end" font-family="Arial, sans-serif" font-size="150" font-weight="900" fill="#FFFFFF" opacity="0.06">RSA</text>
  <rect width="800" height="440" fill="url(#fade)"/>
</svg>