<svg xmlns="http://www.w3.org/2000/svg" width="800" height="440" viewBox="0 0 800 440" role="img" aria-label="NED x JPN">
  <defs>
    <linearGradient id="sky" x1="0" y1="0" x2="0" y2="1">
      <stop offset="0" stop-color="#243244"/>
      <stop offset="0.5" stop-color="#16202D"/>
      <stop offset="1" stop-color="#0C141E"/>
    </linearGradient>
    <radialGradient id="lgl" cx="0.16" cy="0.0" r="0.7">
      <stop offset="0" stop-color="#FF6A00" stop-opacity="0.7"/>
      <stop offset="1" stop-color="#FF6A00" stop-opacity="0"/>
    </radialGradient>
    <radialGradient id="rgl" cx="0.86" cy="0.05" r="0.7">
      <stop offset="0" stop-color="#1B3F8B" stop-opacity="0.62"/>
      <stop offset="1" stop-color="#1B3F8B" stop-opacity="0"/>
    </radialGradient>
    <radialGradient id="spot" cx="0.5" cy="-0.1" r="0.55">
      <stop offset="0" stop-color="#FFFFFF" stop-opacity="0.18"/>
      <stop offset="1" stop-color="#FFFFFF" stop-opacity="0"/>
    </radialGradient>
    <linearGradient id="grass" x1="0" y1="0" x2="0" y2="1">
      <stop offset="0" stop-color="#13502F"/>
      <stop offset="1" stop-color="#0B3520"/>
    </linearGradient>
    <linearGradient id="fade" x1="0" y1="0" x2="0" y2="1">
      <stop offset="0.4" stop-color="#0C141E" stop-opacity="0"/>
      <stop offset="1" stop-color="#0A111A" stop-opacity="0.9"/>
    </linearGradient>
  </defs>
  <rect width="800" height="440" fill="url(#sky)"/>
  <rect width="800" height="440" fill="url(#spot)"/>
  <rect width="800" height="440" fill="url(#lgl)"/>
  <rect width="800" height="440" fill="url(#rgl)"/>
  <circle cx="431" cy="87" r="2.4" fill="#CBE3FF" opacity="0.15"/><circle cx="29" cy="57" r="1.1" fill="#CBE3FF" opacity="0.16"/><circle cx="549" cy="154" r="2.8" fill="#CBE3FF" opacity="0.13"/><circle cx="477" cy="120" r="2.7" fill="#CBE3FF" opacity="0.17"/><circle cx="596" cy="93" r="2.1" fill="#CBE3FF" opacity="0.17"/><circle cx="387" cy="24" r="1.2" fill="#CBE3FF" opacity="0.11"/><circle cx="273" cy="162" r="2.1" fill="#CBE3FF" opacity="0.14"/><circle cx="129" cy="148" r="2.4" fill="#CBE3FF" opacity="0.14"/><circle cx="480" cy="47" r="1.3" fill="#CBE3FF" opacity="0.06"/><circle cx="219" cy="159" r="1.3" fill="#CBE3FF" opacity="0.20"/><circle cx="199" cy="133" r="2.2" fill="#CBE3FF" opacity="0.14"/><circle cx="478" cy="47" r="2.4" fill="#CBE3FF" opacity="0.07"/><circle cx="608" cy="69" r="1.3" fill="#CBE3FF" opacity="0.07"/><circle cx="716" cy="60" r="1.4" fill="#CBE3FF" opacity="0.16"/><circle cx="779" cy="53" r="1.2" fill="#CBE3FF" opacity="0.16"/><circle cx="449" cy="102" r="1.9" fill="#CBE3FF" opacity="0.14"/><circle cx="750" cy="152" r="1.4" fill="#CBE3FF" opacity="0.14"/><circle cx="799" cy="80" r="1.3" fill="#CBE3FF" opacity="0.08"/><circle cx="381" cy="54" r="1.6" fill="#CBE3FF" opacity="0.17"/><circle cx="57" cy="110" r="2.1" fill="#CBE3FF" opacity="0.06"/><circle cx="54" cy="17" r="2.4" fill="#CBE3FF" opacity="0.16"/><circle cx="78" cy="32" r="2.8" fill="#CBE3FF" opacity="0.12"/><circle cx="557" cy="119" r="2.0" fill="#CBE3FF" opacity="0.09"/><circle cx="325" cy="96" r="1.1" fill="#CBE3FF" opacity="0.10"/><circle cx="369" cy="145" r="1.9" fill="#CBE3FF" opacity="0.15"/><circle cx="17" cy="94" r="2.5" fill="#CBE3FF" opacity="0.12"/><circle cx="641" cy="38" r="1.9" fill="#CBE3FF" opacity="0.09"/><circle cx="598" cy="90" r="2.5" fill="#CBE3FF" opacity="0.20"/><circle cx="678" cy="41" r="2.7" fill="#CBE3FF" opacity="0.21"/><circle cx="291" cy="57" r="1.5" fill="#CBE3FF" opacity="0.12"/><circle cx="580" cy="153" r="1.9" fill="#CBE3FF" opacity="0.07"/><circle cx="681" cy="133" r="1.1" fill="#CBE3FF" opacity="0.08"/><circle cx="234" cy="108" r="1.0" fill="#CBE3FF" opacity="0.10"/><circle cx="670" cy="130" r="1.5" fill="#CBE3FF" opacity="0.11"/><circle cx="471" cy="22" r="1.4" fill="#CBE3FF" opacity="0.09"/><circle cx="644" cy="66" r="1.5" fill="#CBE3FF" opacity="0.19"/><circle cx="329" cy="36" r="1.6" fill="#CBE3FF" opacity="0.07"/><circle cx="513" cy="92" r="1.2" fill="#CBE3FF" opacity="0.05"/><circle cx="72" cy="96" r="2.5" fill="#CBE3FF" opacity="0.12"/><circle cx="614" cy="54" r="1.2" fill="#CBE3FF" opacity="0.14"/><circle cx="322" cy="41" r="2.4" fill="#CBE3FF" opacity="0.09"/><circle cx="46" cy="154" r="2.3" fill="#CBE3FF" opacity="0.07"/><circle cx="569" cy="95" r="2.7" fill="#CBE3FF" opacity="0.06"/><circle cx="108" cy="31" r="1.4" fill="#CBE3FF" opacity="0.19"/><circle cx="500" cy="127" r="1.6" fill="#CBE3FF" opacity="0.09"/><circle cx="490" cy="106" r="2.1" fill="#CBE3FF" opacity="0.17"/><circle cx="356" cy="41" r="1.8" fill="#CBE3FF" opacity="0.07"/><circle cx="458" cy="85" r="2.4" fill="#CBE3FF" opacity="0.13"/><circle cx="97" cy="21" r="1.5" fill="#CBE3FF" opacity="0.21"/><circle cx="660" cy="35" r="1.3" fill="#CBE3FF" opacity="0.12"/><circle cx="382" cy="94" r="1.7" fill="#CBE3FF" opacity="0.07"/><circle cx="461" cy="108" r="2.0" fill="#CBE3FF" opacity="0.16"/><circle cx="194" cy="135" r="1.3" fill="#CBE3FF" opacity="0.08"/><circle cx="469" cy="117" r="2.6" fill="#CBE3FF" opacity="0.09"/><circle cx="250" cy="48" r="1.9" fill="#CBE3FF" opacity="0.10"/><circle cx="388" cy="160" r="1.5" fill="#CBE3FF" opacity="0.16"/><circle cx="728" cy="136" r="1.8" fill="#CBE3FF" opacity="0.19"/><circle cx="566" cy="61" r="1.1" fill="#CBE3FF" opacity="0.12"/><circle cx="236" cy="130" r="2.3" fill="#CBE3FF" opacity="0.20"/><circle cx="522" cy="107" r="2.0" fill="#CBE3FF" opacity="0.10"/><circle cx="60" cy="65" r="1.6" fill="#CBE3FF" opacity="0.13"/><circle cx="462" cy="96" r="2.6" fill="#CBE3FF" opacity="0.06"/><circle cx="357" cy="165" r="1.9" fill="#CBE3FF" opacity="0.16"/><circle cx="672" cy="114" r="1.9" fill="#CBE3FF" opacity="0.15"/><circle cx="269" cy="76" r="2.4" fill="#CBE3FF" opacity="0.06"/><circle cx="62" cy="99" r="2.8" fill="#CBE3FF" opacity="0.19"/><circle cx="126" cy="80" r="2.8" fill="#CBE3FF" opacity="0.12"/><circle cx="74" cy="133" r="2.4" fill="#CBE3FF" opacity="0.06"/><circle cx="474" cy="77" r="1.5" fill="#CBE3FF" opacity="0.16"/><circle cx="496" cy="158" r="1.4" fill="#CBE3FF" opacity="0.20"/><circle cx="405" cy="29" r="2.7" fill="#CBE3FF" opacity="0.05"/><circle cx="678" cy="91" r="1.7" fill="#CBE3FF" opacity="0.15"/><circle cx="46" cy="97" r="1.0" fill="#CBE3FF" opacity="0.19"/><circle cx="273" cy="49" r="1.2" fill="#CBE3FF" opacity="0.14"/><circle cx="626" cy="130" r="1.3" fill="#CBE3FF" opacity="0.19"/><circle cx="95" cy="126" r="1.1" fill="#CBE3FF" opacity="0.14"/><circle cx="426" cy="151" r="1.5" fill="#CBE3FF" opacity="0.14"/><circle cx="134" cy="83" r="1.1" fill="#CBE3FF" opacity="0.17"/><circle cx="767" cy="144" r="1.9" fill="#CBE3FF" opacity="0.07"/><circle cx="368" cy="127" r="1.0" fill="#CBE3FF" opacity="0.18"/><circle cx="59" cy="20" r="2.5" fill="#CBE3FF" opacity="0.09"/><circle cx="739" cy="88" r="2.2" fill="#CBE3FF" opacity="0.06"/><circle cx="481" cy="91" r="1.9" fill="#CBE3FF" opacity="0.05"/><circle cx="455" cy="118" r="2.8" fill="#CBE3FF" opacity="0.09"/><circle cx="13" cy="150" r="1.8" fill="#CBE3FF" opacity="0.06"/><circle cx="147" cy="20" r="1.2" fill="#CBE3FF" opacity="0.13"/><circle cx="212" cy="90" r="2.2" fill="#CBE3FF" opacity="0.18"/><circle cx="761" cy="146" r="2.6" fill="#CBE3FF" opacity="0.16"/><circle cx="73" cy="31" r="2.1" fill="#CBE3FF" opacity="0.14"/><circle cx="43" cy="123" r="2.7" fill="#CBE3FF" opacity="0.15"/><circle cx="350" cy="18" r="2.5" fill="#CBE3FF" opacity="0.14"/><circle cx="602" cy="58" r="2.7" fill="#CBE3FF" opacity="0.16"/><circle cx="326" cy="50" r="1.3" fill="#CBE3FF" opacity="0.15"/><circle cx="509" cy="76" r="2.3" fill="#CBE3FF" opacity="0.15"/><circle cx="151" cy="80" r="1.7" fill="#CBE3FF" opacity="0.11"/><circle cx="666" cy="143" r="1.7" fill="#CBE3FF" opacity="0.14"/><circle cx="239" cy="50" r="1.7" fill="#CBE3FF" opacity="0.06"/><circle cx="554" cy="76" r="2.7" fill="#CBE3FF" opacity="0.09"/><circle cx="227" cy="134" r="2.3" fill="#CBE3FF" opacity="0.17"/><circle cx="781" cy="110" r="1.2" fill="#CBE3FF" opacity="0.07"/><circle cx="518" cy="67" r="2.0" fill="#CBE3FF" opacity="0.20"/><circle cx="507" cy="106" r="1.6" fill="#CBE3FF" opacity="0.19"/><circle cx="494" cy="39" r="2.4" fill="#CBE3FF" opacity="0.16"/><circle cx="316" cy="95" r="1.3" fill="#CBE3FF" opacity="0.16"/><circle cx="755" cy="162" r="2.0" fill="#CBE3FF" opacity="0.08"/><circle cx="266" cy="78" r="2.1" fill="#CBE3FF" opacity="0.11"/><circle cx="247" cy="158" r="2.7" fill="#CBE3FF" opacity="0.10"/><circle cx="525" cy="75" r="2.0" fill="#CBE3FF" opacity="0.07"/><circle cx="472" cy="166" r="1.5" fill="#CBE3FF" opacity="0.15"/><circle cx="610" cy="80" r="2.5" fill="#CBE3FF" opacity="0.17"/><circle cx="605" cy="79" r="2.3" fill="#CBE3FF" opacity="0.16"/><circle cx="135" cy="151" r="1.9" fill="#CBE3FF" opacity="0.19"/><circle cx="738" cy="140" r="2.5" fill="#CBE3FF" opacity="0.06"/><circle cx="507" cy="28" r="1.5" fill="#CBE3FF" opacity="0.19"/><circle cx="288" cy="162" r="2.2" fill="#CBE3FF" opacity="0.15"/><circle cx="285" cy="115" r="1.0" fill="#CBE3FF" opacity="0.09"/><circle cx="477" cy="31" r="2.1" fill="#CBE3FF" opacity="0.08"/><circle cx="493" cy="21" r="2.4" fill="#CBE3FF" opacity="0.07"/><circle cx="73" cy="139" r="2.5" fill="#CBE3FF" opacity="0.11"/><circle cx="398" cy="38" r="2.6" fill="#CBE3FF" opacity="0.08"/><circle cx="612" cy="76" r="1.6" fill="#CBE3FF" opacity="0.07"/><circle cx="434" cy="40" r="2.1" fill="#CBE3FF" opacity="0.07"/><circle cx="45" cy="153" r="2.2" fill="#CBE3FF" opacity="0.20"/><circle cx="655" cy="51" r="1.7" fill="#CBE3FF" opacity="0.12"/><circle cx="432" cy="57" r="2.3" fill="#CBE3FF" opacity="0.08"/><circle cx="527" cy="25" r="2.4" fill="#CBE3FF" opacity="0.19"/><circle cx="626" cy="139" r="2.6" fill="#CBE3FF" opacity="0.17"/><circle cx="103" cy="53" r="1.0" fill="#CBE3FF" opacity="0.16"/><circle cx="284" cy="98" r="1.9" fill="#CBE3FF" opacity="0.08"/><circle cx="63" cy="101" r="1.3" fill="#CBE3FF" opacity="0.10"/><circle cx="91" cy="147" r="1.2" fill="#CBE3FF" opacity="0.13"/><circle cx="678" cy="82" r="2.8" fill="#CBE3FF" opacity="0.16"/><circle cx="198" cy="120" r="1.4" fill="#CBE3FF" opacity="0.05"/><circle cx="590" cy="157" r="1.5" fill="#CBE3FF" opacity="0.18"/><circle cx="683" cy="91" r="1.7" fill="#CBE3FF" opacity="0.12"/><circle cx="208" cy="29" r="1.8" fill="#CBE3FF" opacity="0.10"/><circle cx="148" cy="57" r="2.3" fill="#CBE3FF" opacity="0.14"/><circle cx="462" cy="156" r="1.0" fill="#CBE3FF" opacity="0.15"/><circle cx="151" cy="141" r="1.3" fill="#CBE3FF" opacity="0.20"/><circle cx="348" cy="101" r="2.0" fill="#CBE3FF" opacity="0.12"/><circle cx="336" cy="61" r="1.5" fill="#CBE3FF" opacity="0.10"/><circle cx="281" cy="99" r="1.2" fill="#CBE3FF" opacity="0.05"/><circle cx="194" cy="65" r="2.7" fill="#CBE3FF" opacity="0.20"/><circle cx="757" cy="25" r="2.4" fill="#CBE3FF" opacity="0.10"/><circle cx="211" cy="25" r="2.4" fill="#CBE3FF" opacity="0.19"/><circle cx="58" cy="34" r="1.6" fill="#CBE3FF" opacity="0.07"/><circle cx="399" cy="23" r="1.1" fill="#CBE3FF" opacity="0.05"/><circle cx="156" cy="54" r="1.2" fill="#CBE3FF" opacity="0.19"/><circle cx="603" cy="111" r="1.6" fill="#CBE3FF" opacity="0.05"/><circle cx="408" cy="159" r="1.0" fill="#CBE3FF" opacity="0.13"/><circle cx="232" cy="46" r="1.1" fill="#CBE3FF" opacity="0.09"/><circle cx="284" cy="51" r="1.4" fill="#CBE3FF" opacity="0.18"/><circle cx="710" cy="66" r="1.5" fill="#CBE3FF" opacity="0.06"/><circle cx="655" cy="89" r="2.5" fill="#CBE3FF" opacity="0.11"/><circle cx="335" cy="42" r="1.3" fill="#CBE3FF" opacity="0.08"/><circle cx="19" cy="36" r="2.5" fill="#CBE3FF" opacity="0.21"/><circle cx="673" cy="55" r="2.6" fill="#CBE3FF" opacity="0.08"/><circle cx="198" cy="160" r="2.5" fill="#CBE3FF" opacity="0.14"/><circle cx="138" cy="165" r="1.2" fill="#CBE3FF" opacity="0.14"/><circle cx="572" cy="117" r="1.5" fill="#CBE3FF" opacity="0.07"/><circle cx="309" cy="68" r="2.3" fill="#CBE3FF" opacity="0.13"/><circle cx="156" cy="145" r="1.4" fill="#CBE3FF" opacity="0.20"/><circle cx="574" cy="44" r="1.8" fill="#CBE3FF" opacity="0.21"/><circle cx="42" cy="161" r="2.1" fill="#CBE3FF" opacity="0.16"/><circle cx="540" cy="91" r="1.3" fill="#CBE3FF" opacity="0.15"/><circle cx="508" cy="98" r="1.9" fill="#CBE3FF" opacity="0.09"/><circle cx="130" cy="141" r="2.6" fill="#CBE3FF" opacity="0.19"/><circle cx="774" cy="146" r="1.8" fill="#CBE3FF" opacity="0.19"/><circle cx="255" cy="49" r="2.4" fill="#CBE3FF" opacity="0.12"/><circle cx="254" cy="126" r="1.7" fill="#CBE3FF" opacity="0.07"/>
  <rect x="311" y="95" width="4" height="9" rx="1.5" fill="#FFD24A" opacity="0.5" transform="rotate(-8 311 95)"/><rect x="518" y="11" width="8" height="9" rx="1.5" fill="#1BB55C" opacity="0.5" transform="rotate(15 518 11)"/><rect x="772" y="119" width="6" height="13" rx="1.5" fill="#1BB55C" opacity="0.5" transform="rotate(-3 772 119)"/><rect x="797" y="82" width="8" height="12" rx="1.5" fill="#1BB55C" opacity="0.5" transform="rotate(-17 797 82)"/><rect x="331" y="97" width="5" height="11" rx="1.5" fill="#FFD24A" opacity="0.5" transform="rotate(6 331 97)"/><rect x="677" y="79" width="4" height="8" rx="1.5" fill="#FFD24A" opacity="0.5" transform="rotate(-3 677 79)"/><rect x="590" y="74" width="6" height="12" rx="1.5" fill="#FFFFFF" opacity="0.5" transform="rotate(-1 590 74)"/><rect x="399" y="49" width="9" height="8" rx="1.5" fill="#FFD24A" opacity="0.5" transform="rotate(24 399 49)"/><rect x="478" y="75" width="7" height="10" rx="1.5" fill="#FFD24A" opacity="0.5" transform="rotate(27 478 75)"/><rect x="2" y="28" width="8" height="11" rx="1.5" fill="#FFFFFF" opacity="0.5" transform="rotate(-8 2 28)"/><rect x="490" y="95" width="4" height="10" rx="1.5" fill="#1BB55C" opacity="0.5" transform="rotate(-7 490 95)"/><rect x="219" y="78" width="9" height="10" rx="1.5" fill="#1BB55C" opacity="0.5" transform="rotate(23 219 78)"/><rect x="614" y="72" width="5" height="13" rx="1.5" fill="#FFFFFF" opacity="0.5" transform="rotate(13 614 72)"/><rect x="123" y="112" width="7" height="9" rx="1.5" fill="#FFD24A" opacity="0.5" transform="rotate(2 123 112)"/><rect x="783" y="19" width="8" height="12" rx="1.5" fill="#FFFFFF" opacity="0.5" transform="rotate(28 783 19)"/><rect x="432" y="45" width="4" height="10" rx="1.5" fill="#FF6A00" opacity="0.5" transform="rotate(-2 432 45)"/><rect x="493" y="84" width="5" height="9" rx="1.5" fill="#FF6A00" opacity="0.5" transform="rotate(-17 493 84)"/><rect x="445" y="36" width="4" height="11" rx="1.5" fill="#1BB55C" opacity="0.5" transform="rotate(26 445 36)"/><rect x="384" y="125" width="6" height="13" rx="1.5" fill="#FF6A00" opacity="0.5" transform="rotate(-1 384 125)"/><rect x="469" y="121" width="7" height="13" rx="1.5" fill="#FF6A00" opacity="0.5" transform="rotate(23 469 121)"/><rect x="198" y="28" width="4" height="9" rx="1.5" fill="#FFD24A" opacity="0.5" transform="rotate(1 198 28)"/><rect x="263" y="120" width="9" height="9" rx="1.5" fill="#1BB55C" opacity="0.5" transform="rotate(-27 263 120)"/><rect x="300" y="82" width="7" height="13" rx="1.5" fill="#FFD24A" opacity="0.5" transform="rotate(23 300 82)"/><rect x="222" y="51" width="4" height="10" rx="1.5" fill="#1BB55C" opacity="0.5" transform="rotate(3 222 51)"/><rect x="94" y="47" width="7" height="8" rx="1.5" fill="#FF6A00" opacity="0.5" transform="rotate(-5 94 47)"/><rect x="769" y="28" width="9" height="10" rx="1.5" fill="#FFFFFF" opacity="0.5" transform="rotate(-15 769 28)"/>
  <path d="M0 268 L800 236 L800 440 L0 440 Z" fill="url(#grass)"/>
  <path d="M0 268 L800 236" stroke="#4FBE82" stroke-opacity="0.35" stroke-width="2"/>
  <line x1="400" y1="252" x2="400" y2="440" stroke="#4FBE82" stroke-opacity="0.25" stroke-width="2"/>
  <circle cx="400" cy="400" r="80" fill="none" stroke="#4FBE82" stroke-opacity="0.22" stroke-width="2"/>
  <rect x="0" y="434" width="800" height="6" fill="#FF6A00"/>
  <text x="38" y="210" font-family="Arial, sans-serif" font-size="150" font-weight="900" fill="#FFFFFF" opacity="0.06">NED</text>
  <text x="762" y="372" text-anchor="end" font-family="Arial, sans-serif" font-size="150" font-weight="900" fill="#FFFFFF" opacity="0.06">JPN</text>
  <rect width="800" height="440" fill="url(#fade)"/>
</svg>