<svg xmlns="http://www.w3.org/2000/svg" width="800" height="440" viewBox="0 0 800 440" role="img" aria-label="POR x COD">
  <defs>
    <linearGradient id="sky" x1="0" y1="0" x2="0" y2="1">
      <stop offset="0" stop-color="#243244"/>
      <stop offset="0.5" stop-color="#16202D"/>
      <stop offset="1" stop-color="#0C141E"/>
    </linearGradient>
    <radialGradient id="lgl" cx="0.16" cy="0.0" r="0.7">
      <stop offset="0" stop-color="#C8102E" stop-opacity="0.7"/>
      <stop offset="1" stop-color="#C8102E" stop-opacity="0"/>
    </radialGradient>
    <radialGradient id="rgl" cx="0.86" cy="0.05" r="0.7">
      <stop offset="0" stop-color="#1F8FE0" stop-opacity="0.62"/>
      <stop offset="1" stop-color="#1F8FE0" stop-opacity="0"/>
    </radialGradient>
    <radialGradient id="spot" cx="0.5" cy="-0.1" r="0.55">
      <stop offset="0" stop-color="#FFFFFF" stop-opacity="0.18"/>
      <stop offset="1" stop-color="#FFFFFF" stop-opacity="0"/>
    </radialGradient>
    <linearGradient id="grass" x1="0" y1="0" x2="0" y2="1">
      <stop offset="0" stop-color="#13502F"/>
      <stop offset="1" stop-color="#0B3520"/>
    </linearGradient>
    <linearGradient id="fade" x1="0" y1="0" x2="0" y2="1">
      <stop offset="0.4" stop-color="#0C141E" stop-opacity="0"/>
      <stop offset="1" stop-color="#0A111A" stop-opacity="0.9"/>
    </linearGradient>
  </defs>
  <rect width="800" height="440" fill="url(#sky)"/>
  <rect width="800" height="440" fill="url(#spot)"/>
  <rect width="800" height="440" fill="url(#lgl)"/>
  <rect width="800" height="440" fill="url(#rgl)"/>
  <circle cx="733" cy="99" r="2.0" fill="#CBE3FF" opacity="0.13"/><circle cx="112" cy="141" r="2.1" fill="#CBE3FF" opacity="0.06"/><circle cx="458" cy="26" r="2.1" fill="#CBE3FF" opacity="0.21"/><circle cx="69" cy="130" r="2.0" fill="#CBE3FF" opacity="0.20"/><circle cx="13" cy="107" r="1.7" fill="#CBE3FF" opacity="0.08"/><circle cx="601" cy="96" r="2.6" fill="#CBE3FF" opacity="0.08"/><circle cx="82" cy="147" r="2.3" fill="#CBE3FF" opacity="0.18"/><circle cx="539" cy="100" r="1.9" fill="#CBE3FF" opacity="0.14"/><circle cx="364" cy="85" r="1.0" fill="#CBE3FF" opacity="0.11"/><circle cx="662" cy="102" r="2.3" fill="#CBE3FF" opacity="0.17"/><circle cx="344" cy="108" r="1.3" fill="#CBE3FF" opacity="0.06"/><circle cx="579" cy="58" r="1.5" fill="#CBE3FF" opacity="0.14"/><circle cx="320" cy="20" r="1.4" fill="#CBE3FF" opacity="0.20"/><circle cx="104" cy="117" r="1.3" fill="#CBE3FF" opacity="0.16"/><circle cx="190" cy="122" r="2.6" fill="#CBE3FF" opacity="0.09"/><circle cx="758" cy="133" r="1.3" fill="#CBE3FF" opacity="0.11"/><circle cx="587" cy="133" r="1.9" fill="#CBE3FF" opacity="0.06"/><circle cx="289" cy="131" r="2.8" fill="#CBE3FF" opacity="0.09"/><circle cx="84" cy="68" r="2.4" fill="#CBE3FF" opacity="0.20"/><circle cx="295" cy="63" r="2.5" fill="#CBE3FF" opacity="0.18"/><circle cx="437" cy="127" r="2.0" fill="#CBE3FF" opacity="0.05"/><circle cx="616" cy="65" r="2.1" fill="#CBE3FF" opacity="0.21"/><circle cx="106" cy="61" r="2.7" fill="#CBE3FF" opacity="0.14"/><circle cx="443" cy="44" r="1.3" fill="#CBE3FF" opacity="0.14"/><circle cx="431" cy="69" r="1.9" fill="#CBE3FF" opacity="0.15"/><circle cx="97" cy="27" r="1.8" fill="#CBE3FF" opacity="0.11"/><circle cx="147" cy="87" r="2.5" fill="#CBE3FF" opacity="0.19"/><circle cx="743" cy="22" r="1.8" fill="#CBE3FF" opacity="0.06"/><circle cx="707" cy="159" r="2.2" fill="#CBE3FF" opacity="0.14"/><circle cx="469" cy="30" r="1.7" fill="#CBE3FF" opacity="0.20"/><circle cx="645" cy="149" r="2.2" fill="#CBE3FF" opacity="0.16"/><circle cx="493" cy="81" r="2.1" fill="#CBE3FF" opacity="0.18"/><circle cx="683" cy="155" r="1.2" fill="#CBE3FF" opacity="0.14"/><circle cx="695" cy="90" r="2.6" fill="#CBE3FF" opacity="0.14"/><circle cx="60" cy="119" r="2.7" fill="#CBE3FF" opacity="0.16"/><circle cx="151" cy="98" r="2.6" fill="#CBE3FF" opacity="0.11"/><circle cx="86" cy="166" r="1.2" fill="#CBE3FF" opacity="0.15"/><circle cx="627" cy="93" r="2.7" fill="#CBE3FF" opacity="0.13"/><circle cx="244" cy="98" r="1.2" fill="#CBE3FF" opacity="0.20"/><circle cx="764" cy="68" r="1.6" fill="#CBE3FF" opacity="0.11"/><circle cx="512" cy="36" r="1.3" fill="#CBE3FF" opacity="0.15"/><circle cx="645" cy="123" r="1.7" fill="#CBE3FF" opacity="0.20"/><circle cx="267" cy="110" r="1.7" fill="#CBE3FF" opacity="0.07"/><circle cx="292" cy="77" r="1.9" fill="#CBE3FF" opacity="0.18"/><circle cx="246" cy="58" r="1.5" fill="#CBE3FF" opacity="0.06"/><circle cx="668" cy="85" r="2.2" fill="#CBE3FF" opacity="0.21"/><circle cx="268" cy="118" r="1.1" fill="#CBE3FF" opacity="0.20"/><circle cx="261" cy="41" r="2.0" fill="#CBE3FF" opacity="0.13"/><circle cx="641" cy="78" r="1.4" fill="#CBE3FF" opacity="0.18"/><circle cx="390" cy="70" r="1.3" fill="#CBE3FF" opacity="0.08"/><circle cx="84" cy="123" r="1.2" fill="#CBE3FF" opacity="0.11"/><circle cx="338" cy="128" r="1.6" fill="#CBE3FF" opacity="0.17"/><circle cx="120" cy="164" r="1.3" fill="#CBE3FF" opacity="0.11"/><circle cx="785" cy="113" r="1.1" fill="#CBE3FF" opacity="0.07"/><circle cx="195" cy="74" r="2.4" fill="#CBE3FF" opacity="0.09"/><circle cx="238" cy="158" r="2.0" fill="#CBE3FF" opacity="0.13"/><circle cx="338" cy="138" r="2.4" fill="#CBE3FF" opacity="0.09"/><circle cx="191" cy="131" r="1.4" fill="#CBE3FF" opacity="0.20"/><circle cx="613" cy="118" r="1.5" fill="#CBE3FF" opacity="0.18"/><circle cx="421" cy="140" r="2.4" fill="#CBE3FF" opacity="0.12"/><circle cx="227" cy="110" r="1.2" fill="#CBE3FF" opacity="0.14"/><circle cx="776" cy="152" r="1.9" fill="#CBE3FF" opacity="0.15"/><circle cx="269" cy="56" r="2.2" fill="#CBE3FF" opacity="0.08"/><circle cx="481" cy="136" r="2.2" fill="#CBE3FF" opacity="0.07"/><circle cx="585" cy="16" r="1.1" fill="#CBE3FF" opacity="0.08"/><circle cx="448" cy="34" r="2.6" fill="#CBE3FF" opacity="0.18"/><circle cx="317" cy="117" r="2.5" fill="#CBE3FF" opacity="0.11"/><circle cx="537" cy="93" r="2.1" fill="#CBE3FF" opacity="0.18"/><circle cx="210" cy="127" r="1.9" fill="#CBE3FF" opacity="0.11"/><circle cx="22" cy="32" r="2.5" fill="#CBE3FF" opacity="0.12"/><circle cx="116" cy="89" r="2.0" fill="#CBE3FF" opacity="0.07"/><circle cx="197" cy="118" r="2.1" fill="#CBE3FF" opacity="0.11"/><circle cx="499" cy="113" r="1.1" fill="#CBE3FF" opacity="0.18"/><circle cx="81" cy="48" r="1.2" fill="#CBE3FF" opacity="0.20"/><circle cx="709" cy="158" r="1.1" fill="#CBE3FF" opacity="0.17"/><circle cx="493" cy="16" r="1.6" fill="#CBE3FF" opacity="0.13"/><circle cx="363" cy="118" r="2.5" fill="#CBE3FF" opacity="0.18"/><circle cx="692" cy="134" r="1.5" fill="#CBE3FF" opacity="0.07"/><circle cx="682" cy="67" r="1.9" fill="#CBE3FF" opacity="0.21"/><circle cx="502" cy="59" r="2.7" fill="#CBE3FF" opacity="0.12"/><circle cx="445" cy="76" r="1.9" fill="#CBE3FF" opacity="0.16"/><circle cx="134" cy="101" r="1.9" fill="#CBE3FF" opacity="0.18"/><circle cx="292" cy="118" r="1.1" fill="#CBE3FF" opacity="0.17"/><circle cx="621" cy="115" r="1.9" fill="#CBE3FF" opacity="0.06"/><circle cx="90" cy="90" r="1.1" fill="#CBE3FF" opacity="0.13"/><circle cx="419" cy="62" r="2.1" fill="#CBE3FF" opacity="0.12"/><circle cx="580" cy="157" r="2.3" fill="#CBE3FF" opacity="0.19"/><circle cx="601" cy="57" r="1.4" fill="#CBE3FF" opacity="0.10"/><circle cx="317" cy="146" r="1.1" fill="#CBE3FF" opacity="0.07"/><circle cx="787" cy="120" r="1.1" fill="#CBE3FF" opacity="0.16"/><circle cx="622" cy="142" r="2.3" fill="#CBE3FF" opacity="0.14"/><circle cx="603" cy="46" r="2.5" fill="#CBE3FF" opacity="0.16"/><circle cx="81" cy="131" r="1.7" fill="#CBE3FF" opacity="0.07"/><circle cx="549" cy="70" r="1.1" fill="#CBE3FF" opacity="0.08"/><circle cx="352" cy="103" r="1.0" fill="#CBE3FF" opacity="0.12"/><circle cx="617" cy="80" r="1.3" fill="#CBE3FF" opacity="0.11"/><circle cx="254" cy="35" r="1.3" fill="#CBE3FF" opacity="0.15"/><circle cx="174" cy="125" r="2.5" fill="#CBE3FF" opacity="0.16"/><circle cx="92" cy="136" r="2.5" fill="#CBE3FF" opacity="0.13"/><circle cx="338" cy="104" r="1.1" fill="#CBE3FF" opacity="0.09"/><circle cx="51" cy="31" r="1.7" fill="#CBE3FF" opacity="0.18"/><circle cx="763" cy="43" r="2.0" fill="#CBE3FF" opacity="0.07"/><circle cx="382" cy="47" r="1.6" fill="#CBE3FF" opacity="0.18"/><circle cx="503" cy="165" r="2.7" fill="#CBE3FF" opacity="0.19"/><circle cx="229" cy="24" r="2.5" fill="#CBE3FF" opacity="0.12"/><circle cx="145" cy="87" r="1.6" fill="#CBE3FF" opacity="0.20"/><circle cx="774" cy="87" r="1.5" fill="#CBE3FF" opacity="0.15"/><circle cx="789" cy="124" r="2.8" fill="#CBE3FF" opacity="0.07"/><circle cx="426" cy="139" r="2.0" fill="#CBE3FF" opacity="0.06"/><circle cx="395" cy="131" r="1.0" fill="#CBE3FF" opacity="0.16"/><circle cx="462" cy="101" r="1.1" fill="#CBE3FF" opacity="0.16"/><circle cx="111" cy="23" r="1.2" fill="#CBE3FF" opacity="0.20"/><circle cx="134" cy="158" r="1.8" fill="#CBE3FF" opacity="0.06"/><circle cx="110" cy="114" r="1.7" fill="#CBE3FF" opacity="0.07"/><circle cx="756" cy="25" r="1.6" fill="#CBE3FF" opacity="0.17"/><circle cx="316" cy="138" r="1.5" fill="#CBE3FF" opacity="0.10"/><circle cx="651" cy="145" r="1.2" fill="#CBE3FF" opacity="0.06"/><circle cx="382" cy="23" r="1.6" fill="#CBE3FF" opacity="0.06"/><circle cx="245" cy="143" r="1.0" fill="#CBE3FF" opacity="0.08"/><circle cx="471" cy="154" r="2.0" fill="#CBE3FF" opacity="0.13"/><circle cx="326" cy="111" r="1.2" fill="#CBE3FF" opacity="0.17"/><circle cx="373" cy="144" r="1.7" fill="#CBE3FF" opacity="0.07"/><circle cx="643" cy="53" r="2.7" fill="#CBE3FF" opacity="0.17"/><circle cx="311" cy="132" r="2.6" fill="#CBE3FF" opacity="0.16"/><circle cx="153" cy="126" r="1.3" fill="#CBE3FF" opacity="0.09"/><circle cx="719" cy="151" r="2.4" fill="#CBE3FF" opacity="0.07"/><circle cx="53" cy="48" r="1.5" fill="#CBE3FF" opacity="0.16"/><circle cx="213" cy="67" r="2.2" fill="#CBE3FF" opacity="0.17"/><circle cx="751" cy="60" r="2.3" fill="#CBE3FF" opacity="0.10"/><circle cx="86" cy="118" r="1.6" fill="#CBE3FF" opacity="0.18"/><circle cx="705" cy="140" r="1.5" fill="#CBE3FF" opacity="0.16"/><circle cx="633" cy="93" r="1.5" fill="#CBE3FF" opacity="0.16"/><circle cx="198" cy="62" r="2.6" fill="#CBE3FF" opacity="0.06"/><circle cx="368" cy="140" r="2.2" fill="#CBE3FF" opacity="0.19"/><circle cx="277" cy="146" r="2.5" fill="#CBE3FF" opacity="0.12"/><circle cx="211" cy="88" r="2.3" fill="#CBE3FF" opacity="0.18"/><circle cx="420" cy="153" r="2.2" fill="#CBE3FF" opacity="0.10"/><circle cx="702" cy="16" r="1.9" fill="#CBE3FF" opacity="0.18"/><circle cx="133" cy="90" r="1.3" fill="#CBE3FF" opacity="0.18"/><circle cx="329" cy="36" r="1.7" fill="#CBE3FF" opacity="0.13"/><circle cx="677" cy="132" r="2.6" fill="#CBE3FF" opacity="0.10"/><circle cx="92" cy="129" r="1.2" fill="#CBE3FF" opacity="0.20"/><circle cx="773" cy="152" r="1.6" fill="#CBE3FF" opacity="0.18"/><circle cx="597" cy="97" r="2.4" fill="#CBE3FF" opacity="0.06"/><circle cx="651" cy="69" r="1.4" fill="#CBE3FF" opacity="0.19"/><circle cx="6" cy="54" r="1.3" fill="#CBE3FF" opacity="0.08"/><circle cx="544" cy="39" r="1.3" fill="#CBE3FF" opacity="0.20"/><circle cx="795" cy="54" r="1.7" fill="#CBE3FF" opacity="0.07"/><circle cx="95" cy="145" r="1.8" fill="#CBE3FF" opacity="0.19"/><circle cx="775" cy="102" r="2.0" fill="#CBE3FF" opacity="0.06"/><circle cx="316" cy="58" r="2.7" fill="#CBE3FF" opacity="0.20"/><circle cx="533" cy="119" r="2.2" fill="#CBE3FF" opacity="0.09"/><circle cx="313" cy="70" r="1.8" fill="#CBE3FF" opacity="0.08"/><circle cx="530" cy="47" r="2.8" fill="#CBE3FF" opacity="0.16"/><circle cx="20" cy="24" r="1.7" fill="#CBE3FF" opacity="0.09"/><circle cx="98" cy="17" r="1.6" fill="#CBE3FF" opacity="0.13"/><circle cx="627" cy="137" r="2.6" fill="#CBE3FF" opacity="0.09"/><circle cx="633" cy="116" r="2.1" fill="#CBE3FF" opacity="0.12"/><circle cx="770" cy="69" r="1.4" fill="#CBE3FF" opacity="0.08"/><circle cx="562" cy="154" r="2.6" fill="#CBE3FF" opacity="0.15"/><circle cx="349" cy="87" r="1.9" fill="#CBE3FF" opacity="0.19"/><circle cx="67" cy="56" r="2.8" fill="#CBE3FF" opacity="0.05"/><circle cx="564" cy="55" r="2.1" fill="#CBE3FF" opacity="0.09"/><circle cx="348" cy="91" r="1.8" fill="#CBE3FF" opacity="0.09"/><circle cx="82" cy="50" r="2.4" fill="#CBE3FF" opacity="0.15"/><circle cx="329" cy="73" r="1.3" fill="#CBE3FF" opacity="0.15"/><circle cx="31" cy="37" r="2.5" fill="#CBE3FF" opacity="0.15"/><circle cx="183" cy="125" r="2.6" fill="#CBE3FF" opacity="0.17"/><circle cx="348" cy="34" r="2.3" fill="#CBE3FF" opacity="0.10"/><circle cx="564" cy="98" r="1.1" fill="#CBE3FF" opacity="0.15"/>
  <rect x="613" y="104" width="8" height="8" rx="1.5" fill="#FFFFFF" opacity="0.5" transform="rotate(-2 613 104)"/><rect x="173" y="52" width="8" height="10" rx="1.5" fill="#FFD24A" opacity="0.5" transform="rotate(-7 173 52)"/><rect x="363" y="127" width="4" height="14" rx="1.5" fill="#1BB55C" opacity="0.5" transform="rotate(13 363 127)"/><rect x="608" y="17" width="5" height="8" rx="1.5" fill="#FFFFFF" opacity="0.5" transform="rotate(29 608 17)"/><rect x="140" y="85" width="5" height="13" rx="1.5" fill="#FFFFFF" opacity="0.5" transform="rotate(-23 140 85)"/><rect x="469" y="81" width="8" height="10" rx="1.5" fill="#FF6A00" opacity="0.5" transform="rotate(-11 469 81)"/><rect x="233" y="28" width="4" height="10" rx="1.5" fill="#FF6A00" opacity="0.5" transform="rotate(10 233 28)"/><rect x="6" y="116" width="5" height="9" rx="1.5" fill="#FFFFFF" opacity="0.5" transform="rotate(-8 6 116)"/><rect x="190" y="36" width="7" height="9" rx="1.5" fill="#FFFFFF" opacity="0.5" transform="rotate(-19 190 36)"/><rect x="788" y="27" width="4" height="15" rx="1.5" fill="#FFD24A" opacity="0.5" transform="rotate(-21 788 27)"/><rect x="799" y="120" width="8" height="9" rx="1.5" fill="#FFFFFF" opacity="0.5" transform="rotate(-20 799 120)"/><rect x="431" y="15" width="6" height="12" rx="1.5" fill="#1BB55C" opacity="0.5" transform="rotate(11 431 15)"/><rect x="316" y="83" width="7" height="14" rx="1.5" fill="#FFD24A" opacity="0.5" transform="rotate(-30 316 83)"/><rect x="302" y="83" width="5" height="14" rx="1.5" fill="#FFFFFF" opacity="0.5" transform="rotate(-9 302 83)"/><rect x="520" y="46" width="6" height="9" rx="1.5" fill="#FFD24A" opacity="0.5" transform="rotate(-6 520 46)"/><rect x="738" y="87" width="5" height="15" rx="1.5" fill="#FFFFFF" opacity="0.5" transform="rotate(5 738 87)"/><rect x="555" y="23" width="5" height="9" rx="1.5" fill="#1BB55C" opacity="0.5" transform="rotate(-11 555 23)"/><rect x="112" y="32" width="6" height="14" rx="1.5" fill="#FF6A00" opacity="0.5" transform="rotate(-12 112 32)"/><rect x="529" y="70" width="9" height="13" rx="1.5" fill="#FFD24A" opacity="0.5" transform="rotate(1 529 70)"/><rect x="239" y="66" width="8" height="12" rx="1.5" fill="#1BB55C" opacity="0.5" transform="rotate(30 239 66)"/><rect x="264" y="24" width="5" height="13" rx="1.5" fill="#FFFFFF" opacity="0.5" transform="rotate(-13 264 24)"/><rect x="709" y="74" width="6" height="11" rx="1.5" fill="#FFD24A" opacity="0.5" transform="rotate(-22 709 74)"/><rect x="325" y="50" width="6" height="14" rx="1.5" fill="#1BB55C" opacity="0.5" transform="rotate(-8 325 50)"/><rect x="798" y="105" width="6" height="12" rx="1.5" fill="#FF6A00" opacity="0.5" transform="rotate(-18 798 105)"/><rect x="650" y="31" width="5" height="12" rx="1.5" fill="#FF6A00" opacity="0.5" transform="rotate(3 650 31)"/><rect x="651" y="83" width="5" height="11" rx="1.5" fill="#FFD24A" opacity="0.5" transform="rotate(3 651 83)"/>
  <path d="M0 268 L800 236 L800 440 L0 440 Z" fill="url(#grass)"/>
  <path d="M0 268 L800 236" stroke="#4FBE82" stroke-opacity="0.35" stroke-width="2"/>
  <line x1="400" y1="252" x2="400" y2="440" stroke="#4FBE82" stroke-opacity="0.25" stroke-width="2"/>
  <circle cx="400" cy="400" r="80" fill="none" stroke="#4FBE82" stroke-opacity="0.22" stroke-width="2"/>
  <rect x="0" y="434" width="800" height="6" fill="#FF6A00"/>
  <text x="38" y="210" font-family="Arial, sans-serif" font-size="150" font-weight="900" fill="#FFFFFF" opacity="0.06">POR</text>
  <text x="762" y="372" text-anchor="end" font-family="Arial, sans-serif" font-size="150" font-weight="900" fill="#FFFFFF" opacity="0.06">COD</text>
  <rect width="800" height="440" fill="url(#fade)"/>
</svg>