<svg xmlns="http://www.w3.org/2000/svg" width="800" height="440" viewBox="0 0 800 440" role="img" aria-label="POR x UZB">
  <defs>
    <linearGradient id="sky" x1="0" y1="0" x2="0" y2="1">
      <stop offset="0" stop-color="#243244"/>
      <stop offset="0.5" stop-color="#16202D"/>
      <stop offset="1" stop-color="#0C141E"/>
    </linearGradient>
    <radialGradient id="lgl" cx="0.16" cy="0.0" r="0.7">
      <stop offset="0" stop-color="#C8102E" stop-opacity="0.7"/>
      <stop offset="1" stop-color="#C8102E" stop-opacity="0"/>
    </radialGradient>
    <radialGradient id="rgl" cx="0.86" cy="0.05" r="0.7">
      <stop offset="0" stop-color="#1B8FD0" stop-opacity="0.62"/>
      <stop offset="1" stop-color="#1B8FD0" stop-opacity="0"/>
    </radialGradient>
    <radialGradient id="spot" cx="0.5" cy="-0.1" r="0.55">
      <stop offset="0" stop-color="#FFFFFF" stop-opacity="0.18"/>
      <stop offset="1" stop-color="#FFFFFF" stop-opacity="0"/>
    </radialGradient>
    <linearGradient id="grass" x1="0" y1="0" x2="0" y2="1">
      <stop offset="0" stop-color="#13502F"/>
      <stop offset="1" stop-color="#0B3520"/>
    </linearGradient>
    <linearGradient id="fade" x1="0" y1="0" x2="0" y2="1">
      <stop offset="0.4" stop-color="#0C141E" stop-opacity="0"/>
      <stop offset="1" stop-color="#0A111A" stop-opacity="0.9"/>
    </linearGradient>
  </defs>
  <rect width="800" height="440" fill="url(#sky)"/>
  <rect width="800" height="440" fill="url(#spot)"/>
  <rect width="800" height="440" fill="url(#lgl)"/>
  <rect width="800" height="440" fill="url(#rgl)"/>
  <circle cx="213" cy="88" r="1.9" fill="#CBE3FF" opacity="0.08"/><circle cx="500" cy="65" r="1.7" fill="#CBE3FF" opacity="0.06"/><circle cx="252" cy="153" r="2.4" fill="#CBE3FF" opacity="0.18"/><circle cx="750" cy="78" r="2.2" fill="#CBE3FF" opacity="0.07"/><circle cx="501" cy="101" r="2.0" fill="#CBE3FF" opacity="0.17"/><circle cx="481" cy="143" r="2.1" fill="#CBE3FF" opacity="0.16"/><circle cx="450" cy="75" r="2.4" fill="#CBE3FF" opacity="0.17"/><circle cx="62" cy="30" r="1.8" fill="#CBE3FF" opacity="0.07"/><circle cx="103" cy="97" r="1.4" fill="#CBE3FF" opacity="0.17"/><circle cx="260" cy="123" r="2.1" fill="#CBE3FF" opacity="0.18"/><circle cx="70" cy="163" r="1.1" fill="#CBE3FF" opacity="0.11"/><circle cx="606" cy="84" r="2.5" fill="#CBE3FF" opacity="0.12"/><circle cx="671" cy="23" r="1.6" fill="#CBE3FF" opacity="0.16"/><circle cx="326" cy="58" r="2.6" fill="#CBE3FF" opacity="0.20"/><circle cx="463" cy="125" r="2.2" fill="#CBE3FF" opacity="0.08"/><circle cx="252" cy="53" r="2.5" fill="#CBE3FF" opacity="0.21"/><circle cx="619" cy="54" r="2.1" fill="#CBE3FF" opacity="0.19"/><circle cx="143" cy="20" r="2.4" fill="#CBE3FF" opacity="0.11"/><circle cx="614" cy="98" r="2.6" fill="#CBE3FF" opacity="0.07"/><circle cx="633" cy="31" r="1.6" fill="#CBE3FF" opacity="0.14"/><circle cx="699" cy="73" r="2.6" fill="#CBE3FF" opacity="0.05"/><circle cx="25" cy="65" r="2.4" fill="#CBE3FF" opacity="0.08"/><circle cx="489" cy="118" r="1.5" fill="#CBE3FF" opacity="0.07"/><circle cx="709" cy="150" r="2.2" fill="#CBE3FF" opacity="0.09"/><circle cx="369" cy="162" r="1.0" fill="#CBE3FF" opacity="0.09"/><circle cx="475" cy="63" r="1.9" fill="#CBE3FF" opacity="0.18"/><circle cx="235" cy="160" r="1.3" fill="#CBE3FF" opacity="0.18"/><circle cx="69" cy="55" r="1.8" fill="#CBE3FF" opacity="0.13"/><circle cx="171" cy="124" r="1.5" fill="#CBE3FF" opacity="0.09"/><circle cx="271" cy="159" r="2.1" fill="#CBE3FF" opacity="0.07"/><circle cx="392" cy="138" r="1.2" fill="#CBE3FF" opacity="0.13"/><circle cx="469" cy="149" r="1.6" fill="#CBE3FF" opacity="0.16"/><circle cx="292" cy="149" r="2.0" fill="#CBE3FF" opacity="0.10"/><circle cx="153" cy="74" r="2.5" fill="#CBE3FF" opacity="0.11"/><circle cx="736" cy="151" r="1.6" fill="#CBE3FF" opacity="0.16"/><circle cx="241" cy="56" r="2.5" fill="#CBE3FF" opacity="0.05"/><circle cx="137" cy="45" r="2.1" fill="#CBE3FF" opacity="0.20"/><circle cx="683" cy="19" r="1.2" fill="#CBE3FF" opacity="0.17"/><circle cx="230" cy="27" r="2.4" fill="#CBE3FF" opacity="0.06"/><circle cx="102" cy="99" r="1.6" fill="#CBE3FF" opacity="0.21"/><circle cx="339" cy="138" r="1.5" fill="#CBE3FF" opacity="0.09"/><circle cx="392" cy="127" r="2.4" fill="#CBE3FF" opacity="0.07"/><circle cx="587" cy="106" r="2.1" fill="#CBE3FF" opacity="0.07"/><circle cx="307" cy="144" r="2.1" fill="#CBE3FF" opacity="0.16"/><circle cx="73" cy="54" r="2.2" fill="#CBE3FF" opacity="0.19"/><circle cx="268" cy="36" r="1.4" fill="#CBE3FF" opacity="0.08"/><circle cx="268" cy="29" r="2.2" fill="#CBE3FF" opacity="0.16"/><circle cx="417" cy="57" r="2.7" fill="#CBE3FF" opacity="0.05"/><circle cx="66" cy="55" r="2.0" fill="#CBE3FF" opacity="0.19"/><circle cx="784" cy="72" r="2.5" fill="#CBE3FF" opacity="0.09"/><circle cx="615" cy="37" r="2.1" fill="#CBE3FF" opacity="0.11"/><circle cx="61" cy="136" r="2.0" fill="#CBE3FF" opacity="0.12"/><circle cx="351" cy="43" r="2.5" fill="#CBE3FF" opacity="0.20"/><circle cx="296" cy="140" r="2.5" fill="#CBE3FF" opacity="0.11"/><circle cx="472" cy="19" r="2.2" fill="#CBE3FF" opacity="0.14"/><circle cx="701" cy="152" r="2.3" fill="#CBE3FF" opacity="0.18"/><circle cx="60" cy="32" r="1.1" fill="#CBE3FF" opacity="0.21"/><circle cx="145" cy="141" r="1.3" fill="#CBE3FF" opacity="0.07"/><circle cx="661" cy="88" r="1.4" fill="#CBE3FF" opacity="0.10"/><circle cx="193" cy="64" r="1.5" fill="#CBE3FF" opacity="0.16"/><circle cx="203" cy="136" r="2.0" fill="#CBE3FF" opacity="0.14"/><circle cx="282" cy="54" r="2.0" fill="#CBE3FF" opacity="0.12"/><circle cx="270" cy="110" r="1.1" fill="#CBE3FF" opacity="0.06"/><circle cx="449" cy="147" r="1.1" fill="#CBE3FF" opacity="0.06"/><circle cx="297" cy="106" r="2.3" fill="#CBE3FF" opacity="0.17"/><circle cx="717" cy="74" r="1.7" fill="#CBE3FF" opacity="0.17"/><circle cx="348" cy="88" r="2.6" fill="#CBE3FF" opacity="0.18"/><circle cx="379" cy="79" r="1.0" fill="#CBE3FF" opacity="0.13"/><circle cx="17" cy="163" r="1.3" fill="#CBE3FF" opacity="0.09"/><circle cx="356" cy="162" r="2.4" fill="#CBE3FF" opacity="0.06"/><circle cx="665" cy="73" r="2.3" fill="#CBE3FF" opacity="0.14"/><circle cx="315" cy="30" r="1.6" fill="#CBE3FF" opacity="0.15"/><circle cx="318" cy="111" r="1.1" fill="#CBE3FF" opacity="0.16"/><circle cx="449" cy="157" r="2.3" fill="#CBE3FF" opacity="0.10"/><circle cx="494" cy="33" r="1.4" fill="#CBE3FF" opacity="0.07"/><circle cx="789" cy="107" r="2.3" fill="#CBE3FF" opacity="0.15"/><circle cx="420" cy="119" r="1.6" fill="#CBE3FF" opacity="0.17"/><circle cx="146" cy="25" r="1.4" fill="#CBE3FF" opacity="0.09"/><circle cx="291" cy="158" r="1.1" fill="#CBE3FF" opacity="0.08"/><circle cx="3" cy="55" r="1.9" fill="#CBE3FF" opacity="0.12"/><circle cx="711" cy="51" r="1.0" fill="#CBE3FF" opacity="0.16"/><circle cx="375" cy="92" r="1.4" fill="#CBE3FF" opacity="0.12"/><circle cx="468" cy="30" r="1.5" fill="#CBE3FF" opacity="0.11"/><circle cx="193" cy="144" r="1.4" fill="#CBE3FF" opacity="0.20"/><circle cx="464" cy="104" r="2.3" fill="#CBE3FF" opacity="0.18"/><circle cx="30" cy="119" r="2.7" fill="#CBE3FF" opacity="0.13"/><circle cx="608" cy="122" r="1.6" fill="#CBE3FF" opacity="0.08"/><circle cx="641" cy="81" r="2.7" fill="#CBE3FF" opacity="0.16"/><circle cx="668" cy="104" r="1.8" fill="#CBE3FF" opacity="0.11"/><circle cx="458" cy="153" r="1.8" fill="#CBE3FF" opacity="0.09"/><circle cx="36" cy="158" r="1.2" fill="#CBE3FF" opacity="0.06"/><circle cx="4" cy="93" r="1.5" fill="#CBE3FF" opacity="0.19"/><circle cx="130" cy="50" r="1.7" fill="#CBE3FF" opacity="0.06"/><circle cx="238" cy="133" r="1.2" fill="#CBE3FF" opacity="0.13"/><circle cx="402" cy="156" r="2.1" fill="#CBE3FF" opacity="0.09"/><circle cx="507" cy="89" r="2.3" fill="#CBE3FF" opacity="0.05"/><circle cx="86" cy="77" r="2.3" fill="#CBE3FF" opacity="0.11"/><circle cx="118" cy="161" r="1.6" fill="#CBE3FF" opacity="0.16"/><circle cx="787" cy="29" r="2.0" fill="#CBE3FF" opacity="0.12"/><circle cx="541" cy="126" r="2.2" fill="#CBE3FF" opacity="0.18"/><circle cx="402" cy="100" r="1.0" fill="#CBE3FF" opacity="0.10"/><circle cx="742" cy="89" r="1.6" fill="#CBE3FF" opacity="0.11"/><circle cx="132" cy="66" r="1.6" fill="#CBE3FF" opacity="0.20"/><circle cx="325" cy="134" r="2.3" fill="#CBE3FF" opacity="0.05"/><circle cx="46" cy="89" r="2.3" fill="#CBE3FF" opacity="0.14"/><circle cx="72" cy="69" r="2.0" fill="#CBE3FF" opacity="0.13"/><circle cx="758" cy="40" r="1.0" fill="#CBE3FF" opacity="0.18"/><circle cx="782" cy="159" r="2.4" fill="#CBE3FF" opacity="0.17"/><circle cx="521" cy="152" r="2.2" fill="#CBE3FF" opacity="0.12"/><circle cx="313" cy="20" r="1.4" fill="#CBE3FF" opacity="0.13"/><circle cx="738" cy="153" r="1.1" fill="#CBE3FF" opacity="0.20"/><circle cx="658" cy="147" r="2.4" fill="#CBE3FF" opacity="0.09"/><circle cx="375" cy="123" r="1.9" fill="#CBE3FF" opacity="0.07"/><circle cx="15" cy="82" r="2.2" fill="#CBE3FF" opacity="0.12"/><circle cx="410" cy="90" r="1.3" fill="#CBE3FF" opacity="0.18"/><circle cx="186" cy="151" r="2.2" fill="#CBE3FF" opacity="0.14"/><circle cx="241" cy="103" r="1.0" fill="#CBE3FF" opacity="0.11"/><circle cx="131" cy="27" r="1.6" fill="#CBE3FF" opacity="0.17"/><circle cx="232" cy="40" r="1.4" fill="#CBE3FF" opacity="0.16"/><circle cx="433" cy="118" r="1.2" fill="#CBE3FF" opacity="0.05"/><circle cx="681" cy="79" r="2.1" fill="#CBE3FF" opacity="0.14"/><circle cx="437" cy="41" r="2.2" fill="#CBE3FF" opacity="0.08"/><circle cx="388" cy="165" r="1.9" fill="#CBE3FF" opacity="0.17"/><circle cx="337" cy="52" r="1.0" fill="#CBE3FF" opacity="0.13"/><circle cx="725" cy="132" r="2.2" fill="#CBE3FF" opacity="0.11"/><circle cx="351" cy="21" r="1.0" fill="#CBE3FF" opacity="0.19"/><circle cx="566" cy="67" r="1.8" fill="#CBE3FF" opacity="0.13"/><circle cx="661" cy="98" r="2.5" fill="#CBE3FF" opacity="0.11"/><circle cx="401" cy="86" r="1.2" fill="#CBE3FF" opacity="0.20"/><circle cx="137" cy="119" r="2.7" fill="#CBE3FF" opacity="0.19"/><circle cx="489" cy="124" r="1.5" fill="#CBE3FF" opacity="0.07"/><circle cx="534" cy="78" r="2.1" fill="#CBE3FF" opacity="0.19"/><circle cx="796" cy="120" r="2.4" fill="#CBE3FF" opacity="0.14"/><circle cx="269" cy="64" r="1.5" fill="#CBE3FF" opacity="0.15"/><circle cx="763" cy="44" r="2.0" fill="#CBE3FF" opacity="0.20"/><circle cx="18" cy="72" r="2.0" fill="#CBE3FF" opacity="0.19"/><circle cx="32" cy="145" r="2.6" fill="#CBE3FF" opacity="0.13"/><circle cx="643" cy="77" r="2.4" fill="#CBE3FF" opacity="0.19"/><circle cx="693" cy="165" r="2.5" fill="#CBE3FF" opacity="0.10"/><circle cx="686" cy="79" r="1.1" fill="#CBE3FF" opacity="0.12"/><circle cx="442" cy="142" r="2.5" fill="#CBE3FF" opacity="0.06"/><circle cx="468" cy="46" r="2.3" fill="#CBE3FF" opacity="0.13"/><circle cx="278" cy="83" r="1.2" fill="#CBE3FF" opacity="0.10"/><circle cx="635" cy="145" r="1.1" fill="#CBE3FF" opacity="0.13"/><circle cx="241" cy="131" r="2.4" fill="#CBE3FF" opacity="0.09"/><circle cx="489" cy="137" r="1.1" fill="#CBE3FF" opacity="0.10"/><circle cx="70" cy="113" r="2.3" fill="#CBE3FF" opacity="0.13"/><circle cx="631" cy="16" r="1.7" fill="#CBE3FF" opacity="0.11"/><circle cx="153" cy="73" r="2.2" fill="#CBE3FF" opacity="0.20"/><circle cx="600" cy="123" r="1.6" fill="#CBE3FF" opacity="0.10"/><circle cx="506" cy="82" r="1.2" fill="#CBE3FF" opacity="0.19"/><circle cx="693" cy="120" r="2.3" fill="#CBE3FF" opacity="0.18"/><circle cx="21" cy="43" r="1.2" fill="#CBE3FF" opacity="0.15"/><circle cx="48" cy="65" r="2.4" fill="#CBE3FF" opacity="0.19"/><circle cx="513" cy="59" r="1.7" fill="#CBE3FF" opacity="0.11"/><circle cx="477" cy="47" r="2.7" fill="#CBE3FF" opacity="0.09"/><circle cx="523" cy="60" r="2.4" fill="#CBE3FF" opacity="0.12"/><circle cx="213" cy="57" r="2.0" fill="#CBE3FF" opacity="0.13"/><circle cx="592" cy="41" r="2.4" fill="#CBE3FF" opacity="0.19"/><circle cx="739" cy="87" r="2.5" fill="#CBE3FF" opacity="0.21"/><circle cx="239" cy="129" r="2.4" fill="#CBE3FF" opacity="0.08"/><circle cx="267" cy="80" r="1.7" fill="#CBE3FF" opacity="0.11"/><circle cx="743" cy="78" r="2.7" fill="#CBE3FF" opacity="0.15"/><circle cx="237" cy="46" r="1.2" fill="#CBE3FF" opacity="0.15"/><circle cx="451" cy="70" r="2.2" fill="#CBE3FF" opacity="0.18"/><circle cx="526" cy="17" r="2.5" fill="#CBE3FF" opacity="0.08"/><circle cx="210" cy="140" r="2.3" fill="#CBE3FF" opacity="0.15"/><circle cx="453" cy="40" r="2.1" fill="#CBE3FF" opacity="0.09"/><circle cx="557" cy="75" r="1.9" fill="#CBE3FF" opacity="0.09"/><circle cx="263" cy="146" r="1.2" fill="#CBE3FF" opacity="0.21"/>
  <rect x="93" y="96" width="7" height="13" rx="1.5" fill="#FFD24A" opacity="0.5" transform="rotate(27 93 96)"/><rect x="798" y="55" width="6" height="9" rx="1.5" fill="#FFD24A" opacity="0.5" transform="rotate(3 798 55)"/><rect x="245" y="86" width="5" height="9" rx="1.5" fill="#1BB55C" opacity="0.5" transform="rotate(-10 245 86)"/><rect x="783" y="80" width="9" height="10" rx="1.5" fill="#FFD24A" opacity="0.5" transform="rotate(14 783 80)"/><rect x="509" y="27" width="6" height="12" rx="1.5" fill="#FFD24A" opacity="0.5" transform="rotate(1 509 27)"/><rect x="401" y="27" width="7" height="11" rx="1.5" fill="#1BB55C" opacity="0.5" transform="rotate(1 401 27)"/><rect x="631" y="45" width="8" height="11" rx="1.5" fill="#1BB55C" opacity="0.5" transform="rotate(-10 631 45)"/><rect x="723" y="27" width="5" height="10" rx="1.5" fill="#FFFFFF" opacity="0.5" transform="rotate(25 723 27)"/><rect x="541" y="38" width="8" height="14" rx="1.5" fill="#FFD24A" opacity="0.5" transform="rotate(-2 541 38)"/><rect x="555" y="54" width="6" height="15" rx="1.5" fill="#FFD24A" opacity="0.5" transform="rotate(24 555 54)"/><rect x="294" y="56" width="6" height="14" rx="1.5" fill="#FFD24A" opacity="0.5" transform="rotate(-17 294 56)"/><rect x="507" y="114" width="5" height="14" rx="1.5" fill="#1BB55C" opacity="0.5" transform="rotate(-2 507 114)"/><rect x="46" y="108" width="7" height="9" rx="1.5" fill="#FFD24A" opacity="0.5" transform="rotate(-4 46 108)"/><rect x="705" y="47" width="6" height="11" rx="1.5" fill="#FFFFFF" opacity="0.5" transform="rotate(12 705 47)"/><rect x="730" y="45" width="7" height="11" rx="1.5" fill="#FFFFFF" opacity="0.5" transform="rotate(23 730 45)"/><rect x="228" y="34" width="7" height="13" rx="1.5" fill="#FFD24A" opacity="0.5" transform="rotate(-25 228 34)"/><rect x="493" y="97" width="7" height="13" rx="1.5" fill="#FFD24A" opacity="0.5" transform="rotate(17 493 97)"/><rect x="163" y="84" width="7" height="10" rx="1.5" fill="#FF6A00" opacity="0.5" transform="rotate(7 163 84)"/><rect x="655" y="97" width="4" height="9" rx="1.5" fill="#1BB55C" opacity="0.5" transform="rotate(21 655 97)"/><rect x="721" y="33" width="7" height="11" rx="1.5" fill="#FFD24A" opacity="0.5" transform="rotate(-16 721 33)"/><rect x="11" y="16" width="7" height="11" rx="1.5" fill="#FFD24A" opacity="0.5" transform="rotate(-15 11 16)"/><rect x="513" y="60" width="9" height="11" rx="1.5" fill="#1BB55C" opacity="0.5" transform="rotate(6 513 60)"/><rect x="583" y="37" width="5" height="13" rx="1.5" fill="#1BB55C" opacity="0.5" transform="rotate(-17 583 37)"/><rect x="292" y="106" width="7" height="10" rx="1.5" fill="#1BB55C" opacity="0.5" transform="rotate(-22 292 106)"/><rect x="701" y="55" width="8" height="14" rx="1.5" fill="#1BB55C" opacity="0.5" transform="rotate(8 701 55)"/><rect x="787" y="117" width="5" height="14" rx="1.5" fill="#FF6A00" opacity="0.5" transform="rotate(-17 787 117)"/>
  <path d="M0 268 L800 236 L800 440 L0 440 Z" fill="url(#grass)"/>
  <path d="M0 268 L800 236" stroke="#4FBE82" stroke-opacity="0.35" stroke-width="2"/>
  <line x1="400" y1="252" x2="400" y2="440" stroke="#4FBE82" stroke-opacity="0.25" stroke-width="2"/>
  <circle cx="400" cy="400" r="80" fill="none" stroke="#4FBE82" stroke-opacity="0.22" stroke-width="2"/>
  <rect x="0" y="434" width="800" height="6" fill="#FF6A00"/>
  <text x="38" y="210" font-family="Arial, sans-serif" font-size="150" font-weight="900" fill="#FFFFFF" opacity="0.06">POR</text>
  <text x="762" y="372" text-anchor="end" font-family="Arial, sans-serif" font-size="150" font-weight="900" fill="#FFFFFF" opacity="0.06">UZB</text>
  <rect width="800" height="440" fill="url(#fade)"/>
</svg>